<?xml version="1.0" encoding="utf-8" ?>
<svg baseProfile="full" height="300mm" version="1.1" viewBox="0,0,200,300" width="200mm" xmlns="http://www.w3.org/2000/svg" xmlns:ev="http://www.w3.org/2001/xml-events" xmlns:xlink="http://www.w3.org/1999/xlink"><defs /><rect fill="#222222" height="300" width="200" x="0" y="0" /><text fill="#FFFFFF" style="font-size:12px; font-family:Arial; font-weight:bold;" x="10" y="20">Over 10km Workouts</text><text fill="#FFFFFF" style="font-size:4px; font-family:Arial" x="10" y="280">ATHLETE</text><text fill="#FFFFFF" style="font-size:9px; font-family:Arial" x="10" y="290">bigeast</text><text fill="#FFFFFF" style="font-size:4px; font-family:Arial" x="120" y="280">STATISTICS</text><text fill="#FFFFFF" style="font-size:3px; font-family:Arial" x="120" y="285">Number: 16</text><text fill="#FFFFFF" style="font-size:3px; font-family:Arial" x="120" y="290">Weekly: 1.2</text><text fill="#FFFFFF" style="font-size:3px; font-family:Arial" x="141" y="285">Total: 315.2 km</text><text fill="#FFFFFF" style="font-size:3px; font-family:Arial" x="141" y="290">Avg: 19.7 km</text><text fill="#FFFFFF" style="font-size:3px; font-family:Arial" x="167" y="285">Min: 10.1 km</text><text fill="#FFFFFF" style="font-size:3px; font-family:Arial" x="167" y="290">Max: 64.4 km</text><polyline fill="none" points="20.552355432882905,60.19296508136904 14.665110283531249,53.63155013381038 14.665110283531249,51.595237584318966 24.015440815128386,40.734813113871496 34.75100549822673,32.70252572448226 39.51274789823219,38.47220541792922 40.03221070533618,42.77115436049644 43.148987548891455,46.50443267083028 47.910729948896915,61.55049223371316 42.02348479954526,67.09370328794466 31.028188712429255,71.3924925752799 14.145647476427257,54.76283255871385 13.799338938202709,52.8396514483029 19.167121279984713,44.24184191413224 35.01073690177873,32.58939431817271 43.755027490668,47.18320860224776 44.447644567117095,52.16088049905375 49.642272640019655,61.211110669595655 49.5556955053471,64.4917928603245 44.96710737468675,67.99871355167124 29.90268596401438,71.73186965554487 13.712761803530157,53.51842180010863 20.37920116400346,43.11054404499009 35.09731403645128,33.38131381274434 43.0624104142189,47.18320860224776 46.87180433422327,50.69020805769833 50.85435252357274,60.532347093569115 50.16173544712365,63.69990533427335 47.044958603102714,66.30181843566243 40.63825064711273,66.75432416523108 34.924159767106175,69.92185683333082 27.824834734667093,71.3924925752799 13.279876131098717,54.53657620656304 20.119469759985805,43.223673906584736 35.87650824710727,32.81565711431904 41.24429058888927,38.92472748865839 43.84160462487489,47.07007932162378 48.17046135291457,50.5770792918629 50.68119825422764,63.47365160594927 38.64697655243799,69.92185683333082 28.344297541771084,71.84499531565234 14.318801745772362,53.97093503578799 20.37920116400346,42.77115436049644 29.123491752892733,36.09646018757485 36.04966251645237,33.26818250626093 41.33086772356182,39.37724929326214 43.148987548891455,46.051915050600655 47.13153573824093,50.80333680653712 50.68119825422764,63.69990533427335 31.72080578887835,71.73186965554487 28.950337483547628,71.61874397849897 13.972493207082152,53.51842180010863 21.504703912883997,41.526724238006864 35.70335397776216,33.04191984370118 41.15771345421672,39.37724929326214 44.53422170178965,49.44579072284978 46.95838146889582,49.55891965463525 50.33488971600309,58.94856309070019 49.38254123646766,62.56863602838712 32.24026859598234,72.75 28.690606079995632,72.4106233678176 13.799338938202709,53.63155013381038 21.67785818176344,41.30046399991261 35.44362257421017,32.4762628954486 40.72482778178528,37.56716047937516 42.45637047244236,45.260008576500695 50.940929657779634,57.59103135520127 50.85435252357274,61.55049223371316 37.521473803557456,70.60061213973677 28.60402894532308,72.07124658633256 14.059070342220366,53.85780675156275 18.301349934656173,45.373138122900855 22.630206661764532,40.847943324188236 35.18389117065817,32.36313145630993 38.30066801421344,37.454029787448235 42.11006193421781,38.245944282913115 43.148987548891455,43.789322965661995 51.72012386843562,57.138520245440304 51.28723819600418,63.92615899629891 39.253016494680196,70.82686377567006 29.556377425324172,71.84499531565234 14.578533149324358,54.19719155400526 17.608732857741416,45.373138122900855 21.504703912883997,40.847943324188236 34.75100549822673,32.25 38.99328509066254,37.68029115500394 43.40871895244345,38.01968308154028 44.27449029777199,47.29633786616614 48.08388421777636,51.14272295398405 50.50804398488253,63.021143950289115 38.56039941776544,69.24310092895757 29.210068887099624,70.03498275915626 13.626184669323266,53.97093503578799 18.734235607553273,44.5812309513567 33.88523415243253,33.04191984370118 36.655702458228916,37.11463761155028 42.369793337769806,37.001506853091996 49.46911837067455,62.22925491287606 40.118787839543074,69.58247895579552 32.9328856728971,70.93998956866562 18.301349934656173,59.40107313828776 14.23222461109981,53.292165082879364 16.05034443642944,49.55891965463525" stroke="#4dd2ff" stroke-linecap="round" stroke-linejoin="round" stroke-width="0.5"><title>2022-05-08 11.2km</title></polyline><polyline fill="none" points="97.4304160688771,55.03964605694637 96.74476327115553,55.15350876181765 96.62274031565175,55.548230865337246 96.111406025826,55.548230865337246 96.06492109037936,55.844270466830494 95.6407460545015,55.74559078786842 95.08292682928732,55.94294995756718 94.5018651362916,55.821498249923025 93.99053084649495,56.117536287860275 93.33393113344209,56.04921996792109 92.64827833572053,55.74559078786842 92.31126255381969,55.95054067984165 92.00911047347472,55.904996329554706 91.61398852223647,55.63172938598291 90.7540172166191,55.4495506217645 90.35308464849368,55.555821645502874 89.88823529411457,55.419187432027684 89.70810616930248,55.5330493016736 89.42338593973545,55.457141416409286 89.23744619797799,55.555821645502874 88.27869440458016,55.479913793689775 87.7731707317289,55.58618475505136 87.46520803443855,55.5330493016736 87.16886657100986,55.69245549817788 86.70401721665985,55.593775529669074 86.37862266859156,55.684864738035685 85.73945480634575,55.297734494921315 85.69296987087,55.48750458389259 85.6348637015908,55.350870189980924 85.05380200859508,55.34327937975468 84.46692969871219,54.88023784916368 84.10086083214264,54.88023784916368 83.64763271162519,54.42478312062667 82.93873744618031,54.27296398680846 82.10781922526076,53.58977237154977 81.96255380203365,53.642909820726345 81.88120516500203,53.52145271384143 81.70107604016084,53.52904379137908 81.49189383070916,53.316493199396064 81.16649928264087,53.29371986987826 80.82367288376554,53.46831513991492 80.67840746053844,53.415177511415095 80.54476327114389,53.57459023320189 80.03923959829262,53.6732740529078 79.63249641319271,53.89341420319397 79.55695839310647,53.80991287715369 79.52790530846687,53.9313693068616 79.43493543757359,53.8782321539511 79.36520803443273,53.97691539450534 79.3419655667094,53.86305010023352 79.26061692970688,53.96932438267686 79.1095408895344,53.78713976481595 78.90616929696989,53.8782321539511 78.71441893829615,53.688456162290095 78.6388809182099,53.75677559949327 78.4064562410058,53.51386163517964 78.51685796267702,53.32408430700525 78.30186513630906,53.331675413501216 78.2611908177787,53.18744419965151 77.8486370157625,53.2329909422042 77.83701578192995,53.11153287298657 77.78472022956703,53.29371986987826 77.66269727400504,53.2557642984284 77.74985652798205,53.4303596965583 77.69175035867374,53.620136634890514 77.2094691535167,53.696047215336876 77.16298421804095,53.506270555426454 77.01190817786846,53.49867947453822 76.93637015781133,53.62772769797448 76.84921090386342,53.57459023320189 76.8840746054193,53.642909820726345 76.73299856524682,53.506270555426454 76.69232424677466,53.61254557072607 76.51800573887886,53.58977237154977 76.18680057386518,53.75677559949327 75.83816355807357,53.620136634890514 75.82654232424102,53.52145271384143 75.66965566715226,53.53663486778896 75.60573888089857,53.316493199396064 74.58888091819244,53.02043913396119 74.10078909609001,52.663653778388834 73.81606886655209,52.6256977446792 73.2873027259484,52.762339335647994 72.5842180774489,52.32204847270259 72.28206599710393,52.39036971426685 72.20071736010141,52.344822229897545 72.24720229551895,52.17781444416323 71.89275466284016,51.934893066096265 71.47439024387859,52.28409218836896 71.28263988520484,52.132266772656294 71.01535150641575,51.60846566820692 70.85846484932699,51.52496065415107 70.53888091820409,51.61605702642191 70.19024390244158,51.30481042564861 69.75444763270207,51.62364838352369 69.6556671448925,51.904527813658206 69.01068866570131,52.04117130934537 68.18558106166893,51.70715323825789 67.7846484935144,51.86657122303586 67.94153515063226,52.35241348008276 67.61614060256397,52.747156954468664 67.73816355809686,53.02043913396119 67.53479196553235,53.74159351011258 67.41276901002857,53.97691539450534 67.04088952651364,54.19705425282518 66.50631276899367,55.49509537296399 66.15767575323116,55.851861203562294 66.1751076040091,56.08717349014114 66.09375896700658,56.13271768004415 66.65738880916615,56.26175933378181 67.313988522219,56.193443204254436 67.7846484935144,55.94294995756718 68.24949784789351,56.003675704498164 68.35989956956473,56.13271768004415 68.52259684359888,56.05681067458863 68.58651362982346,56.155489759988996 68.33665710184141,56.35284736618269 68.17977044475265,56.686835446387704 68.0751793399977,57.53697719529373 67.82532281201566,57.46866274944841 67.73235294118058,57.210585140044714 67.58127690097899,57.24853781039201 67.23263988521649,57.597701071459596 67.47087517930777,57.726739071636985 66.89562410325743,57.88613850995171 67.05832137732068,57.88613850995171 67.06994261115324,58.136622349495156 66.78522238158621,58.26565900574133 66.48888091821573,58.713489610476245 66.33199426109786,58.766621797927655 66.08213773311581,58.538912039086426 65.74512195121497,58.59963473940661 65.60566714487504,58.48577961781848 65.18149210899719,58.69830897547217 65.09433285507839,58.60722507194805 65.12919655666337,58.69830897547217 65.21635581061128,58.54650238051181 64.92582496409887,58.516141008094564 64.61205164989224,59.04746245373826 64.28084648490767,59.26757974008433 64.08909612623393,59.184087086505315 63.85667144905892,58.15180314928148 63.583572453353554,57.66601534691654 63.717216642718995,57.24853781039201 63.42087517931941,56.77792273045634 63.17101865133736,56.60333862845073 63.04899569580448,56.07958278790829 62.828192252491135,56.13271768004415 62.47374461975414,56.45911653463554 62.3110473457491,56.39839132225097 62.24131994260824,56.14789906779697 62.020516499265796,56.0112664178414 61.886872309900355,55.191462941085774 62.04375896696001,54.96373744781158 61.631205164972926,54.89541960439965 61.18378766137175,54.02246144202945 61.41621233857586,53.491088392558595 61.334863701544236,53.38481312775548 60.503945480595576,53.6732740529078 60.14368723097141,53.58977237154977 59.324390243855305,53.81750391234891 58.876972740283236,53.74159351011258 58.10416068864288,53.28612875782346 57.95889526541578,53.05839487804042 57.30229555233382,53.02043913396119 57.25,52.709200982073526 57.4243185078667,52.13985805401899 57.32553802005714,51.874162543383136 57.47080344328424,51.59328294840088 57.36040172164212,51.48700378504145 57.40107604014338,51.15298213600181 57.70322812048835,51.00874484812084 57.72065997126629,50.70508608543605 57.87754662838415,50.58362208127437 57.86592539449339,50.310327029226755 58.42955523668206,50.11294637152969 58.441176470543724,49.64226637938191 58.691032998554874,49.48284154017165 58.458608321350766,48.55664942250951 58.56319942607661,48.23020070731218 58.47022955521243,47.759503584285994 58.64454806310823,47.26602619510959 58.99899569581612,47.14455411572271 59.03967001431738,46.81050442661581 59.28371592538315,46.47645258027114 59.28371592538315,45.97537076577282 59.266284074576106,46.066476911262725 59.068723098986084,46.081661253250786 58.74913916783407,45.8538956554803 58.69684361544205,45.92981763284115 58.417934002849506,45.899448855259834 58.371449067402864,45.73242025991567 58.458608321350766,45.73242025991567 58.441176470543724,45.92981763284115 58.31334289809456,46.112029923839145 58.476040172128705,45.907041051326814 58.894404591061175,45.922225440128386 59.16750358679565,46.089253422534966 59.30114777616109,45.97537076577282 59.33601147774607,46.43849200666227 59.20817790529691,46.65107085997079 59.43479196552653,46.79532029858092 59.88802008604398,46.86364883965143 60.00423242463148,46.96234546183405 60.050717360078124,47.273618190600246 60.19017216638895,47.21288219546477 60.59691535145976,47.41027391886382 60.771233859384665,47.69876815967291 60.83515064558014,48.38962940700003 61.131492109037936,48.54905761532791 61.39878048776882,48.867912557972886 61.31162123385002,49.06529796612449 61.38715925393626,49.21713238297889 61.86944045906421,49.422108138842304 62.12510760399164,49.80928235065221 62.427259684336605,49.86242368297462 62.89210903871572,49.475249868894025 63.44411764704273,49.61949143241873 64.0658536585106,49.96111458388259 64.34476327113225,49.84724045073381 64.67015781920054,49.930748172904714 65.17568149208091,50.166087391899055 65.69863701576833,50.65953711729162 66.22159253942664,50.76581798055486 66.61090387371951,51.20612208805687 67.21520803440944,51.36554161673121 67.64519368720357,51.874162543383136 68.24368723094813,51.66160515240699 69.03974175034091,52.033580013503524 69.30121951218462,51.896936497771094 69.69053084647749,51.904527813658206 69.72539454803336,51.6843792003383 70.02754662837833,51.37313301060203 70.25416068863706,51.289627616730286 70.54469153514947,51.62364838352369 71.01535150641575,51.57810022412377 71.27101865134318,51.904527813658206 71.3233142037061,52.155040613426536 71.49182209468563,52.27650092817203 71.91599713053438,51.919710442125506 72.27044476327137,52.16263189144229 72.28787661404931,52.3827784696623 72.68299856528756,52.29168344745267 73.30473457672633,52.71679217876954 73.86836441891501,52.564968032875186 74.08335724531207,52.6256977446792 74.68185078908573,52.974892204285425 75.40817790530855,53.149488550243404 75.774246771849,53.40758641716093 75.86721664277138,53.60495450545932 76.25652797703515,53.7719576843956 76.47152080343221,53.60495450545932 76.94799139164388,53.620136634890514 77.0583931133151,53.48349730946575 77.19203730270965,53.52145271384143 77.14555236729211,53.688456162290095 77.40121951219044,53.58218130293244 77.66850789095042,53.62772769797448 77.69175035867374,53.46072405346058 77.78472022956703,53.48349730946575 77.65688665708876,53.2557642984284 77.8195839311229,53.103941734185355 77.8486370157625,53.2329909422042 78.1740315638308,53.16467081334849 78.30767575319624,53.21021757593189 78.30767575319624,53.30890209066638 78.51104734576074,53.29371986987826 78.42969870875822,53.4759062252524 78.551721664262,53.65050088042699 78.72022955521243,53.620136634890514 78.87130559538491,53.81750391234891 79.35358680057107,53.89341420319397 79.371018651349,53.99968842328599 80.33558106169221,53.491088392558595 80.39368723097141,53.62772769797448 80.73651362981764,53.36963092925362 80.94569583929842,53.354448726287956 80.99799139169045,53.22539982123999 81.2187948350329,53.2329909422042 82.0961979913991,53.54422594308926 82.54942611188744,53.832685979436064 82.65982783355867,54.0376434489699 83.82776183643728,54.4855106494324 83.78708751793602,54.58419273167601 83.79870875176857,54.44755595227616 83.74641319943476,54.50069252047615 83.8800573888002,54.53864717864781 83.77546628407435,54.57660180896346 83.7638450502127,54.493101585510885 83.7347919655731,54.736010952241486 83.68830703012645,54.52346531871808 83.76965566712897,54.53864717864781 83.64182209467981,54.569010885137686 83.85681492107688,54.62214732859138 83.74060258248937,54.569010885137686 83.78127690101974,54.50069252047615 83.70573888090439,54.53105624925229 83.82776183643728,54.50828345434638 84.07180774750304,54.79673811573957 84.5250358680205,54.80432900615415 85.0189383070392,55.282552857755945 85.14096126257209,55.183872107463685 85.66972740314668,55.32809775593341 85.67553802006296,55.457141416409286 85.71621233859332,55.33568856841157 85.82661406023544,55.33568856841157 86.09390243902453,55.56341242456983 86.70401721665985,55.48750458389259 87.10494978478528,55.64691092071371 87.918436154956,55.472323002366466 89.20258249645121,55.548230865337246 89.87080344333663,55.388824224493874 90.74820659970283,55.44195982601377 91.56169296987355,55.601366303151735 91.94519368725014,55.85945193916996 92.20667144906474,55.904996329554706 92.60179340027389,55.700046257177746 93.1828550932405,55.927768509707676 93.27001434718841,56.05681067458863 93.71743185078958,56.117536287860275 94.39146341462038,55.81390750871651 95.07711621234193,55.95813140098471 95.5535868005827,55.76836303817254 95.9951936872385,55.844270466830494 96.08816355813178,55.57100320251266 96.58787661406677,55.52545851814284 96.698278335738,55.191462941085774 97.62216642755084,54.96373744781158 97.6628407460812,54.379237427277985 97.68608321377542,54.242600106586906 97.75,54.30332784919301 97.68608321377542,54.12114440749065" stroke="#4dd2ff" stroke-linecap="round" stroke-linejoin="round" stroke-width="0.5"><title>2022-05-04 18.6km</title></polyline><polyline fill="none" points="108.31791131856153,61.5090937056375 108.15723453910323,60.965764079242945 107.80752625438618,60.57061305655952 106.04008168022847,60.84227958396514 105.63366394396871,60.58296155410062 102.60915986000327,53.309382672618085 102.32561260211514,52.17321510138572 102.32561260211514,50.91353311987041 102.6280630104593,49.70323266607738 103.36528588098008,48.35706170900812 104.18757292878581,47.44313520543801 105.45408401399618,46.56625044352404 107.4483663943829,45.96107112228492 110.85093348892406,45.849915263519506 111.05886814463884,45.306484506429115 111.04941656935262,44.00964692475827 110.8225787631236,43.58971428011864 110.42561260209186,43.49090629436978 110.17042007000418,43.83673373670899 110.35000000003492,44.17020885255624 111.38967327884166,44.725997774694406 112.40099183190614,44.94831231544231 118.26096849475289,45.0347678114922 119.60309218202019,44.67659446365724 142.75,45.306484506429115 119.52747957990505,44.70129612278106 118.26096849475289,45.07182013977581 112.58057176193688,44.973013894799806 111.59760793461464,44.82480430978467 110.37835472577717,44.269016040401766 110.16096849477617,43.92319037515699 110.35000000003492,43.639118229431915 110.70915985992178,43.65146921222913 110.9832555425819,44.12080521505413 110.89819136518054,45.8005126124699 107.05140023335116,46.0969280835634 105.26505250873743,46.71445696060982 104.04579929984175,47.578989773355715 103.3180280046654,48.369411999156 102.60915986000327,49.59208175153617 102.25,50.91353311987041 102.467386231001,53.124139006758924 105.5769544923678,60.731143383345625 106.1062427071156,61.00280939246295 107.67520420067012,60.731143383345625 107.99655775964493,60.953415637879516 108.16668611433124,61.42265513606981 108.03436406061519,60.978112518823764 107.70355892647058,60.718794907515985 106.02117852971423,60.965764079242945 105.5769544923678,60.669400986196706 102.52409568260191,53.23528525522852 102.27835472574225,52.17321510138572 102.26890315045603,51.02468228865473 102.6280630104593,49.616781967444695 103.23296382732224,48.505265071340546 104.1781213535578,47.504887308954494 105.4635355892824,46.603302097260894 107.07975495915161,46.03517494654079 110.88873978995252,45.8005126124699 111.04941656935262,45.39293963441742 111.00215869309613,44.096103385491006 110.74696616100846,43.60206527016271 110.38780630100518,43.54031030173792 110.16096849477617,43.81203182365425 110.35000000003492,44.23196335853572 111.51254375727149,44.80010268688784 112.46715285879327,44.985364681793726 118.24206534418045,45.084170912254194 119.46131855307613,44.725997774694406 122.712660443387,44.75069941937545 126.77683780627558,44.81245349922392 127.82596266042674,45.01006625028822 142.67438739788486,45.269432281536865 121.24766627768986,44.71364694966178 119.34789964993251,44.71364694966178 118.17590431735152,45.07182013977581 112.54276546090841,44.973013894799806 111.44638273044256,44.76305023898021 110.37835472577717,44.25666514827026 110.19877479574643,43.898488487488066 110.37835472577717,43.61441625842417 110.78477246203693,43.6761711724248 111.00215869309613,44.15785794588737 110.88873978995252,45.751109932447434 107.13646441075252,45.96107112228492 105.13273045507958,46.72680749193387 103.9134772461839,47.677792957707425 103.04393232206348,48.72756962535641 102.58080513420282,49.616781967444695 102.28780630102847,50.83943359242403 102.25,51.963269414198294 102.49574095680146,53.16118777255906 105.55805134185357,60.74349185731262 106.07788798131514,61.015157826615905 107.67520420067012,60.74349185731262 108.13833138853079,61.32386809075979" stroke="#ffe000" stroke-linecap="round" stroke-linejoin="round" stroke-width="0.5"><title>2022-04-23 21.8km</title></polyline><polyline fill="none" points="153.24586206895765,61.38663238532172 153.0037931034458,60.77843852888327 152.69655172416242,60.52299577843223 150.97413793107262,60.76627460621239 150.50862068968127,60.45001199089893 147.38034482760122,52.822851922901464 147.28724137926474,50.91291088984872 147.65034482761985,49.47738483441208 148.115862068953,48.637955534977664 148.9631034482736,47.60386427454068 150.0431034482899,46.8130798981947 151.2068965517683,46.24127726368897 152.5662068965612,45.90062701032002 155.75965517241275,45.82763034525851 155.89931034483016,44.14868930213561 155.66655172413448,43.68636623024213 155.30344827583758,43.61336761468556 155.0706896552001,43.881028890675225 155.2289655172499,44.28251918363094 156.4486206896254,44.85433533370815 157.4448275862378,45.01249655096035 163.00310344825266,45.073327707978024 164.38103448279435,44.6961738146274 187.4613793104072,45.32881807987724 187.69413793104468,45.304485697437485 187.75,45.13415882036497 187.73137931030942,45.292319503561885 172.44379310344812,45.01249655096035 171.54999999998836,44.83000281195564 168.7289655172499,44.793504015979124 164.25068965519313,44.7448389295605 163.01241379312705,45.12199260148918 157.36103448277572,45.00033031422208 156.1600000000326,44.7448389295605 155.23827586206608,44.270352839703264 155.0800000000163,43.929694484351785 155.32206896552816,43.62553405505605 155.67586206895066,43.72286551389698 155.89931034483016,44.209521093238436 155.74103448278038,45.82763034525851 155.2289655172499,45.973623611083895 152.0727586207213,45.96145751540462 150.97413793107262,46.26560937105387 150.23862068966264,46.691420093600755 149.07482758624246,47.543034975009505 148.38586206897162,48.29731513318984 147.63172413792927,49.611206110836065 147.25931034481619,51.05889519748598 147.25,52.080778151190316 147.56655172415776,53.38244414327346 150.53655172412982,60.52299577843223 151.0672413793509,60.80276636878261 152.6406896552071,60.5473236933467 152.93862068967428,60.76627460621239 153.1434482759214,61.38663238532172 152.9293103448581,60.76627460621239 152.58482758625178,60.51083181832655 150.89034482761053,60.77843852888327 150.545862068946,60.583815552308806 147.35241379309446,52.494393859946285 147.29655172413914,50.90074551923317 147.7434482758399,49.270569709377014 148.6093103448511,47.96883913397323 150.0617241379805,46.7522500181949" stroke="#4dd2ff" stroke-linecap="round" stroke-linejoin="round" stroke-width="0.5"><title>2022-04-20 12.8km</title></polyline><polyline fill="none" points="50.47264437688864,108.14252303845569 51.242021276586456,109.10654875967157 51.080452127644094,109.24713471205905 51.195858662598766,109.16679991740966 51.51130319145159,109.62872370184778 52.24221124619362,111.29564018852398 52.51149316105875,111.57680283247464 52.711531154986005,112.61106978503085 52.196048632176826,113.10309422090359 51.065064589638496,113.20350693749788 50.94965805468382,113.67544473677117 49.91099924009177,114.77996732077008 48.387632978730835,115.14144357691112 47.46438069906435,115.7037361896364 47.6721124619653,116.06520757848193 48.15681990876328,116.24594255871489 48.22606382975937,116.49696257472533 47.90292553190375,116.79818538155814 47.19509878417011,117.04920337695512 46.8334916413005,117.86249537377444 46.879654255259084,118.07334728066053 47.2566489361343,118.15367164617783 47.57978723401902,117.99302282111603 47.03352963519865,118.33440112473181 47.2566489361343,118.5050896395478 47.2489551671315,118.8765867039474 47.34897416410968,118.97699097063014 47.41052431607386,118.82638451550156 47.71827507595299,119.03723346014158 47.37974924012087,118.7259800283864 47.45668693006155,118.92678885565692 47.20279255317291,119.13763749175268 46.57959726441186,119.09747589674225 45.48708206685842,119.30832400827057 44.17914133737213,120.09146846388467 43.08662613976048,120.19187095272355 41.10163373858086,119.84046159894206 40.54768237078679,119.39868728628062 40.11683130697929,119.3284047470006 40.67847644374706,118.59545397551119 40.17068768996978,118.29423905952717 40.22454407293117,117.74200827890309 39.69367401211639,117.28013912164897 39.14741641335422,117.09940686585469 39.493636018189136,116.25598337697738 39.77061170214438,116.03508503550984 39.83216185410856,115.59328621871828 39.724449088127585,115.46275420566963 38.92429711241857,115.37238574341609 37.90871960486402,115.99492162426031 37.331686930090655,115.75394066311128 37.331686930090655,115.6133680448329 37.00854863220593,115.65353167945432 36.67002279634471,115.1916484618705 36.508453647373244,114.3984069840808 35.8698708206357,113.94655647235777 35.20820668691886,113.74573306740058 34.72349924012087,114.18754378231097 34.09261018232792,113.74573306740058 33.7617781154695,114.10721477304469 33.477108662598766,114.14737928943214 32.9000759878254,113.92647415830288 32.65387537991046,113.59511512786412 32.307655775075546,113.78589779542381 32.12300531909568,113.73569188169495 31.75370440725237,113.1934656724552 31.33824088142137,112.96251617076632 31.47672872338444,112.05879325541173 31.322853343444876,111.79771553004684 30.99971504556015,111.91821306519705 31.115121580543928,111.07472587410302 30.522701367735863,110.45214534214028 30.376519756828202,110.1207695290359 30.576557750755455,109.2873020741099 30.207256838912144,108.97600440301903 29.853343465045327,108.9960881663792 29.160904255288187,108.67474724721978 28.806990881450474,108.36344679622562 29.1301291793352,108.04210291334311 29.04549772036262,107.6805892456614 29.32247340423055,107.21865234197321 28.830072188400663,106.85713433432102 28.414608662569663,107.23873661986727 27.568294072931167,107.47974749586865 27.337481003050925,106.96759837214631 26.445003799366532,106.6261634985567 25.621770516678225,107.34920004317974 25.460201367764967,107.95172467504744 25.56791413371684,108.2730689813252 25.460201367764967,108.92579496894177 24.17534194525797,109.66889084044669 23.367496200546157,110.87389406180591 22.682750759879127,111.18518312021479 22.505794072931167,112.13912466332113 22.167268237040844,112.2997871969128 21.91337386018131,112.68135920620989 22.18265577504644,113.21354820108536 22.274981002992718,113.71560950594721 22.174962006072747,114.12729703418154 22.728913373837713,114.68959795916453 22.71352583586122,115.50291792842472 23.013582826708443,115.77402244218683 23.6136968084611,115.5732043867174 23.867591185378842,115.63344986509037 24.22150455924566,116.64757414345513 24.61388677812647,116.83834832252614 24.52156155015109,116.95883700443665 24.044547872355906,116.95883700443665 24.29844224921544,117.57131786560058 24.006079027312808,117.73196767808986 23.767572188400663,118.16371218526183 23.921447568398435,118.42476568548591 24.506174012174597,118.73602048373141 24.63696808507666,118.64565633290476 24.113791793293785,118.24403644496488 24.283054711238947,118.05326617458923 24.19842325229547,118.31432009507262 24.652355623082258,118.76614184086066 23.590615501481807,118.55529206311621 23.12898936169222,117.5913991127236 23.044357902690535,116.83834832252614 23.17515197567991,116.26602419379196 22.905870060785674,116.01500333282456 22.93664513673866,115.76398155338393 22.66736322187353,115.40250857739738 22.628894376859535,114.61931059557537 22.136493161087856,114.19758490184176 22.174962006072747,113.71560950594721 22.044167933112476,113.50474420542741 21.82104863220593,114.0971736402862 22.028780395106878,114.93058265897707 21.397891337343026,115.49287699994602 20.620820668671513,115.50291792842472 20.466945288761053,116.06520757848193 19.77450607897481,116.45679943385767 19.859137537976494,116.99899985134834 19.351348784199217,117.92273884188035 18.86664133737213,118.17375272283971 18.558890577493003,117.98298225704639 18.29730243157246,118.43480618487956 17.97416413371684,118.55529206311621 17.76643237081589,118.97699097063014 17.581781914865132,119.0673546850594 17.404825227946276,120.0111463670255 16.38924772036262,120.94488493600511 16.0584156535042,121.02520593979716 15.842990121571347,121.84849080724234 15.104388297855621,122.95288182291551 14.704312310001114,123.31431502189662 14.535049392055953,123.71590523231862 14.127279635256855,124.07733441211894 13.881079027341912,124.08737408439629 13.588715805468382,124.48895977038774 12.25,124.93070131038985 13.404065349546727,125.8543335228751 14.073423252266366,125.954727579483 14.335011398157803,126.12539713859587 14.727393617038615,126.10531838895258 15.281344984774478,125.83425469393842 16.17382218845887,125.80413643951033 16.681610942207044,125.6234266353058 17.035524316102965,125.92460937792202 17.627944528852822,125.39251897069335 17.751044832810294,125.50295316809206 18.235752279608278,125.29212409153843 18.735847264440963,125.36240052235371 19.33596124619362,125.15157101397199 19.982237841933966,125.23188709354145 21.06705927051371,124.57931622581236 22.18265577504644,124.37852394101355 22.852013677795185,123.73598468114506 24.0599354103324,123.70586550569715 24.85239361700951,122.90268261692108 26.106477963505313,122.3103292126325 26.12186550151091,122.74204491094861 26.252659574442077,122.19988987677061 26.03723404253833,122.06937043245125 26.229578267462784,121.98905065100553 26.683510638249572,122.0593304649301 26.591185410303297,121.92881075324112 27.22207446806715,121.82841080605431 27.837575987854507,122.0292105534827 28.037613981752656,121.69789065510122 28.260733282659203,121.84849080724234 28.968560030363733,121.74809074251971 29.191679331299383,121.36656915683852 29.45326747719082,121.24608821532456 30.268806990876328,121.57741029539466 30.15340045589255,121.48704988678946 30.576557750755455,121.01516581947362 31.107427811512025,120.83444340229471 31.553666413325118,120.23203190714412 32.04606762918411,120.27219283804152 32.230718085047556,119.90070333026233 32.169167933112476,119.39868728628062 32.60771276592277,118.57537302222045 33.29245820667711,118.21391485859931 33.18474544072524,117.80225185277232 33.361702127644094,117.22993576500448 32.977013677795185,116.91867413397267 32.884688449819805,116.52708491488738 33.10011398172355,116.28610582299734 33.538658814592054,116.20577927094564 33.79255319145159,115.98488076776994 33.354008358641295,115.18160748777154 33.43094604864018,115.81418598274468 32.96162613978959,115.50291792842472 32.930851063807495,114.90045961776923 32.4846124619944,114.00680337919039 32.66926291791606,113.61519753893663 32.16147416410968,113.80598015061696 31.769091945228865,113.2838370049576 31.376709726435365,113.13321805131272 31.299772036465583,113.5147854249226 31.392097264440963,113.03280523184367 31.19205927051371,113.06292909308831 30.99971504556015,112.88218572703772 31.022796352539444,111.88808870127832 30.761208206648007,111.2755570984009 30.46115121577168,111.05464271932578 30.114931610936765,111.24543245224777 29.75332446806715,111.87804724367015 29.484042553172912,111.7374666830874 29.153210486314492,111.78767405922554 28.976253799395636,111.39605555080198 28.660809270484606,111.36593095755961 28.083776595740346,111.77763258690538 27.052811550121987,113.1934656724552 27.098974164109677,114.14737928943214 26.721979483263567,114.50885887873301 26.53732902734191,115.06111568457709 26.62196048628539,115.33222194423433 27.029730243142694,114.69963900520816 27.114361702115275,115.34226289622165 26.560410334321205,116.68773717260774 27.060505319124786,117.15965100402536 27.20668693006155,117.49099281828967 27.08358662610408,118.24403644496488 27.25284954404924,118.73602048373141 27.152830547100166,119.02719304890343 26.606572948308894,119.60953447216889 26.45269756836933,120.08142820692592 25.86797112459317,120.62359998063766 25.60638297870173,121.31636879023426 25.590995440696133,122.18984992832702 26.07570288752322,122.11957024810545 26.083396656496916,121.90873077552533 26.268047112447675,122.44084819860291 26.137253039487405,122.88260292424093 25.7525645896676,123.01312082161894 25.721789513656404,122.92276230372954 25.56791413371684,123.23399669774517 25.675626899668714,123.56530917884083 25.52944528873195,124.31828614101687 24.967800151964184,124.32832577802037 25.090900455921656,124.81022662697069 24.506174012174597,125.63346608134452 25.183225683897035,125.74389989097835 25.29093844984891,126.0250033317061 24.652355623082258,127.08917021160596 24.667743161058752,128.49464834635728 24.290748480212642,128.84601338228822 24.52925531915389,129.40819369776 25.260163373837713,128.84601338228822 26.12955927051371,129.14718198118499 26.79891717323335,128.70546758378623 27.39903115501511,128.53480444152228 27.529825227946276,128.32398467978783 27.345174771995516,127.78187374700792 27.514437689940678,127.74171721124003 27.62215045589255,127.93246054679912 27.39903115501511,127.79191287725553 27.506743920966983,127.87222586653661 27.460581306979293,127.69152150850277 27.49905015193508,127.8621867480033 27.614456686918857,127.81199113339244 27.529825227946276,127.96257786711067 27.54521276592277,127.8320693836431 27.275930851028534,127.8220302592672 27.522131458943477,127.80195200607704 27.55290653492557,128.33402373074205 27.406724923988804,127.53089501295472 27.53751899691997,126.78799258034996 27.445193768973695,126.86830674460361 27.360562310001114,126.61732466923422 27.691394376859535,126.04508210481436 27.368256079003913,125.99488516098063 26.398841185378842,126.23583015653276 25.498670212720754,125.94468818042515 25.94490881456295,126.17559398695448 27.03742401211639,126.01496394292917 26.93740501519642,125.86437293516792 27.16821808507666,125.6234266353058 26.975873860152205,125.35236103666102 27.052811550121987,124.6797121478885 27.614456686918857,124.65963297522103 28.56079027353553,124.28816722118063 29.55328647411079,124.41868244500802 30.13031914891326,124.13757242367865 30.838145896646893,124.50903899297555 31.14589665652602,124.92066176152002 31.361322188429767,124.99093857278058 31.70754179326468,124.85038487825659 31.938354863232234,125.40255845052889 32.52308130697929,125.42263740579074 32.723119300906546,125.84429410913435 33.19243920969893,125.51299263175315 33.82332826743368,125.57322938298603 34.52346124619362,125.40255845052889 35.21590045589255,125.50295316809206 35.53134498477448,125.36240052235371 36.216090425499715,125.3724400065912 36.900835866254056,125.10137341648078 37.16242401214549,125.20176857472688 37.39323708205484,125.12145245989814 37.193199088127585,125.25196609874547 37.45478723401902,125.33228206083004 37.94718844984891,125.13149197939492 38.00873860181309,125.59330828834936 38.454977203626186,125.84429410913435 38.43189589664689,126.83818894401338 38.57807750758366,127.2397585315266 38.124145136767766,127.72163893455581 38.378039513656404,128.09308610235166 38.162613981752656,128.96648098043806 38.34726443767431,129.07690942632325 38.33957066867151,128.94640306212386 38.69348404253833,128.79581848727685 39.68598024311359,129.20741554233973 39.75522416408057,129.0066367995023 39.962955927010626,129.06687048404274 40.0783624619944,128.8761303016654 40.5169072948338,128.81589644970518 40.74772036471404,128.53480444152228 40.67078267477336,127.93246054679912 40.80157674770453,127.84210850656382 40.82465805465472,127.1594448020187 40.73233282673755,126.9686993177238 41.05547112459317,126.54704952362954 40.993920972628985,126.17559398695448 41.117021276586456,125.90453056953265 40.96314589661779,125.35236103666102 41.26320288752322,125.05117578228237 41.3555281154695,124.51907860207575 41.7479103342921,123.92673915188789 41.63250379936653,123.60546815875568 41.370915653475095,123.63558737825224 40.955452127644094,123.37455370330281 40.763107902690535,123.48499114852166 40.88620820664801,123.10347922053188 40.62462006075657,122.3806086974655 40.77849544072524,121.97901067172643 41.3478343464667,122.34044900067966 41.74021656534751,122.18984992832702 41.947948328219354,121.85853080564266 41.67097264435142,120.15170997483801 41.7709916413296,119.96094500870822 41.89409194525797,119.96094500870822 41.871010638278676,120.08142820692592 42.13259878417011,119.94086445512949 42.81734422489535,120.17179046670208 43.99449088142137,120.17179046670208 45.46400075985002,119.28824326366157 47.2258738601231,119.08743549432984 47.148936170182424,118.79626318482042 47.264342705137096,118.63561586436845 47.03352963519865,118.38460367317748 47.18740501513821,118.15367164617783 46.848879179306095,118.12355002015101 46.74886018232792,117.71188647209783 47.141242401179625,117.08936617102881 47.926006838912144,116.79818538155814 48.22606382975937,116.47688100724918 47.44899316105875,115.80414509982802 48.40302051670733,115.1916484618705 49.20317249238724,114.90045961776923 49.88022416410968,114.88037758295832 50.12642477202462,114.43857132999256 50.95735182368662,113.65536234335741 51.080452127644094,113.26375449688203 52.249905015167315,113.11313549916667 52.75,112.61106978503085 52.57304331305204,112.38011832261691 52.51149316105875,111.6671762947517 52.16527355622384,111.24543245224777 51.588240881450474,109.68897440093133 50.00332446806715,107.37932640043437 50.00332446806715,105.59180630223273" stroke="#ffd600" stroke-linecap="round" stroke-linejoin="round" stroke-width="0.5"><title>2022-03-27 25.6km</title></polyline><polyline fill="none" points="92.6438775510178,128.6744898932884 92.845918367384,128.53064321659622 92.845918367384,127.73948197711434 92.4785714285681,125.34197698705248 92.12040816328954,125.16216128240194 89.7234693877399,124.99433293507172 89.08061224489938,123.81952486998489 89.14489795919508,123.55579013005627 89.20000000006985,123.89145237887715 89.5214285714319,123.74759729787911 89.6224489795859,123.42392244142684 89.70510204078164,123.5797660505923 89.5214285714319,123.77157316227385 89.75102040823549,123.75958523096779 89.60408163268585,123.77157316227385 89.80612244899385,123.48386232624034 89.6224489795859,122.3569851490247 89.90714285714785,121.99734023138444 90.71530612249626,121.67365845460154 90.98163265309995,121.32599882434442 91.38571428571595,121.37395196458237 91.76224489795277,120.81050079281704 92.1387755102478,120.81050079281704 93.08469387760852,118.38881543175376 93.58061224489938,117.9212540660883 94.65510204079328,117.8493213112306 94.93979591841344,118.12506319484237 95.04081632650923,117.63352266744187 95.297959183692,117.53761197646236 95.7663265306619,117.9212540660883 95.8673469388159,117.50164543839492 96.02346938778646,117.64551149588806 96.80408163263928,116.71037760224135 97.75,116.48258695872937 97.56632653065026,116.4106529396231 97.60306122450856,116.0030256372047 96.90510204079328,114.50437839802908 96.82244897959754,113.85695430333726 96.43673469388159,113.37737759829906 96.6755102041061,113.55721919197822 96.8775510204141,113.42533539522992 96.8775510204141,113.25748298296094 96.79489795916015,113.40135650025331 96.62959183671046,113.29345138599456 96.82244897959754,112.13046501437202 96.1704081632779,112.23837166186422 95.99591836734908,111.99857891868305 95.8030612245202,112.16643391266552 95.51836734695826,111.43506320685265 95.25204081635457,111.42307346872985 95.23367346939631,110.79960466468037 94.8295918367221,110.93149269236892 94.3887755102478,110.58378743369394 94.39795918366872,110.09220161644043 94.03979591839015,109.54066279460676 93.73673469386995,108.56946583456738 93.92959183675703,108.38961328094592 93.90204081631964,107.92199479182455 93.50714285718277,107.27451862680027 93.87448979594046,106.9867497981104 93.83775510208216,106.74694166793779 93.20408163266256,106.55509465785144 93.19489795918344,105.7517304185094 92.83673469390487,105.38002190788393 93.0112244898337,104.9003955285516 92.88265306124231,104.38479403567908 93.06632653065026,103.7852533312689 92.98367346939631,103.31760853272863 92.55204081634292,102.8259790682132 92.5795918367221,102.40629304221511 92.05612244905205,102.20244476720836 91.76224489795277,101.3150993013769 91.21122448978713,101.35107295334456 90.84387755102944,101.08726580505027 90.37551020411775,101.56691453301755 90.11836734699318,101.42302020984062 90.48571428569267,101.51894978676137 90.52244897960918,101.85470242035808 90.0265306122601,102.69407797767781 89.95306122454349,103.66534466336452 89.68673469388159,104.07303341756779 90.0265306122601,105.47594684646901 89.89795918366872,106.09945620646613 90.30204081634292,106.37523767745006 90.41224489797605,106.9747594082728 90.26530612248462,107.39442200679332 89.7234693877399,107.6701991141017 89.9255102041061,108.25772115708969 89.78775510203559,109.32484224387736 90.44897959183436,109.73250280637149 91.11020408169134,110.90751306679886 91.34897959185764,111.77077516195277 91.06428571429569,111.96260994663317 91.04591836733744,112.94575616119255 91.12857142859139,112.81387137924321 91.71632653061533,112.92177712573175 91.99183673469815,113.31743031257065 92.33163265307667,113.43732484009524 93.02040816325461,114.46841052707896 92.15714285714785,114.2645922933807 92.39591836737236,114.93599161612656 92.25816326536005,114.68421751548158 91.95510204083985,114.66023898929416 91.86326530616498,114.87604547192313 91.303061224462,114.91201316371735 91.02755102043739,115.30765673026326 90.94489795918344,115.07986218309816 90.81632653065026,115.24771085826069 90.44897959183436,114.91201316371735 89.27346938778646,114.42045334127033 89.06224489799934,114.1566883171181 89.04387755104108,113.80899675928231 89.61326530616498,112.83785044632532 89.7234693877399,112.01056857254298 89.56734693882754,111.66286789799778 89.78775510203559,111.92664095872897 89.70510204078164,112.53811160292389 90.42142857145518,112.23837166186422 90.69693877559621,112.37025737117074 90.87142857146682,111.75878547297907 90.72448979591718,110.97945192247425 90.40306122449692,110.42791907960782 90.6602040816797,110.20011095119116 89.74183673469815,109.3368322893948 89.55816326534841,108.32966234190826 88.89693877549144,107.53830583088711 88.66734693880426,107.38243167669134 88.60306122450856,107.64621853299468 87.88673469389323,107.63422823977453 87.36326530616498,107.2265572256074 87.1704081632779,107.31048965924856 87.20714285719441,106.96276901671081 87.0051020408282,106.80689376634837 85.05816326534841,106.49514237495168 84.73673469386995,106.23135180854297 84.76428571430733,106.39921863100608 84.51632653060369,106.33926623391744 84.46122448984534,106.5431042048076 84.0112244898337,106.48315191311121 83.51530612248462,106.71097038777225 82.84489795914851,106.74694166793779 82.26632653060369,106.9747594082728 82.26632653060369,107.10665359969425 82.23877551022451,106.95077862339531 82.0367346938583,107.0946632274572 81.62346938776318,107.01073057249596 81.03571428579744,107.31048965924856 80.79693877545651,107.19058615628455 80.66836734698154,106.71097038777225 80.36530612246133,107.27451862680027 79.7867346938583,107.47835426825623 80.28265306126559,107.94597529216117 80.3561224489822,108.53349535547022 81.15510204085149,109.10902112402255 81.70612244901713,109.04907071196794 82.19285714288708,109.4807126987289 83.36836734699318,109.94832228210726 83.18469387752702,110.7156758091296 82.82653061224846,110.84756397209276 82.84489795914851,111.30317599065165 82.65204081637785,111.57893992763275 82.9734693877981,111.91465129260177 83.10204081633128,112.50214286795381 83.49693877552636,113.1255987032564 82.8724489796441,113.4133459486402 82.05510204081656,113.35339868927986 82.0367346938583,113.16156716423575 82.48673469386995,113.06565123319888 82.51428571430733,112.80188184305007 82.09183673467487,112.65800727200985 81.50408163265092,112.05852717033122 81.292857142922,112.346278167126 80.59489795920672,112.14245464888518 80.57653061224846,112.28633012620412 79.81428571429569,111.8307235804532 76.68265306128887,111.8906719550505 76.15918367350241,112.0225582246494 75.72755102044903,112.35826777002512 74.93775510205887,112.0825064587043 74.6438775510178,112.45418453007733 74.08367346943123,112.75392368082976 73.90000000002328,112.61004902544664 74.0744897959521,112.19041316946095 72.82551020407118,112.27434051276941 72.54081632656744,112.44219494122808 72.33877551025944,112.90978760541475 71.96224489796441,111.92664095872897 71.66836734698154,112.37025737117074 71.26428571430733,112.45418453007733 71.32857142854482,112.62203858969588 71.02551020408282,112.78989230514708 70.55714285717113,112.58606989165128 70.45612244901713,112.14245464888518 70.29081632656744,112.64601771298476 69.6387755102478,113.25748298296094 69.18877551023616,113.43732484009524 68.82142857142026,113.269472452419 68.095918367384,113.4493142831634 67.41632653062697,114.31254957048804 65.95612244901713,114.94798083970818 65.68061224493431,115.48749408285948 64.11020408163313,116.8302671599522 63.56836734700482,117.86131010808458 63.22857142862631,118.12506319484237 62.04387755104108,118.01716430753004 61.17142857145518,117.59755617150222 60.99693877552636,117.05805683592916 60.35408163268585,116.61446582961071 60.62959183676867,116.43463095300103 59.95918367354898,116.37468590633944 59.80306122452021,115.451526643963 58.416326530626975,114.60029264316836 58.75612244900549,114.13270963638206 57.63571428577416,114.85206700196431 57.461224489845335,115.64335280218802 57.25,115.57141804551793 57.74591836734908,116.81827821209299 57.77346938778646,117.03407900517777 57.406122448970564,117.09402356894861 57.78265306126559,117.35777912802587 57.488775510224514,117.56158965975192 57.64489795919508,118.25693941953068 57.82857142860303,118.53267993006739 58.25102040817728,118.40080414961267 58.489795918401796,118.74847620341461 59.353061224508565,119.2280214408238 59.353061224508565,119.38387303807394 60.30816326534841,119.20404424567823 60.13367346941959,119.43182731604611 59.61020408163313,119.49177012394648 59.261224489833694,119.86341455326328 59.38979591836687,120.05523037273088 59.20612244901713,120.53476795501047 59.343877551029436,120.77453569273348 58.95816326531349,121.09822102465114 59.20612244901713,121.24208076137438 59.75714285718277,121.18213923514122 60.05102040816564,121.57775249720726 60.60204081633128,121.78155252239958 60.81326530611841,122.78855696451501 61.428571428579744,123.07627024425892 61.47448979597539,123.67566966258892 61.73163265309995,123.92741610961093 62.356122448982205,125.61769363380881 62.8887755102478,126.06123585619935 63.16428571427241,125.78552070325532 63.36632653063862,125.79750833792787 63.18265306123067,125.77353306685836 62.95306122448528,126.15713656131993 62.925510204106104,126.58868834412715 63.50408163265092,127.11613743385533 63.375510204117745,127.34389849030413 63.56836734700482,127.66755784894485 63.42142857139697,128.3987835409498 63.072448979655746,128.7224387293536 62.67755102046067,129.53756464608887 62.24591836734908,129.56153881486534 61.704081632662565,130.04102071693342 61.57551020412939,130.24479967501975 61.65816326532513,130.60440836375346 61.38265306124231,130.88010728885274 61.76836734690005,130.72427757569676 62.08979591837851,130.1848647400111 62.12653061229503,130.49652592298662 62.558163265290204,130.4485781258918 62.65918367350241,130.67632991199207 63.926530612283386,131.1677921338851 64.22959183674539,131.76713231453323 65.08367346943123,131.46746277259808 65.74489795923,131.02394983771956 66.31428571429569,131.5154099730571 66.0112244898337,131.92296004288073 66.02040816325461,132.3544814351044 65.68979591841344,132.91785316328605 66.90204081637785,133.55314003633976 67.25102040817728,133.50519402923237 67.74693877552636,133.91273419494973 67.57244897959754,133.42128844915715 67.03979591839015,133.1216249614008 66.78265306126559,132.690107612274 66.77346938778646,132.28256136099662 67.13163265312323,131.76713231453323 66.69081632653251,130.59242143293523 66.68163265311159,130.1489037579522 66.95714285719441,129.94512456118537 66.29591836733744,129.309809692204 66.52551020414103,128.7464131368688 66.1122448979877,128.63852824781497 66.59897959185764,128.7943619308062 66.87448979594046,127.8713427146431 67.39795918372693,127.36787330149673 67.76530612248462,126.30098740834364 68.49081632657908,126.27701228473597 68.77551020414103,126.12117381007556 69.14285714289872,126.21707444495405 69.79489795921836,125.95334742867271 70.39183673472144,126.14514897930349 71.00714285718277,126.01328546155128 72.05408163263928,125.09023488994717 73.00918367347913,124.82650424363965 74.45102040818892,124.10723452636739 74.63469387759687,124.28705254815577 75.047959183692,124.1312102854281 76.51734693878097,124.31102825451671 76.83877551025944,124.47885800266522 76.84795918368036,125.0422839265375 77.01326530613005,125.16216128240194 77.91326530615333,125.21011217561318 79.0795918367221,125.6057059727973 79.99795918370364,126.16912414155377 80.7234693877399,125.96533503877436 81.31122448982205,126.31297496749903 82.26632653060369,126.51676320495608 82.58775510208216,126.43285046277015 83.3775510204141,126.73253843290149 85.15918367350241,126.75651342313358 85.56326530611841,126.45682554071391 86.88571428571595,126.18111172005592 87.4734693877399,125.82148360193241 89.2183673469699,125.79750833792787 89.3561224489822,126.32496252495912 89.30102040822385,127.53569678324129 89.48469387757359,127.69153256538993 89.30102040822385,127.67954520802596 90.03571428573923,127.76345667246642 90.1918367347098,127.54768416161824 89.95306122454349,127.77544401753403 90.67857142857974,128.3987835409498 91.00918367353734,128.96218248846708 90.97244897962082,129.2019255455598 91.41326530615333,129.42968079955608 91.48673469386995,128.80634912492678 91.34897959185764,129.40570659209334 91.50510204088641,129.60948713147081 92.04693877551472,129.54955173136113 92.06530612247298,129.34577104284836 91.82653061224846,129.309809692204 91.9734693877981,128.86628506908164 92.79081632650923,129.04609263830207" stroke="#4dd2ff" stroke-linecap="round" stroke-linejoin="round" stroke-width="0.5"><title>2022-02-27 18.7km</title></polyline><polyline fill="none" points="102.25,115.57014434224129 105.37006722781007,116.4692062632812 105.58146589418538,116.5531724245493 106.07620518145995,116.58212610710052 106.33851661565495,116.46486316647861 106.5477016834302,116.44314765372019 106.94504263227282,116.26652636956169 107.30143200699968,116.03633485449973 107.61244261040338,115.73230006979429 107.67110297333056,115.72361322358029 107.8083460865746,115.76849517977189 107.87918124180578,115.76559957587779 107.95333679492978,115.73374787674857 108.1437062745972,115.57883132398274 108.35842533887262,115.557113855245 108.53440642763599,115.59186178220989 108.67164954088366,115.50064821213073 108.87751421075518,115.43549514422284 109.25271917358623,114.99244283720327 109.40988467424904,114.43932338583454 109.54491418889666,114.22936152241527 109.61685614342059,114.14392748117552 109.98099311324768,113.92092665631299 110.04740107127509,113.85431503950713 110.15476060341098,113.43146555779003 110.20235297333056,113.34312826734458 110.73029623961702,113.03466560345896 111.00146206821228,112.76529592614133 111.66000765194258,112.55529831690728 111.83820233930965,112.48143602265282 112.83542850896629,111.94555570313514 112.94942883690965,111.84561803374163 113.02247759072634,111.73698897998929 113.19403148228957,111.21989822881096 113.3777601661568,111.19092875471415 113.36447857454914,111.16340767525344 113.37997376476415,111.18513484965479 113.38661456055706,111.15906223460752 113.38218736335693,111.18513484965479 113.84593627022696,111.08663794110635 113.84040227372316,111.10546830874227 113.92009182334732,111.0721530183755 114.89518200699968,110.87950151636505 115.49949442501384,110.73030264613408 116.8652847616977,110.45362690309321 119.51828268473764,110.06974451805945 119.58579744206509,110.06539859390978 119.60682662877662,110.09292274772724 120.02630356362351,111.24597068250387 120.06172114123183,111.29377000134718 120.73686871446989,111.22134670027663 121.37549191080325,111.38647104818301 123.2017107564534,111.38502260104815 123.4086822256213,111.36764121879241 124.22992730651458,111.38357415370047 124.32511204634648,111.42123371537855 125.07330837341578,112.04983740552416 125.17292031044781,112.09473613119098 128.88733876257174,111.77030201740672 128.99801869261137,111.72395341288393 129.28246611281793,111.50813984558772 129.38871884565015,111.47627435371578 129.50493277219357,111.50958827458362 129.6919818539609,111.6805013976882 129.79934138609678,111.72105661784008 130.77553836904553,111.61532301480202 130.89285909488535,111.66601734994856 131.06662658504501,111.84416965425135 131.21604449060396,111.89775955321147 131.30680203322845,111.8905176920407 131.40420037166768,111.85141154955727 131.56247267161962,111.70802102960806 131.68422059466684,111.64863646448703 132.1535034980334,111.58635470592526 132.29185341058474,111.60083887103247 132.42688292523235,111.64429123832178 132.60286401399208,111.74133416518725 132.78105870135914,111.8992079248028 132.82865107127145,111.97452295363837 133.08653530826268,112.56978105463895 134.134674245739,114.61452951001502 134.39145168342657,114.99389075306135 134.57407356799376,115.33414506970166 135.1208324223844,116.20137837405673 135.43848382159922,116.63279484652867 135.53588216003845,116.86297240594922 135.58347452995076,117.06998284419842 135.6222125054628,118.13970863929262 135.66095048098214,118.33945510411831 135.73842643200624,118.51748657934422 136.09924300393322,119.07471875382362 136.19664134237246,119.19484519244543 136.87178891561052,119.85913239845559 137.25584827284183,120.27012861102958 137.96641342369549,120.95749589764819 138.0936953432465,121.10798675168007 138.2530744425021,121.38580997683584 138.35822037603793,121.70703330778633 138.82307608220435,122.50570535477436 138.9736007870597,122.46230093001304 139.02894075207587,122.52306707110802 139.33220376038662,122.44783274590463 139.83801104066515,122.27710656790805 140.59838216003845,122.12229298283637 141.51591878006002,122.06152436827597 141.53362756886781,122.08322748796127 141.59560832969146,122.6214495520835 141.8479585701789,123.4967209983779 141.85127896808262,123.54012086384682 141.8180749890671,123.54590749812724 141.81918178837077,123.56471403605065 142.04939604285028,124.1882027687816 142.1368331875783,124.51946030792624 142.28293069523352,124.93460140609113 142.5076109532165,124.85070670637378 142.75,124.72341683186733" stroke="red" stroke-linecap="round" stroke-linejoin="round" stroke-width="0.5"><title>2022-01-02 41.2km</title></polyline><polyline fill="none" points="186.38055092582,128.09125174867768 186.36575606749102,128.09366824623885 186.35928331697505,128.0550042001296 186.28253498938648,127.95109367625264 186.31952213521072,127.80247518199212 186.37592753259378,127.73964379196877 186.577507477341,127.7203109600814 186.62559076691468,127.75897657845144 186.99916093975116,127.73239398533406 187.19796684856192,127.80247518199212 187.34129203863267,127.79280884551736 187.58448252243397,127.74206039276487 187.59280463024697,127.6997697764391 187.53639923286028,127.59947973189173 187.4143416516381,127.62122948388242 187.74352724948403,127.62968770524458 187.75,127.53181346923338 187.64088791981703,127.51731348342764 187.48276787141003,127.26839307684168 185.59549875568337,124.06800763519095 185.3412121281326,123.52884737344084 185.04161624694825,123.18308923315817 184.34440854814238,122.51450166817358 184.10491677892423,122.3198393751045 183.69158542432706,121.92929180910414 183.5815486654974,121.79386541142412 183.29212424941215,121.35492345177136 183.23849288796555,121.22674314188589 183.21352656453382,121.0985608334804 183.18948491974515,120.11777909714874 183.16914198954328,119.98111341336516 183.1340042010088,119.884357573128 182.6087867302922,119.01955166523021 182.13812529966526,118.30586706543727 181.03960706865837,116.13540112948976 180.99707185095758,115.91396685107338 181.0109420306435,115.79054187540714 181.06642274937985,115.65380419761914 181.20327518893464,115.51464404670787 181.2097479394506,115.47955111464671 180.97857827804546,115.47713090690831 180.53380784949695,115.57151848024114 180.4256204479534,115.60903118893839 180.2730484714266,115.5945101607349 179.86711454599572,115.65501427555046 179.76909860955857,115.70099710472732 179.64519167104663,115.81837315932353 179.52128473253106,115.85709478876834 179.43621429712948,115.84862444792634 179.37333614922682,115.82079326651183 179.2337096737392,115.67679564777609 179.14586520240482,115.63081268310725 179.0302803716986,115.62718243809195 178.3090310281077,115.70704745782496 178.19806959063135,115.66469489255724 178.0593677937868,115.53400560020873 177.96874928651596,115.5085935518764 177.88460352976472,115.51827434146344 177.63031690221396,115.72519849036689 177.53137628713375,115.76271049718162 176.5086817050651,115.84257419912046 174.4272300737466,116.0252897481314 174.35880385397104,115.99382908234111 173.74851594785287,115.47713090690831 173.63662983173344,115.4311468243859 172.8034943720195,115.42388615624168 172.31988744035334,115.4553490051776 171.2888707504717,115.4420378145669 170.7322142058074,115.29924368555203 170.18387976894155,115.3452285065905 170.1515160163508,115.32102600129656 170.02945843512498,114.95434932047556 169.80291216694604,114.34802621797462 169.78071987945077,114.32261049955378 169.49776821388514,114.37344185773418 167.4616258362039,114.66511094944053 165.68346880065656,115.05116323605216 164.54796342382542,115.27141064247553 164.4869346332125,115.23147611156219 164.48600995456582,115.16612827848712 164.4647423457136,115.14192524540249 164.45272152332473,115.15039631509626 164.47953720404985,115.13345416696575 164.4601189524874,115.1298237021092 164.4675163816537,115.17096887655043 164.40186419781458,115.22905583072134 164.40741226968748,115.32465638163649 164.39076805406512,115.38395236671386 164.14480353432737,115.32828676037389 163.62236009954722,115.04632256738205 163.27375625014247,114.8829483264908 162.89556268407978,114.64090643973941 162.62278248362054,114.43153445322241 162.2806513847354,114.08055209613121 161.93297221397734,113.88690023563959 161.75913262860195,113.68235049810755 161.55015525468843,113.59762426225006 161.39758327815798,113.46085006518297 161.10168611155314,113.25871057539825 161.09243932509708,113.27202530568047 161.10076143291008,113.26234186761576 161.01384164022238,113.19455748137261 160.80116555172935,113.07593345877194 160.76417840589784,113.03114639227351 160.70777300851478,112.90162566282379 160.75308226214838,112.6425780734744 160.65229228978205,112.44405008903595 160.56167378250757,112.34115259821738 160.42112262837327,112.28667693384159 160.21861800497572,112.3145200963545 160.15481517843,112.35083712292362 160.09933445969364,112.4537344923483 160.05125117011994,112.47673490443412 160.00409255919294,112.46826107589914 159.824704901941,112.33873146525184 159.6286730290667,112.13172195625248 159.4659295874335,112.01550380342087 159.28099385830865,111.91865408574722 159.15061416926983,111.91139031085459 159.0803385922045,111.88354578088729 158.9333146875506,111.77700931588151 158.9018756136029,111.70921266363075 158.42659078974611,111.42591345049459 158.38405557204533,111.35811389808714 158.33319824653518,111.18619109372503 158.3729594282995,110.97067713946126 158.305457887167,110.83143758661572 158.24165506061763,110.60986020986547 158.1676807689655,110.53236725622992 157.9744229320313,110.52752392233378 157.9291136783977,110.49725302069601 157.90229799767258,110.39917453240469 157.95685403776588,110.2357077802535 157.94298385807997,110.04680881096556 157.8005833466559,109.8736476022541 157.6914712664693,109.82399930890915 157.5379746112958,109.69806082706691 157.43995867486228,109.50309455702882 157.42054042329983,109.29601350722623 157.36043631132998,109.04654050617228 157.38632731341204,108.86003631697349 157.36875841914298,108.71591653948144 157.30403091395056,108.5742164747171 157.16347975981262,108.36468967141627 157.1385134363809,108.28354201512593 157.14498618689686,108.2484181537775 157.23375533688522,108.16969171133678 157.26057101760307,108.12245548320243 157.23652937281804,107.98680121322013 157.1375887577342,107.88627026226641 157.09412886139035,107.79300550723474 157.04049749994374,107.74818959837921 156.73442886823977,107.66824709894809 156.6789481495034,107.64038816607717 156.59942578597474,107.56286715922761 156.48846434850566,107.56286715922761 156.49493709902163,107.49019054988185 156.38859905477148,107.31576405998294 156.25729468709324,107.22976074469352 156.314624763123,107.21643620671148 156.25729468709324,107.18978706580674 156.25452065115678,107.1704058180303 156.31832347770614,107.18736441233614 156.3257209068688,107.1764624628795 156.21475946939609,107.13043184984963 156.2397257928278,107.10983912353913 156.13338774857766,107.03352445164273 156.11027078243933,106.9729567462864 155.9771170574677,106.94872953890354 155.87262837051094,106.90633175376115 155.8374905819801,106.9148113283245 155.76721500491112,107.00808606987448 155.51570241329682,107.11105046181092 155.38624740290834,107.31818667552398 155.26234046440004,107.40903424172029 154.7241774926406,107.31576405998294 154.60766798328768,107.27579080025771 154.41625950364323,107.32303190445509 154.34136053334805,107.26610028371033 154.18416516358775,107.23702866537951 154.1157389438158,107.20674562003842 153.749566200142,107.16919448852423 153.67096851526003,107.12316383470443 153.58589807986937,107.12195249821798 153.17256672526855,109.20639786533684 153.18088883308155,109.25847193854679 153.11061325601258,109.39773818481171 153.1272574716313,109.46070997223524 153.23452019452816,109.6496224347311 153.2761307335786,109.79130392727802 153.3325361309653,109.84821802612169 153.39818831480443,109.87485853248836 153.42130528094276,109.9087645064119 153.4545937121875,110.07708137428926 153.33993356012797,110.31441440073468 153.34178291742137,110.3628488688928 153.2798294481654,110.54568640971411 153.29462430649073,110.63165497122918 153.28537752003467,110.74183871211517 153.17996415443486,111.04332292489016 153.03201557113425,111.21645945429646 152.86742277220765,111.36416745232327 152.84430580606931,111.46586649590336 152.81841480399453,111.9331816162503 152.87019680814774,112.14140672805297 152.87666955866734,112.30846724297226 152.9691374232316,112.52394607470706 152.9469451357363,113.08077528916601 152.98300760291022,113.31075894372589 153.14205232996392,113.51168675846111 153.10876389872283,113.69929564036738 152.95064385031583,113.95467890632335 152.70745336651817,114.10233764464101 152.4374472019881,114.3528672982784 152.38658987648523,114.4400062557279 152.09254206717014,115.19638196955202 151.97325852188442,115.34643862998473 151.8669204776379,115.43477715605059 151.74208886047563,115.50133295219439 151.5663999178105,115.55336710806932 151.17063745747873,115.74697967647353 150.10910637229608,115.99503911017655 149.77807141715311,116.16807125539799 149.3499452042306,116.23825108650635 148.705444188221,116.62180956997508 148.6092776090809,116.64721817456302 148.3762585903787,116.64358837871805 148.30690769195644,116.65689762230159 147.45805269527045,117.12633714820822 147.25,117.39250228260062 147.2638701796859,117.43968520210547 147.34801593643715,117.53284042705764 147.3646601520595,117.57881274624106 147.31657686248582,117.70463040969389 147.344317221854,117.91754822038001 147.28328843124473,118.0143272195237 147.28328843124473,118.14134792606183 147.30825475467282,118.18852654553393 147.41921619215282,118.2744151316947 147.48301901869854,118.44377027692462 147.54867120253766,118.52844654068667 147.62172081554309,118.72198901005049 147.60600127856742,118.74134300628339 147.56439073951333,118.73287563853955 147.43678508641824,118.6119122896198 147.4071953697603,118.62279906393633 147.40812004839972,118.66271711303943 147.5458971666012,118.79214702952322 147.6753521769897,118.83327386592009 147.7437783967689,118.94092843373983 147.84826708372566,118.99294080954769 147.8871035868433,119.0014079093371 147.94905705609563,118.95302436446491 147.9915922737964,118.94697640132836 148.09423160345978,118.95786273177418 148.19594625448372,118.99052163658052 148.22646064978835,118.96028191435926 148.21166579145574,118.9252036971775 148.15618507271938,118.88407732084306 148.01101052535887,118.82601620386777 147.97587273682075,118.7558584735425 147.9000490878825,118.72682751338289 147.88802826548635,118.64820148125455 147.95183109203572,118.63126654510052 148.01563391858508,118.57683258537418 148.03042877691405,118.54901064449132 148.0239560263908,118.48006021109359 148.04522363524666,118.46554425665727 148.06279252951208,118.56594575016243 148.14323957168017,118.62400870463716 148.22646064978835,118.61917014076789 148.3152297997658,118.64820148125455 148.41786912942916,118.64820148125455 148.45485627525704,118.60586407543451" stroke="red" stroke-linecap="round" stroke-linejoin="round" stroke-width="0.5"><title>2022-01-02 64.4km</title></polyline><polyline fill="none" points="15.904131237388356,169.62036736302252 15.753164395820932,169.55371509083488 15.275102730898652,169.08714673440772 15.233167497135582,168.90623131967368 15.08220065558271,168.7919686201567 14.99833018805657,168.83481716262395 15.090587702332414,168.78720766876722 15.044458945194492,168.57296439365746 14.948007907543797,168.46346192597412 15.036071898444789,168.38728615693253 14.876718010142213,168.21589025849244 14.155431989362114,167.54934515029163 13.639628614051617,167.24939699514653 13.069309434853494,166.1781391096556 13.136405808880227,165.7067784748033 12.457055021863198,165.25445859685715 12.800923938746564,165.02115518869687 12.901568499786663,164.84974791946297 12.264152946561808,162.25 12.431893881628639,163.11659744322242 12.800923938746564,164.1879199729119 12.905762023176067,164.93069031321647 12.964471350438544,164.96401949663777 12.918342593300622,165.0592456143204 12.389958647851017,165.17827801010208 13.14479285562993,165.6686885353156 13.182534566018148,165.85913794685985 13.031567724465276,165.8020031984488 13.002213060826762,166.18766150159354 13.23285684651637,166.40667602303074 13.736079651702312,167.27320246905947 13.803176025758148,167.2636802808338 13.803176025758148,167.17798050639612 13.710918511467753,167.22083041170117 13.807369549103896,167.2446358990237 13.757047268605675,167.29224684013752 14.134464372487855,167.63504429751993 14.516074999744887,167.84929153243866 14.696396504950826,167.8635746492655 14.49930090624548,167.86833568732254 14.914459720515879,168.14447512994957 14.859943916613702,168.17304119343316 14.989943141292315,168.27778328859495 14.968975524418056,168.39204714584048 15.08220065558271,168.5396375806813 15.115748842596076,168.7634029050896 15.270909207538352,168.9109922598982 15.354779675064492,169.13951686568544 15.455424236090039,169.2299742378491 15.417682525716373,169.11571226724845 15.442843665965484,169.24425696608523 15.560262320519541,169.28710512667385 15.811873723112512,169.63464998138443 16.118000929578557,169.7774759439999 16.088646265954594,169.9869532954035 16.101226836064598,169.8774538786456 16.025743415317265,169.90125811978578 16.04251750880212,169.8488887745625 16.118000929578557,169.92030150465507 16.050904555551824,169.90125811978578 16.08025921919034,169.81080194409878 16.000582275053603,169.8774538786456 16.05929160231608,169.858410477711 16.008969321788754,169.82508450887326 16.025743415317265,169.91554065909804 16.12219445296796,169.90601896666703 16.055098078926676,169.90601896666703 16.08025921919034,169.820323654385 16.14735559321707,169.97743161637118 16.046711032191524,169.9821924561038 15.962840564650833,169.7774759439999 16.04251750880212,169.858410477711 16.008969321788754,169.90601896666703 15.656713358170236,169.94410572568086 16.01735636855301,169.86793217908053 16.101226836064598,169.91554065909804 16.046711032191524,169.79651937530434 16.008969321788754,169.92506234975008 16.113807406218257,169.82508450887326 16.029936938663013,169.89649727245705 16.097033312704298,169.8536496263514 16.050904555551824,169.86317132862678 16.084452742579742,169.7869976605325 16.025743415317265,169.8488887745625 16.046711032191524,169.77271508504782 16.088646265954594,169.81080194409878 16.046711032191524,169.858410477711 16.084452742579742,169.8155627994638 16.029936938663013,169.76319336581219 16.109613882843405,169.92030150465507 16.168323210105882,169.820323654385 16.109613882843405,169.858410477711 16.088646265954594,169.8155627994638 15.962840564650833,170.3059285107811 16.076065695815487,169.73462819742053 16.06348512569093,169.92506234975008 16.029936938663013,169.858410477711 16.004775798413903,169.89649727245705 16.025743415317265,169.81080194409878 16.092839789329446,169.83460621648555 16.029936938663013,169.77271508504782 16.067678649065783,169.8726930290868 16.02154989192786,169.89649727245705 16.03832398544182,169.7869976605325 16.04251750880212,169.8774538786456 16.092839789329446,169.82508450887326 16.046711032191524,169.8488887745625 16.034130462052417,169.7869976605325 16.109613882843405,169.88221472776786 16.138968546452816,169.76319336581219 16.80993228670559,170.03456166377873 17.43476726982044,170.07264832633155 17.883474271089653,170.04884416558707 18.51669630096876,169.82508450887326 19.30927221912134,171.44850984576988 27.90599514101632,177.04678666855034 28.145025973470183,177.1181892737295 28.195348253982957,177.2276730733247 27.838898766989587,177.24195355151096 28.254057581259985,177.24671371002478 28.61470059164276,176.99918487598552 29.05502054617682,177.1705511203836 29.28566433188098,177.3371566368478 29.37372832278197,177.30383557729147 29.331793089033454,177.32287618544433 29.310825472144643,177.19435194191465 29.28147080852068,177.34191678643765 29.36953479940712,177.40379869038952 29.755338950053556,177.45140010365867 29.893725221481873,177.61800469865193 31.8269394980598,178.8699017412182 31.751456077283365,178.9936617497151 31.97371281623782,179.12694142157852 32.1330667045404,179.4601390709213 36.230139043414965,181.9685711977545 36.188203809651895,181.92097401823776 36.251106660303776,181.89717541175196 35.978527640821994,181.83529898270717 35.982721164196846,181.7829419454065 36.41884759537061,181.7829419454065 37.09400485896913,181.93525317677995 38.142385703118634,182.0256877542961 38.32690073167032,182.1637191674672 38.498835190112004,182.44454053987283 39.664634688786464,183.0775728544795 40.65011268228409,183.23463980124143 40.92269170175132,183.34411041634667 41.329463469272014,183.596367892118 51.62875688201166,189.0790888499614 51.163275787228486,190.21648898268904 51.55327346124977,189.75962838997657 51.69165973267809,190.0070950541667 52.09004445343453,190.3687749342971 52.3290752859175,190.71617555358898 52.73584705343819,190.944602064028 45.791372341889655,202.75" stroke="#4dd2ff" stroke-linecap="round" stroke-linejoin="round" stroke-width="0.5"><title>2021-05-04 18.3km</title></polyline><polyline fill="none" points="75.13197141035926,186.08648700395133 76.25232902274001,186.8899289793626 74.80095666111447,191.88907204559655 77.62731336499564,198.79250483895885 77.67823871108703,200.25053583452245 75.10650873731356,195.28129721363075 73.40050964592956,190.40124111264595 72.25468936061952,188.70510427138652 68.38436306349467,177.48653872535215 65.27791695657652,170.70161929435562 64.5904247853905,167.96379854078987 70.62507828802336,164.45220690601855 71.59265986236278,164.39268802670995 75.2592847753549,162.8451927524875 77.90740276814904,162.25 78.54396959324367,162.4880772518518 79.89349126257002,164.80931991807302 89.79847106244415,190.46075450073113 90.4095752146095,201.61929276489536 89.72208304342348,202.12513603587286 85.16426457522903,202.39293504724628 79.61340185953304,201.85733677010285 77.2199105968466,200.63735911887488 73.37504697276745,190.87734786546207 71.46534649736714,187.63385469277273 69.02092988858931,180.81942178943427 68.38436306349467,177.90315126339556 65.3288423025515,171.3563116217265 64.64135013136547,168.55897922764416 64.97236488049384,167.81500317264 69.45379532966763,165.34498858777806 71.69451055431273,164.86883870945894 74.52086725807749,163.17254823059193 78.28934286325239,162.25 80.27543135778978,166.2972859313304 82.4652212363435,172.9335187114193 85.03695121011697,178.34952115651686 86.182771495427,182.3965759325074 87.888770586811,185.46158610662678 90.05309779243544,191.7105327481986 89.72208304342348,192.36517628576257 90.23133650340606,196.8583704547782 90.05309779243544,202.4822013277735 87.2012784157414,202.75 84.29853369295597,202.12513603587286 80.53005808778107,202.12513603587286 77.34722396195866,200.93491513031768 66.09272249275818,172.81448452186305 64.99782755353954,168.9756049606658 65.43069299461786,167.6066895253607 72.0000626303954,164.45220690601855" stroke="#4dd2ff" stroke-linecap="round" stroke-linejoin="round" stroke-width="0.5"><title>2021-04-13 10.1km</title></polyline><polyline fill="none" points="120.41763390356209,186.94727315063938 121.08604771224782,187.63828525255667 119.59497075423133,192.17488826281624 122.6542493404122,200.67706871259725 122.19150131905917,200.76719647369464 121.34312994638458,199.5955333528982 117.84681156219449,190.82292804133613 116.45856749778613,188.50955899010296 114.94178231642582,182.8312097855669 110.21146920823958,171.4441258260922 109.49163895263337,168.6799100736098 110.28859387850389,167.56820703746052 113.45070535840932,165.76543612597743 119.0808062859578,163.63214246090502 121.1374641591683,163.42181686728145 122.75708223425318,162.490373084147 123.45120426628273,162.73074596517836 128.25864204473328,174.9294030724268 130.59809037542436,178.92540118677425 130.9065890563652,181.11866953689605 131.9863344397163,182.71103185875108 131.96062621637248,184.63387259977753 132.93753870599903,186.01590635880711 133.73449363186955,189.3507862749684 134.63428145146463,190.64266619333648 134.68569789815228,195.1491781475488 135.37981993029825,200.13630154635757 135.01990480255336,202.44957611101563 129.36409565154463,202.75 124.53094964975026,202.20923677150859 121.9858355318429,201.39809000279638 117.82110333873425,190.4624042311043 116.35573460406158,188.08894441535813 113.73349581588991,179.91688075338607 110.1600527613191,171.1737146002706 109.5944718462415,167.77852956656716 111.26550636824686,166.57668444950832 115.8672783592483,165.04432456361246 118.97797339234967,163.39177034137538 120.36621745675802,163.42181686728145 122.19150131905917,162.5805129383516 123.1427055853419,162.82088574330555 124.37670030933805,166.12599122192478 126.69044041645247,169.79160876685637 128.87563940661494,175.800715714955 130.7009232690325,178.7150868953031 130.9065890563652,180.72808873883332 132.42337423784193,183.5222318804299 132.8347058123909,186.04595049645286 134.24865810014307,188.9902606001997 134.30007454706356,190.2220547705947 135.17415414296556,191.1233642010484 134.8399472386809,192.56545335357077 135.50836104748305,200.79723905440187 135.22557059000246,202.4796185141895 131.6264193119714,202.71995762528968 123.52832893654704,201.6985150015098 122.3457506595878,201.0375795859727 119.67209542449564,194.1277083576424 116.84419084899127,188.38938346068608 110.21146920823958,170.78312015387928 109.67159651650582,167.86866774578812 111.26550636824686,166.2762223770551 112.85941621987149,165.97575998751563 119.49213786050677,162.88097891275538 122.39716710639186,162.25 123.37407959613483,162.70069936622167 127.38456244871486,171.53426284421585 130.7009232690325,180.48773105823784 133.0660798230674,185.05449228026555 133.91445119585842,188.80999759151018 135.01990480255336,190.94310254327138 135.43123637721874,201.99893968304968 135.14844591973815,202.53970331096207 130.57238215196412,202.44957611101563 124.68519899004605,202.05902458142373 123.16841380880214,201.39809000279638 119.74922009475995,191.78432263620198 119.7235118712997,190.3722732072638 121.11175593559165,186.97731718991417 120.1348434460815,186.46656809025444 118.95226516900584,184.27334095028345 118.51522537099663,184.48365113462205" stroke="#4dd2ff" stroke-linecap="round" stroke-linejoin="round" stroke-width="0.5"><title>2021-04-04 13.1km</title></polyline><polyline fill="none" points="164.3277431546012,184.14022456330713 164.68162041227333,186.20803849899676 165.76852913212497,187.06469979631947 164.25191231362987,191.14119004126405 164.35302010166924,191.9387572745618 167.3104228976881,199.05768263796926 167.6390232082922,200.26876810079557 167.28514595062006,200.29830670511 160.15704690373968,183.9334423293476 155.2785961376503,170.84677012552856 154.72250330424868,168.01075144374045 155.32915003155358,167.24265810399083 158.13489114574622,165.67692284323857 160.71313973725773,164.93836543377256 164.27718926069792,163.22490473580547 165.49048271542415,163.22490473580547 167.94234657206107,162.25 169.33257865568157,166.47456265581422 174.236306368839,177.13908393974998 178.96309545298573,189.57558849206544 180.0752811199054,197.19673622649861 179.797234703321,198.82137266834616 180.35332753672265,201.0072322744527 180.17638890794478,202.070617261983 177.85090978618246,202.1592324952362 172.39108923950698,201.15492487541633 169.50951728445943,201.3321558937023 167.0323764809873,200.35738390439656 162.86168023012578,189.6937474051374 161.47144814650528,187.41917956605903 160.20760079775937,182.86998842726462 155.10165750875603,171.14218708514818 154.64667246327735,168.3947973229515 155.12693445582408,167.62670503742993 163.87275810923893,163.5498722262564 167.18403816281352,163.1362771728891 168.6248241404537,163.3430747759994 175.9551387630636,181.27479999657953 179.39280355162919,190.8753337918024 179.51918828650378,199.1167600992194 179.94889638514724,201.77523294847924 179.44335744553246,202.661384953768 173.8571521640988,201.86384827530128 169.13036307983566,202.04107884463156 166.85543785209302,201.09584784443723 163.31666527572088,190.6094772896904 162.58363381342497,189.75282684285776 158.41293756244704,178.46842790950905 155.63247339532245,172.32385180491838 155.05110361485276,168.33571337582543 159.09541513083968,166.0018874858215 161.06701699492987,165.52921151730698 163.64526558632497,164.08163639635313 167.38625373865943,163.01810704544187 168.4984394054627,163.16581969702384 173.02301291411277,174.59854234187515 176.41012380854227,181.9246926770429 179.08948018797673,189.6937474051374 179.7214038623497,200.09153640913428 179.44335744553246,202.75 172.21415061084554,202.39553964676452 167.41153068561107,201.47984832324437 166.85543785209302,198.5850624991872 164.35302010166924,192.05691518998356 166.07185249589384,186.41481905223918 165.01022072299384,185.41045493388083 165.16188240482006,184.84919106247253 163.61998863937333,184.64240935241105" stroke="#4dd2ff" stroke-linecap="round" stroke-linejoin="round" stroke-width="0.5"><title>2021-03-10 13.2km</title></polyline><polyline fill="none" points="28.115112310144468,267.75 28.298336487117922,267.56698339239665 28.298336487117922,267.40273716781667 28.385784389756736,267.3511168181358 28.073470451738103,267.36519510042126 27.856932788039558,267.06485758079725 27.723678841153742,266.2248418245872 27.39470815975801,265.91980479496124 27.365558858873555,265.67577387648635 27.236469097828376,265.4129700617523 27.323917000481742,265.2205592795108 27.25729002704611,265.018761836709 27.323917000481742,264.6996386927349 27.51546954913647,264.5119182767812 27.773649071226828,263.98160442167136 28.056813708361005,262.86464241322756 28.26502300039283,262.5924379328426 28.352470903046196,262.58774473959056 28.35663508887228,262.30615236496305 28.223381142001017,262.1700488343886 27.615410009297193,262.02455845744043 28.24003788534901,262.1653556028177 28.377456018075463,262.3014591457395 28.377456018075463,262.4751079736852 28.36079927472747,262.5830515459129 28.215052770305192,262.58774473959056 28.46073973487364,262.68630170856704 28.856337389719556,262.28737948549315 29.464308522408828,262.1418894385388 29.622547584338463,261.7241899330802 29.70999548699183,261.17976753693074 29.83908524803701,260.9826476701819 29.68501037193346,260.6634996264693 29.74330897370237,260.4992314833835 29.914040593168465,260.48515133255205 29.922368964835186,260.33496281857515 30.022309425025014,260.2739486102073 29.934861522357096,259.87500778150206 30.197205230302643,259.5887071725301 30.20136941615783,259.16629354374163 30.40125033649383,258.9503919121962 31.217430761185824,258.9410048643076 31.354848893912276,258.80019894127327 31.733789805381093,258.67816683119963 32.037775371733005,258.4575695937783 32.26680559293891,258.5514408736599 32.824806495555094,258.42471460557135 32.94973207075964,258.5514408736599 33.11213531854446,258.57490866700755 33.28703112382209,258.1994226955285 33.62016599105846,258.11963157535865 33.87001714146754,257.9037255740768 34.13236084941309,257.85209574456167 34.290599911342724,257.6878186713475 34.20315200870391,257.46721720922505 34.28643572550209,257.3217136021267 34.103211548543186,256.82418204557325 34.186495265341364,256.5519457713126 34.065733875962906,256.29848312405375 34.169838521964266,255.81502314800673 34.47382408833073,255.44421097687518 34.39886874319927,255.2329876651711 34.49464501751936,254.48665838591478 34.59874966352072,254.38808578886892 34.70285430952208,254.05012117212755 34.877750114843366,253.7872582760756 35.29416869887791,253.4586777764307 35.556512406808906,252.67007605610706 35.88964727403072,252.2335235019891 35.97709517668409,251.93779225767867 36.097856566062546,251.85799147331272 36.30606585807982,251.48245671634504 36.460140734154265,251.35571312005777 37.08893279603217,251.09283652217346 37.209694185410626,250.84404136771627 37.234679300454445,250.68913057222017 37.03063419427781,250.1445919701473 37.14723139781563,250.05539975573993 37.16805232701881,249.8817092122663 37.15139558365627,249.47329941820863 37.08060442436545,249.31369011582865 37.19720162788872,249.05549755361062 37.143067211974994,248.98508117640085 37.213858371265815,248.45460805077164 37.25133604383154,248.48277490229157 37.363769061499625,248.28091212712388 37.39291836239863,248.1119101275217 37.87596391986881,247.43589660190264 37.98839693755144,247.38425631621794 38.363173663194175,247.41711832215515 38.52974109680508,247.33261597891033 38.35900947733899,247.41242375116417 38.16745692869881,246.9101021898532 38.200770415423904,246.7317064415838 37.76769508801226,246.2105995443926 37.82182950395509,245.96178088378656 37.680247185373446,245.75051881627587 37.680247185373446,245.52517165878453 37.60529184025654,245.35616064567148 37.52617230928445,245.27634969728388 37.259664415498264,245.30451828136938 36.718320256259176,244.97588384466508 36.472633291676175,244.79278660886848 36.40600631824054,244.51579212130673 36.13949842443981,244.43597987469911 35.9729309908289,243.8819855882466 35.52736310592445,243.23408642833238 35.30666125638527,242.7786741845157 35.49821380505455,242.40776846265362 35.57316915017145,241.9758242652715 35.50654217673582,241.83966719343516 35.635631937781,241.50162049781284 35.90630401739327,241.16357158975734 36.460140734154265,240.83960597671103 36.65585746866418,240.36069656556356 36.26858818549954,239.56250434508183 36.331050973109086,239.154012965937 36.20612539790454,238.7830812133252 36.28108074302145,238.51074987603715 36.226946327107726,238.50605449556315 36.32688678726845,238.45440528212566 36.381021203196724,238.2196354790758 36.33521515894972,237.8158289210769 36.460140734154265,237.63740176162537 36.43931980495108,237.20072216527842 36.58506630937336,236.81099424552303 36.97649977836409,236.3461342052069 37.143067211974994,236.31796073491205 37.209694185410626,236.21935346784085 37.26799278717954,235.91413930476847 37.105589539409266,235.86248749865626 37.105589539409266,235.93292176690738 37.04312675179972,235.83900938790975 37.05561930932163,235.9282261520093 37.105589539409266,235.8765743599979 37.01397745091526,235.89066121748328 37.0639476810029,236.00805154711998 37.03063419427781,235.9376173813689 37.12641046861245,235.71222740529265 36.92236536242126,235.4257928909392 37.059783495176816,235.28961854811132 37.072276052698726,235.18161795184642 37.434560220790445,234.95152897167645 37.54699323848763,234.7355261387056 37.79268020305608,234.76839619332168 37.98839693755144,234.59934997519304 37.91344159243454,234.50543517038022 37.917605778275174,234.3598668852901 38.01338205260981,233.87150576916974 37.74270997296844,233.72123988090243 37.61362021192326,233.486448554846 37.176380698700086,233.3925317254143 37.097261167742545,232.79615587104854 37.20552999956999,232.59423177630015 37.12641046861245,232.31247590544444 37.16805232701881,232.19038121712583 37.38458999073191,231.87575126618322 37.80933694643318,231.55642338480902 38.05918809684226,231.11499629569153 38.071680654378724,230.76748720791147 37.98839693755144,230.3401417434543 38.02587461013172,230.0865504542635 37.90511322076782,230.0067159016362 37.74687415882363,230.05837356745178 37.75520253049035,229.9456658663039 37.60112765440135,229.8846157587468 37.646933698648354,229.73903444159805 37.73438160130172,229.72494590523274 37.596963468560716,229.54649077849172 37.65526207034418,229.40090850752676 37.61362021192326,229.03460291223746 36.801603973057354,228.50392480965456 36.69333514122991,228.3724285069402 36.73914118546236,228.25032449724313 36.62254398192454,228.18457606466472 36.555917008488905,228.02020461668508 36.381021203196724,227.98733026425907 35.989587734206,227.705549241502 35.71891565459373,227.6398001147827 35.61481100857782,227.50830161000704 35.265019397978904,227.49890884685374 35.21088498205063,227.5505690230857 35.04431754843972,227.45664139144355 34.91939197323518,227.50830161000704 34.77780965466809,227.4190702909218 34.79030221219,227.25 34.56543617681018,227.48012331539576 34.56960036266537,227.58814002787403 34.39054037153255,227.65388922042257 34.41552548657637,227.73372741302228 34.257286424632184,227.75720921086395 34.253122238776996,227.85583264512024 34.31558502638654,227.88401073458226 34.219808752066456,228.01081194670041 34.01159946003463,228.06716794095337 34.00743527420855,228.14230917090754 33.62849436273973,228.57906540361728 33.50356878753519,228.53210254521764 33.06216508844227,228.87023417180535 32.81231393804774,228.96885547888814 32.766507893786184,228.93598173079954 32.69571673452447,229.1238314378097 32.51249255753646,228.97355172690004 32.37507442479546,228.95007048254047 32.121059088545735,229.1285276717099 32.04193955757364,229.08626155111415 31.921178168209735,229.16140129714768 31.704640504496638,229.04869163705007 31.53390888503054,229.1144389686924 31.121654486851185,229.06747659749453 30.942594495718367,229.2928955894713 30.805176363006467,229.2083635828676 30.384593593116733,229.21305980909892 30.501190796654555,229.00642545105075 30.405414522319916,229.00172920602927 29.834921062196372,229.0721728365461 29.60172665513528,229.26941449041624 29.38102480561065,229.33985775553083 29.068710867577465,229.33985775553083 28.702262513630558,229.15670506622337 28.36912764639419,229.16140129714768 27.956873248214833,229.43847816515336 27.648723496036837,229.46665539042806 27.219812354480382,229.38681987884775 26.982453761578654,229.19427490163434 26.665975637704832,229.1191352034657 26.47025890320947,228.9970329605785 26.545214248340926,228.97824797449357 26.499408204093925,229.03460291223746 26.491079832427204,228.96885547888814" stroke="#4dd2ff" stroke-linecap="round" stroke-linejoin="round" stroke-width="0.5"><title>2020-12-27 15.1km</title></polyline><polyline fill="none" points="70.20358816254884,247.63702709114295 65.38251320074778,235.91390618213336 64.81227852788288,233.67222127894638 65.07147610629909,232.39990584019688 74.55810748285148,227.76499474380398 77.77215745754074,227.25 78.62750946683809,227.55293819648796 82.54139290377498,235.88361325958977 83.00794854515698,238.30703695325064 86.06647997256368,245.8498122097226 87.8808630227577,249.18189878223347 89.66932631505188,254.42228393803816 90.47283880866598,267.4471042351797 87.85494326485787,267.7197104379302 77.59071915259119,266.26580769824795 72.19940951780882,253.81646395646385 65.38251320074778,236.0047849304683 64.70859949628357,233.3995827313047 65.12331562198233,232.15755940272356 75.2320211873157,228.0073448914627 78.05727479397319,227.4923505828192 78.91262680338696,227.73470096086385 83.73370176518802,238.82201185135636 84.77049207955133,242.6994402303826 88.06230132770725,249.6059797523485 89.20277067366987,253.1197693964932 89.20277067366987,255.93682829709724 90.2654807458166,261.5405729295744 90.0322029250674,263.9637799648335 90.47283880866598,266.7504427631211 90.08404244063422,267.3259458398097 81.40092355781235,267.1744977736671 78.03135503618978,266.4778356398165 77.30560181604233,265.87204110549646 71.99205145484302,253.8770460122032 65.4084329585312,236.79239954333752 64.55308094911743,233.4298759160447 64.52716119133402,232.58166553403134 65.33067368494812,231.88491941578104 69.78887203673366,230.4308351102518 75.38753973459825,227.88616984323016 78.2905526147224,227.28029383413377 78.88670704548713,227.79528852345538 83.08570781862363,238.97347488076775 85.15928844746668,243.06294645470916 85.4184860259993,244.698718765605 88.14006060140673,249.84831145388307 89.74708558863495,255.42188411182724 90.29140050371643,259.6625734049303 90.0322029250674,261.87376511009643 90.47283880866598,267.5985521575785 88.24373963277321,267.75 84.30393643816933,267.0836288955179" stroke="#4dd2ff" stroke-linecap="round" stroke-linejoin="round" stroke-width="0.5"><title>2020-11-29 10.7km</title></polyline><polyline fill="none" points="115.13812271202914,247.15597712577437 110.16180147905834,235.91406817449024 109.77703437337186,233.18596449689358 113.16298490308691,231.3872004810837 116.80544683639891,230.33791620959528 123.0899762287736,227.66971873838338 123.80820815928746,227.81961813752423 128.9384362344863,240.08112100113067 130.27229553402867,241.90980833154754 135.1203610652592,255.48969172872603 134.8638496614294,259.98619876030716 135.4025236092275,261.904686761176 135.5307793112006,267.2404133757518 134.94080308254343,267.75 127.68153035617433,267.63009734707884 123.80820815928746,266.9106803670584 122.0895817540586,266.04138241839246 118.70363122434355,256.5388830701704 116.67719113465864,253.48122892077663 114.57379762385972,247.0360657784331 109.54617411002982,234.6849258057482 109.46922068891581,233.51573666377226 110.34135946177412,232.31656331202248 116.44633087120019,229.85824210831197 119.65272341819946,227.93953759974102 123.83385929954238,227.6397388491023 134.50473369611427,254.47047357138945 134.40212913462892,257.9777677501552 135.0434076441452,262.92387824101024 134.81254738068674,267.60012167604873 130.6827137802029,267.72002434154274 127.45067009271588,267.0305833235907 124.03906842251308,266.9106803670584 121.88437263097148,266.2212373846851 121.01223385822959,262.7440211868088 118.72928236471489,258.097674477729 118.21625955717172,256.20913763766293 117.11326052097138,255.15994507807773 116.44633087120019,253.5411832401296 114.83030902745668,247.54568865484907 113.16298490308691,244.51791578906705 111.49566077860072,239.0618475418305 109.67442981188651,235.22454993985593 109.54617411002982,233.545715932647 110.11049919831567,232.64633648854215 115.2407272735145,229.79828278865898 116.88240025774576,229.46850630434346 120.65311789291445,227.45985944676795 123.85951044003014,227.25 127.75848377717193,237.56290933780838 131.5548525529448,245.8069715493475 134.63298939808737,253.90090889038402 135.06905878451653,256.59883674408775" stroke="#4dd2ff" stroke-linecap="round" stroke-linejoin="round" stroke-width="0.5"><title>2020-11-17 10.2km</title></polyline><polyline fill="none" points="160.1352403089404,246.32169247002457 155.9988684274722,237.0660415131133 155.1161061358871,233.52876903055585 155.41876749286894,232.7033990029595 166.61723770818207,228.66494619104196 168.1557662738487,228.34068832235062 169.06375034537632,228.7239021267742 173.14967866707593,239.07047602775856 175.62141308397986,243.90464124555 179.88389386422932,255.69493713838165 179.75778496544808,258.31821027360274 179.35423648916185,258.87823168365867 179.85867208440322,260.64671297441237 180.26222056068946,266.92473111502477 176.83205851272214,267.75 174.30988053628244,267.1015746527992 172.1408074767096,267.27841807861114 167.4747782201739,265.53945286147064 163.41407167818397,255.72441225429066 161.54765997559298,252.36422899976606 160.00913141004276,247.55968621422653 154.86388833809178,234.97316070779925 154.68733587977476,233.46981410955777 155.16654969530646,232.85078668681672 158.04183258849662,231.17056247818982 161.54765997559298,230.1683186617738 166.5667941486463,227.9574739919044 168.81153254769742,227.89851789438399 173.0235697684111,238.62832259238348 175.5205259649083,243.639353861392 179.7073414057959,255.19385969161522 180.31266412022524,262.0025410466187 180.1361116617918,267.1605224738887 169.6186295002699,266.27630385171506 167.60088711907156,265.4510306119919 166.03713677369524,262.53308067432954 163.8176201544702,256.10758847827674 162.35475692816544,253.77904792971094 159.47947403497528,246.61645338317612 157.46173165389337,240.07268788901274 155.64576351083815,236.47649921145057 155.16654969530646,233.70563371904427 156.37719512404874,231.87802653529798 160.05957496957853,230.07988521110383 161.2702203982044,230.07988521110383 164.59949532710016,227.78060566194472 168.30709695245605,227.25 172.24169459554832,235.3563654087775 176.6807278341148,247.11754622132867 178.21925639978144,249.91775435267482 179.73256318562198,254.3980289575702 179.75778496544808,257.6108132029185" stroke="#4dd2ff" stroke-linecap="round" stroke-linejoin="round" stroke-width="0.5"><title>2020-11-15 10.2km</title></polyline></svg>