<?xml version="1.0" encoding="utf-8" ?>
<svg baseProfile="full" height="200mm" version="1.1" viewBox="0,0,200,200" width="200mm" xmlns="http://www.w3.org/2000/svg" xmlns:ev="http://www.w3.org/2001/xml-events" xmlns:xlink="http://www.w3.org/1999/xlink"><defs /><rect fill="#1a1a1a" height="200" width="200" x="0" y="0" /><text alignment-baseline="middle" fill="#e1ed5e" style="dominant-baseline: central; font-size:9.0px; font-family:Arial;" text-anchor="middle" x="100.0" y="100.0">2022</text><line stroke="#e1ed5e" stroke-width="0.3" x1="100.0" x2="100.0" y1="15.0" y2="10.0" /><path d="M 100.0 14.0 a86.0,86.0 0 0,1 42.46469731375804,11.215312516191453" fill="none" id="id25" stroke="none" /><text fill="#e1ed5e" style="font-size:6.75px; font-family:Arial;" text-anchor="middle"><textPath startOffset="22.20632615414155" xlink:href="#id25">January</textPath></text><path d="M 100.36148047927253 79.00311137660856 l 0.6677012290909062 -38.78397076693482 a59.78971788221441,59.78971788221441 0 0,0 1.028876739611686,0.02657285070211351 l -1.3352046038974599 38.76673112409035" fill="#30ff2f" stroke="none" /><path d="M 102.52436894288641 79.15227682838746 l 0.690038718415236 -5.698745510141731 a26.740370530050537,26.740370530050537 0 0,0 0.4564775709174266,0.05926388969908832 l -0.7880310178405087 5.686023297278506" fill="#ff4c07" stroke="none" /><line stroke="#e1ed5e" stroke-width="0.3" x1="143.23703022742887" x2="145.7803849466894" y1="26.81831364943548" y2="22.513508569990506" /><path d="M 143.74570117128098 25.957352633546492 a86.0,86.0 0 0,1 28.547481713284135,27.462654790039103" fill="none" id="id26" stroke="none" /><text fill="#e1ed5e" style="font-size:6.75px; font-family:Arial;" text-anchor="middle"><textPath startOffset="19.985693538727396" xlink:href="#id26">February</textPath></text><path d="M 111.2981086023043 82.29822771554956 l 1.6070809002384945 -2.5179595222610387 a23.98711050610057,23.98711050610057 0 0,0 0.3461374018811808,0.22513739462174814 l -1.6501853279039556 2.4899232034797625" fill="#ff2603" stroke="none" /><path d="M 117.45458315368197 88.32363383020206 l 5.501229575354643 -3.680086218066622 a27.618652537575947,27.618652537575947 0 0,0 0.2609349328731168,0.397421804482506 l -5.563761143585685 3.5848463496064418" fill="#ff5808" stroke="none" /><line stroke="#e1ed5e" stroke-width="0.3" x1="172.23445277983987" x2="176.4835382374775" y1="55.19839476539836" y2="52.563006222186495" /><path d="M 173.08426987136738 54.67131705675599 a86.0,86.0 0 0,1 12.851231095245387,41.99856678651699" fill="none" id="id27" stroke="none" /><text fill="#e1ed5e" style="font-size:6.75px; font-family:Arial;" text-anchor="middle"><textPath startOffset="22.20632615414155" xlink:href="#id27">March</textPath></text><path d="M 118.56541770881063 90.18545643968196 l 4.4623661713373926 -2.3590143705679236 a26.047540059042852,26.047540059042852 0 0,0 0.20613597367604322,0.39818908937948305 l -4.502311578173552 2.2818525589280956" fill="#ff4206" stroke="none" /><path d="M 119.7369772167798 92.82701384747503 l 0.7813752809236222 -0.2839742888908751 a21.831377607582468,21.831377607582468 0 0,0 0.12531930058437032,0.354294538430522 l -0.7861476623178021 0.27048212403373856" fill="#ff0701" stroke="none" /><path d="M 120.45610955862082 95.25157060432595 l 4.470240669823154 -1.0376666267599446 a25.5890961718439,25.5890961718439 0 0,0 0.09590502382232322,0.4299234167100941 l -4.487440080647515 0.9605650404998867" fill="#ff3c05" stroke="none" /><path d="M 120.53481517161879 95.60439243477599 l 1.1758260247573427 -0.25169302604456895 a22.202462564846044,22.202462564846044 0 0,0 0.07677897447047825,0.3744015470158342 l -1.1799842951428179 0.23141582286532295" fill="#ff0c01" stroke="none" /><path d="M 120.6074358757038 95.95851677861258 l 3.1244792028115347 -0.612765719612146 a24.18399939006489,24.18399939006489 0 0,0 0.07659910535212242,0.40919548371057457 l -3.1345640320735164 0.5588921584390086" fill="#ff2803" stroke="none" /><path d="M 120.67395015179393 96.31383870115 l 2.850720748703927 -0.5082829561136997 a23.895679600813384,23.895679600813384 0 0,0 0.06871502899058574,0.4055599908372008 l -2.859047639214736 0.459137176960661" fill="#ff2403" stroke="none" /><path d="M 120.73433829027371 96.67025291283417 l 2.8368572716966662 -0.4555736047563292 a23.87320491600041,23.87320491600041 0 0,0 0.061665746257569334,0.4063002203344883 l -2.8442789113935354 0.4066742720297587" fill="#ff2403" stroke="none" /><path d="M 120.78858239683441 97.02765380044208 l 1.4605660733903088 -0.2088313639945926 a22.47541987018158,22.47541987018158 0 0,0 0.05146229096253992,0.38345384256578297 l -1.463944363410685 0.18365917936414528" fill="#ff1001" stroke="none" /><path d="M 120.83666639777658 97.38593545837742 l 4.0270559933843995 -0.5052144176267153 a25.05862311401676,25.05862311401676 0 0,0 0.05000943090116905,0.4284502637164427 l -4.035155777289157 0.43582041558541984" fill="#ff3505" stroke="none" /><path d="M 120.87857604477298 97.74499172005257 l 9.034527246317426 -0.9757817631895862 a30.08706952839172,30.08706952839172 0 0,0 0.05118079063584689,0.5153835770837847 l -9.049985162635501 0.8201226554013666" fill="#ff790b" stroke="none" /><path d="M 120.91429891909075 98.10471618934814 l 0.728291262002725 -0.06599880032569548 a21.731275600546027,21.731275600546027 0 0,0 0.030553672826997176,0.37283219810472 l -0.7293194186492169 0.05345268501320669" fill="#ff0500" stroke="none" /><path d="M 120.94382443527127 98.46500227214037 l 3.440741170188597 -0.25217600036304855 a24.44996993253418,24.44996993253418 0 0,0 0.02715042137078609,0.4200050015451206 l -3.4445721825637987 0.1929119345648927" fill="#ff2c04" stroke="none" /><path d="M 120.96714384426684 98.82574320788733 l 3.176907971903108 -0.17792150383630614 a24.18188628386825,24.18188628386825 0 0,0 0.019698324782137542,0.4158005027624022 l -3.179499904918742 0.12320989445090418" fill="#ff2803" stroke="none" /><path d="M 120.98425023603335 99.18683210126433 l 0.46741703968944626 -0.018113038479918617 a21.46776786032713,21.46776786032713 0 0,0 0.011130838848501171,0.3693783521945878 l -0.4676595729935925 0.010064538860331708" fill="#ff0200" stroke="none" /><line stroke="#e1ed5e" stroke-width="0.3" x1="184.98032266829074" x2="189.97916517819016" y1="98.17113171792111" y2="98.06355123074" /><path d="M 185.9800911702706 98.14961562048488 a86.0,86.0 0 0,1 -9.607161424134198,41.387399972396054" fill="none" id="id28" stroke="none" /><text fill="#e1ed5e" style="font-size:6.75px; font-family:Arial;" text-anchor="middle"><textPath startOffset="21.466115282336823" xlink:href="#id28">April</textPath></text><path d="M 120.99513854157772 99.54816195383933 l 2.606696809912725 -0.056098929339844325 a23.60730039479195,23.60730039479195 0 0,0 0.005246433472021185,0.4063420541805816 l -2.6072762505024616 0.011220617098800005" fill="#ff2003" stroke="none" /><path d="M 120.99980553446 99.90962569577887 l 3.8428469272073356 -0.016537992064010857 a24.8428825133132,24.8428825133132 0 0,0 -0.001840387602977121,0.42764126488867354 l -3.8425622423148558 -0.04961275102834743" fill="#ff3204" stroke="none" /><path d="M 120.99824983174949 100.27111621757518 l 8.753472756410071 0.11301934415396002 a29.754202343410068,29.754202343410068 0 0,0 -0.011020300984983227,0.5120700833309538 l -8.75023039274008 -0.2636792432750286" fill="#ff750a" stroke="none" /><path d="M 120.9764740272857 100.99374915477107 l 6.748450581229905 0.3197042101731759 a27.756019244296503,27.756019244296503 0 0,0 -0.026716687322056842,0.4770443993907094 l -6.741947543020319 -0.43582032589930864" fill="#ff5a08" stroke="none" /><path d="M 120.95626037817324 101.35467743843564 l 2.735570345718881 0.1768357217234572 a23.741279990962976,23.741279990962976 0 0,0 -0.02987268186070209,0.4075890100330413 l -2.7321211051938414 -0.22389786825326882" fill="#ff2203" stroke="none" /><path d="M 120.92983693683757 101.71520430193887 l 1.9766392768867254 0.16198598208523446 a22.98326556197686,22.98326556197686 0 0,0 -0.035706586563366005,0.3940192073448746 l -1.973558094046284 -0.1959865779786796" fill="#ff1702" stroke="none" /><path d="M 120.89721153311464 102.0752229133903 l 2.3443115140600574 0.2328046956117993 a23.355842630833703,23.355842630833703 0 0,0 -0.0431723836872658,0.3997226546191249 l -2.3399568288717396 -0.2731236721157156" fill="#ff1d02" stroke="none" /><path d="M 120.8583938346157 102.4346265915055 l 8.363010183708786 0.9761445267419802 a29.41978607031706,29.41978607031706 0 0,0 -0.06304028435451756,0.5024930921945591 l -8.34496839010742 -1.119955373223934" fill="#ff710a" stroke="none" /><path d="M 120.76222939487914 103.15116336523771 l 0.794289112858025 0.1205523119045537 a21.803385371232462,21.803385371232462 0 0,0 -0.05951103802208537,0.3705752905712475 l -0.7920963204746512 -0.13420683216900614" fill="#ff0601" stroke="none" /><path d="M 120.70491114924044 103.5080841355445 l 1.382859772065166 0.234301340058755 a22.402568453641194,22.402568453641194 0 0,0 -0.06769155567254255,0.3796501927650677 l -1.3786217740534348 -0.25807028355704104" fill="#ff0f01" stroke="none" /><path d="M 120.5718875245553 104.21870165774334 l 0.698895722295483 0.1433233843378899 a21.71344013283596,21.71344013283596 0 0,0 -0.0782365866785852,0.36549528666151687 l -0.6963250968924547 -0.1553324904155758" fill="#ff0500" stroke="none" /><path d="M 120.49622156327973 104.57218783832717 l 1.2567335503726267 0.28034542060795264 a22.287622915098996,22.287622915098996 0 0,0 -0.08675131827778258,0.3737224086477477 l -1.2517216661642914 -0.30193648660426525" fill="#ff0d01" stroke="none" /><path d="M 120.41448212921028 104.9243191809786 l 8.1592952722419 1.9681603460750194 a29.393316060264333,29.393316060264333 0 0,0 -0.12287621835430883,0.49082941191086266 l -8.124207739592531 -2.108317597383278" fill="#ff700a" stroke="none" /><path d="M 120.02730092923936 106.31721596034902 l 8.152070709850289 2.571409466513465 a29.548005820241002,29.548005820241002 0 0,0 -0.15717815319704548,0.48374461449816025 l -8.106600305636995 -2.7113529809894206" fill="#ff720a" stroke="none" /><path d="M 119.9155931802556 106.66101706037122 l 3.355849199483197 1.1224053718847755 a24.538575655331933,24.538575655331933 0 0,0 -0.13742673774572642,0.3994264279190864 l -3.33603163079424 -1.1800045028931623" fill="#ff2d04" stroke="none" /><path d="M 119.79798401119884 107.00284435728193 l 1.3677038147917733 0.4837773854363044 a22.45074266624221,22.45074266624221 0 0,0 -0.1320058115093211,0.36322329903353506 l -1.3591737422772254 -0.5072484814759706" fill="#ff1001" stroke="none" /><path d="M 119.67450827220406 107.3425965602758 l 9.056030081797822 3.379742680649656 a30.666144082819788,30.666144082819788 0 0,0 -0.18882418346277774,0.4929603589742474 l -8.996511618741538 -3.5351266064570472" fill="#ff810b" stroke="none" /><path d="M 119.54520255179757 107.68017299344265 l 0.7668003737348944 0.30130972069045353 a21.823875209569103,21.823875209569103 0 0,0 -0.14039754702788987,0.3484551978041938 l -0.7615002124496121 -0.31446428633746093" fill="#ff0701" stroke="none" /><path d="M 119.41010516605496 108.01547362559984 l 1.9145042121311024 0.7906014875835727 a23.07132254620981,23.07132254620981 0 0,0 -0.15474157824901966,0.36576338105742084 l -1.9006116526897738 -0.8234393943071571" fill="#ff1902" stroke="none" /><path d="M 119.26925614724726 108.34839909993367 l 2.001851804003424 0.8673016576786867 a23.18165597897651,23.18165597897651 0 0,0 -0.1617846835434095,0.3647817514812867 l -1.9866260357287417 -0.9016317456526611" fill="#ff1a02" stroke="none" /><path d="M 119.12269723197855 108.67885076344098 l 2.1228567635704128 0.9634601656705039 a23.331260673856633,23.331260673856633 0 0,0 -0.1691242902708381,0.36427867524019897 l -2.105957856459743 -0.9998589081895335" fill="#ff1c02" stroke="none" /><path d="M 118.97047184881838 109.00673069616215 l 0.7370411739407641 0.3499296917109183 a21.8158924446426,21.8158924446426 0 0,0 -0.1639794084014521,0.33784615040340377 l -0.7309085089245977 -0.36256479807959757" fill="#ff0701" stroke="none" /><path d="M 118.81262510543309 109.33194174019688 l 2.052490935689334 1.0181314796202177 a23.29113743605235,23.29113743605235 0 0,0 -0.18125088866621436,0.35762519861470415 l -2.0346613772368505 -1.053310889937616" fill="#ff1c02" stroke="none" /><path d="M 118.64920377521936 109.65438752849418 l 0.3714742306096868 0.19230612858231524 a21.418299833967666,21.418299833967666 0 0,0 -0.17231276357314412,0.3259508109199623 l -0.3681089588116496 -0.19867195458841186" fill="#ff0100" stroke="none" /><line stroke="#e1ed5e" stroke-width="0.3" x1="174.80103733775053" x2="179.2010983576182" y1="140.37084112569926" y2="142.7455964860345" /><path d="M 175.68104954172406 140.8457921977663 a86.0,86.0 0 0,1 -30.038265399797805,32.042727171017184" fill="none" id="id29" stroke="none" /><text fill="#e1ed5e" style="font-size:6.75px; font-family:Arial;" text-anchor="middle"><textPath startOffset="22.206326154141568" xlink:href="#id29">May</textPath></text><path d="M 118.30583269289576 110.29060199501025 l 4.843763972839508 2.722916134899738 a26.556646623843854,26.556646623843854 0 0,0 -0.22743618496118886,0.3965541591329148 l -4.79617579172594 -2.805890139890968" fill="#ff4a06" stroke="none" /><path d="M 117.94076556474637 110.91462005526583 l 8.958096069471418 5.449835162495918 a31.48561817387302,31.48561817387302 0 0,0 -0.2856725525731349,0.46059511486885757 l -8.862958877230321 -5.60322660873005" fill="#ff8c0c" stroke="none" /><path d="M 117.55443506779139 111.5257021239791 l 0.5594914309937135 0.3673448646823172 a21.669307784926982,21.669307784926982 0 0,0 -0.20740302726998144,0.31003938495634725 l -0.553085298313011 -0.37692116384447133" fill="#ff0400" stroke="none" /><path d="M 117.35343817320211 111.8261652097733 l 1.9832249688869121 1.351544627416985 a23.399969615873545,23.399969615873545 0 0,0 -0.22969754804998804,0.33089644961866194 l -1.9596665136747877 -1.3854823392226665" fill="#ff1d03" stroke="none" /><path d="M 117.14729908036423 112.12312394758627 l 3.2464880800852525 2.295263948262509 a24.97591768606057,24.97591768606057 0 0,0 -0.251210405679027,0.34890928200518645 l -3.206497882030623 -2.3508068357188265" fill="#ff3404" stroke="none" /><path d="M 116.498646956653 112.99209946851258 l 1.9867695621850792 1.564510583245921 a23.5288231765613,23.5288231765613 0 0,0 -0.25330692717376774,0.31603933936985334 l -1.9595447229564575 -1.5984777561940247" fill="#ff1f03" stroke="none" /><path d="M 116.27256486870786 113.27417163493432 l 2.1588103630074373 1.7610265816756332 a23.785978608101015,23.785978608101015 0 0,0 -0.2615370289074825,0.3150381994464745 l -2.1281773342064114 -1.7979260382358782" fill="#ff2303" stroke="none" /><path d="M 115.56566222782051 114.09645910891815 l 2.642560171344895 2.393135663167662 a24.565139907703944,24.565139907703944 0 0,0 -0.2865390123085581,0.31098150571870226 l -2.6009747510406154 -2.438268423687699" fill="#ff2e04" stroke="none" /><path d="M 115.32070863581623 114.36230785411682 l 1.3101086722459112 1.2281536396532058 a22.795757805409004,22.795757805409004 0 0,0 -0.2708282013714943,0.28396228638113147 l -1.2887739194954524 -1.2505230426168443" fill="#ff1502" stroke="none" /><path d="M 115.07121518719521 114.62390073753431 l 1.5903347380975192 1.5431335204576118 a23.215948023117782,23.215948023117782 0 0,0 -0.2807575070806746,0.28440587239037357 l -1.5635366059613092 -1.57027988682865" fill="#ff1b02" stroke="none" /><path d="M 114.55890576462653 115.13401014063108 l 6.215124675451707 6.460633881710232 a29.964795864095898,29.964795864095898 0 0,0 -0.37479419539488223,0.3543913052200232 l -6.102994645666017 -6.566659823676177" fill="#ff780b" stroke="none" /><path d="M 114.0293411484842 115.62618273729858 l 29.03519178570601 32.34002280320723 a64.46170080593595,64.46170080593595 0 0,0 -0.8320398546712627,0.7341784321323085 l -28.47420957812816 -32.83502437711183" fill="#35ff65" stroke="none" /><path d="M 113.48314897796784 116.09983520530334 l 5.755826815755136 6.872865037340138 a29.964698330365522,29.964698330365522 0 0,0 -0.39828773300723985,0.3277636889741484 l -5.636668954203206 -6.970923845171464" fill="#ff780b" stroke="none" /><path d="M 113.20401910651253 116.32954008644616 l 5.362491074903293 6.63184536954002 a29.528639020025814,29.528639020025814 0 0,0 -0.3979933345177318,0.31618997529470083 l -5.247540247668209 -6.723169258839847" fill="#ff720a" stroke="none" /><path d="M 112.63410532772338 116.77436683061366 l 2.345724158500718 3.114430068251931 a24.89898659625878,24.89898659625878 0 0,0 -0.34457236791521506,0.2549064002217847 l -2.2917668201669383 -3.1543464172134845" fill="#ff3204" stroke="none" /><path d="M 112.34349029814194 116.9893568818739 l 4.57967293857826 6.303379034330206 a28.791404974379116,28.791404974379116 0 0,0 -0.4034535084188314,0.2878533659017993 l -4.470492102310544 -6.381276662076225" fill="#ff6809" stroke="none" /><path d="M 112.04921762599082 117.19931262002967 l 9.539907981656635 13.61747001638509 a37.62664530040931,37.62664530040931 0 0,0 -0.5336589170220789,0.36705546928959243 l -9.304092180011672 -13.779666275039776" fill="#ffdb14" stroke="none" /><path d="M 111.1453310114006 117.79835938074945 l 8.033918009995984 12.829637794617176 a36.13748474920478,36.13748474920478 0 0,0 -0.5300522364230499,0.3256013759220543 l -7.811886573640626 -12.966027637367608" fill="#ffc812" stroke="none" /><line stroke="#e1ed5e" stroke-width="0.3" x1="143.8653032363475" x2="146.44561519142675" y1="172.8068346515853" y2="177.08958963109032" /><path d="M 144.38136562736335 173.6633856474863 a86.0,86.0 0 0,1 -40.68145358897372,12.25698825130547" fill="none" id="id30" stroke="none" /><text fill="#e1ed5e" style="font-size:6.75px; font-family:Arial;" text-anchor="middle"><textPath startOffset="21.466115282336833" xlink:href="#id30">June</textPath></text><path d="M 110.8373102113329 117.98757091392108 l 0.9390502925744973 1.5586186424522959 a22.819644889692515,22.819644889692515 0 0,0 -0.3382003172093001,0.19981470866982393 l -0.9120821043368151 -1.5745519234158694" fill="#ff1502" stroke="none" /><path d="M 110.5260780823613 118.17145234162733 l 6.505805514000505 11.231147433692268 a33.979375102959764,33.979375102959764 0 0,0 -0.5086408791839291,0.28881956591214947 l -6.311515867895377 -11.341470165399045" fill="#ffac10" stroke="none" /><path d="M 110.21172684928248 118.3499491758327 l 8.621846464135482 15.493015701828663 a38.73047579700655,38.73047579700655 0 0,0 -0.5853414049258712,0.31917480468875886 l -8.353882247340962 -15.639131158277191" fill="#ffe815" stroke="none" /><path d="M 109.57404056367764 118.69057910512821 l 17.47741315075118 34.11965625949295 a59.33550461006098,59.33550461006098 0 0,0 -0.9130493547815598,0.4578219010811543 l -16.88750988828686 -34.4154460014834" fill="#35ff2f" stroke="none" /><path d="M 109.2508944713604 118.85261126421891 l 4.829352469832649 9.841848812946365 a31.96287523119608,31.96287523119608 0 0,0 -0.49601410153028264,0.23811691146184583 l -4.659225700302134 -9.923520000907772" fill="#ff920d" stroke="none" /><path d="M 108.2653958097858 119.30500536409082 l 1.429132235300107 3.3379412315377857 a24.63101509376839,24.63101509376839 0 0,0 -0.3911974531105037,0.1635205671272434 l -1.3714633226921424 -3.362046841685002" fill="#ff2f04" stroke="none" /><path d="M 107.59598834532513 119.57807347666477 l 7.093008525684035 18.281681826423057 a40.60945334138597,40.60945334138597 0 0,0 -0.6538697853985124,0.24723760342425344 l -6.777268519525248 -18.40106767995394" fill="#ffff18" stroke="none" /><path d="M 106.91757812671514 119.82793768551818 l 0.16181604940347516 0.46381529565932156 a21.49123218780134,21.49123218780134 0 0,0 -0.35033805973133797,0.1188536911509602 l -0.15380825673491025 -0.46653197370840477" fill="#ff0200" stroke="none" /><path d="M 106.57524785965236 119.94407469862006 l 3.885714831013441 11.786169662563136 a33.41018029936235,33.41018029936235 0 0,0 -0.5477339016063635,0.17536709842784118 l -3.682259584316137 -11.851309607650684" fill="#ffa50f" stroke="none" /><path d="M 105.88484417918355 120.15858648285463 l 0.536562208483922 1.8379986544784352 a22.914716181954308,22.914716181954308 0 0,0 -0.37958645483004444,0.10727492372158534 l -0.5048445855492718 -1.8469623715385395" fill="#ff1602" stroke="none" /><path d="M 105.53697534728816 120.25689768951611 l 2.1466785107123743 7.853574241590409 a29.141674090537318,29.141674090537318 0 0,0 -0.48501398129120743,0.12809660068248602 l -2.0111740866096692 -7.889362191576479" fill="#ff6d0a" stroke="none" /><path d="M 105.18746579009965 120.34920634021253 l 9.826268340631799 38.546136034175746 a60.778890792319544,60.778890792319544 0 0,0 -1.0160109509330888,0.2497107723157296 l -9.1613041049555 -38.7095680648055" fill="#30ff3a" stroke="none" /><path d="M 104.48393922423573 120.51570834832081 l 0.07643428078697741 0.3497155813271683 a21.357970930527078,21.357970930527078 0 0,0 -0.35983964198874346,0.07540789563404632 l -0.07040317736885593 -0.3509794576877558" fill="#ff0000" stroke="none" /><path d="M 104.13013068566511 120.58985236759428 l 0.766565617220323 3.8215432125239155 a24.897667940024135,24.897667940024135 0 0,0 -0.4209275447784937,0.0806717657727984 l -0.7006704578701248 -3.834172176645182" fill="#ff3204" stroke="none" /><path d="M 101.98527174616119 120.90594882070398 l 0.3689192306970163 3.884912264952516 a24.902389614730513,24.902389614730513 0 0,0 -0.4270827200742483,0.03685049415837132 l -0.3019921928812263 -3.8906870113895504" fill="#ff3204" stroke="none" /><path d="M 101.26447882468166 120.96189622390904 l 0.46662883084934376 7.735538892721635 a28.749600275278002,28.749600275278002 0 0,0 -0.4942356537008795,0.02554633793553053 l -0.33340510873498463 -7.742425037419368" fill="#ff6709" stroke="none" /><path d="M 100.90346689309514 120.98055641714683 l 0.7639461604878931 17.740567631503755 a38.757008577575306,38.757008577575306 0 0,0 -0.6667675442404234,0.02296482238725627 l -0.45845826457281746 -17.751089252317104" fill="#ffe815" stroke="none" /><line stroke="#e1ed5e" stroke-width="0.3" x1="102.19456741930631" x2="102.32365962044197" y1="184.97166512339345" y2="189.96999836594603" /><path d="M 102.22038585953345 185.97133177190398 a86.0,86.0 0 0,1 -42.740103519485714,-10.115201625700543" fill="none" id="id31" stroke="none" /><text fill="#e1ed5e" style="font-size:6.75px; font-family:Arial;" text-anchor="middle"><textPath startOffset="22.20632615414155" xlink:href="#id31">July</textPath></text><path d="M 97.65516085044442 120.86867818915974 l -5.218111633958064 46.440325113481755 a67.73256343996478,67.73256343996478 0 0,0 -1.157493313573115,-0.14015632058859304 l 6.016732370582568 -46.34362326416782" fill="#39ff8a" stroke="none" /><path d="M 93.08242187328487 119.8279376855182 l -2.359707090318773 6.763656916605558 a28.163467905815374,28.163467905815374 0 0,0 -0.45635605872292606,-0.16363304628717923 l 2.4757827096714258 -6.722036329278421" fill="#ff6008" stroke="none" /><path d="M 92.7421414339146 119.70592522655815 l -5.410305078200044 14.689603876006892 a36.654260221204765,36.654260221204765 0 0,0 -0.5901855674662433,-0.22315768144418355 l 5.66236086642657 -14.594297944456075" fill="#ffce13" stroke="none" /><path d="M 90.42595943632237 118.69057910512821 l -16.562978723009653 32.334484273383225 a57.32975553736272,57.32975553736272 0 0,0 -0.8744401073594902,-0.4574657355787244 l 17.11710973289564 -32.04458911885978" fill="#48ff2c" stroke="none" /><path d="M 90.10565033884886 118.52300852407294 l -0.87707683602102 1.641957507694766 a22.861528466975418,22.861528466975418 0 0,0 -0.34551083910636604,-0.18840005791763456 l 0.9052104869960266 -1.6266167980173656" fill="#ff1602" stroke="none" /><line stroke="#e1ed5e" stroke-width="0.3" x1="58.666819895761336" x2="56.23545636021788" y1="174.27360380694188" y2="178.64263932499728" /><path d="M 58.180547188652646 175.14741091055294 a86.0,86.0 0 0,1 -31.652253787137756,-30.449443065178592" fill="none" id="id32" stroke="none" /><text fill="#e1ed5e" style="font-size:6.75px; font-family:Arial;" text-anchor="middle"><textPath startOffset="22.20632615414155" xlink:href="#id32">August</textPath></text><path d="M 88.54995079064634 117.60387380957326 l -4.268084736474252 6.5619652575885885 a28.82789469522452,28.82789469522452 0 0,0 -0.4136463835110088,-0.27414226754321047 l 4.380405818725223 -6.48752496895406" fill="#ff6909" stroke="none" /><path d="M 88.24862548938628 117.40417183066458 l -8.779919038485987 13.003348626760186 a36.68993479372794,36.68993479372794 0 0,0 -0.5203735467593783,-0.3579176704804294 l 9.002449469868257 -12.850290166914656" fill="#ffcf13" stroke="none" /><path d="M 87.95078237400918 117.19931262002967 l -21.036849887433664 30.02845238467132 a57.66411059612506,57.66411059612506 0 0,0 -0.8080462815399542,-0.576519566919334 l 21.550623496822503 -29.661888555907765" fill="#45ff2d" stroke="none" /><path d="M 86.24171649860922 115.8653595955263 l -41.274850504172335 47.596078786578886 a84.0,84.0 0 0,0 -1.0842305883736492,-0.9567074329108447 l 42.08802344545257 -46.878548211895755" fill="#4dd2ff" stroke="none" /><path d="M 85.18274418774928 114.88116024355367 l -5.5353832983428335 5.559256512533541 a28.845113207068422,28.845113207068422 0 0,0 -0.3488327104890228,-0.35336569403439183 l 5.63025663388739 -5.463150324518485" fill="#ff6909" stroke="none" /><path d="M 84.9287848128048 114.62390073753433 l -1.4957924476145168 1.4513972500673382 a23.084214246147372,23.084214246147372 0 0,0 -0.2742552486180146,-0.2875555317179533 l 1.5205542476114888 -1.4254346017668846" fill="#ff1902" stroke="none" /><path d="M 83.06392112726016 112.41649034213515 l -1.3358065880036483 0.9793311499986295 a22.656341976136446,22.656341976136446 0 0,0 -0.22787986934327523,-0.31650520758119927 l 1.3524662497225308 -0.9561923369662921" fill="#ff1302" stroke="none" /><path d="M 82.6465618267979 111.8261652097733 l -12.974756315886529 8.842144721797814 a36.701204563276484,36.701204563276484 0 0,0 -0.35127753070971923,-0.5251122464497838 l 13.125036952006978 -8.617495561142208" fill="#ffcf13" stroke="none" /><line stroke="#e1ed5e" stroke-width="0.3" x1="26.63291911575756" x2="22.317208475507996" y1="142.92168965132927" y2="145.44649492493687" /><path d="M 25.769776987707644 143.4266507060508 a86.0,86.0 0 0,1 -11.730757126820373,-40.83630448921669" fill="none" id="id33" stroke="none" /><text fill="#e1ed5e" style="font-size:6.75px; font-family:Arial;" text-anchor="middle"><textPath startOffset="21.46611528233685" xlink:href="#id33">September</textPath></text><line stroke="#e1ed5e" stroke-width="0.3" x1="15.007084014347285" x2="10.007500721073583" y1="101.09737516637583" y2="101.16192664675087" /><path d="M 14.007167355692545 101.11028546245083 a86.0,86.0 0 0,1 10.666146001902534,-42.60595125391555" fill="none" id="id34" stroke="none" /><text fill="#e1ed5e" style="font-size:6.75px; font-family:Arial;" text-anchor="middle"><textPath startOffset="22.20632615414155" xlink:href="#id34">October</textPath></text><line stroke="#e1ed5e" stroke-width="0.3" x1="26.266209847984243" x2="21.928928074336255" y1="57.711370442889674" y2="55.22380399835377" /><path d="M 25.398753493254645 57.213857153982495 a86.0,86.0 0 0,1 29.58750427330803,-30.492523968695096" fill="none" id="id35" stroke="none" /><text fill="#e1ed5e" style="font-size:6.75px; font-family:Arial;" text-anchor="middle"><textPath startOffset="21.46611528233685" xlink:href="#id35">November</textPath></text><line stroke="#e1ed5e" stroke-width="0.3" x1="56.762969772571076" x2="54.21961505331055" y1="26.818313649435495" y2="22.513508569990535" /><path d="M 56.25429882871897 25.957352633546506 a86.0,86.0 0 0,1 42.265352541879196,-11.944610805530505" fill="none" id="id36" stroke="none" /><text fill="#e1ed5e" style="font-size:6.75px; font-family:Arial;" text-anchor="middle"><textPath startOffset="22.20632615414155" xlink:href="#id36">December</textPath></text></svg>