<?xml version="1.0" encoding="utf-8" ?>
<svg baseProfile="full" height="200mm" version="1.1" viewBox="0,0,200,200" width="200mm" xmlns="http://www.w3.org/2000/svg" xmlns:ev="http://www.w3.org/2001/xml-events" xmlns:xlink="http://www.w3.org/1999/xlink"><defs /><rect fill="#1a1a1a" height="200" width="200" x="0" y="0" /><text alignment-baseline="middle" fill="#e1ed5e" style="dominant-baseline: central; font-size:9.0px; font-family:Arial;" text-anchor="middle" x="100.0" y="100.0">2022</text><line stroke="#e1ed5e" stroke-width="0.3" x1="100.0" x2="100.0" y1="15.0" y2="10.0" /><path d="M 100.0 14.0 a86.0,86.0 0 0,1 42.46469731375804,11.215312516191453" fill="none" id="id25" stroke="none" /><text fill="#e1ed5e" style="font-size:6.75px; font-family:Arial;" text-anchor="middle"><textPath startOffset="22.20632615414155" xlink:href="#id25">January</textPath></text><path d="M 100.36148047927253 79.00311137660856 l 1.084441437817585 -62.990665870174325 a84.0,84.0 0 0,0 1.4454934592205289,0.03733283143056143 l -2.1685615322329816 62.9626662466014" fill="#4dd2ff" stroke="none" /><path d="M 102.52436894288641 79.15227682838746 l 1.1207206866563098 -9.255570464036422 a30.323175396410967,30.323175396410967 0 0,0 0.5176386554517423,0.06720435380652191 l -1.2798740706158982 9.234907787065763" fill="#ff790b" stroke="none" /><line stroke="#e1ed5e" stroke-width="0.3" x1="143.23703022742887" x2="145.7803849466894" y1="26.81831364943548" y2="22.513508569990506" /><path d="M 143.74570117128098 25.957352633546492 a86.0,86.0 0 0,1 28.547481713284135,27.462654790039103" fill="none" id="id26" stroke="none" /><text fill="#e1ed5e" style="font-size:6.75px; font-family:Arial;" text-anchor="middle"><textPath startOffset="19.985693538727396" xlink:href="#id26">February</textPath></text><path d="M 117.45458315368197 88.32363383020206 l 8.934776589500613 -5.976981643491182 a31.749629866693958,31.749629866693958 0 0,0 0.29996349484250473,0.45686498195761166 l -9.036336719701042 5.822298597555897" fill="#ff8c0c" stroke="none" /><line stroke="#e1ed5e" stroke-width="0.3" x1="172.23445277983987" x2="176.4835382374775" y1="55.19839476539836" y2="52.563006222186495" /><path d="M 173.08426987136738 54.67131705675599 a86.0,86.0 0 0,1 12.851231095245387,41.99856678651699" fill="none" id="id27" stroke="none" /><text fill="#e1ed5e" style="font-size:6.75px; font-family:Arial;" text-anchor="middle"><textPath startOffset="22.20632615414155" xlink:href="#id27">March</textPath></text><path d="M 118.56541770881063 90.18545643968196 l 7.247515170074419 -3.8313737108648196 a29.197920507833977,29.197920507833977 0 0,0 0.23106756951156152,0.44634899696613295 l -7.3123921727460965 3.706051991638342" fill="#ff6a09" stroke="none" /><path d="M 119.7369772167798 92.82701384747503 l 1.2690642104607661 -0.461214496440773 a22.35027507641944,22.35027507641944 0 0,0 0.12829794302455533,0.3627155617172297 l -1.2768152342951309 0.4393013082969287" fill="#ff0a01" stroke="none" /><path d="M 120.45610955862082 95.25157060432595 l 7.2603044717679595 -1.6853176835258945 a28.45334265394923,28.45334265394923 0 0,0 0.10663989406762595,0.47804573512325976 l -7.288238752837623 1.5600937788526708" fill="#ff6008" stroke="none" /><path d="M 120.53481517161879 95.60439243477599 l 1.909708128959554 -0.40878514994506676 a22.952969645598674,22.952969645598674 0 0,0 0.07937432459547998,0.3870573959451789 l -1.9164617494700311 0.3758520978364761" fill="#ff1202" stroke="none" /><path d="M 120.6074358757038 95.95851677861258 l 5.074597097479311 -0.9952183837167249 a26.171266318130712,26.171266318130712 0 0,0 0.08289346826251175,0.4428202220665467 l -5.090976289651682 0.9077200841876154" fill="#ff4006" stroke="none" /><path d="M 120.67395015179393 96.31383870115 l 4.629974564746557 -0.8255235661264115 a25.70299411316133,25.70299411316133 0 0,0 0.0739121889452609,0.4362339230840503 l -4.6434986152120405 0.7457038547265233" fill="#ff3905" stroke="none" /><path d="M 120.73433829027371 96.67025291283417 l 4.607458313040125 -0.7399161083563482 a25.66649203940259,25.66649203940259 0 0,0 0.0662979013916531,0.4368203350792402 l -4.619512107871078 0.6604966608850259" fill="#ff3905" stroke="none" /><path d="M 120.78858239683441 97.02765380044208 l 2.3721663277623337 -0.339171735448267 a23.396290999168595,23.396290999168595 0 0,0 0.053570822783198156,0.3991648537485569 l -2.3776531496033684 0.29828853963504576" fill="#ff1902" stroke="none" /><path d="M 120.83666639777658 97.38593545837742 l 6.540509739039476 -0.8205398246806233 a27.591779217355292,27.591779217355292 0 0,0 0.055064844142965336,0.47176195708331486 l -6.55366493618603 0.7078341292724557" fill="#ff5407" stroke="none" /><path d="M 120.87857604477298 97.74499172005257 l 14.673352826290392 -1.5848078933600769 a35.75868893986389,35.75868893986389 0 0,0 0.06082872146509701,0.6125369238856061 l -14.698458673437717 1.331995438770036" fill="#ffc011" stroke="none" /><path d="M 120.91429891909075 98.10471618934814 l 1.182848239461139 -0.10719140657698027 a22.18769522826366,22.18769522826366 0 0,0 0.03119538830810561,0.3806627523799521 l -1.1845181115887395 0.08681473698925937" fill="#ff0701" stroke="none" /><path d="M 120.94382443527127 98.46500227214037 l 5.5882513603243265 -0.4095695686963604 a26.603240178483233,26.603240178483233 0 0,0 0.02954151611094365,0.4569941788517758 l -5.594473467439686 0.31331632559154937" fill="#ff4606" stroke="none" /><path d="M 120.96714384426684 98.82574320788733 l 5.159748849879234 -0.28896974130422287 a26.167834334149994,26.167834334149994 0 0,0 0.021316058371472938,0.44994830199004254 l -5.163958516484204 0.20011033269118056" fill="#ff4006" stroke="none" /><path d="M 120.98425023603335 99.18683210126433 l 0.7591515254081578 -0.029418141882338718 a21.75972130785002,21.75972130785002 0 0,0 0.01128221400761341,0.3744017567732644 l -0.7595454338714163 0.016346237684075195" fill="#ff0100" stroke="none" /><line stroke="#e1ed5e" stroke-width="0.3" x1="184.98032266829074" x2="189.97916517819016" y1="98.17113171792111" y2="98.06355123074" /><path d="M 185.9800911702706 98.14961562048488 a86.0,86.0 0 0,1 -9.607161424134198,41.387399972396054" fill="none" id="id28" stroke="none" /><text fill="#e1ed5e" style="font-size:6.75px; font-family:Arial;" text-anchor="middle"><textPath startOffset="21.466115282336823" xlink:href="#id28">April</textPath></text><path d="M 120.99513854157772 99.54816195383933 l 4.233645099538078 -0.09111261286153058 a25.234625406935688,25.234625406935688 0 0,0 0.005608086531489674,0.43435248219207107 l -4.234586193187284 0.01822387260899679" fill="#ff3304" stroke="none" /><path d="M 120.99980553446 99.90962569577887 l 4.39900897280879 -0.018931478890493715 a25.39904970916961,25.39904970916961 0 0,0 -0.0018815890703144222,0.4372150348808701 l -4.3986830864489725 -0.05679303419406111" fill="#ff3505" stroke="none" /><path d="M 120.99824983174949 100.27111621757518 l 14.216880497259044 0.18355943457284574 a35.21806544996067,35.21806544996067 0 0,0 -0.013043995496433276,0.6061032153231466 l -14.211614439077604 -0.42825246568610714" fill="#ffb911" stroke="none" /><path d="M 120.9764740272857 100.99374915477107 l 10.96044028751294 0.5192449530586856 a31.97273286913582,31.97273286913582 0 0,0 -0.030775504923022383,0.54951731421539 l -10.949878431702388 -0.7078339836094988" fill="#ff8f0d" stroke="none" /><path d="M 120.95626037817324 101.35467743843564 l 4.442953988569999 0.28720627725126974 a25.452227261746934,25.452227261746934 0 0,0 -0.032025496852986446,0.43696246018328666 l -4.437351933052676 -0.36364187393132663" fill="#ff3605" stroke="none" /><path d="M 120.92983693683757 101.71520430193887 l 3.2103423598489633 0.26308819523662874 a24.221104386062873,24.221104386062873 0 0,0 -0.037629681390971545,0.41524039851859446 l -3.2053380821809165 -0.31830998230379376" fill="#ff2503" stroke="none" /><path d="M 120.89721153311464 102.0752229133903 l 3.807494187873484 0.378107824039324 a24.82622235596549,24.82622235596549 0 0,0 -0.04589032448960542,0.42488741087809606 l -3.800421561882827 -0.44359155680221146" fill="#ff2d04" stroke="none" /><path d="M 120.8583938346157 102.4346265915055 l 13.582713933973462 1.585397072788249 a34.67492602139267,34.67492602139267 0 0,0 -0.07430092085427921,0.5922514445367414 l -13.553411503872335 -1.8189662716123853" fill="#ffb210" stroke="none" /><path d="M 120.76222939487914 103.15116336523771 l 1.290038103963622 0.19579404194298644 a22.304811716891916,22.304811716891916 0 0,0 -0.06087965128162014,0.3790976466448138 l -1.2864766983207134 -0.21797091828100523" fill="#ff0901" stroke="none" /><path d="M 120.70491114924044 103.5080841355445 l 2.2459602801094642 0.3805385867596024 a23.277969972550643,23.277969972550643 0 0,0 -0.07033666713713695,0.3944853825821883 l -2.2390771706331387 -0.419142720075009" fill="#ff1702" stroke="none" /><path d="M 120.5718875245553 104.21870165774334 l 1.135105716373463 0.23277749120797722 a22.158727900655194,22.158727900655194 0 0,0 -0.07984102129745611,0.37299067105709405 l -1.130930656351564 -0.25228198168124033" fill="#ff0701" stroke="none" /><path d="M 120.49622156327973 104.57218783832717 l 2.041113418609779 0.4553206999837237 a23.091282125267313,23.091282125267313 0 0,0 -0.08987944442177578,0.38719829420540297 l -2.0329734082574507 -0.4903876515376916" fill="#ff1402" stroke="none" /><path d="M 120.41448212921028 104.9243191809786 l 13.251852042649984 3.196571374384218 a34.631934973136396,34.631934973136396 0 0,0 -0.14477581212907434,0.5783074029942203 l -13.194864916225848 -3.4242066167758343" fill="#ffb210" stroke="none" /><path d="M 120.02730092923936 106.31721596034902 l 13.240118329297035 4.176333452134407 a34.8831730694825,34.8831730694825 0 0,0 -0.18555813052393166,0.5710892035025255 l -13.166267947756857 -4.403621555614728" fill="#ffb510" stroke="none" /><path d="M 119.9155931802556 106.66101706037122 l 5.450374767081758 1.8229454167070143 a26.74714843152103,26.74714843152103 0 0,0 -0.1497957096032979,0.43537644992457586 l -5.4181882265352295 -1.9164945697208904" fill="#ff4806" stroke="none" /><path d="M 119.79798401119884 107.00284435728193 l 2.2213448572511973 0.785723045860608 a23.356211722157585,23.356211722157585 0 0,0 -0.13732978583389494,0.3778725898187745 l -2.2074908104120756 -0.8238434326855136" fill="#ff1802" stroke="none" /><path d="M 119.67450827220406 107.3425965602758 l 14.708276478980478 5.48918116722258 a36.699188095845,36.699188095845 0 0,0 -0.225972140717459,0.5899419532149954 l -14.611610058669513 -5.741546687270719" fill="#ffcc13" stroke="none" /><path d="M 119.54520255179757 107.68017299344265 l 1.2453924952995972 0.48936969485416976 a22.338090118635595,22.338090118635595 0 0,0 -0.1437055989290687,0.3566655113315579 l -1.236784282113136 -0.5107345740285412" fill="#ff0a01" stroke="none" /><path d="M 119.41010516605496 108.01547362559984 l 3.1094262074940846 1.2840488778239514 a24.36412140989174,24.36412140989174 0 0,0 -0.16341250450927194,0.3862588893864471 l -3.086862721792504 -1.337382292876562" fill="#ff2703" stroke="none" /><path d="M 119.26925614724726 108.34839909993367 l 3.2512910775781108 1.4086208257474966 a24.543318543663354,24.543318543663354 0 0,0 -0.1712877210882922,0.38620859241635336 l -3.2265622717585454 -1.4643777546565377" fill="#ff2904" stroke="none" /><path d="M 119.12269723197855 108.67885076344098 l 3.4478202834843885 1.5647958724926054 a24.786297773521817,24.786297773521817 0 0,0 -0.17967160360459017,0.3869966498280573 l -3.4203740630399673 -1.6239125895994935" fill="#ff2d04" stroke="none" /><path d="M 118.97047184881838 109.00673069616215 l 1.197059336684647 0.5683354193172941 a22.325124976896312,22.325124976896312 0 0,0 -0.16780706063202783,0.3457322477115312 l -1.1870990194379047 -0.5888566229941008" fill="#ff0901" stroke="none" /><path d="M 118.81262510543309 109.33194174019688 l 3.6262483522726985 1.798788747941443 a25.047878218533903,25.047878218533903 0 0,0 -0.19492178940496896,0.38459918273095606 l -3.5947478930814603 -1.8609421423750936" fill="#ff3004" stroke="none" /><path d="M 118.64920377521936 109.65438752849418 l 0.6033268042699733 0.31233241080726887 a21.679378221310706,21.679378221310706 0 0,0 -0.1744131701778249,0.32992398865712236 l -0.5978611258672554 -0.32267141455052556" fill="#ff0000" stroke="none" /><line stroke="#e1ed5e" stroke-width="0.3" x1="174.80103733775053" x2="179.2010983576182" y1="140.37084112569926" y2="142.7455964860345" /><path d="M 175.68104954172406 140.8457921977663 a86.0,86.0 0 0,1 -30.038265399797805,32.042727171017184" fill="none" id="id29" stroke="none" /><text fill="#e1ed5e" style="font-size:6.75px; font-family:Arial;" text-anchor="middle"><textPath startOffset="22.206326154141568" xlink:href="#id29">May</textPath></text><path d="M 118.30583269289576 110.29060199501025 l 7.866959260067404 4.422401756557719 a30.024781731209075,30.024781731209075 0 0,0 -0.2571379552532597,0.44834169920680883 l -7.7896693086617645 -4.557163301622843" fill="#ff750a" stroke="none" /><path d="M 117.94076556474637 110.91462005526583 l 14.549217761531223 8.851304778235276 a38.03013017418441,38.03013017418441 0 0,0 -0.3450516455339287,0.55633311943646 l -14.394701476329331 -9.10043422903701" fill="#ffdd14" stroke="none" /><path d="M 117.55443506779139 111.5257021239791 l 0.9086933877589689 0.5966201286964581 a22.087050712212935,22.087050712212935 0 0,0 -0.21140136208527247,0.3160163530040157 l -0.8982889202629755 -0.6121733959062807" fill="#ff0601" stroke="none" /><path d="M 117.35343817320211 111.8261652097733 l 3.2210384571310193 2.1951000465077155 a24.89789083434813,24.89789083434813 0 0,0 -0.24440136334136606,0.3520783922082569 l -3.182776186627517 -2.250219700902992" fill="#ff2e04" stroke="none" /><path d="M 117.14729908036423 112.12312394758627 l 5.2727568080393254 3.7278339888839382 a27.457453879463902,27.457453879463902 0 0,0 -0.27616995758369883,0.38357591657667506 l -5.207807058080024 -3.8180435109117443" fill="#ff5207" stroke="none" /><path d="M 116.498646956653 112.99209946851258 l 3.2267953790674633 2.540986945143161 a25.10716728095644,25.10716728095644 0 0,0 -0.27029908577460415,0.3372396698882216 l -3.1825783812380055 -2.596154448609633" fill="#ff3104" stroke="none" /><path d="M 116.27256486870786 113.27417163493432 l 3.50621402513032 2.8601567813009146 a25.524824151681717,25.524824151681717 0 0,0 -0.2806563808874858,0.3380686905686106 l -3.456461644349291 -2.9200867289832955" fill="#ff3705" stroke="none" /><path d="M 115.56566222782051 114.09645910891815 l 4.29189228187355 3.886791526490881 a26.79029254266199,26.79029254266199 0 0,0 -0.312494209008118,0.33915074552246893 l -4.224351664869711 -3.960093526814685" fill="#ff4906" stroke="none" /><path d="M 115.32070863581623 114.36230785411682 l 2.1278021820657944 1.9946955926077716 a23.91656521154128,23.91656521154128 0 0,0 -0.2841441111332057,0.29792396452998016 l -2.0931515195536243 -2.031026673720259" fill="#ff2003" stroke="none" /><path d="M 115.07121518719521 114.62390073753431 l 2.58292903300755 2.506267565132383 a24.599013683995647,24.599013683995647 0 0,0 -0.2974833399732315,0.30134905280512336 l -2.539405067978783 -2.5503571119181707" fill="#ff2a04" stroke="none" /><path d="M 114.55890576462653 115.13401014063108 l 10.094243421476126 10.492985171577354 a35.560099177648354,35.560099177648354 0 0,0 -0.4447792275941492,0.42056652140989015 l -9.912128359491168 -10.665186329733165" fill="#ffbd11" stroke="none" /><path d="M 113.48314897796784 116.09983520530334 l 9.348278595210878 11.162506999076692 a35.559940769045525,35.559940769045525 0 0,0 -0.47265912837247975,0.3889662841809228 l -9.154749338293707 -11.321768402114792" fill="#ffbd11" stroke="none" /><path d="M 113.20401910651253 116.32954008644616 l 8.709445599598183 10.771056895791208 a34.85171864083051,34.85171864083051 0 0,0 -0.46973894415286194,0.37318902671229276 l -8.52274916272797 -10.919379836508627" fill="#ffb410" stroke="none" /><path d="M 112.63410532772338 116.77436683061366 l 3.809788522677155 5.058275878563069 a27.33250688520554,27.33250688520554 0 0,0 -0.3782493950942287,0.2798198598248074 l -3.722154157164362 -5.123105687127645" fill="#ff5007" stroke="none" /><path d="M 112.34349029814194 116.9893568818739 l 7.438037987451312 10.237581009705778 a33.654346053157276,33.654346053157276 0 0,0 -0.47159782583623505,0.3364725270352725 l -7.260712833766193 -10.364097798585268" fill="#ffa50f" stroke="none" /><path d="M 112.04921762599082 117.19931262002967 l 15.494162774510423 22.116701483555236 a48.00402867343536,48.00402867343536 0 0,0 -0.6808414024165917,0.46828892482549306 l -15.111164487470948 -22.380131197745822" fill="#acff21" stroke="none" /><path d="M 111.1453310114006 117.79835938074945 l 13.048221597451146 20.837150285939124 a45.58542086064429,45.58542086064429 0 0,0 -0.6686313240437181,0.41072797006267336 l -12.68761107347512 -21.058666722830175" fill="#c7ff1e" stroke="none" /><line stroke="#e1ed5e" stroke-width="0.3" x1="143.8653032363475" x2="146.44561519142675" y1="172.8068346515853" y2="177.08958963109032" /><path d="M 144.38136562736335 173.6633856474863 a86.0,86.0 0 0,1 -40.68145358897372,12.25698825130547" fill="none" id="id30" stroke="none" /><text fill="#e1ed5e" style="font-size:6.75px; font-family:Arial;" text-anchor="middle"><textPath startOffset="21.466115282336833" xlink:href="#id30">June</textPath></text><path d="M 110.8373102113329 117.98757091392108 l 1.5251507786634098 2.531417598154725 a23.955361222237485,23.955361222237485 0 0,0 -0.35503228921338625,0.2097593344173323 l -1.4813506184216414 -2.557295504865807" fill="#ff2103" stroke="none" /><path d="M 110.5260780823613 118.17145234162733 l 10.566350305165802 18.2409753654599 a42.08034489885762,42.08034489885762 0 0,0 -0.629905157492244,0.3576765879388686 l -10.250796380752359 -18.4201551191934" fill="#f0ff19" stroke="none" /><path d="M 110.21172684928248 118.3499491758327 l 14.00310074153926 25.162853521622072 a49.79680585982247,49.79680585982247 0 0,0 -0.7525890581768215,0.4103715603117199 l -13.56788887149379 -25.400165733693562" fill="#98ff23" stroke="none" /><path d="M 109.57404056367764 118.69057910512821 l 28.385796252521402 55.415157977564114 a83.26229326460796,83.26229326460796 0 0,0 -1.2812326050395273,0.6424366261193953 l -27.427709739799113 -55.89556244459281" fill="#4cd9ff" stroke="none" /><path d="M 109.2508944713604 118.85261126421891 l 7.843552936458945 15.984557482433141 a38.805263282980206,38.805263282980206 0 0,0 -0.6021973199447119,0.2890913090443284 l -7.567242948514 -16.11720306797703" fill="#ffe615" stroke="none" /><line stroke="#e1ed5e" stroke-width="0.3" x1="102.19456741930631" x2="102.32365962044197" y1="184.97166512339345" y2="189.96999836594603" /><path d="M 102.22038585953345 185.97133177190398 a86.0,86.0 0 0,1 -42.740103519485714,-10.115201625700543" fill="none" id="id31" stroke="none" /><text fill="#e1ed5e" style="font-size:6.75px; font-family:Arial;" text-anchor="middle"><textPath startOffset="22.20632615414155" xlink:href="#id31">July</textPath></text><line stroke="#e1ed5e" stroke-width="0.3" x1="58.666819895761336" x2="56.23545636021788" y1="174.27360380694188" y2="178.64263932499728" /><path d="M 58.180547188652646 175.14741091055294 a86.0,86.0 0 0,1 -31.652253787137756,-30.449443065178592" fill="none" id="id32" stroke="none" /><text fill="#e1ed5e" style="font-size:6.75px; font-family:Arial;" text-anchor="middle"><textPath startOffset="22.20632615414155" xlink:href="#id32">August</textPath></text><line stroke="#e1ed5e" stroke-width="0.3" x1="26.63291911575756" x2="22.317208475507996" y1="142.92168965132927" y2="145.44649492493687" /><path d="M 25.769776987707644 143.4266507060508 a86.0,86.0 0 0,1 -11.730757126820373,-40.83630448921669" fill="none" id="id33" stroke="none" /><text fill="#e1ed5e" style="font-size:6.75px; font-family:Arial;" text-anchor="middle"><textPath startOffset="21.46611528233685" xlink:href="#id33">September</textPath></text><line stroke="#e1ed5e" stroke-width="0.3" x1="15.007084014347285" x2="10.007500721073583" y1="101.09737516637583" y2="101.16192664675087" /><path d="M 14.007167355692545 101.11028546245083 a86.0,86.0 0 0,1 10.666146001902534,-42.60595125391555" fill="none" id="id34" stroke="none" /><text fill="#e1ed5e" style="font-size:6.75px; font-family:Arial;" text-anchor="middle"><textPath startOffset="22.20632615414155" xlink:href="#id34">October</textPath></text><line stroke="#e1ed5e" stroke-width="0.3" x1="26.266209847984243" x2="21.928928074336255" y1="57.711370442889674" y2="55.22380399835377" /><path d="M 25.398753493254645 57.213857153982495 a86.0,86.0 0 0,1 29.58750427330803,-30.492523968695096" fill="none" id="id35" stroke="none" /><text fill="#e1ed5e" style="font-size:6.75px; font-family:Arial;" text-anchor="middle"><textPath startOffset="21.46611528233685" xlink:href="#id35">November</textPath></text><line stroke="#e1ed5e" stroke-width="0.3" x1="56.762969772571076" x2="54.21961505331055" y1="26.818313649435495" y2="22.513508569990535" /><path d="M 56.25429882871897 25.957352633546506 a86.0,86.0 0 0,1 42.265352541879196,-11.944610805530505" fill="none" id="id36" stroke="none" /><text fill="#e1ed5e" style="font-size:6.75px; font-family:Arial;" text-anchor="middle"><textPath startOffset="22.20632615414155" xlink:href="#id36">December</textPath></text></svg>