<?xml version="1.0" encoding="utf-8" ?>
<svg baseProfile="full" height="200mm" version="1.1" viewBox="0,0,200,200" width="200mm" xmlns="http://www.w3.org/2000/svg" xmlns:ev="http://www.w3.org/2001/xml-events" xmlns:xlink="http://www.w3.org/1999/xlink"><defs /><rect fill="#1a1a1a" height="200" width="200" x="0" y="0" /><text alignment-baseline="middle" fill="#e1ed5e" style="dominant-baseline: central; font-size:9.0px; font-family:Arial;" text-anchor="middle" x="100.0" y="100.0">2021</text><line stroke="#e1ed5e" stroke-width="0.3" x1="100.0" x2="100.0" y1="15.0" y2="10.0" /><path d="M 100.0 14.0 a86.0,86.0 0 0,1 42.46469731375804,11.215312516191453" fill="none" id="id13" stroke="none" /><text fill="#e1ed5e" style="font-size:6.75px; font-family:Arial;" text-anchor="middle"><textPath startOffset="22.20632615414155" xlink:href="#id13">January</textPath></text><line stroke="#e1ed5e" stroke-width="0.3" x1="143.23703022742887" x2="145.7803849466894" y1="26.81831364943548" y2="22.513508569990506" /><path d="M 143.74570117128098 25.957352633546492 a86.0,86.0 0 0,1 28.547481713284135,27.462654790039103" fill="none" id="id14" stroke="none" /><text fill="#e1ed5e" style="font-size:6.75px; font-family:Arial;" text-anchor="middle"><textPath startOffset="19.985693538727396" xlink:href="#id14">February</textPath></text><path d="M 116.82858285166822 87.43820079747576 l 7.9559744844783244 -5.938786100727187 a30.928076870565647,30.928076870565647 0 0,0 0.3147850642996399,0.42936647394213834 l -8.05702216129159 5.800957183113555" fill="#ff0000" stroke="none" /><path d="M 117.65298651832404 88.62581576622439 l 19.10038874069607 -12.306775414341395 a43.72183027717501,43.72183027717501 0 0,0 0.4021833833889643,0.6361575279729078 l -19.309399720330987 11.976170238654282" fill="#ffcc13" stroke="none" /><line stroke="#e1ed5e" stroke-width="0.3" x1="172.23445277983987" x2="176.4835382374775" y1="55.19839476539836" y2="52.563006222186495" /><path d="M 173.08426987136738 54.67131705675599 a86.0,86.0 0 0,1 12.851231095245387,41.99856678651699" fill="none" id="id15" stroke="none" /><text fill="#e1ed5e" style="font-size:6.75px; font-family:Arial;" text-anchor="middle"><textPath startOffset="22.20632615414155" xlink:href="#id15">March</textPath></text><path d="M 118.03404312379186 89.2402003453031 l 22.931477313560137 -13.681796144460735 a47.70288743789525,47.70288743789525 0 0,0 0.41465240960089206,0.7087753795613362 l -23.163589397631355 13.285041352545505" fill="#f9ff18" stroke="none" /><path d="M 118.21658344932153 89.55222093294921 l 33.92440874641653 -19.456707046572237 a60.10791426156701,60.10791426156701 0 0,0 0.5070313194898184,0.9019521412973972 l -34.25429770719878 18.86987139534005" fill="#57ff2a" stroke="none" /><path d="M 118.56541770881063 90.18545643968196 l 19.943203621660256 -10.542905295590927 a43.558462331612986,43.558462331612986 0 0,0 0.34471454978878485,0.66587878975443 l -20.12172760460916 10.198053783576151" fill="#ffca12" stroke="none" /><path d="M 118.89224826269711 90.83032412892265 l 29.766820127794613 -14.447835349670033 a54.08781538288156,54.08781538288156 0 0,0 0.3993272661007429,0.8410850635578202 l -30.011105587737113 13.933307870471673" fill="#a2ff22" stroke="none" /><path d="M 119.196687751892 91.48605970444005 l 21.151842480440106 -9.381072732289795 a44.13881945834449,44.13881945834449 0 0,0 0.3020551625114647,0.6971849605366843 l -21.31018835279425 9.015588627166508" fill="#ffd213" stroke="none" /><path d="M 119.34039704204932 91.81776055985345 l 53.132536620400906 -22.478501126180046 a78.69184916951372,78.69184916951372 0 0,0 0.5170366002007282,1.2520451383613167 l -53.51159490748783 21.560581417365427" fill="#45fff2" stroke="none" /><path d="M 119.47837535516314 92.15188598940014 l 37.28499017045952 -15.022651961797068 a61.1976437615011,61.1976437615011 0 0,0 0.38527253511011245,0.9804765781709684 l -37.53805625545133 14.378626378730315" fill="#4aff2c" stroke="none" /><path d="M 119.61058180528143 92.48833698450437 l 21.312323646925005 -8.163500445956409 a43.822310986453786,43.822310986453786 0 0,0 0.2637590014258369,0.7067429910960549 l -21.449687236852466 7.795434317831021" fill="#ffcd13" stroke="none" /><path d="M 119.7369772167798 92.82701384747503 l 21.480861429121994 -7.806763917445464 a43.85548009996442,43.85548009996442 0 0,0 0.251744905507496,0.7117167482032497 l -21.6120594154393 7.435849542815599" fill="#ffce13" stroke="none" /><path d="M 120.08093135843002 93.85539295169968 l 22.136766070735785 -6.77367630001465 a44.14992662381156,44.14992662381156 0 0,0 0.21611200475613715,0.7286222450052419 l -22.250083972603626 6.391624668262877" fill="#ffd213" stroke="none" /><path d="M 120.18372546131832 94.20196356495316 l 22.242462247123076 -6.389435228948573 a44.141996658880245,44.141996658880245 0 0,0 0.2035013928664289,0.7321027848003039 l -22.34915041055587 6.005621140729317" fill="#ffd213" stroke="none" /><path d="M 120.28053869075195 94.5502522615342 l 22.39031616628611 -6.016683124220684 a44.184622788467685,44.184622788467685 0 0,0 0.19105361067237528,0.7362074975933601 l -22.490566108828787 5.6303792010784735" fill="#ffd313" stroke="none" /><path d="M 120.37134235888165 94.90015583598534 l 39.03905441114395 -9.773194632926126 a61.24379582804428,61.24379582804428 0 0,0 0.24721262255911536,1.0248559201528957 l -39.20149983396389 9.099753481113824" fill="#4aff2c" stroke="none" /><path d="M 120.53481517161879 95.60439243477599 l 13.360483795259256 -2.8598963835166042 a34.66314511991425,34.66314511991425 0 0,0 0.11986961925756247,0.5845268343286699 l -13.407732710431814 2.6294938930245224" fill="#ff3f05" stroke="none" /><path d="M 120.67395015179393 96.31383870115 l 18.52564597629349 -3.303119081385787 a39.8178148174748,39.8178148174748 0 0,0 0.11450112929332303,0.6757921466264871 l -18.579758967107036 2.9837411464434624" fill="#ff910d" stroke="none" /><path d="M 120.73433829027371 96.67025291283417 l 22.514449388020463 -3.615616819759817 a43.8029190287793,43.8029190287793 0 0,0 0.11314524797461062,0.7454858162239751 l -22.573350529434375 3.2275318911437596" fill="#ffcd13" stroke="none" /><path d="M 120.78858239683441 97.02765380044208 l 22.625956153814403 -3.2350534298767313 a43.856059646590204,43.856059646590204 0 0,0 0.10041784825553503,0.7482296076519671 l -22.678290001127777 2.8451054801601" fill="#ffce13" stroke="none" /><path d="M 120.94382443527127 98.46500227214037 l 22.941858201187134 -1.6814359918140724 a44.00339289578703,44.00339289578703 0 0,0 0.04886348172048832,0.7558964347270264 l -22.96740227391204 1.2862804928340108" fill="#ffd013" stroke="none" /><line stroke="#e1ed5e" stroke-width="0.3" x1="184.98032266829074" x2="189.97916517819016" y1="98.17113171792111" y2="98.06355123074" /><path d="M 185.9800911702706 98.14961562048488 a86.0,86.0 0 0,1 -9.607161424134198,41.387399972396054" fill="none" id="id16" stroke="none" /><text fill="#e1ed5e" style="font-size:6.75px; font-family:Arial;" text-anchor="middle"><textPath startOffset="21.466115282336823" xlink:href="#id16">April</textPath></text><path d="M 120.99513854157772 99.54816195383933 l 26.939240103595832 -0.5797615285727541 a47.94547792838715,47.94547792838715 0 0,0 0.010655295439500426,0.825264374336872 l -26.94522840615305 0.11596089617541931" fill="#f5ff19" stroke="none" /><path d="M 120.99980553446 99.90962569577887 l 39.86910265590349 -0.17157979899077863 a60.86947185773085,60.86947185773085 0 0,0 -0.004509276302647235,1.0477970068246312 l -39.86614908231134 -0.5147266860375372" fill="#4eff2b" stroke="none" /><path d="M 120.9904718944345 100.63252640178507 l 57.088985753803215 1.7203181958947151 a78.11489988692156,78.11489988692156 0 0,0 -0.052068666236128124,1.3436609136371003 l -57.05091495471588 -2.7027563565458217" fill="#44ffeb" stroke="none" /><path d="M 120.95626037817324 101.35467743843564 l 26.649762247436716 1.722722995648493 a47.705385268979725,47.705385268979725 0 0,0 -0.060025735669050256,0.8190034725351638 l -26.616159953103327 -2.181199604680427" fill="#f8ff18" stroke="none" /><path d="M 120.92983693683757 101.71520430193887 l 26.472223667568844 2.1694039974380543 a47.560966466036064,47.560966466036064 0 0,0 -0.07389027297175753,0.8153730050662049 l -26.430958798320013 -2.6247583910528296" fill="#fbff18" stroke="none" /><path d="M 120.89721153311464 102.0752229133903 l 27.320951756732377 2.7131402202326047 a48.45533709041544,48.45533709041544 0 0,0 -0.08956784123050687,0.8292869702194094 l -27.27020161400082 -3.1830235123368054" fill="#eeff19" stroke="none" /><path d="M 120.70491114924044 103.5080841355445 l 27.095179677756388 4.5908030849362955 a48.481343393920234,48.481343393920234 0 0,0 -0.14649112945331952,0.8216000501504841 l -27.01214210596388 -5.056521885819998" fill="#eeff19" stroke="none" /><path d="M 120.64145759157962 103.86396538481128 l 43.35857725786154 8.116483097946846 a65.11171635410716,65.11171635410716 0 0,0 -0.2157060224202277,1.0998803611269101 l -43.21244130246565 -8.8616271861417" fill="#32ff45" stroke="none" /><path d="M 120.5718875245553 104.21870165774334 l 26.760370650642233 5.487781317632446 a48.31726891821197,48.31726891821197 0 0,0 -0.1740939332812427,0.8133088974352667 l -26.661942678636546 -5.947604034483882" fill="#f0ff19" stroke="none" /><path d="M 120.49622156327973 104.57218783832717 l 26.411123440261914 5.891652615937083 a48.06028477166548,48.06028477166548 0 0,0 -0.18706764183106697,0.805882504993185 l -26.305795232500294 -6.3454037782788335" fill="#f3ff19" stroke="none" /><path d="M 120.23288151984713 105.62410040840565 l 34.252572739889295 9.521130647969684 a56.551240036278834,56.551240036278834 0 0,0 -0.2687728642305826,0.9356336000738606 l -34.083607238772615 -10.109321723548128" fill="#83ff25" stroke="none" /><path d="M 120.02730092923936 106.31721596034902 l 25.444415470346947 8.025937597829468 a47.68021650871454,47.68021650871454 0 0,0 -0.2536309360593562,0.7805957564282355 l -25.302492283271345 -8.4627322542355" fill="#f9ff18" stroke="none" /><path d="M 119.9155931802556 106.66101706037122 l 25.665242391709306 8.584058525518863 a48.06271841103043,48.06271841103043 0 0,0 -0.26917220833003674,0.7823404341248881 l -25.51367935243604 -9.02457166273305" fill="#f3ff19" stroke="none" /><path d="M 119.79798401119884 107.00284435728193 l 26.29421627274278 9.300659296955223 a48.89064489673573,48.89064489673573 0 0,0 -0.2874670718359755,0.7909859194979484 l -26.130224939901577 -9.751893013459302" fill="#e8ff1a" stroke="none" /><path d="M 119.26925614724726 108.34839909993367 l 24.983050128559118 10.823898525873092 a48.227000808471274,48.227000808471274 0 0,0 -0.33657604405493213,0.7588901258632299 l -24.793032999772915 -11.25233698822901" fill="#f1ff19" stroke="none" /><path d="M 119.12269723197855 108.67885076344098 l 24.777593853392766 11.245329919836788 a48.21004597882303,48.21004597882303 0 0,0 -0.34946632006169925,0.7527193634295705 l -24.580352916491236 -11.670169350545189" fill="#f1ff19" stroke="none" /><line stroke="#e1ed5e" stroke-width="0.3" x1="174.80103733775053" x2="179.2010983576182" y1="140.37084112569926" y2="142.7455964860345" /><path d="M 175.68104954172406 140.8457921977663 a86.0,86.0 0 0,1 -30.038265399797805,32.042727171017184" fill="none" id="id17" stroke="none" /><text fill="#e1ed5e" style="font-size:6.75px; font-family:Arial;" text-anchor="middle"><textPath startOffset="22.206326154141568" xlink:href="#id17">May</textPath></text><path d="M 118.12598468904814 110.60418214915192 l 30.800886694633228 18.019336243984917 a56.68460592257427,56.68460592257427 0 0,0 -0.49995586049382335,0.8379547795950142 l -30.486149958441178 -18.546853117466036" fill="#81ff25" stroke="none" /><path d="M 117.55443506779139 111.5257021239791 l 24.334006643295417 15.976960293535582 a50.11025832137458,50.11025832137458 0 0,0 -0.479619348079184,0.7169658497706833 l -24.055384189805512 -16.393463057512072" fill="#d7ff1c" stroke="none" /><path d="M 117.35343817320211 111.8261652097733 l 10.149067238766355 6.9164706551405715 a33.281739784754485,33.281739784754485 0 0,0 -0.3266984593950062,0.47063349708098795 l -10.028507872209213 -7.090145414408579" fill="#ff2803" stroke="none" /><path d="M 117.14729908036423 112.12312394758627 l 14.169132674900489 10.017563165053541 a38.3526912185047,38.3526912185047 0 0,0 -0.38575540010128373,0.5357805116199422 l -13.994597482423602 -10.259977282124614" fill="#ff7a0b" stroke="none" /><line stroke="#e1ed5e" stroke-width="0.3" x1="143.8653032363475" x2="146.44561519142675" y1="172.8068346515853" y2="177.08958963109032" /><path d="M 144.38136562736335 173.6633856474863 a86.0,86.0 0 0,1 -40.68145358897372,12.25698825130547" fill="none" id="id18" stroke="none" /><text fill="#e1ed5e" style="font-size:6.75px; font-family:Arial;" text-anchor="middle"><textPath startOffset="21.466115282336833" xlink:href="#id18">June</textPath></text><path d="M 109.57404056367764 118.69057910512821 l 12.288945741333645 23.990655875056795 a47.954957925191415,47.954957925191415 0 0,0 -0.737926536226821,0.37001168436773046 l -11.874165297424064 -24.198635400333828" fill="#f5ff19" stroke="none" /><path d="M 108.92500713936063 119.00905698771935 l 11.522564663887955 24.541502871696135 a48.11189516863307,48.11189516863307 0 0,0 -0.7526808260561348,0.34551885057911647 l -11.098415842064401 -24.73620879260933" fill="#f3ff19" stroke="none" /><path d="M 107.2578585660854 119.70592522655815 l 21.77357569825621 59.11777567967444 a84.0,84.0 0 0,0 -1.3611217574810608,0.4880498358401595 l -20.752734380145416 -59.48381305655456" fill="#4dd2ff" stroke="none" /><path d="M 106.91757812671514 119.82793768551818 l 15.146740870282086 43.4152861902346 a66.98163583400931,66.98163583400931 0 0,0 -1.0918972039694197,0.3704308151637853 l -14.39717393337544 -43.66957999229651" fill="#34ff5f" stroke="none" /><line stroke="#e1ed5e" stroke-width="0.3" x1="102.19456741930631" x2="102.32365962044197" y1="184.97166512339345" y2="189.96999836594603" /><path d="M 102.22038585953345 185.97133177190398 a86.0,86.0 0 0,1 -42.740103519485714,-10.115201625700543" fill="none" id="id19" stroke="none" /><text fill="#e1ed5e" style="font-size:6.75px; font-family:Arial;" text-anchor="middle"><textPath startOffset="22.20632615414155" xlink:href="#id19">July</textPath></text><line stroke="#e1ed5e" stroke-width="0.3" x1="58.666819895761336" x2="56.23545636021788" y1="174.27360380694188" y2="178.64263932499728" /><path d="M 58.180547188652646 175.14741091055294 a86.0,86.0 0 0,1 -31.652253787137756,-30.449443065178592" fill="none" id="id20" stroke="none" /><text fill="#e1ed5e" style="font-size:6.75px; font-family:Arial;" text-anchor="middle"><textPath startOffset="22.20632615414155" xlink:href="#id20">August</textPath></text><path d="M 87.36589467227662 116.77436683061367 l -7.994030482156091 10.613715517199761 a34.28741812504174,34.28741812504174 0 0,0 -0.4683845349621997,-0.35913728846783116 l 8.175543745611776 -10.474538886904563" fill="#ff3805" stroke="none" /><line stroke="#e1ed5e" stroke-width="0.3" x1="26.63291911575756" x2="22.317208475507996" y1="142.92168965132927" y2="145.44649492493687" /><path d="M 25.769776987707644 143.4266507060508 a86.0,86.0 0 0,1 -11.730757126820373,-40.83630448921669" fill="none" id="id21" stroke="none" /><text fill="#e1ed5e" style="font-size:6.75px; font-family:Arial;" text-anchor="middle"><textPath startOffset="21.46611528233685" xlink:href="#id21">September</textPath></text><line stroke="#e1ed5e" stroke-width="0.3" x1="15.007084014347285" x2="10.007500721073583" y1="101.09737516637583" y2="101.16192664675087" /><path d="M 14.007167355692545 101.11028546245083 a86.0,86.0 0 0,1 10.666146001902534,-42.60595125391555" fill="none" id="id22" stroke="none" /><text fill="#e1ed5e" style="font-size:6.75px; font-family:Arial;" text-anchor="middle"><textPath startOffset="22.20632615414155" xlink:href="#id22">October</textPath></text><path d="M 79.00175016825051 100.2711162175752 l -38.25630610455184 0.49394140428708033 a59.259494702309375,59.259494702309375 0 0,0 -0.0043900074538602155,-1.020083126729731 l 38.2591404092952 0.164651200646326" fill="#61ff29" stroke="none" /><line stroke="#e1ed5e" stroke-width="0.3" x1="26.266209847984243" x2="21.928928074336255" y1="57.711370442889674" y2="55.22380399835377" /><path d="M 25.398753493254645 57.213857153982495 a86.0,86.0 0 0,1 29.58750427330803,-30.492523968695096" fill="none" id="id23" stroke="none" /><text fill="#e1ed5e" style="font-size:6.75px; font-family:Arial;" text-anchor="middle"><textPath startOffset="21.46611528233685" xlink:href="#id23">November</textPath></text><line stroke="#e1ed5e" stroke-width="0.3" x1="56.762969772571076" x2="54.21961505331055" y1="26.818313649435495" y2="22.513508569990535" /><path d="M 56.25429882871897 25.957352633546506 a86.0,86.0 0 0,1 42.265352541879196,-11.944610805530505" fill="none" id="id24" stroke="none" /><text fill="#e1ed5e" style="font-size:6.75px; font-family:Arial;" text-anchor="middle"><textPath startOffset="22.20632615414155" xlink:href="#id24">December</textPath></text><path d="M 92.91201910852362 80.23233633223022 l -4.664329697957358 -13.008344988019006 a34.81929849372124,34.81929849372124 0 0,0 0.5659263419904382,-0.1974405884654517 l 4.439721351903635 13.086706429656667" fill="#ff4106" stroke="none" /><path d="M 93.59665428221793 80.00007090966166 l -4.317831933172375 -13.486126830171713 a35.16048337743456,35.16048337743456 0 0,0 0.57799586497389,-0.17958612878708782 l 4.085050695487756 13.558453093841328" fill="#ff4706" stroke="none" /></svg>