<?xml version="1.0" encoding="utf-8" ?>
<svg baseProfile="full" height="300mm" version="1.1" viewBox="0,0,200,300" width="200mm" xmlns="http://www.w3.org/2000/svg" xmlns:ev="http://www.w3.org/2001/xml-events" xmlns:xlink="http://www.w3.org/1999/xlink"><defs /><rect fill="#222222" height="300" width="200" x="0" y="0" /><text fill="#FFFFFF" style="font-size:12px; font-family:Arial; font-weight:bold;" x="10" y="20">Over 5km Workouts</text><text fill="#FFFFFF" style="font-size:4px; font-family:Arial" x="10" y="280">ATHLETE</text><text fill="#FFFFFF" style="font-size:9px; font-family:Arial" x="10" y="290">bigeast</text><text fill="#FFFFFF" style="font-size:4px; font-family:Arial" x="120" y="280">STATISTICS</text><text fill="#FFFFFF" style="font-size:3px; font-family:Arial" x="120" y="285">Number: 4</text><text fill="#FFFFFF" style="font-size:3px; font-family:Arial" x="120" y="290">Weekly: 2.0</text><text fill="#FFFFFF" style="font-size:3px; font-family:Arial" x="141" y="285">Total: 25.8 km</text><text fill="#FFFFFF" style="font-size:3px; font-family:Arial" x="141" y="290">Avg: 6.5 km</text><text fill="#FFFFFF" style="font-size:3px; font-family:Arial" x="167" y="285">Min: 5.0 km</text><text fill="#FFFFFF" style="font-size:3px; font-family:Arial" x="167" y="290">Max: 8.7 km</text><polyline fill="none" points="95.5,92.2110931394709 95.5,92.69677660873276 94.95921134983655,91.87994442079798 94.62121844349895,89.45149821751693 95.39860212808708,89.27488241944229 95.38170248270035,88.74503378153895 94.9930106404936,88.50218586566916 92.6439599415171,89.20865144170239 92.27216774463886,88.78918790593161 88.82464010012336,76.05018566457147 88.0134571249364,71.8109717516054 87.82756102643907,68.10156159552571 63.542770707281306,74.17346507245384 62.156999791332055,75.10078876127955 58.77707072813064,78.39053384128783 57.256102649727836,79.31783154049481 56.19142499478767,80.37759334188013 55.97172960569151,81.17240979474445 53.18328812846448,84.06462311936775 41.11694137286395,95.76537683566858 39.57907364907442,91.68125483980111 27.597225120000076,71.7226535249647 19.43469643231947,54.234623164331424 15.243584393931087,55.40497149451403 14.5,54.76459334745596 15.142186522018164,54.63210097674164" stroke="#4dd2ff" stroke-linecap="round" stroke-linejoin="round" stroke-width="0.5"><title>2022-05-02 7.0km</title></polyline><polyline fill="none" points="106.26241445861524,65.26113758799329 106.04921916127205,64.8525617019477 105.56597648700699,64.88970501883887 104.5,63.71968529841979 105.50912440771936,61.97392147145001 107.81163361988729,60.37671218717878 107.79742060002172,59.76382420139271 109.5882610983681,58.98378065244469 111.94762238988187,58.55661190896353 116.01254606066504,58.53803932220035 116.42472363571869,57.479397368297214 116.46736269514076,56.327882026249426 116.06939813995268,55.30636770748242 115.61458150547696,55.08349075986189 115.07448675204068,55.51067123108078 115.33032110892236,56.16072570218239 116.79426215117564,56.90364100741863 118.4145464116009,57.25652424911095 127.1697666256805,57.38653361637262 128.88954202487366,56.84792251087492 130.49561326543335,56.829349673265824 140.302596946829,57.03365073734312 141.80917704862077,57.38653361637262 156.12168801540975,57.4051063721854 163.59773644496454,57.72084280422132 164.36523951566778,57.702270094756386 164.63528689241502,57.31224256574933 164.97639936831547,57.2936697963014 182.27364449901506,57.55368832075328 185.44314792071236,55.32494076869625 185.5,55.49209819713724 182.9416564309504,57.423679125335184 180.99447271449026,58.630902228847845 180.4401649411884,59.392375492228894 169.14081417786656,67.84256381892192 167.136778382177,69.08682959309954 167.7763642744394,73.20953322519199 167.60580803646008,77.03498491023493 168.04641165112844,80.32180975987285 169.43928759434493,86.83949805831071 170.50526408141013,90.53456254709454 170.36313388310373,90.81308062342578 169.96516932797385,90.81308062342578 170.03623442706885,91.09159808678669 169.85146516934037,90.94305551596335 170.36313388310373,90.9616233468405 169.8088261098601,90.68310559743259 170.6189682400436,90.88735200691735 171.7986488858005,94.91650924012356" stroke="#4dd2ff" stroke-linecap="round" stroke-linejoin="round" stroke-width="0.5"><title>2022-05-02 8.7km</title></polyline><polyline fill="none" points="24.689140271395445,218.05704416055232 20.364253393840045,211.54378626518883 23.662895927671343,205.12624798546312 29.600452488753945,198.51707542379154 35.90452488698065,194.97299879451748 38.030316742137074,195.16457099636318 42.20859728567302,191.90783591533545 47.99954751180485,189.8963149500778 52.0312217194587,190.47103585867444 55.54977375594899,188.74687161447946 64.27285067876801,188.36372338572983 70.79683257965371,185.49010449968046 73.80226244358346,185.87325441552093 76.07466063369066,188.65108457842143 80.91266968334094,188.93844564410392 87.5099547514692,192.09940901695518 91.76153846131638,200.4327845055377 95.5,213.55524049524684 79.37330316798761,218.53595761623 52.25113122211769,221.6009954091278 56.35610859747976,231.84961097454652 59.508144796825945,235.68082779523684 60.46108597284183,242.19384476728737 64.71266968315467,248.03634879697347 60.2411764706485,251.10124802560313 54.74343891441822,252.34635922504822 48.879185520578176,260.96629468206083 44.70090497797355,262.21138705901103 40.5226244344376,265.467771274969 37.8837104071863,264.7973405588418 39.78959276014939,258.7634331185254 36.56425339402631,254.26191027794266 34.804977376013994,248.32368371111806 32.825791855342686,248.13212711573578 31.06651583733037,250.23924657230964 26.888235294260085,251.10124802560313 24.83574660634622,253.3999130000593 21.976923077367246,253.3999130000593 16.40588235296309,240.85293482255656 14.5,229.83821313839871 19.11809954792261,212.11848810652737 24.249321267474443,203.88104667904554 31.87285067886114,197.27186150441412 48.366063348483294,188.36372338572983 59.87466063350439,184.53222872503102 66.76515837106854,200.24121385073522 70.65022624470294,205.22203260281822 70.28371040709317,207.9039961823728 73.43574660643935,216.90765043254942 65.95882352953777,219.87691342213657 51.5914027155377,221.409430968808 33.19230769248679,228.4972778034862 27.181447963695973,222.46303469431587 27.108144796919078,219.68534847570118" stroke="#4dd2ff" stroke-linecap="round" stroke-linejoin="round" stroke-width="0.5"><title>2022-04-29 5.0km</title></polyline><polyline fill="none" points="136.5252535145264,252.13400240265764 150.9806769490242,248.41007215945865 154.03463964606635,258.38481651822804 158.00479115289636,265.5 154.54363342933357,257.85283569491 152.10046327137388,247.74508139584213 169.96614505141042,244.15411440993194 177.85554868611507,255.32591825551935 176.5321648507379,253.19797685169033 178.77173749543726,253.5969666260935 179.12803314323537,254.99342806980712 180.29871884407476,253.72996313954354 179.43342941324227,255.45891426151502 177.65195117308758,255.52541224996094 177.44835365982726,252.9984818327357 166.55588670587167,233.58054636992165 144.77095279749483,186.22921529351152 136.5252535145264,188.49048687319737 137.13604605407454,188.02493188233348 135.40546719217673,188.09143976742052 132.249705738388,185.63064151568688 132.04610822489485,186.82778828041046 130.8754225242883,185.56413326924667 132.4024038729258,184.5 127.87235920527019,195.54026112530846 127.71966107049957,193.6780672664172 131.7407119551208,199.26462588307913 132.96229703421704,198.99860084438114 139.17202118574642,214.3612909100193 140.29180750786327,214.62730692964396 141.86968823475763,213.4302336119872 142.4804807745386,214.0287706660747 139.3756186987739,217.6199763880286 150.3189850312192,246.28209828113904 130.97722128103487,252.9319834736234 114.79121898463927,256.7223743717186 109.9048786687199,254.46144326528884 109.70128115569241,256.3898852104321 111.17736312607303,259.64826847121003" stroke="#4dd2ff" stroke-linecap="round" stroke-linejoin="round" stroke-width="0.5"><title>2022-04-27 5.1km</title></polyline></svg>