<?xml version="1.0" encoding="utf-8" ?>
<svg baseProfile="full" height="300mm" version="1.1" viewBox="0,0,200,300" width="200mm" xmlns="http://www.w3.org/2000/svg" xmlns:ev="http://www.w3.org/2001/xml-events" xmlns:xlink="http://www.w3.org/1999/xlink"><defs /><rect fill="#222222" height="300" width="200" x="0" y="0" /><text fill="#FFFFFF" style="font-size:12px; font-family:Arial; font-weight:bold;" x="10" y="20">Over 10km Workouts</text><text fill="#FFFFFF" style="font-size:4px; font-family:Arial" x="10" y="280">ATHLETE</text><text fill="#FFFFFF" style="font-size:9px; font-family:Arial" x="10" y="290">bigeast</text><text fill="#FFFFFF" style="font-size:4px; font-family:Arial" x="120" y="280">STATISTICS</text><text fill="#FFFFFF" style="font-size:3px; font-family:Arial" x="120" y="285">Number: 9</text><text fill="#FFFFFF" style="font-size:3px; font-family:Arial" x="120" y="290">Weekly: 1.1</text><text fill="#FFFFFF" style="font-size:3px; font-family:Arial" x="141" y="285">Total: 141.4 km</text><text fill="#FFFFFF" style="font-size:3px; font-family:Arial" x="141" y="290">Avg: 15.7 km</text><text fill="#FFFFFF" style="font-size:3px; font-family:Arial" x="167" y="285">Min: 10.1 km</text><text fill="#FFFFFF" style="font-size:3px; font-family:Arial" x="167" y="290">Max: 41.2 km</text><polyline fill="none" points="27.258686468936503,68.90381465508835 20.278662534430623,60.79661592084449 20.94342671893537,57.75639921356924 40.66476418497041,33.43432814924745 43.9885851056315,33.0 59.83213149709627,66.44270779885119 63.82071660226211,71.220144910214 63.266746448818594,75.70801929716254 37.67332535563037,87.0 26.92630437668413,75.99755887890933 23.270101363770664,75.27370976482052 16.622459521517158,62.82342185237212 32.466005912516266,39.65967726538656 39.77841193880886,33.14477607072331 43.87779107503593,33.14477607072331 51.7441672552377,44.726792883710004 53.51687174662948,52.68935054092435 62.93436435656622,71.65445622685365 62.38039420358837,74.54986011987785 55.84354639146477,79.32725795952138 35.457444741390646,85.5523173911497 23.15930733270943,74.26032011292409 15.292931152507663,62.67865013831761 32.355211881920695,39.949227430683095 39.66761790867895,34.15820797235938 43.545408982783556,33.579104156116955 64.707068847958,72.23353768599918 57.17307475954294,79.03771935531404 46.426053781062365,83.95986406714655 35.78982683364302,85.84185408288613 15.95769533701241,62.389106646354776 26.372334223706275,46.46408367418917 42.437468675896525,34.0134320500656 52.298137408681214,46.17453542165458 53.62766577769071,52.39980411605211 63.93151063332334,71.220144910214 63.15595241775736,74.839400041732 36.233002956490964,86.56569544022204 23.71327748661861,73.82600994349923 16.8440475827083,62.82342185237212 19.724692380987108,55.005718878644984 27.81265662284568,44.14769527397584 34.57109249569476,37.19849742844235 42.88064479921013,33.14477607072331 51.7441672552377,46.60885776835494 53.07369562424719,53.99230840039672 57.61625088285655,59.34889484784799 63.59912854107097,74.9841699708486 50.19305082503706,82.2226393269375 35.90062086423859,86.27615896129282 16.95484161330387,61.954791248834226 19.724692380987108,53.70276235835627 28.477420806884766,42.69994976063026 35.235856680199504,36.61939539742889 44.2101731672883,33.14477607072331 51.9657553168945,46.46408367418917 53.51687174662948,53.12367001851089 58.281015067361295,58.625033514981624 63.70992257166654,70.93060392542975 63.15595241775736,74.26032011292409 55.51116429967806,78.74818066612352 34.12791637331247,85.40754901355831 16.511665490455925,60.94138791109435 26.81551034608856,44.58201851329068 43.213026890996844,33.579104156116955 57.83783894404769,58.04594406543765 63.93151063332334,71.07537442847388 62.82357032597065,74.9841699708486 47.7555821496062,79.47202723019291 39.113647755235434,84.24940122646512 34.238710403908044,83.38078949408373 17.176429674960673,60.65184390934883 19.83548641158268,53.41321623080876 28.477420806884766,42.555175092595164 43.213026890996844,33.14477607072331 45.76128959702328,38.64625101751881 50.414638887159526,42.41040040337248 54.29242996126413,53.84753538999939 63.04515838762745,67.8904184580897 63.15595241775736,73.53646972420393 40.332382092252374,85.1180121943471 35.346650710795075,85.5523173911497 16.06848936760798,59.63843923289096 27.480274530593306,42.555175092595164 41.440322399605066,33.86865610675886 45.096525413449854,34.88208726426819 64.48548078676686,73.6812398446491 35.90062086423859,83.95986406714655" stroke="#4dd2ff" stroke-linecap="round" stroke-linejoin="round" stroke-width="0.5"><title>2022-05-15 10.1km</title></polyline><polyline fill="none" points="84.0698072439991,70.25728677527513 76.22014704486355,61.50873351178598 76.22014704486355,58.79365011246409 88.68725442001596,44.31308415194508 103.00134066445753,33.60336763272062 109.35033053113148,41.2962738906499 110.04294760711491,47.02820581407286 114.19865006534383,52.00591022777371 120.54763993248343,72.06732297828421 112.69797973334789,79.4582710507093 98.03758495068178,85.18999010045081 75.52752996888012,63.01711007836275 75.06578525155783,60.45286859781481 82.22282837377861,48.98912255221512 103.34764920268208,33.452525757602416 115.00670332135633,52.91094480303582 115.93019275646657,59.5478406654438 122.8563635200262,71.61481422616635 122.7409273404628,75.98905714717694 116.62280983291566,80.66495140234474 96.53691461868584,85.64249287417624 74.95034907199442,61.35789573355578 83.83893488533795,47.480725393397734 103.46308538224548,34.50841841707006 114.08321388624609,52.91094480303582 119.16240577958524,57.586944076931104 124.47247003158554,70.70979612483643 123.54898059600964,74.93320711236447 119.39327813778073,78.40242458088323 110.85100086312741,79.00576555368025 103.23221302311867,83.2291424444411 93.76644631288946,85.18999010045081 74.37316817510873,62.715434942161664 83.4926263471134,47.63156520877965 104.50201099645346,33.75420948583633 111.65905411867425,41.89963665162213 115.12213950045407,52.76010576216504 120.89394847070798,57.43610572256148 124.24159767245874,74.63153547467664 108.19596873689443,83.2291424444411 94.45906338933855,85.79332708753645 75.75840232800692,61.961246714461595 83.83893488533795,47.02820581407286 95.4979890040122,38.12861358351074 104.73288335558027,34.357576675130986 111.77449029823765,42.50299905776046 114.19865006534383,51.40255340083968 119.50871431780979,57.73778240871616 124.24159767245874,74.93320711236447 98.96107438532636,85.64249287417624 95.26711664535105,85.49165863811504 75.29665761021897,61.35789573355578 85.33960521733388,45.368965650792234 104.27113863779232,34.05589312501252 111.5436179395765,42.50299905776046 116.04562893602997,55.92772096383851 119.27784195868298,56.07855953963008 123.77985295513645,68.5980841210112 122.51005498180166,73.4248480378883 99.65369146177545,87.0 94.9208081071265,86.54749782383442 75.06578525155783,61.50873351178598 85.57047757599503,45.06728533329442 103.92483009956777,33.30168386059813 110.96643704269081,40.08954730583355 113.27516063023359,50.34667810203973 124.58790621021762,66.78804180701263 124.47247003158554,72.06732297828421 106.69529840536416,84.13414951972663 94.8053719275631,86.09499544848222 75.41209378978238,61.81040900212247 81.06846657954156,50.49751749727875 86.84027554932982,44.46392443228979 103.57852156134322,33.15084194182418 107.73422401957214,39.93870638334192 112.81341591244563,40.99459237721749 114.19865006534383,48.3857639542548 125.62683182489127,66.18469366058707 125.04965092847124,75.23487866180949 109.00402199290693,84.4358183676377 96.07516990089789,85.79332708753645 76.10471086623147,62.26292207208462 80.14497714443132,50.49751749727875 85.33960521733388,44.46392443228979 103.00134066445753,33.0 108.65771345468238,40.24038820678834 114.54495860356838,40.692910775425844 115.69932039780542,53.061783821554855 120.77851229067892,58.19029727205634 124.0107253137976,74.02819193375763 108.08053255779669,82.32413457194343 95.6134251835756,83.37997701228596 74.83491289289668,61.961246714461595 81.64564747689292,49.44164126855321 101.84697887068614,34.05589312501252 105.54093661112711,39.486183482105844 113.15972445067018,39.33534247090574 122.62549116136506,72.97233988391235 110.15838378667831,82.77663860772736 100.57718089735135,84.58665275829844 81.06846657954156,69.20143085112795 75.64296614844352,61.05622011050582 78.06712591601536,56.07855953963008" stroke="#4dd2ff" stroke-linecap="round" stroke-linejoin="round" stroke-width="0.5"><title>2022-05-08 11.2km</title></polyline><polyline fill="none" points="141.0905484247487,72.01212494084757 140.8763127188431,71.28768543898332 140.41003500588704,70.76081740875088 138.05344224034343,71.12303944528685 137.51155192533042,70.77728207213659 133.4788798133377,61.07917689681926 133.1008168028202,59.56428680184035 133.1008168028202,57.88471082648903 133.50408401404275,56.27097688810318 134.48704784136498,54.476082278677495 135.58343057177262,53.25751360724826 137.27211201866157,52.08833392469387 139.93115519254934,51.28142816304171 144.4679113185848,51.133220351352065 144.74515752628213,50.4086460085673 144.7325554259005,48.67952923300618 144.43010501755634,48.11961904015334 143.90081680286676,47.98787505915243 143.56056009337772,48.44897831561684 143.80000000010477,48.89361180341075 145.18623103853315,49.63466369959497 146.53465577593306,49.93108308725641 154.34795799304266,50.04635708198475 156.1374562427518,49.5687926182145 187.0,50.4086460085673 156.0366394399316,49.601728163710504 154.34795799304266,50.095760186362895 146.77409568266012,49.96401852639974 145.46347724623047,49.76640574637713 143.83780630107503,49.02535472053569 143.5479579930543,48.56425383354508 143.80000000010477,48.18549097258074 144.27887981332606,48.20195894963399 144.64434072346194,48.827740286738845 144.53092182031833,51.06735014995502 139.40186697785975,51.462570778086956 137.0200700117275,52.285942614144005 135.39439906657208,53.43865303113853 134.42403733963147,54.492549332208 133.4788798133377,56.122775668714894 133.0,57.88471082648903 133.28984830807894,60.83218534234766 137.43593932321528,70.97485784445598 138.1416569428402,71.3370791899506 140.2336056009517,70.97485784445598 140.6620770128793,71.27122085051087 140.88891481916653,71.89687351475732 140.7124854142312,71.30415002509835 140.27141190203838,70.95839321001404 138.0282380396966,71.28768543898332 137.43593932321528,70.89253464825742 133.3654609101941,60.98038034030469 133.03780630108668,59.56428680184035 133.02520420070505,58.03290971820388 133.50408401404275,56.15570928993111 134.31061843648786,54.673686761787394 135.5708284714492,53.339849745279935 137.2847141190432,52.13773612968362 139.43967327894643,51.380233262061665 144.5183197199949,51.06735014995502 144.7325554259005,50.52391951255413 144.66954492416698,48.79480451399286 144.32928821473615,48.136087026883615 143.85040840139845,48.053747068981465 143.5479579930543,48.41604243154143 143.80000000010477,48.97595114471915 145.35005834302865,49.733470249178936 146.62287047842983,49.98048624238436 154.3227537923376,50.11222788300802 155.94842473743483,49.63466369959497 160.28354725794634,49.667599225838785 165.70245040836744,49.74993799896765 167.10128354729386,50.01342166705581 186.89918319723802,50.359243042054004 158.33022170362528,49.61819593288237 155.79719953326276,49.61819593288237 154.23453908984084,50.095760186362895 146.72368728125002,49.96401852639974 145.2618436406483,49.684066985304526 143.83780630107503,49.008886864365195 143.59836639440618,48.53131798331742 143.83780630107503,48.15255501122738 144.37969661608804,48.2348948965664 144.66954492416698,48.87714392784983 144.5183197199949,51.00147990992264 139.51528588106157,51.28142816304171 136.84364060679218,52.30240998924273 135.21796966163674,53.57039061027899 134.0585764294956,54.97009283380612 133.44107351230923,56.15570928993111 133.0504084014683,57.7859114565581 133.0,59.28435921893106 133.3276546091074,60.88158369674784 137.41073512251023,70.99132247641683 138.10385064181173,71.35354376882606 140.2336056009517,70.99132247641683 140.85110851807985,71.76515745434881" stroke="#ff9f00" stroke-linecap="round" stroke-linejoin="round" stroke-width="0.5"><title>2022-04-23 21.8km</title></polyline><polyline fill="none" points="20.994482758571394,161.84884318042896 20.671724137908313,161.03791803851345 20.26206896547228,160.6973277045763 17.965517241391353,161.02169947494986 17.344827586144675,160.60001598786766 13.173793103429489,150.43046923053043 13.049655172333587,147.88388118646253 13.533793103415519,145.96984644587792 14.154482758545782,144.85060737996537 15.284137930953875,143.47181903271849 16.72413793101441,142.41743986425718 18.27586206892738,141.6550363515853 20.088275862042792,141.20083601375518 24.346206896472722,141.1035071270162 24.53241379308747,138.86491906951414 24.222068965435028,138.24848830699193 23.737931034411304,138.15115681957832 23.427586206817068,138.5080385209003 23.638620689627714,139.0433589115055 25.264827586128376,139.80578044494177 26.59310344827827,140.01666206795198 34.00413793098414,140.0977702773016 35.84137931029545,139.59489841950563 66.61517241375986,140.4384241065054 66.9255172413541,140.4059809299215 67.0,140.17887842715572 66.97517241368769,140.38975933807524 46.591724137892015,140.01666206795198 45.399999999965075,139.77333708260994 41.638620689627714,139.72467202130065 35.667586206807755,139.65978523941158 34.016551724111196,140.16265680198558 26.48137931030942,140.00044041896763 24.87999999994645,139.65978523941158 23.651034482754767,139.02713711960678 23.44000000000233,138.5729259791333 23.76275862066541,138.1673787400723 24.23448275856208,138.29715401853173 24.53241379308747,138.9460281243155 24.321379310335033,141.1035071270162 23.638620689627714,141.2981648147761 19.43034482753137,141.28194335387525 17.965517241391353,141.68747916140273 16.984827586216852,142.25522679147252 15.433103448245674,143.39071330001025 14.51448275859002,144.39642017758888 13.508965517161414,146.14827481445536 13.012413793068845,148.0785269299813 13.0,149.44103753492527 13.422068965504877,151.17659219102643 17.382068965467624,160.6973277045763 18.08965517237084,161.07035515837197 20.18758620688459,160.7297649244647 20.58482758619357,161.02169947494986 20.857931034464855,161.84884318042896 20.572413793066517,161.02169947494986 20.11310344823869,160.68110909109964 17.853793103422504,161.03791803851345 17.394482758594677,160.7784207364166 13.136551724106539,149.9925251465902 13.06206896546064,147.8676606923109 13.657931034395006,145.69409294583602 14.812413793115411,143.9584521786237 16.74896551721031,142.33633335759805" stroke="#4dd2ff" stroke-linecap="round" stroke-linejoin="round" stroke-width="0.5"><title>2022-04-20 12.8km</title></polyline><polyline fill="none" points="73.0,147.42685912298748 77.16008963707282,148.62560835104068 77.44195452557324,148.7375632327321 78.10160690861085,148.7761681428001 78.45135548753751,148.6198175553036 78.73026891124027,148.59086353829207 79.260056843028,148.3553684927483 79.73524267599714,148.0484464726651 80.14992348053784,147.64306675972512 80.22813729777408,147.63148429810644 80.4111281154328,147.69132690636252 80.5055749890671,147.68746610116978 80.60444905990153,147.64499716899718 80.85827503279143,147.4384417653091 81.14456711849198,147.40948514032516 81.37920857017889,147.45581570961258 81.56219938783761,147.3341976161737 81.83668561433296,147.24732685896288 82.33695889811497,146.65659044960375 82.5465128989963,145.91909784777818 82.72655225185736,145.6391486965531 82.82247485788685,145.52523664156615 83.30799081765872,145.2279022084167 83.39653476169042,145.13908671934132 83.53968080454797,144.5752874103855 83.6031372977668,144.45750435645823 84.30706165282027,144.04622080461104 84.66861609094485,143.6870612348539 85.54667686925677,143.40706442254213 85.78426978574134,143.30858136353618 87.11390467861929,142.59407427084625 87.2659051158771,142.46082404498884 87.36330345430179,142.31598530665087 87.5920419763861,141.62653097174734 87.83701355487574,141.58790500628493 87.81930476606794,141.55121023367064 87.83996501968068,141.5801797995382 87.84881941407366,141.54541631280972 87.84291648447834,141.5801797995382 88.46124836029776,141.44885058813998 88.45386969828542,141.47395774498818 88.56012243113219,141.4295373578334 89.86024267598987,141.17266868848583 90.66599256668269,140.9737368615115 92.48704634892783,140.60483587078943 96.0243769129811,140.09299269074563 96.11439658942254,140.08719812521304 96.14243550503306,140.12389699696905 96.7017380848265,141.66129424333758 96.74896152164001,141.7250266684614 97.64915828595986,141.6284622670346 98.50065588106372,141.8486280642437 100.93561434192816,141.84669680139632 101.21157630082598,141.82352162505595 102.30656974201702,141.84476553826607 102.43348272846197,141.8949782871705 103.43107783122105,142.73311654069767 103.56389374726132,142.79298150825343 108.51645168342657,142.36040268987472 108.66402492347697,142.2986045505104 109.04328815041663,142.01085312745 109.18495846086444,141.96836580495346 109.33991036291263,142.0127843661112 109.58930913860968,142.24066853024942 109.73245518145995,142.2947421571198 111.0340511587201,142.1537640197348 111.19047879317077,142.22135646659717 111.42216878005274,142.45889287233422 111.62139265413134,142.53034607094833 111.74240271097369,142.52069025605397 111.8722671622163,142.46854873274242 112.08329689549282,142.27736137280954 112.24562745955336,142.19818195264816 112.87133799737057,142.11513960789944 113.05580454743904,142.13445182804207 113.2358439003001,142.19238831776056 113.47048535198701,142.32177888691513 113.70807826847158,142.5322772330701 113.77153476169042,142.63269727151692 114.11538041101448,143.426374739518 115.5128989943114,146.15270601335214 115.855268911233,146.6585210040812 116.09876475732017,147.11219342626828 116.82777656317921,148.2685044987411 117.25131176213472,148.843726462037 117.38117621337733,149.15062987459714 117.44463270659617,149.42664379226335 117.49628334061708,150.85294485238956 117.547933974638,151.11927347215715 117.65123524266528,151.35664877245836 118.1323240052443,152.09962500509664 118.26218845648691,152.25979358992663 119.16238522080675,153.14550986460654 119.67446436378668,153.6935048147052 120.62188456492731,154.60999453019667 120.79159379099292,154.8106490022392 121.00409925666463,155.18107996911385 121.14429383471725,155.6093777437145 121.76410144293914,156.6742738063649 121.96480104940565,156.61640124001588 122.03858766943449,156.69742276147736 122.44293834717246,156.59711032787163 123.1173480542202,156.36947542387588 124.13117621337733,156.16305731044667 125.35455837340851,156.08203249103371 125.3781700918189,156.11096998394805 125.460811106248,156.8285994027774 125.79727809357428,157.99562799783598 125.80170529077441,158.0534944851288 125.75743331875856,158.06120999750237 125.75890905115375,158.08628538139965 126.06586139046703,158.91760369170788 126.18244425010198,159.3592804105674 126.37724092697317,159.91280187478787 126.67681460428139,159.80094227516474 127.0,159.63122244248916" stroke="red" stroke-linecap="round" stroke-linejoin="round" stroke-width="0.5"><title>2022-01-02 41.2km</title></polyline><polyline fill="none" points="157.22351187141612,155.92969753415673 158.11473028291948,156.8510470034089 156.12662767234724,162.8998510170495 160.20566578721628,174.23609161676723 159.58866842533462,174.35626196491648 158.45750659517944,172.79404447053093 153.79574874951504,161.09723738842877 151.94475666375365,158.01274532012758 149.9223764219787,150.44161304738373 143.61529227753635,135.2588344347605 142.65551860351115,131.57321343146032 143.7181251712609,130.09094271660433 147.93427381117363,127.6872481679602 155.44107504794374,124.84285661453032 158.18328554544132,124.5624224896892 160.34277631225996,123.32049744552933 161.26827235496603,123.64099462024751 167.6781893929001,139.90587076320662 170.79745383386035,145.23386824902263 171.2087854084093,148.15822604915593 172.64844591962174,150.2813758116681 172.61416828853544,152.84516346635064 173.91671827458777,154.68787514505675 174.97932484245393,159.13438169995788 176.17904193524737,160.85688825775287 176.24759719753638,166.8655708633887 177.17309324047528,173.51506872844766 176.69320640340447,176.5994348146778 169.15212753543165,177.0 162.70793286641128,176.27898236198234 159.31444737571292,175.19745333705214 153.7614711181959,160.61653897480574 151.80764613870997,157.45192588711507 148.31132775451988,146.55584100447595 143.54673701513093,134.89828613368445 142.792629128322,130.37137275541318 145.02067515766248,128.76891259930562 151.156371145742,126.72576608479721 155.3039645231329,124.52236045512836 157.1549566090107,124.5624224896892 159.58866842533462,123.44068391778274 160.85694078041706,123.76118099104497 162.5022670790786,128.1679882958997 165.5872538886033,133.0554783557891 168.50085254211444,141.06762095325394 170.9345643586712,144.95344919370837 171.2087854084093,147.63745165176806 173.2311656504171,151.3629758405732 173.77960774989333,154.72793399525108 175.66487746685743,158.65368080022745 175.73343272937927,160.2960730274208 176.89887219062075,161.49781893470208 176.45326298486907,163.4206044714083 177.34448139660526,174.3963187391928 176.967427453259,176.63949135225266 172.16855908266734,176.95994350037654 161.37110524869058,175.59802000198397 159.7943342126673,174.71677278127754 156.22946056595538,165.5036111435038 152.45892113191076,157.85251128088566 143.61529227753635,134.3774935384863 142.89546202204656,130.49155699435505 145.02067515766248,128.36829650274012 147.145888293162,127.96767998332507 155.98951714730356,123.84130521697807 159.86288947518915,123.0 161.1654394614743,123.60093248830526 166.51274993165862,135.37901712558232 170.9345643586712,147.31697474428802 174.08810643071774,153.40598970701103 175.21926826110575,158.41333012198447 176.69320640340447,161.25747005766607 177.2416485028807,175.99858624406625 176.86459455953445,176.7196044145967 170.76317620254122,176.5994348146778 162.91359865339473,176.0786994418595 160.89121841161977,175.19745333705214 156.33229345967993,162.3790968482499 156.2980158283608,160.49636427633232 158.1490079141222,155.9697562531801 156.84645792806987,155.28875745364348 155.26968689193018,152.36445460034884 154.68696716125123,152.64486817945726" stroke="#4dd2ff" stroke-linecap="round" stroke-linejoin="round" stroke-width="0.5"><title>2021-04-04 13.1km</title></polyline><polyline fill="none" points="30.27145088335965,240.18270278821 23.84335093421396,224.55187490952085 23.083038037177175,221.56296170529095 23.4286348085152,219.8665411202819 36.07747664384078,213.6866596584441 40.36287661001552,213.0 41.50334595586173,213.40391759536578 46.7218572050333,224.5114843461488 47.34393139358144,227.74271593766753 51.421973296790384,237.79974961295375 53.841150696971454,242.24253170966404 56.22576842003036,249.22971191740362 57.29711841151584,266.59613898023963 53.80659101973288,266.95961391724995 40.12095887016039,265.0210769310361 32.93254602374509,248.4219519419712 23.84335093421396,224.67304657399654 22.9447993284557,221.1994436417881 23.497754162643105,219.54341253696475 36.976028249715455,214.00979318865575 40.743033058708534,213.3231341104547 41.88350240455475,213.64626794782816 48.31160235358402,228.42934913517092 49.69398943951819,233.59925364051014 54.083068436942995,242.80797300316044 55.60369423159864,247.49302586202975 55.60369423159864,251.24910439614905 57.02064099442214,258.720763906138 56.709603899973445,261.95170661981683 57.29711841151584,265.6672570175142 56.778723254217766,266.43459445310873 45.201231410494074,266.2326636982325 40.70847338158637,265.30378085310804 39.74080242135096,264.4960548073286 32.65606860653497,248.50272801629035 23.87791061133612,225.7231993911264 22.737441265489906,221.23983455475536 22.70288158848416,220.10888737870846 23.774231579969637,219.17989255438442 29.718496048939414,217.24111348035512 37.183386312797666,213.84822645768872 41.054070152924396,213.04039177883533 41.84894272731617,213.72705136463628 47.447610424947925,228.63129984104307 50.21238459658343,234.0839286062983 50.55798136803787,236.2649583541497 54.18674746842589,243.13108193853986 56.32944745151326,250.562512149103 57.055200671660714,256.21676453991677 56.709603899973445,259.16502014681464 57.29711841151584,266.79806954346714 54.32498617703095,267.0 49.071915250853635,266.1115051940724" stroke="#4dd2ff" stroke-linecap="round" stroke-linejoin="round" stroke-width="0.5"><title>2020-11-29 10.7km</title></polyline><polyline fill="none" points="90.18032041180413,238.428923293337 84.66515790333506,226.08805535081774 83.48814151447732,221.37169204073143 83.89168999053072,220.27119867061265 98.82298361090943,214.88659492135048 100.87435503175948,214.4542510964675 102.08500046050176,214.96520283567952 107.53290488943458,228.76063470364898 110.82855077867862,235.2061883274 116.51185848552268,250.92658285115613 116.3437132871477,254.42428036479396 115.8056486522546,255.17097557819216 116.47822944587097,257.5289506325207 117.01629408088047,265.8996414866997 112.44274468359072,267.0 109.07984071504325,266.1354328704183 106.18774330220185,266.37122410480515 99.96637096023187,264.0526038153039 94.55209557083435,250.96588300570147 92.06354663416278,246.48563866634504 90.01217521331273,240.0795816189493 83.15185111749452,223.2975476103893 82.91644783969969,221.29308547941037 83.55539959378075,220.467715582432 87.38911011791788,218.22741663755733 92.06354663416278,216.89109154901234 98.75572553148959,213.94329865588224 101.74871006363537,213.8646905258356 107.36475969105959,228.17109678982524 110.69403461995535,234.85247181516024 116.27645520761143,250.2584795888106 117.0835521601839,259.3367213954916 116.84814888238907,266.21402996516554 102.82483933365438,265.03507180226734 100.13451615872327,263.93470748263644 98.04951569833793,260.0441075657727 95.09016020596027,251.47678463769262 93.13967590418179,248.37206390628126 89.30596538004465,238.82193784421543 86.61564220511355,230.09691718532122 84.1943513477454,225.30199894859106 83.55539959378075,221.60751162539236 85.16959349869285,219.17070204703487 90.07943329284899,216.77318028145237 91.69362719764467,216.77318028145237 96.13266043609474,213.7074742159166 101.0761292699026,213.0 106.32225946080871,223.80848721167422 112.2409704454476,239.49006162842852 114.29234186629765,243.2236724702234 116.31008424737956,249.19737194341724 116.3437132871477,253.4810842705483" stroke="#4dd2ff" stroke-linecap="round" stroke-linejoin="round" stroke-width="0.5"><title>2020-11-15 10.2km</title></polyline><polyline fill="none" points="138.31442490569316,267.0 138.88009885212523,266.8325603245248 138.56771174739697,266.30069114025537 138.80411279961118,266.11355126660055 139.2600291146082,266.2514438412327 139.9016891135252,266.76361448904936 140.34071963906172,266.73406625835196 140.53490621768287,266.50752951423055 140.52646332295262,265.82791600374185 141.15123753243824,265.12859841785394 142.28258542521507,264.8232609375773 143.0931033185334,264.24213202310784 143.66722015969572,264.04513835476246 143.87829252771917,263.7988956883273 144.9927546310937,263.276859100406 145.38112778833602,263.3458074953087 145.95524462944013,263.2276102159376 146.71510515443515,262.4593242742412 148.09129699418554,261.9668299804398 147.9984251522401,262.35097575120017 148.09129699418554,262.4888738497393 148.14195436250884,262.36082562207594 148.4543414672371,262.419924825801 148.27704067804734,261.88803065378306 148.83427172974916,261.7895314024572 153.9168943525874,257.7509731491591 153.90845145785715,258.0661839443201 154.60921171979862,257.8297759471461 155.47038698149845,257.2978557774768 156.06983250682242,257.34710777158034 157.1251943470561,257.07129627171525 158.01169829294668,256.41131546572433 159.58207671131822,255.5641691255587 160.9076111826871,253.9979133227098 162.3006888118689,253.05223679259507 162.9761203896487,250.6880037961746 164.42829828188405,248.68821024455974 165.33168801717693,246.16624237215 165.8129330163647,245.2598936186332 166.24352064722916,244.78701253423787 167.07936722470913,242.49153508908785 167.5943838027597,241.69352334272116 167.6956985394936,241.14180755134294 168.26137248583836,240.0974794958529 168.31202985419077,238.68860342419794 167.72102722362615,238.73786518213456 166.50525038360502,239.8807307074967 165.49210301690619,241.50633441983518 164.98552933355677,242.0679000685559 164.6900280182599,242.72798171105387 164.5549417027505,242.51123899700178 164.80822854439612,241.51618647772557 165.66940380606684,240.23541028238105 166.0999914369313,238.9447642830055 167.26511090862914,237.10236099854228 168.14317195973126,235.9200510688097 168.64974564308068,235.54564981920703 170.16946669307072,233.73273843074276 170.35521037699073,232.786857715917 170.60849721860723,232.43214998979238 170.47341090309783,232.30406075916835 171.1910569544707,230.80638908888795 171.427458006714,230.6290316502127 172.04378932146938,230.81624227011343 172.33929063673713,230.32358194221888 172.06067511087167,230.20534307864 172.27174747892423,230.16593009099597 172.06911800563103,230.3827013181508 172.41527668919298,230.2940222403049 172.66012063616654,229.7126795432705 172.7023351097596,228.97367938993557 173.3608808981371,227.99819027520425 173.81679721313412,226.92415517594054 173.86745458145742,225.9683521336774 174.13762721259263,226.09645001367608 174.47534300148254,225.42639762916951 174.82994457980385,225.33771386677108 174.77928721148055,225.01253935397108 175.0410169478564,224.61838691832963 174.66108668537345,222.15489667624206 174.8721590534551,221.53408692993253 174.7370727378875,220.68662572338508 174.94814510591095,220.80487658392667 175.53070484177442,220.62750023723493 175.73333431509673,220.21362079060054 176.02883563036448,220.16434930624382 175.85997773593408,219.98697174840345 176.04572141982499,219.9179914964261 175.96973536734004,219.6913417399046 176.96599694454926,218.91284492697014 177.36281299652182,218.17375969542627 177.48945641735918,217.17844904836238 177.8440579957096,216.65615309738496 177.77651483789668,216.30138437762798 178.1817737845995,215.8973405901561 178.4012890473532,215.39474710833747 179.14426378294593,214.71476340489608 179.02606325683882,214.64577927545906 179.14426378294593,214.64577927545906 179.10204930932377,214.4486814832635 179.38066483516013,214.41911677874305 179.34689325623913,214.03477477143315 180.25872588623315,213.97564509205404 180.25872588623315,213.9855000411917 180.3684835176682,214.1431790868155 180.03921062347945,214.1037593502624 180.25872588623315,213.5420263041815 180.436026675452,213.81796576478519 181.12834404266323,213.93622528508422 180.95104325353168,213.81796576478519 181.28031614769134,213.80811079804698 181.28875904239248,213.2266659264642 181.68557509433595,213.28579607807478 181.63491772601265,213.0" stroke="#4dd2ff" stroke-linecap="round" stroke-linejoin="round" stroke-width="0.5"><title>2020-10-08 10.3km</title></polyline></svg>