<?xml version="1.0" encoding="utf-8" ?>
<svg baseProfile="full" height="200mm" version="1.1" viewBox="0,0,200,200" width="200mm" xmlns="http://www.w3.org/2000/svg" xmlns:ev="http://www.w3.org/2001/xml-events" xmlns:xlink="http://www.w3.org/1999/xlink"><defs /><rect fill="#1a1a1a" height="200" width="200" x="0" y="0" /><text alignment-baseline="middle" fill="#e1ed5e" style="dominant-baseline: central; font-size:9.0px; font-family:Arial;" text-anchor="middle" x="100.0" y="100.0">2022</text><line stroke="#e1ed5e" stroke-width="0.3" x1="100.0" x2="100.0" y1="15.0" y2="10.0" /><path d="M 100.0 14.0 a86.0,86.0 0 0,1 42.46469731375804,11.215312516191453" fill="none" id="id25" stroke="none" /><text fill="#e1ed5e" style="font-size:6.75px; font-family:Arial;" text-anchor="middle"><textPath startOffset="22.20632615414155" xlink:href="#id25">January</textPath></text><path d="M 100.36148047927253 79.00311137660856 l 0.4515187763445676 -26.226836584249735 a47.2307229489073,47.2307229489073 0 0,0 0.8127583463916955,0.020991150216608398 l -0.902903757931131 26.21517864189077" fill="#b5ff20" stroke="none" /><path d="M 102.52436894288641 79.15227682838746 l 1.1339994008778673 -9.365233894552825 a30.43363983523181,30.43363983523181 0 0,0 0.5195243637536907,0.06744917286430546 l -1.2950384931394041 9.344326398524382" fill="#ff7a0b" stroke="none" /><line stroke="#e1ed5e" stroke-width="0.3" x1="143.23703022742887" x2="145.7803849466894" y1="26.81831364943548" y2="22.513508569990506" /><path d="M 143.74570117128098 25.957352633546492 a86.0,86.0 0 0,1 28.547481713284135,27.462654790039103" fill="none" id="id26" stroke="none" /><text fill="#e1ed5e" style="font-size:6.75px; font-family:Arial;" text-anchor="middle"><textPath startOffset="19.985693538727396" xlink:href="#id26">February</textPath></text><path d="M 111.2981086023043 82.29822771554956 l 2.64105292847648 -4.137977353265706 a25.908973125527787,25.908973125527787 0 0,0 0.3738701516716114,0.2431755465220668 l -2.7118901059323717 4.091902882584111" fill="#ff3c05" stroke="none" /><line stroke="#e1ed5e" stroke-width="0.3" x1="172.23445277983987" x2="176.4835382374775" y1="55.19839476539836" y2="52.563006222186495" /><path d="M 173.08426987136738 54.67131705675599 a86.0,86.0 0 0,1 12.851231095245387,41.99856678651699" fill="none" id="id27" stroke="none" /><text fill="#e1ed5e" style="font-size:6.75px; font-family:Arial;" text-anchor="middle"><textPath startOffset="22.20632615414155" xlink:href="#id27">March</textPath></text><path d="M 118.56541770881063 90.18545643968196 l 7.333386416947666 -3.8767692471374207 a29.29505250952777,29.29505250952777 0 0,0 0.231836256293456,0.4478338551606645 l -7.399032106401238 3.7499626697164117" fill="#ff6b09" stroke="none" /><path d="M 119.7369772167798 92.82701384747503 l 1.2841005537532162 -0.4666791367976388 a22.366273636162063,22.366273636162063 0 0,0 0.1283897800287674,0.3629751972950412 l -1.291943414591793 0.44450631307598304" fill="#ff0a01" stroke="none" /><path d="M 120.45610955862082 95.25157060432595 l 7.346327251029523 -1.7052859523002002 a28.54165262116543,28.54165262116543 0 0,0 0.10697086978684409,0.479529434374698 l -7.374592507818405 1.5785783483755382" fill="#ff6108" stroke="none" /><path d="M 120.53481517161879 95.60439243477599 l 1.9323350589278905 -0.4136285879655889 a22.976109154056086,22.976109154056086 0 0,0 0.07945434399530657,0.3874475989570447 l -1.9391686988381938 0.38030533284513235" fill="#ff1302" stroke="none" /><path d="M 120.6074358757038 95.95851677861258 l 5.1347228053825145 -1.007010100120964 a26.232537398801934,26.232537398801934 0 0,0 0.08308753500423112,0.44385693436083457 l -5.151296064296605 0.9184750882975666" fill="#ff4106" stroke="none" /><path d="M 120.67395015179393 96.31383870115 l 4.684832220030658 -0.8353046754146313 a25.758716931128276,25.758716931128276 0 0,0 0.07407242690944525,0.43717965661921737 l -4.698516508460326 0.754539230479576" fill="#ff3a05" stroke="none" /><path d="M 120.73433829027371 96.67025291283417 l 4.662049187425728 -0.7486829087445027 a25.721782367265885,25.721782367265885 0 0,0 0.06644071922195752,0.43776132613897706 l -4.674245800086985 0.6683224702134436" fill="#ff3a05" stroke="none" /><path d="M 120.78858239683441 97.02765380044208 l 2.4002726339342453 -0.34319036792348634 a23.424683143391956,23.424683143391956 0 0,0 0.05363583268270226,0.39964925301068477 l -2.4058244656747836 0.30182277284813724" fill="#ff1902" stroke="none" /><path d="M 120.83666639777658 97.38593545837742 l 6.6180041234316604 -0.8302618847523867 a27.669881061535584,27.669881061535584 0 0,0 0.05522071179626842,0.47309733595004394 l -6.631315188231518 0.7162208104774901" fill="#ff5507" stroke="none" /><path d="M 120.91429891909075 98.10471618934814 l 1.1968630639631663 -0.10846145010512231 a22.201767481686122,22.201767481686122 0 0,0 0.031215173572206614,0.3809041827162206 l -1.1985527213548677 0.08784335018113291" fill="#ff0701" stroke="none" /><path d="M 120.94382443527127 98.46500227214037 l 5.6544630343796785 -0.41442230080108455 a26.669629445613488,26.669629445613488 0 0,0 0.02961523794299734,0.45813462296359114 l -5.660758863327091 0.31702861358445816" fill="#ff4706" stroke="none" /><path d="M 120.96714384426684 98.82574320788733 l 5.220883467316318 -0.29239356193958965 a26.229064751402547,26.229064751402547 0 0,0 0.02136593606221335,0.4510011412094109 l -5.225143011612027 0.20248131410717896" fill="#ff4106" stroke="none" /><path d="M 120.98425023603335 99.18683210126433 l 0.7681462341493951 -0.029766698934631755 a21.768722767584883,21.768722767584883 0 0,0 0.011286881181134287,0.3745566375408339 l -0.7685448097861745 0.01653991396879878" fill="#ff0100" stroke="none" /><line stroke="#e1ed5e" stroke-width="0.3" x1="184.98032266829074" x2="189.97916517819016" y1="98.17113171792111" y2="98.06355123074" /><path d="M 185.9800911702706 98.14961562048488 a86.0,86.0 0 0,1 -9.607161424134198,41.387399972396054" fill="none" id="id28" stroke="none" /><text fill="#e1ed5e" style="font-size:6.75px; font-family:Arial;" text-anchor="middle"><textPath startOffset="21.466115282336823" xlink:href="#id28">April</textPath></text><path d="M 120.99513854157772 99.54816195383933 l 4.283806896372569 -0.09219214888024843 a25.28479881881569,25.28479881881569 0 0,0 0.005619236957971765,0.4352160950113101 l -4.284759140448257 0.018439795808475618" fill="#ff3304" stroke="none" /><path d="M 120.99980553446 99.90962569577887 l 6.315277674746567 -0.027178291002833022 a27.315336156425424,27.315336156425424 0 0,0 -0.002023549642699399,0.47020167239180877 l -6.314809827814365 -0.08153285959266043" fill="#ff5007" stroke="none" /><path d="M 120.9764740272857 100.99374915477107 l 11.090303647807072 0.5253971597813292 a32.102741876494704,32.102741876494704 0 0,0 -0.03090064570665158,0.5517517869719126 l -11.079616651212891 -0.716220663088665" fill="#ff910d" stroke="none" /><path d="M 120.95626037817324 101.35467743843564 l 4.495595754726533 0.29060920371070303 a25.50497890108229,25.50497890108229 0 0,0 -0.032091872083812055,0.43786809747253563 l -4.489927323978383 -0.36795043768000896" fill="#ff3705" stroke="none" /><path d="M 120.92983693683757 101.71520430193887 l 3.2483796864169077 0.266205361718168 a24.2592692251076,24.2592692251076 0 0,0 -0.037688973928202724,0.415894686726173 l -3.2433161162116293 -0.3220814369929116" fill="#ff2503" stroke="none" /><path d="M 120.89721153311464 102.0752229133903 l 3.852606790703953 0.38258778572838065 a24.871556857075298,24.871556857075298 0 0,0 -0.04597412358463784,0.4256632864230666 l -3.8454503656182633 -0.4488473940362387" fill="#ff2e04" stroke="none" /><path d="M 120.8583938346157 102.4346265915055 l 13.74364696468294 1.6041814451192877 a34.836951615103075,34.836951615103075 0 0,0 -0.07464810691048643,0.5950188590041208 l -13.713997348525606 -1.8405180584108034" fill="#ffb410" stroke="none" /><path d="M 120.76222939487914 103.15116336523771 l 1.3053229537227171 0.1981138823458626 a22.32027160989455,22.32027160989455 0 0,0 -0.06092184813612839,0.37936040649811675 l -1.3017193512253005 -0.22055351853718427" fill="#ff0901" stroke="none" /><path d="M 120.70491114924044 103.5080841355445 l 2.2725712502357673 0.3850473490266144 a23.30496020538112,23.30496020538112 0 0,0 -0.07041822077024111,0.39494277866684124 l -2.2656065871263373 -0.424108878426674" fill="#ff1702" stroke="none" /><path d="M 120.5718875245553 104.21870165774334 l 1.1485548697606016 0.2355355252299814 a22.172456938440025,22.172456938440025 0 0,0 -0.07989048895656933,0.37322176749183933 l -1.1443303420795894 -0.25527111213798975" fill="#ff0701" stroke="none" /><path d="M 120.49622156327973 104.57218783832717 l 2.0652972871706146 0.46071550845494225 a23.11606041126552,23.11606041126552 0 0,0 -0.08997589028247599,0.38761378044907674 l -2.0570608309575857 -0.49619794625258395" fill="#ff1502" stroke="none" /><path d="M 120.41448212921028 104.9243191809786 l 13.408864898998447 3.2344455372105507 a34.7934511929674,34.7934511929674 0 0,0 -0.14545101673188357,0.5810045097456729 l -13.351202567971502 -3.4647778863536196" fill="#ffb410" stroke="none" /><path d="M 120.02730092923936 106.31721596034902 l 13.396992160259222 4.225816199321202 a35.04766605142977,35.04766605142977 0 0,0 -0.1864331372256914,0.5737821972234494 l -13.322266772017283 -4.455797296522446" fill="#ffb711" stroke="none" /><path d="M 119.9155931802556 106.66101706037122 l 5.514952828140306 1.8445443498918486 a26.815242776989685,26.815242776989685 0 0,0 -0.15017706766939473,0.436484854974407 l -5.48238492952768 -1.939201907955556" fill="#ff4906" stroke="none" /><path d="M 119.79798401119884 107.00284435728193 l 2.2476641747208954 0.7950325838280057 a23.384128992246854,23.384128992246854 0 0,0 -0.13749393371746585,0.37832425429565086 l -2.233645979998203 -0.8336046351297877" fill="#ff1802" stroke="none" /><path d="M 119.67450827220406 107.3425965602758 l 14.882545592044453 5.554219020898122 a36.885197897142746,36.885197897142746 0 0,0 -0.22711748030600534,0.5929320734652891 l -14.78473383214494 -5.809574661196556" fill="#ffce13" stroke="none" /><path d="M 119.54520255179757 107.68017299344265 l 1.260148367334131 0.49516792844085106 a22.353944306480617,22.353944306480617 0 0,0 -0.1438075922305418,0.3569186503414043 l -1.2514381608461966 -0.5167859466250688" fill="#ff0a01" stroke="none" /><path d="M 119.41010516605496 108.01547362559984 l 3.1462678420725663 1.299262765011139 a24.403980767660762,24.403980767660762 0 0,0 -0.1636798450536563,0.3868908034622516 l -3.1234370158266014 -1.353228094139554" fill="#ff2703" stroke="none" /><path d="M 119.26925614724726 108.34839909993367 l 3.2898135797361316 1.4253106875608266 a24.58530109551365,24.58530109551365 0 0,0 -0.17158071714826328,0.3868692211828873 l -3.2647917778565954 -1.4817282452364016" fill="#ff2a04" stroke="none" /><path d="M 119.12269723197855 108.67885076344098 l 3.4886713365404995 1.583336154164299 a24.831159233376116,24.831159233376116 0 0,0 -0.17999679660056375,0.3876970866108574 l -3.4608999231001047 -1.643153308053987" fill="#ff2d04" stroke="none" /><path d="M 118.97047184881838 109.00673069616215 l 1.2112425395355815 0.5750692680852869 a22.340825548934966,22.340825548934966 0 0,0 -0.1679250741637225,0.34597539054127563 l -1.2011642087571446 -0.5958336145918379" fill="#ff0901" stroke="none" /><path d="M 118.81262510543309 109.33194174019688 l 3.6692134872430224 1.8201014639582507 a25.095838980486057,25.095838980486057 0 0,0 -0.19529501852479206,0.38533559919262284 l -3.6373397989319614 -1.8829912748535678" fill="#ff3104" stroke="none" /><path d="M 118.64920377521936 109.65438752849418 l 0.6104752439405289 0.31603304101301033 a21.687427746367703,21.687427746367703 0 0,0 -0.17447792956203254,0.3300464890068321 l -0.6049448061536032 -0.32649454510597675" fill="#ff0000" stroke="none" /><line stroke="#e1ed5e" stroke-width="0.3" x1="174.80103733775053" x2="179.2010983576182" y1="140.37084112569926" y2="142.7455964860345" /><path d="M 175.68104954172406 140.8457921977663 a86.0,86.0 0 0,1 -30.038265399797805,32.042727171017184" fill="none" id="id29" stroke="none" /><text fill="#e1ed5e" style="font-size:6.75px; font-family:Arial;" text-anchor="middle"><textPath startOffset="22.206326154141568" xlink:href="#id29">May</textPath></text><path d="M 118.30583269289576 110.29060199501025 l 7.960169910188212 4.474800012249286 a30.131710691250134,30.131710691250134 0 0,0 -0.25805371525406384,0.449938403957851 l -7.881964198781769 -4.6111582620654525" fill="#ff760a" stroke="none" /><path d="M 117.94076556474637 110.91462005526583 l 14.72160228793716 8.956178319018 a38.231909470695484,38.231909470695484 0 0,0 -0.34688241177051365,0.5592848975384951 l -14.565255236498682 -9.20825954792177" fill="#ffdf14" stroke="none" /><path d="M 117.55443506779139 111.5257021239791 l 0.9194599239305009 0.6036891051882055 a22.099930492093577,22.099930492093577 0 0,0 -0.2115246380737964,0.3162006338805532 l -0.9089321804459835 -0.6194266532745656" fill="#ff0601" stroke="none" /><path d="M 117.35343817320211 111.8261652097733 l 3.2592025150253185 2.22110840572902 a24.944074490162105,24.944074490162105 0 0,0 -0.2448547089086722,0.3527314703100715 l -3.22048689895451 -2.276881138226111" fill="#ff2f04" stroke="none" /><path d="M 117.14729908036423 112.12312394758627 l 5.335230385664291 3.7720027481414173 a27.53396418723748,27.53396418723748 0 0,0 -0.2769395063024294,0.3846447524403588 l -5.269511086986259 -3.863281106032907" fill="#ff5307" stroke="none" /><path d="M 116.498646956653 112.99209946851258 l 3.2650276471073436 2.571093500582888 a25.155830521702597,25.155830521702597 0 0,0 -0.27082298515908365,0.33789331492357266 l -3.220286749893406 -2.6269146490847106" fill="#ff3204" stroke="none" /><path d="M 116.27256486870786 113.27417163493432 l 3.547756948887915 2.894044979297024 a25.578435945885538,25.578435945885538 0 0,0 -0.2812458655415118,0.33877876280878805 l -3.49741508345286 -2.9546849992195825" fill="#ff3805" stroke="none" /><path d="M 115.56566222782051 114.09645910891815 l 4.342744212920473 3.9328436735901082 a26.858898075555846,26.858898075555846 0 0,0 -0.3132944552801997,0.34001925480025547 l -4.274403349644552 -4.007014183191698" fill="#ff4a06" stroke="none" /><path d="M 115.32070863581623 114.36230785411682 l 2.1530131712373746 2.0183294855559453 a23.95112175753325,23.95112175753325 0 0,0 -0.28455466502996607,0.2983544286493606 l -2.117951954828444 -2.055091030787813" fill="#ff2103" stroke="none" /><path d="M 115.07121518719521 114.62390073753431 l 2.613532533855026 2.535962752484945 a24.641656132518513,24.641656132518513 0 0,0 -0.2979990280481348,0.30187144210238276 l -2.5694928807513557 -2.5805746885679923" fill="#ff2a04" stroke="none" /><path d="M 114.55890576462653 115.13401014063108 l 10.213843760144389 10.61730995034103 a35.73261263110692,35.73261263110692 0 0,0 -0.4469369943707708,0.42260682457819737 l -10.02957093138281 -10.791551411665148" fill="#ffc011" stroke="none" /><path d="M 113.48314897796784 116.09983520530334 l 9.459040466038534 11.294764520689059 a35.732452345620224,35.732452345620224 0 0,0 -0.474952134762663,0.3908532723329634 l -9.26321820273118 -11.455912911879201" fill="#ffc011" stroke="none" /><path d="M 112.63410532772338 116.77436683061366 l 3.854928309637039 5.118208206613185 a27.407536774664944,27.407536774664944 0 0,0 -0.37928771954873997,0.28058798743342295 l -3.7662556196697343 -5.183806142786377" fill="#ff5107" stroke="none" /><path d="M 112.34349029814194 116.9893568818739 l 7.526166619304385 10.358879665264206 a33.80427943700683,33.80427943700683 0 0,0 -0.473698840003381,0.3379715448581451 l -7.346740451452119 -10.48689547196657" fill="#ffa70f" stroke="none" /><path d="M 112.04921762599082 117.19931262002967 l 15.677743359784404 22.378748362871647 a48.32398241735627,48.32398241735627 0 0,0 -0.6853793081244954,0.47141013775022267 l -15.290207167037027 -22.645299289986966" fill="#a8ff21" stroke="none" /><path d="M 111.1453310114006 117.79835938074945 l 13.202821764785474 21.084036568251037 a45.8767180424597,45.8767180424597 0 0,0 -0.672903971234206,0.4133525789379051 l -12.837938593618958 -21.30817761401732" fill="#c4ff1e" stroke="none" /><line stroke="#e1ed5e" stroke-width="0.3" x1="143.8653032363475" x2="146.44561519142675" y1="172.8068346515853" y2="177.08958963109032" /><path d="M 144.38136562736335 173.6633856474863 a86.0,86.0 0 0,1 -40.68145358897372,12.25698825130547" fill="none" id="id30" stroke="none" /><text fill="#e1ed5e" style="font-size:6.75px; font-family:Arial;" text-anchor="middle"><textPath startOffset="21.466115282336833" xlink:href="#id30">June</textPath></text><path d="M 110.8373102113329 117.98757091392108 l 1.5432213305643299 2.561410772423335 a23.99037743774846,23.99037743774846 0 0,0 -0.3555512497515772,0.21006594545071458 l -1.4989022097843707 -2.587595290167799" fill="#ff2103" stroke="none" /><path d="M 110.5260780823613 118.17145234162733 l 10.691544341233593 18.457101204738446 a42.330112641111896,42.330112641111896 0 0,0 -0.6336439573856221,0.359799576095012 l -10.372251616926771 -18.638403946628088" fill="#edff1a" stroke="none" /><path d="M 110.21172684928248 118.3499491758327 l 14.16901467101026 25.46099233969763 a50.138001092550006,50.138001092550006 0 0,0 -0.7577456097752447,0.413183323387839 l -13.728646249366365 -25.70111631484524" fill="#94ff23" stroke="none" /><path d="M 109.57404056367764 118.69057910512821 l 28.722121691032903 56.07173731538463 a84.0,84.0 0 0,0 -1.292584369268958,0.6481286363627916 l -27.752683414081186 -56.55783379265672" fill="#4dd2ff" stroke="none" /><line stroke="#e1ed5e" stroke-width="0.3" x1="102.19456741930631" x2="102.32365962044197" y1="184.97166512339345" y2="189.96999836594603" /><path d="M 102.22038585953345 185.97133177190398 a86.0,86.0 0 0,1 -42.740103519485714,-10.115201625700543" fill="none" id="id31" stroke="none" /><text fill="#e1ed5e" style="font-size:6.75px; font-family:Arial;" text-anchor="middle"><textPath startOffset="22.20632615414155" xlink:href="#id31">July</textPath></text><line stroke="#e1ed5e" stroke-width="0.3" x1="58.666819895761336" x2="56.23545636021788" y1="174.27360380694188" y2="178.64263932499728" /><path d="M 58.180547188652646 175.14741091055294 a86.0,86.0 0 0,1 -31.652253787137756,-30.449443065178592" fill="none" id="id32" stroke="none" /><text fill="#e1ed5e" style="font-size:6.75px; font-family:Arial;" text-anchor="middle"><textPath startOffset="22.20632615414155" xlink:href="#id32">August</textPath></text><line stroke="#e1ed5e" stroke-width="0.3" x1="26.63291911575756" x2="22.317208475507996" y1="142.92168965132927" y2="145.44649492493687" /><path d="M 25.769776987707644 143.4266507060508 a86.0,86.0 0 0,1 -11.730757126820373,-40.83630448921669" fill="none" id="id33" stroke="none" /><text fill="#e1ed5e" style="font-size:6.75px; font-family:Arial;" text-anchor="middle"><textPath startOffset="21.46611528233685" xlink:href="#id33">September</textPath></text><line stroke="#e1ed5e" stroke-width="0.3" x1="15.007084014347285" x2="10.007500721073583" y1="101.09737516637583" y2="101.16192664675087" /><path d="M 14.007167355692545 101.11028546245083 a86.0,86.0 0 0,1 10.666146001902534,-42.60595125391555" fill="none" id="id34" stroke="none" /><text fill="#e1ed5e" style="font-size:6.75px; font-family:Arial;" text-anchor="middle"><textPath startOffset="22.20632615414155" xlink:href="#id34">October</textPath></text><line stroke="#e1ed5e" stroke-width="0.3" x1="26.266209847984243" x2="21.928928074336255" y1="57.711370442889674" y2="55.22380399835377" /><path d="M 25.398753493254645 57.213857153982495 a86.0,86.0 0 0,1 29.58750427330803,-30.492523968695096" fill="none" id="id35" stroke="none" /><text fill="#e1ed5e" style="font-size:6.75px; font-family:Arial;" text-anchor="middle"><textPath startOffset="21.46611528233685" xlink:href="#id35">November</textPath></text><line stroke="#e1ed5e" stroke-width="0.3" x1="56.762969772571076" x2="54.21961505331055" y1="26.818313649435495" y2="22.513508569990535" /><path d="M 56.25429882871897 25.957352633546506 a86.0,86.0 0 0,1 42.265352541879196,-11.944610805530505" fill="none" id="id36" stroke="none" /><text fill="#e1ed5e" style="font-size:6.75px; font-family:Arial;" text-anchor="middle"><textPath startOffset="22.20632615414155" xlink:href="#id36">December</textPath></text></svg>