<?xml version="1.0" encoding="utf-8" ?>
<svg baseProfile="full" height="200mm" version="1.1" viewBox="0,0,200,200" width="200mm" xmlns="http://www.w3.org/2000/svg" xmlns:ev="http://www.w3.org/2001/xml-events" xmlns:xlink="http://www.w3.org/1999/xlink"><defs /><rect fill="#1a1a1a" height="200" width="200" x="0" y="0" /><text alignment-baseline="middle" fill="#e1ed5e" style="dominant-baseline: central; font-size:9.0px; font-family:Arial;" text-anchor="middle" x="100.0" y="100.0">2020</text><line stroke="#e1ed5e" stroke-width="0.3" x1="100.0" x2="100.0" y1="15.0" y2="10.0" /><path d="M 100.0 14.0 a86.0,86.0 0 0,1 42.35913384403234,11.155469271406648" fill="none" id="id1" stroke="none" /><text fill="#e1ed5e" style="font-size:6.75px; font-family:Arial;" text-anchor="middle"><textPath startOffset="22.145653131862478" xlink:href="#id1">January</textPath></text><line stroke="#e1ed5e" stroke-width="0.3" x1="143.13028292997686" x2="145.6673583964461" y1="26.7553504044142" y2="22.446841604673864" /><path d="M 143.63769802327073 25.89364864446614 a86.0,86.0 0 0,1 29.32050498858742,28.57503671076993" fill="none" id="id2" stroke="none" /><text fill="#e1ed5e" style="font-size:6.75px; font-family:Arial;" text-anchor="middle"><textPath startOffset="20.669276256404974" xlink:href="#id2">February</textPath></text><line stroke="#e1ed5e" stroke-width="0.3" x1="172.87174338648825" x2="177.1583165268699" y1="56.24261187166439" y2="53.66864786411523" /><path d="M 173.72905801456457 55.72781907015455 a86.0,86.0 0 0,1 12.242430191666344,42.057860355516425" fill="none" id="id3" stroke="none" /><text fill="#e1ed5e" style="font-size:6.75px; font-family:Arial;" text-anchor="middle"><textPath startOffset="22.145653131862474" xlink:href="#id3">March</textPath></text><line stroke="#e1ed5e" stroke-width="0.3" x1="184.99686870605535" x2="189.99668451229388" y1="99.2704041080226" y2="99.22748670261217" /><path d="M 185.99683186730306 99.26182062694052 a86.0,86.0 0 0,1 -10.086455211305974,41.156179273409016" fill="none" id="id4" stroke="none" /><text fill="#e1ed5e" style="font-size:6.75px; font-family:Arial;" text-anchor="middle"><textPath startOffset="21.40746469413373" xlink:href="#id4">April</textPath></text><line stroke="#e1ed5e" stroke-width="0.3" x1="174.33088141563837" x2="178.70328620479359" y1="141.23008692659167" y2="143.65538615756765" /><path d="M 175.20536237346943 141.71514677278685 a86.0,86.0 0 0,1 -30.301960400862466,31.631185727798858" fill="none" id="id5" stroke="none" /><text fill="#e1ed5e" style="font-size:6.75px; font-family:Arial;" text-anchor="middle"><textPath startOffset="22.145653131862474" xlink:href="#id5">May</textPath></text><line stroke="#e1ed5e" stroke-width="0.3" x1="143.1302829299769" x2="145.66735839644613" y1="173.24464959558577" y2="177.55315839532614" /><path d="M 143.63769802327073 174.10635135553383 a86.0,86.0 0 0,1 -40.68552437913181,11.842963189579606" fill="none" id="id6" stroke="none" /><text fill="#e1ed5e" style="font-size:6.75px; font-family:Arial;" text-anchor="middle"><textPath startOffset="21.407464694133747" xlink:href="#id6">June</textPath></text><line stroke="#e1ed5e" stroke-width="0.3" x1="101.45913802915013" x2="101.54496967792366" y1="184.9874750549273" y2="189.98673829345242" /><path d="M 101.47630435890484 185.9873277026323 a86.0,86.0 0 0,1 -42.54439059252881,-10.42667462771756" fill="none" id="id7" stroke="none" /><text fill="#e1ed5e" style="font-size:6.75px; font-family:Arial;" text-anchor="middle"><textPath startOffset="22.145653131862474" xlink:href="#id7">July</textPath></text><line stroke="#e1ed5e" stroke-width="0.3" x1="58.13341422392154" x2="55.67067388415222" y1="173.97424548756322" y2="178.32567169271397" /><path d="M 57.64086615596768 174.84453072859336 a86.0,86.0 0 0,1 -31.369924170532247,-30.572349798747897" fill="none" id="id8" stroke="none" /><text fill="#e1ed5e" style="font-size:6.75px; font-family:Arial;" text-anchor="middle"><textPath startOffset="22.145653131862474" xlink:href="#id8">August</textPath></text><path d="M 85.34317274990678 115.03919595460226 l -10.20677065212025 10.473045856492837 a35.62405062413232,35.62405062413232 0 0,0 -0.4342878474989108,-0.4305760078586183 l 10.385050419749122 -10.296289838405558" fill="#ff8c0c" stroke="none" /><path d="M 85.08716467003676 114.78537596483092 l -11.053009998319455 10.958540395053843 a36.564659893906345,36.564659893906345 0 0,0 -0.43810243051135617,-0.44953168842226254 l 11.23949922998162 -10.767186014563844" fill="#ff990e" stroke="none" /><path d="M 84.58840730492382 114.26474011684316 l -15.305303695441301 14.166360605583732 a41.85516947946297,41.85516947946297 0 0,0 -0.48353144511288076,-0.531485760420859 l 15.546232841396062 -13.901537269605198" fill="#ffe215" stroke="none" /><path d="M 83.4222238831116 112.89097897827486 l -16.57758794995375 12.890832658528346 a41.99976163837658,41.99976163837658 0 0,0 -0.4376935612452213,-0.5729549218220596 l 16.796433488553266 -12.604356823465416" fill="#ffe415" stroke="none" /><path d="M 83.20337586046588 112.60449989151573 l -16.44168003816303 12.338143220671625 a41.556230700474586,41.556230700474586 0 0,0 -0.42327589621618755,-0.5742550457068862 l 16.65105795396305 -12.05408186569586" fill="#ffde14" stroke="none" /><path d="M 82.78059297857968 112.02048342749411 l -17.22150447544602 12.021947613300537 a42.00255795884753,42.00255795884753 0 0,0 -0.407645352001061,-0.5947667511984873 l 17.42533956426241 -11.724546127032" fill="#ffe415" stroke="none" /><path d="M 82.576782715395 111.72311816256416 l -34.548175909575036 23.24555458806486 a62.640512326166736,62.640512326166736 0 0,0 -0.5926256634616339,-0.8973107875648106 l 34.94212601195739 -22.649063922160988" fill="#30ff3a" stroke="none" /><path d="M 82.18462484594161 111.11811171558189 l -13.570715000366262 8.469129845970386 a36.99657669531429,36.99657669531429 0 0,0 -0.331616235216226,-0.5416701982981112 l 13.714099200037893 -8.234922531547717" fill="#ff9f0e" stroke="none" /><line stroke="#e1ed5e" stroke-width="0.3" x1="26.387840678322732" x2="22.057713659400548" y1="142.50000000000003" y2="145.00000000000006" /><path d="M 25.521815274538298 143.00000000000003 a86.0,86.0 0 0,1 -11.493303480769221,-40.785679425670985" fill="none" id="id9" stroke="none" /><text fill="#e1ed5e" style="font-size:6.75px; font-family:Arial;" text-anchor="middle"><textPath startOffset="21.40746469413373" xlink:href="#id9">September</textPath></text><path d="M 79.48165901384964 104.47187691870673 l -15.365550456567847 3.348850205595558 a36.726249983160315,36.726249983160315 0 0,0 -0.12896560698070483,-0.6171471154779427 l 15.42077377437292 -3.0845866388322065" fill="#ff9b0e" stroke="none" /><path d="M 79.407916724674 104.11899336999214 l -14.44076282331677 2.8885570018135565 a35.72682560744215,35.72682560744215 0 0,0 -0.11513175018306629,-0.6024179670046362 l 14.488220865781994 -2.6402364697756058" fill="#ff8d0d" stroke="none" /><path d="M 79.22317932658666 103.0534771498775 l -20.400932718354802 2.9982345648965256 a41.62007435207205,41.62007435207205 0 0,0 -0.09781804241211978,-0.707762626890794 l 20.449395277322132 -2.647583629805646" fill="#ffdf14" stroke="none" /><path d="M 79.0935383218832 101.97986365728391 l -31.368844192712082 2.9706621591141733 a52.50919262136431,52.50919262136431 0 0,0 -0.07727947233299479,-0.8981046099472024 l 31.415217287742816 -2.431736501791309" fill="#96ff23" stroke="none" /><line stroke="#e1ed5e" stroke-width="0.3" x1="15.003131293944662" x2="10.003315487706104" y1="100.72959589197737" y2="100.7725132973878" /><path d="M 14.003168132696942 100.73817937305945 a86.0,86.0 0 0,1 10.791469493833604,-42.45332614584628" fill="none" id="id10" stroke="none" /><text fill="#e1ed5e" style="font-size:6.75px; font-family:Arial;" text-anchor="middle"><textPath startOffset="22.145653131862435" xlink:href="#id10">October</textPath></text><path d="M 79.00077361379809 99.81974689727619 l -18.205775031055566 -0.15627468252810464 a39.20644573380004,39.20644573380004 0 0,0 0.011553893866514762,-0.6729563942209625 l 18.200409705590385 0.46877799271811954" fill="#ffbe11" stroke="none" /><path d="M 79.00696218219943 99.45929381324524 l -38.606599833599105 -0.9943690646759105 a59.61940342041082,59.61940342041082 0 0,0 0.03513375135183942,-1.0228808363236852 l 38.58384139525041 1.6569561655637342" fill="#46ff2c" stroke="none" /><path d="M 79.01933749520258 99.09900007780938 l -33.393527384737226 -1.434061749405619 a54.42430559183396,54.42430559183396 0 0,0 0.04809660031972996,-0.9330611970926556 l 33.36398919496092 2.0070947398749865" fill="#80ff26" stroke="none" /><path d="M 79.03789590574601 98.7389718711861 l -49.146352223725536 -2.9565225086207922 a70.23520043873563,70.23520043873563 0 0,0 0.08273050693486171,-1.2028834139823956 l 49.08835775562561 3.7997493467575127" fill="#3bff98" stroke="none" /><path d="M 79.0935383218832 98.0201363427161 l -62.7193850343504 -5.9395909718517155 a84.0,84.0 0 0,0 0.14827043007334506,-1.4343819108683489 l 62.608182211795395 7.015377405002977" fill="#4dd2ff" stroke="none" /><path d="M 79.13060592940154 97.66154086499901 l -53.63963217808456 -6.010432667120458 a74.97532251914937,74.97532251914937 0 0,0 0.1542989057755307,-1.27781628591944 l 53.52855118604936 6.930342629963334" fill="#41ffce" stroke="none" /><path d="M 79.17382384314186 97.30363454192245 l -43.01417779328193 -5.569046489180819 a64.37319183586476,64.37319183586476 0 0,0 0.1512938097115929,-1.094686640146062 l 42.91223946701513 6.306621437526948" fill="#33ff51" stroke="none" /><path d="M 80.41425534168474 92.42381321644754 l -24.50025459405906 -9.477224802396009 a47.26937884931546,47.26937884931546 0 0,0 0.29924065989313897,-0.7542819413976855 l 24.333955259199794 9.896407761007278" fill="#d6ff1c" stroke="none" /><path d="M 80.5471966667186 92.08871423366112 l -24.45058415156292 -9.943839716200989 a47.39528392827317,47.39528392827317 0 0,0 0.3129762367479569,-0.7510290331966792 l 24.276282070278484 10.362101258838932" fill="#d4ff1c" stroke="none" /><path d="M 80.83023694016515 91.42560881287825 l -28.543586812726307 -12.76718332156544 a52.26879143974231,52.26879143974231 0 0,0 0.3733871771053759,-0.8159183676319522 l 28.320215170765884 13.255290671412064" fill="#99ff23" stroke="none" /><path d="M 80.9802524753101 91.09779779509293 l -30.373777207040636 -14.216461394814534 a54.536161324951806,54.536161324951806 0 0,0 0.4041408520670158,-0.8444989451540875 l 30.125257097013716 14.73577284203371" fill="#7fff26" stroke="none" /><path d="M 81.29705330413844 90.45014215332179 l -22.544182064665932 -11.511219995875345 a46.31300714569973,46.31300714569973 0 0,0 0.36761926631876635,-0.7049584155834132 l 22.343254729372227 11.896524654563246" fill="#e2ff1b" stroke="none" /><path d="M 81.63589988554816 89.8137432299009 l -28.877879590381106 -16.018073014758603 a54.02287983720813,54.02287983720813 0 0,0 0.4567933802165705,-0.807110133746362 l 28.598652845143167 16.51143991860407" fill="#84ff25" stroke="none" /><line stroke="#e1ed5e" stroke-width="0.3" x1="26.387840678322718" x2="22.05771365940052" y1="57.49999999999999" y2="54.99999999999999" /><path d="M 25.521815274538284 56.99999999999999 a86.0,86.0 0 0,1 29.574782752854787,-30.34633250058573" fill="none" id="id11" stroke="none" /><text fill="#e1ed5e" style="font-size:6.75px; font-family:Arial;" text-anchor="middle"><textPath startOffset="21.40746469413373" xlink:href="#id11">November</textPath></text><path d="M 81.81346652052679 89.5 l -18.12884159964459 -10.466691577650893 a41.93338315530178,41.93338315530178 0 0,0 0.3652722953478934,-0.6203122136520225 l 17.94649559416692 10.776354959596489" fill="#ffe315" stroke="none" /><path d="M 82.18462484594161 88.88188828441811 l -24.772201230167823 -15.459685711706136 a50.20040814941906,50.20040814941906 0 0,0 0.4625186119081946,-0.7271560802191731 l 24.503164926633737 15.882655466603982" fill="#b2ff20" stroke="none" /><path d="M 82.576782715395 88.27688183743585 l -20.973258989724158 -14.111744655095789 a46.278823743613344,46.278823743613344 0 0,0 0.4491475831935029,-0.6553197468174643 l 20.727921669715343 14.469699136983287" fill="#e2ff1b" stroke="none" /><path d="M 82.98947788004972 87.6856937992154 l -34.92050525476342 -25.279752811874364 a64.1104116134076,64.1104116134076 0 0,0 0.6530041698932371,-0.8859255695422419 l 34.48139906528637 25.875484690685468" fill="#32ff4d" stroke="none" /><path d="M 83.2033758604659 87.39550010848427 l -20.980027780747122 -15.743803974514556 a47.2303055504289,47.2303055504289 0 0,0 0.49220280850777504,-0.6443092762590888 l 20.70667299488504 16.10163416401453" fill="#d6ff1c" stroke="none" /><path d="M 83.42222388311158 87.10902102172516 l -4.205504838777869 -3.270225999402281 a26.32734915658348,26.32734915658348 0 0,0 0.2804910380261092,-0.3543912636267021 l 4.148747370110198 3.341937206943666" fill="#ff0000" stroke="none" /><path d="M 83.64595745247003 86.82634096563983 l -27.00866191071982 -21.756266192414426 a55.68144946282901,55.68144946282901 0 0,0 0.6060082087682406,-0.7392314791408289 l 26.63120688271295 22.216699953253748" fill="#72ff27" stroke="none" /><path d="M 84.34580500576568 86.00192230759919 l -19.534569695216653 -17.467932677597023 a47.205497232572,47.205497232572 0 0,0 0.5453410553107098,-0.5994253494782822 l 19.23183093906408 17.800695602632963" fill="#d7ff1c" stroke="none" /><path d="M 84.83555147118756 85.47280134310135 l -38.60285636093103 -36.9806631618331 a74.45792707458486,74.45792707458486 0 0,0 0.8921236767103128,-0.9153974841111225 l 37.96234588306991 37.63788333801195" fill="#40ffc9" stroke="none" /><path d="M 85.34317274990677 84.96080404539775 l -37.44222497482338 -38.419021304156345 a74.64644824249325,74.64644824249325 0 0,0 0.925358300473942,-0.8864723194024301 l 36.77719418848414 39.056105753864344" fill="#41ffcb" stroke="none" /><path d="M 86.96720088162412 83.53348406188908 l -30.77636788153675 -38.884935433704726 a70.59055377451509,70.59055377451509 0 0,0 0.9566366479484756,-0.7438864436097722 l 30.104321288953027 39.40752292893531" fill="#3bff9c" stroke="none" /><path d="M 87.25179093698888 83.31218511350988 l -28.164779167749597 -36.8686000321415 a67.39556502402063,67.39556502402063 0 0,0 0.925395701683209,-0.6944341865709458 l 27.527730477155636 37.34665324597645" fill="#37ff76" stroke="none" /><path d="M 87.54013794807813 83.09580414077388 l -30.93760749331884 -41.972806304244486 a73.14261238626507,73.14261238626507 0 0,0 1.017096750840268,-0.7362996113435374 l 30.212529732104603 42.4977066869611" fill="#3fffba" stroke="none" /><path d="M 87.83215693770416 82.88440491214696 l -27.572736614425008 -38.78450707659563 a68.58669765368207,68.58669765368207 0 0,0 0.9654554526956763,-0.6739628870306499 l 26.902886070555564 39.25211477943141" fill="#38ff85" stroke="none" /><path d="M 88.12776184653039 82.6780497279521 l -29.536808921308218 -43.09508693441757 a73.2456658407076,73.2456658407076 0 0,0 1.0432405016077713,-0.7019387678260212 l 28.792672131603457 43.59577537630071" fill="#3fffbb" stroke="none" /><path d="M 88.72937992617638 82.28071324371311 l -30.279634715690655 -47.60461508671192 a77.41857545232473,77.41857545232473 0 0,0 1.1274941653010566,-0.70363974825578 l 29.457976421599902 48.117390631809236" fill="#44ffe9" stroke="none" /><line stroke="#e1ed5e" stroke-width="0.3" x1="56.869717070023135" x2="54.33264160355391" y1="26.7553504044142" y2="22.446841604673864" /><path d="M 56.362301976729285 25.89364864446614 a86.0,86.0 0 0,1 42.16139366436587,-11.88097634709845" fill="none" id="id12" stroke="none" /><text fill="#e1ed5e" style="font-size:6.75px; font-family:Arial;" text-anchor="middle"><textPath startOffset="22.145653131862474" xlink:href="#id12">December</textPath></text><path d="M 89.34428304082924 81.90426304109057 l -26.56076802040165 -45.10599083716707 a73.34524627161659,73.34524627161659 0 0,0 1.0904256348872683,-0.6295575338334296 l 25.78254991765398 45.55529526827667" fill="#3fffbc" stroke="none" /><path d="M 89.97174638481275 81.54914285379989 l -9.985637675387704 -18.372448616902265 a41.91075866545344,41.91075866545344 0 0,0 0.6350701022008359,-0.3381390589561806 l 9.668778757400306 18.541158143581022" fill="#ffe315" stroke="none" /><path d="M 90.28995756902619 81.37971332152246 l -16.047973555262505 -30.774105296844287 a55.70710319303045,55.70710319303045 0 0,0 0.8517159234511645,-0.4348922192303917 l 15.517330410097758 31.045055467747513" fill="#71ff27" stroke="none" /><path d="M 90.61103034731259 81.2157712731953 l -18.660769018182233 -37.33403838996054 a62.73792906761184,62.73792906761184 0 0,0 0.9674778719557339,-0.4732419081079701 l 18.017130896964446 37.64887404816572" fill="#31ff3c" stroke="none" /><path d="M 91.26138138417902 80.90454125486306 l -16.849828338421762 -36.81991582931027 a61.492257490929966,61.492257490929966 0 0,0 0.963632274686487,-0.43102045955956375 l 16.215282660879655 37.10374003977967" fill="#32ff2f" stroke="none" /><path d="M 91.92203290615298 80.6158196554323 l -19.884578777210457 -47.71575033857276 a72.69322299412269,72.69322299412269 0 0,0 1.1559798819321778,-0.470126954425007 l 19.06254443408784 48.05006454957706" fill="#3effb5" stroke="none" /><path d="M 92.25597844496254 80.48000691201159 l -9.542752512997884 -24.053970120076894 a46.877743411315436,46.877743411315436 0 0,0 0.7505522669807356,-0.29032974056723415 l 9.128427983523618 24.21423974878217" fill="#dbff1b" stroke="none" /><path d="M 92.592206182469 80.34994680014964 l -7.454086980696298 -19.772851315104965 a42.13123427168972,42.13123427168972 0 0,0 0.678936511035297,-0.24931489110273908 l 7.113561318006873 19.897897055216426" fill="#ffe615" stroke="none" /><path d="M 93.27111125876988 80.10723608172694 l -9.877678193108773 -29.20160042953319 a51.82696861731185,51.82696861731185 0 0,0 0.8452170632415412,-0.27783963683156904 l 9.37493839221947 29.36686098776679" fill="#9eff22" stroke="none" /><path d="M 96.05791012581881 79.37332000966035 l -5.909690999893272 -30.92200050916094 a52.481654391133404,52.481654391133404 0 0,0 0.8863533303958875,-0.16152310278105445 l 5.378002935946346 31.018891785873357" fill="#96ff23" stroke="none" /><path d="M 96.41257539226777 79.30868818359171 l -7.184987907935392 -41.44110091673629 a63.0593496909819,63.0593496909819 0 0,0 1.0681728251393103,-0.1757674318892433 l 6.472537579743009 41.558334347121196" fill="#31ff40" stroke="none" /><path d="M 97.84075906011542 79.11130261209362 l -3.9093124030979753 -37.81905125764605 a59.02056498125028,59.02056498125028 0 0,0 1.0086907876682756,-0.09552406632404417 l 3.259522052044684 37.88058707947528" fill="#4dff2c" stroke="none" /></svg>