<?xml version="1.0" encoding="utf-8" ?>
<svg baseProfile="full" height="200mm" version="1.1" viewBox="0,0,200,200" width="200mm" xmlns="http://www.w3.org/2000/svg" xmlns:ev="http://www.w3.org/2001/xml-events" xmlns:xlink="http://www.w3.org/1999/xlink"><defs /><rect fill="#1a1a1a" height="200" width="200" x="0" y="0" /><text alignment-baseline="middle" fill="#e1ed5e" style="dominant-baseline: central; font-size:9.0px; font-family:Arial;" text-anchor="middle" x="100.0" y="100.0">2020</text><line stroke="#e1ed5e" stroke-width="0.3" x1="100.0" x2="100.0" y1="15.0" y2="10.0" /><path d="M 100.0 14.0 a86.0,86.0 0 0,1 42.35913384403234,11.155469271406648" fill="none" id="id1" stroke="none" /><text fill="#e1ed5e" style="font-size:6.75px; font-family:Arial;" text-anchor="middle"><textPath startOffset="22.145653131862478" xlink:href="#id1">January</textPath></text><line stroke="#e1ed5e" stroke-width="0.3" x1="143.13028292997686" x2="145.6673583964461" y1="26.7553504044142" y2="22.446841604673864" /><path d="M 143.63769802327073 25.89364864446614 a86.0,86.0 0 0,1 29.32050498858742,28.57503671076993" fill="none" id="id2" stroke="none" /><text fill="#e1ed5e" style="font-size:6.75px; font-family:Arial;" text-anchor="middle"><textPath startOffset="20.669276256404974" xlink:href="#id2">February</textPath></text><line stroke="#e1ed5e" stroke-width="0.3" x1="172.87174338648825" x2="177.1583165268699" y1="56.24261187166439" y2="53.66864786411523" /><path d="M 173.72905801456457 55.72781907015455 a86.0,86.0 0 0,1 12.242430191666344,42.057860355516425" fill="none" id="id3" stroke="none" /><text fill="#e1ed5e" style="font-size:6.75px; font-family:Arial;" text-anchor="middle"><textPath startOffset="22.145653131862474" xlink:href="#id3">March</textPath></text><line stroke="#e1ed5e" stroke-width="0.3" x1="184.99686870605535" x2="189.99668451229388" y1="99.2704041080226" y2="99.22748670261217" /><path d="M 185.99683186730306 99.26182062694052 a86.0,86.0 0 0,1 -10.086455211305974,41.156179273409016" fill="none" id="id4" stroke="none" /><text fill="#e1ed5e" style="font-size:6.75px; font-family:Arial;" text-anchor="middle"><textPath startOffset="21.40746469413373" xlink:href="#id4">April</textPath></text><line stroke="#e1ed5e" stroke-width="0.3" x1="174.33088141563837" x2="178.70328620479359" y1="141.23008692659167" y2="143.65538615756765" /><path d="M 175.20536237346943 141.71514677278685 a86.0,86.0 0 0,1 -30.301960400862466,31.631185727798858" fill="none" id="id5" stroke="none" /><text fill="#e1ed5e" style="font-size:6.75px; font-family:Arial;" text-anchor="middle"><textPath startOffset="22.145653131862474" xlink:href="#id5">May</textPath></text><line stroke="#e1ed5e" stroke-width="0.3" x1="143.1302829299769" x2="145.66735839644613" y1="173.24464959558577" y2="177.55315839532614" /><path d="M 143.63769802327073 174.10635135553383 a86.0,86.0 0 0,1 -40.68552437913181,11.842963189579606" fill="none" id="id6" stroke="none" /><text fill="#e1ed5e" style="font-size:6.75px; font-family:Arial;" text-anchor="middle"><textPath startOffset="21.407464694133747" xlink:href="#id6">June</textPath></text><line stroke="#e1ed5e" stroke-width="0.3" x1="101.45913802915013" x2="101.54496967792366" y1="184.9874750549273" y2="189.98673829345242" /><path d="M 101.47630435890484 185.9873277026323 a86.0,86.0 0 0,1 -42.54439059252881,-10.42667462771756" fill="none" id="id7" stroke="none" /><text fill="#e1ed5e" style="font-size:6.75px; font-family:Arial;" text-anchor="middle"><textPath startOffset="22.145653131862474" xlink:href="#id7">July</textPath></text><line stroke="#e1ed5e" stroke-width="0.3" x1="58.13341422392154" x2="55.67067388415222" y1="173.97424548756322" y2="178.32567169271397" /><path d="M 57.64086615596768 174.84453072859336 a86.0,86.0 0 0,1 -31.369924170532247,-30.572349798747897" fill="none" id="id8" stroke="none" /><text fill="#e1ed5e" style="font-size:6.75px; font-family:Arial;" text-anchor="middle"><textPath startOffset="22.145653131862474" xlink:href="#id8">August</textPath></text><path d="M 85.34317274990678 115.03919595460226 l -11.397426218727391 11.694763358862179 a37.32999738000959,37.32999738000959 0 0,0 -0.4550848071814183,-0.4511952168170573 l 11.596502946038772 -11.497388131816463" fill="#ff9d0e" stroke="none" /><path d="M 85.08716467003676 114.78537596483092 l -12.342382350340486 12.236892536781426 a38.38033201750569,38.38033201750569 0 0,0 -0.45985705294374346,-0.471853847515526 l 12.550626204435039 -12.023215997198163" fill="#ffac0f" stroke="none" /><path d="M 84.58840730492382 114.26474011684316 l -17.090721009565492 15.818916216804276 a44.28799808702063,44.28799808702063 0 0,0 -0.5116366743343634,-0.5623783306467626 l 17.359755384741735 -15.523200310599838" fill="#fffc17" stroke="none" /><path d="M 83.64595745247003 113.17365903436017 l -18.288166686000736 14.731652530848159 a44.48358207396376,44.48358207396376 0 0,0 -0.47392717120271216,-0.5987914988354279 l 18.53836028784501 -14.41554108809805" fill="#ffff18" stroke="none" /><path d="M 83.4222238831116 112.89097897827486 l -18.511421681138042 14.394593464586007 a44.44945742800054,44.44945742800054 0 0,0 -0.4632226602758266,-0.60637333194821 l 18.755796318768162 -14.074699219396926" fill="#fffe18" stroke="none" /><path d="M 83.20337586046588 112.60449989151573 l -18.3596596351422 13.777430866880982 a43.9541870518203,43.9541870518203 0 0,0 -0.4477005638675673,-0.6073917982692264 l 18.593462218593597 -13.460232759342876" fill="#fff817" stroke="none" /><path d="M 82.78059297857968 112.02048342749411 l -19.230453325960287 13.424349933789864 a44.45257994905424,44.45257994905424 0 0,0 -0.4314234294597405,-0.6294596768271549 l 19.458066492235353 -13.092255521892657" fill="#ffff18" stroke="none" /><path d="M 82.18462484594161 111.11811171558189 l -15.15378646427426 9.457083522908219 a38.86263342746763,38.86263342746763 0 0,0 -0.3483425046036031,-0.5689913023144471 l 15.313896933333268 -9.195555104469214" fill="#ffb210" stroke="none" /><line stroke="#e1ed5e" stroke-width="0.3" x1="26.387840678322732" x2="22.057713659400548" y1="142.50000000000003" y2="145.00000000000006" /><path d="M 25.521815274538298 143.00000000000003 a86.0,86.0 0 0,1 -11.493303480769221,-40.785679425670985" fill="none" id="id9" stroke="none" /><text fill="#e1ed5e" style="font-size:6.75px; font-family:Arial;" text-anchor="middle"><textPath startOffset="21.40746469413373" xlink:href="#id9">September</textPath></text><path d="M 79.48165901384964 104.47187691870673 l -17.157995766514645 3.7395053182582068 a38.56077215697009,38.56077215697009 0 0,0 -0.13540760053499967,-0.6479743866631617 l 17.21966107787401 -3.444414480309636" fill="#ffae10" stroke="none" /><path d="M 79.407916724674 104.11899336999214 l -16.125328414889452 3.22551729913903 a37.444761425301564,37.444761425301564 0 0,0 -0.12066789715524875,-0.6313854273161321 l 16.17832260432686 -2.9482293067895835" fill="#ff9e0e" stroke="none" /><path d="M 79.22317932658666 103.0534771498775 l -22.780773015838232 3.347989134325049 a44.02547828911925,44.02547828911925 0 0,0 -0.10347136975464166,-0.7486672873394178 l 22.834888902148087 -2.956433538785545" fill="#fff917" stroke="none" /><path d="M 79.0935383218832 101.97986365728391 l -35.028129801165164 3.3172003107795827 a56.18485036587638,56.18485036587638 0 0,0 -0.08268905638470245,-0.9609721765605063 l 35.07991248024761 -2.715407086843414" fill="#6fff27" stroke="none" /><line stroke="#e1ed5e" stroke-width="0.3" x1="15.003131293944662" x2="10.003315487706104" y1="100.72959589197737" y2="100.7725132973878" /><path d="M 14.003168132696942 100.73817937305945 a86.0,86.0 0 0,1 10.791469493833604,-42.45332614584628" fill="none" id="id10" stroke="none" /><text fill="#e1ed5e" style="font-size:6.75px; font-family:Arial;" text-anchor="middle"><textPath startOffset="22.145653131862435" xlink:href="#id10">October</textPath></text><path d="M 79.00077361379809 99.81974689727619 l -6.463986518066449 -0.05548555001111723 a27.464224652037153,27.464224652037153 0 0,0 0.00809353489755879,-0.47140783220693194 l 6.462081551570224 0.16644029818710157" fill="#ff0801" stroke="none" /><path d="M 79.00696218219943 99.45929381324524 l -43.11019500256673 -1.1103657008766439 a64.12449217265072,64.12449217265072 0 0,0 0.037788602943074526,-1.1001739437053328 l 43.08478171262681 1.8502459091461152" fill="#32ff4b" stroke="none" /><path d="M 79.01933749520258 99.09900007780938 l -37.28899938312353 -1.6013500782007302 a58.323367975941565,58.323367975941565 0 0,0 0.05154233367490675,-0.9999075036480166 l 37.25601545999205 2.241229375225459" fill="#57ff2a" stroke="none" /><path d="M 79.13060592940154 97.66154086499901 l -59.89688325390149 -6.711570701542523 a81.27173304969179,81.27173304969179 0 0,0 0.16725689278423064,-1.3851270069464396 l 59.7728442748576 7.738791385412399" fill="#49edff" stroke="none" /><path d="M 79.17382384314186 97.30363454192245 l -47.45953255515576 -6.144586662208216 a68.85564935933141,68.85564935933141 0 0,0 0.1618287553349949,-1.1709122586997054 l 47.34705928326556 6.958387229107989" fill="#39ff86" stroke="none" /><path d="M 80.41425534168474 92.42381321644754 l -27.3582951545814 -10.582776288910116 a50.33379395418039,50.33379395418039 0 0,0 0.318640060107165,-0.8031811025631889 l 27.1725964195081 11.050858408686887" fill="#b5ff20" stroke="none" /><path d="M 80.5471966667186 92.08871423366112 l -27.30283048089603 -11.10382346768114 a50.47438630183794,50.47438630183794 0 0,0 0.3333091853784244,-0.7998207079597551 l 27.10819545098113 11.57087668508216" fill="#b3ff20" stroke="none" /><path d="M 80.83023694016515 91.42560881287825 l -31.873979283233442 -14.256825512741225 a55.91715379364051,55.91715379364051 0 0,0 0.3994496071493159,-0.8728694807977164 l 31.62454521122908 14.801883975753611" fill="#72ff27" stroke="none" /><path d="M 80.9802524753101 91.09779779509293 l -33.91698476436296 -15.874861438679071 a58.448272072330504,58.448272072330504 0 0,0 0.43313159385035405,-0.9050784454200094 l 33.639473912552695 16.45475238616417" fill="#56ff2b" stroke="none" /><path d="M 81.29705330413844 90.45014215332179 l -25.174039909499893 -12.854044149926594 a49.265858139694885,49.265858139694885 0 0,0 0.3910581441386864,-0.7499055543349944 l 24.949673696386267 13.284295947366074" fill="#c2ff1e" stroke="none" /><path d="M 81.63589988554816 89.8137432299009 l -32.24658544828687 -17.88663736790983 a57.87511450022596,57.87511450022596 0 0,0 0.48936615860990945,-0.8646631121040477 l 31.934785924655596 18.437557250112985" fill="#5cff2a" stroke="none" /><line stroke="#e1ed5e" stroke-width="0.3" x1="26.387840678322718" x2="22.05771365940052" y1="57.49999999999999" y2="54.99999999999999" /><path d="M 25.521815274538284 56.99999999999999 a86.0,86.0 0 0,1 29.574782752854787,-30.34633250058573" fill="none" id="id11" stroke="none" /><text fill="#e1ed5e" style="font-size:6.75px; font-family:Arial;" text-anchor="middle"><textPath startOffset="21.40746469413373" xlink:href="#id11">November</textPath></text><path d="M 81.81346652052679 89.5 l -20.24363450549598 -11.687667831124502 a44.375335662249,44.375335662249 0 0,0 0.38654359592575716,-0.6564355323837242 l 20.04001719944044 12.0334545318018" fill="#fffe18" stroke="none" /><path d="M 82.18462484594161 88.88188828441811 l -27.661965318840153 -17.26311222906559 a53.60673809405089,53.60673809405089 0 0,0 0.493902639563967,-0.7764969844424854 l 27.361544987650294 17.735422888186747" fill="#8dff24" stroke="none" /><path d="M 82.576782715395 88.27688183743585 l -23.419863152503204 -15.757929124288118 a49.22768712395801,49.22768712395801 0 0,0 0.4777670413670139,-0.6970763915954865 l 23.145906374320877 16.15764025095364" fill="#c2ff1e" stroke="none" /><path d="M 82.98947788004972 87.6856937992154 l -38.9941045730435 -28.228724571287643 a69.139392210279,69.139392210279 0 0,0 0.7042274457609967,-0.9554197809718316 l 38.50377510769869 28.893950661528336" fill="#39ff89" stroke="none" /><path d="M 83.42222388311158 87.10902102172516 l -4.696091716581773 -3.651709322870799 a26.948803105607837,26.948803105607837 0 0,0 0.28711199565501955,-0.3627566273012091 l 4.632713290285191 3.731785894086691" fill="#ff0000" stroke="none" /><path d="M 83.64595745247003 86.82634096563983 l -30.159316975544733 -24.294210889467458 a59.727162085199325,59.727162085199325 0 0,0 0.650039660591534,-0.7929426909513266 l 29.73783049571457 24.808355862117278" fill="#48ff2c" stroke="none" /><path d="M 84.34580500576568 86.00192230759919 l -21.813345709847038 -19.505628241509722 a50.262460322968124,50.262460322968124 0 0,0 0.5806565921760267,-0.6382433108647482 l 21.475291416829144 19.877209127932126" fill="#b5ff1f" stroke="none" /><path d="M 84.83555147118756 85.47280134310135 l -43.10601484069277 -41.29458711987891 a80.69398161328573,80.69398161328573 0 0,0 0.9668414686474834,-0.9920645209168656 l 42.390786570894484 42.0284743328635" fill="#49f3ff" stroke="none" /><path d="M 86.96720088162412 83.53348406188908 l -34.36653905193421 -43.420999425862945 a76.3754656643979,76.3754656643979 0 0,0 1.0350332381876175,-0.8048481063572659 l 33.616095869111355 44.004548583841014" fill="#43ffdd" stroke="none" /><path d="M 87.25179093698888 83.31218511350988 l -31.450299362266346 -41.16945143337904 a72.80777027919197,72.80777027919197 0 0,0 0.9997096640036934,-0.7502007693214631 l 30.7389367093519 41.70327122996451" fill="#3effb5" stroke="none" /><path d="M 87.54013794807813 83.09580414077388 l -34.54658782950138 -46.86908125501854 a79.22523085700033,79.22523085700033 0 0,0 1.101679612750018,-0.7975310805218847 l 33.73692720637739 47.45521310691351" fill="#47fffb" stroke="none" /><path d="M 87.83215693770416 82.88440491214696 l -30.78919297025956 -43.30885574894187 a74.13785270447552,74.13785270447552 0 0,0 1.0435958661561568,-0.7285109643164015 l 30.041202012929638 43.831011529063396" fill="#40ffc4" stroke="none" /><path d="M 88.12776184653039 82.6780497279521 l -32.98238119491091 -48.12227985377882 a79.34030585805854,79.34030585805854 0 0,0 1.130046665984071,-0.7603458292544241 l 32.15143824082985 48.68137535709036" fill="#47fffd" stroke="none" /><path d="M 88.72937992617638 82.28071324371311 l -33.811860221470866 -53.157860268860674 a84.0,84.0 0 0,0 1.2233434848412057,-0.7634568126338559 l 32.89435260783996 53.73045287833607" fill="#4dd2ff" stroke="none" /><line stroke="#e1ed5e" stroke-width="0.3" x1="56.869717070023135" x2="54.33264160355391" y1="26.7553504044142" y2="22.446841604673864" /><path d="M 56.362301976729285 25.89364864446614 a86.0,86.0 0 0,1 42.16139366436587,-11.88097634709845" fill="none" id="id12" stroke="none" /><text fill="#e1ed5e" style="font-size:6.75px; font-family:Arial;" text-anchor="middle"><textPath startOffset="22.145653131862474" xlink:href="#id12">December</textPath></text><path d="M 89.34428304082924 81.90426304109057 l -29.65917469325883 -50.36776274407746 a79.45150269521667,79.45150269521667 0 0,0 1.1812075038693524,-0.6819704703277728 l 28.790174721529077 50.869480111681405" fill="#47fffe" stroke="none" /><path d="M 89.97174638481275 81.54914285379989 l -11.150497305289612 -20.515659135047336 a44.35007194637143,44.35007194637143 0 0,0 0.6720328054288588,-0.3578196164925637 l 10.796675684074192 20.704049219262476" fill="#fffd17" stroke="none" /><path d="M 90.61103034731259 81.2157712731953 l -20.837613121567017 -41.68918480678508 a67.606804765596,67.606804765596 0 0,0 1.0425605144514118,-0.5099685909918025 l 20.118892357853554 42.04074714787409" fill="#37ff77" stroke="none" /><path d="M 91.26138138417902 80.90454125486306 l -18.815419864998205 -41.115088047671804 a66.21582123398815,66.21582123398815 0 0,0 1.0376542517625629,-0.46412954838415493 l 18.106852210380023 41.432021346965804" fill="#35ff65" stroke="none" /><path d="M 92.25597844496254 80.48000691201159 l -10.655948036598192 -26.859950032687365 a49.89647286983556,49.89647286983556 0 0,0 0.7988846753608478,-0.3090257544270494 l 10.193291098743813 27.038915675252454" fill="#baff1f" stroke="none" /><path d="M 92.592206182469 80.34994680014964 l -8.323632350141457 -22.079423715762825 a44.59626680474077,44.59626680474077 0 0,0 0.7186600229738676,-0.263901914914555 l 7.943383175513462 22.219056479686103" fill="#feff18" stroke="none" /><path d="M 93.27111125876988 80.10723608172694 l -11.029943971054502 -32.60806945781872 a55.423042540869794,55.423042540869794 0 0,0 0.9038634228870841,-0.297117860111776 l 10.468557810519656 32.79260823933252" fill="#78ff26" stroke="none" /><path d="M 96.05791012581881 79.37332000966035 l -6.599077165780071 -34.529160235946165 a56.154099704580204,56.154099704580204 0 0,0 0.9483766063774518,-0.17282580976892495 l 6.00536582585158 34.637354219646454" fill="#70ff27" stroke="none" /><path d="M 96.41257539226777 79.30868818359171 l -8.023141927474493 -46.275350570674654 a67.96572023111365,67.96572023111365 0 0,0 1.1512826527337157,-0.18944312239290426 l 7.227581771687704 46.40625969156323" fill="#37ff7b" stroke="none" /><path d="M 97.84075906011542 79.11130261209362 l -4.36534739526154 -42.23077612523317 a63.455797130908756,63.455797130908756 0 0,0 1.0844911093350014,-0.10270243559518046 l 3.6397567225415233 42.29949031633353" fill="#31ff42" stroke="none" /></svg>