<?xml version="1.0" encoding="utf-8" ?>
<svg baseProfile="full" height="200mm" version="1.1" viewBox="0,0,200,200" width="200mm" xmlns="http://www.w3.org/2000/svg" xmlns:ev="http://www.w3.org/2001/xml-events" xmlns:xlink="http://www.w3.org/1999/xlink"><defs /><rect fill="#1a1a1a" height="200" width="200" x="0" y="0" /><text alignment-baseline="middle" fill="#e1ed5e" style="dominant-baseline: central; font-size:9.0px; font-family:Arial;" text-anchor="middle" x="100.0" y="100.0">2021</text><line stroke="#e1ed5e" stroke-width="0.3" x1="100.0" x2="100.0" y1="15.0" y2="10.0" /><path d="M 100.0 14.0 a86.0,86.0 0 0,1 42.46469731375804,11.215312516191453" fill="none" id="id13" stroke="none" /><text fill="#e1ed5e" style="font-size:6.75px; font-family:Arial;" text-anchor="middle"><textPath startOffset="22.20632615414155" xlink:href="#id13">January</textPath></text><line stroke="#e1ed5e" stroke-width="0.3" x1="143.23703022742887" x2="145.7803849466894" y1="26.81831364943548" y2="22.513508569990506" /><path d="M 143.74570117128098 25.957352633546492 a86.0,86.0 0 0,1 28.547481713284135,27.462654790039103" fill="none" id="id14" stroke="none" /><text fill="#e1ed5e" style="font-size:6.75px; font-family:Arial;" text-anchor="middle"><textPath startOffset="19.985693538727396" xlink:href="#id14">February</textPath></text><path d="M 116.82858285166822 87.43820079747576 l 6.260756891954255 -4.673380499460948 a28.812653976267896,28.812653976267896 0 0,0 0.2932543517826845,0.39999860626571254 l -6.340273856250565 4.564919449523742" fill="#ff0000" stroke="none" /><path d="M 117.65298651832404 88.62581576622439 l 15.030577420857504 -9.684511827355768 a38.8803810624546,38.8803810624546 0 0,0 0.357648412795599,0.5657138995905254 l -15.195053429899058 9.424350280051037" fill="#ff9d0e" stroke="none" /><line stroke="#e1ed5e" stroke-width="0.3" x1="172.23445277983987" x2="176.4835382374775" y1="55.19839476539836" y2="52.563006222186495" /><path d="M 173.08426987136738 54.67131705675599 a86.0,86.0 0 0,1 12.851231095245387,41.99856678651699" fill="none" id="id15" stroke="none" /><text fill="#e1ed5e" style="font-size:6.75px; font-family:Arial;" text-anchor="middle"><textPath startOffset="22.20632615414155" xlink:href="#id15">March</textPath></text><path d="M 118.03404312379186 89.2402003453031 l 18.045357600587884 -10.766550304159544 a42.013175304677134,42.013175304677134 0 0,0 0.36519517603099855,0.6242369355925796 l -18.22801245108921 10.45433395621307" fill="#ffca12" stroke="none" /><path d="M 118.21658344932153 89.55222093294921 l 26.695972476906086 -15.310973278536022 a51.77500364295302,51.77500364295302 0 0,0 0.43674029844788437,0.7769122581466958 l -26.955570416646403 14.849177510454531" fill="#b0ff20" stroke="none" /><path d="M 118.56541770881063 90.18545643968196 l 15.693809698051533 -8.296477963744998 a38.75182270758591,38.75182270758591 0 0,0 0.30667558961201796,0.5923996262507647 l -15.834294720823667 8.025105615233889" fill="#ff9b0e" stroke="none" /><path d="M 118.89224826269711 90.83032412892265 l 23.42426118010264 -11.36936586658725 a47.037636068621566,47.037636068621566 0 0,0 0.3472761930234877,0.7314522289784976 l -23.61649556696788 10.964471221968212" fill="#eeff19" stroke="none" /><path d="M 119.34039704204932 91.81776055985345 l 41.811332537851726 -17.68889921920872 a66.39917052301882,66.39917052301882 0 0,0 0.4362688352819935,1.0564595891689543 l -42.10962306001992 16.966565059586465" fill="#34ff60" stroke="none" /><path d="M 119.47837535516314 92.15188598940014 l 29.34049871974385 -11.821703549796913 a52.63253925853205,52.63253925853205 0 0,0 0.3313505321944077,0.8432509623045144 l -29.53964280181996 11.314903582596614" fill="#a5ff21" stroke="none" /><path d="M 119.61058180528143 92.48833698450437 l 16.77120476144846 -6.424064302770886 a38.95945186570477,38.95945186570477 0 0,0 0.23449028334842278,0.6283173781396943 l -16.879299633298505 6.134423787601858" fill="#ff9e0e" stroke="none" /><path d="M 119.7369772167798 92.82701384747503 l 16.903831391096787 -6.14333933515767 a38.98555347731964,38.98555347731964 0 0,0 0.22378992212453805,0.6326842457210802 l -17.007074394031136 5.851457463009975" fill="#ff9f0e" stroke="none" /><path d="M 120.08093135843002 93.85539295169968 l 17.419979288938823 -5.3303766448623335 a39.217260869931884,39.217260869931884 0 0,0 0.1919668166124281,0.6472166738006481 l -17.509152002662955 5.029730584315155" fill="#ffa20f" stroke="none" /><path d="M 120.18372546131832 94.20196356495316 l 17.503154274738602 -5.028007659322961 a39.21102058061301,39.21102058061301 0 0,0 0.18076883484752124,0.650321678554017 l -17.587109880152486 4.725974677349993" fill="#ffa20f" stroke="none" /><path d="M 120.28053869075195 94.5502522615342 l 17.619504251125324 -4.7346796310319545 a39.2445641565901,39.2445641565901 0 0,0 0.16969287521760104,0.6538958702937305 l -17.69839345821323 4.430687335189374" fill="#ffa20f" stroke="none" /><path d="M 120.37134235888165 94.90015583598534 l 30.720816090698268 -7.690773238888114 a52.66885748318848,52.66885748318848 0 0,0 0.21259959820532728,0.8813625881532587 l -30.848648489164415 7.160825419075449" fill="#a5ff21" stroke="none" /><path d="M 120.53481517161879 95.60439243477599 l 10.513701516288515 -2.2505245621775853 a31.75187334275158,31.75187334275158 0 0,0 0.1098020665794505,0.5354338720516362 l -10.550882878782962 2.0692150339625375" fill="#ff3004" stroke="none" /><path d="M 120.67395015179393 96.31383870115 l 14.578297850283914 -2.5993076767751426 a35.808212876986026,35.808212876986026 0 0,0 0.10297101513946501,0.607740760208078 l -14.620880726943602 2.347981128251227" fill="#ff6f0a" stroke="none" /><path d="M 120.73433829027371 96.67025291283417 l 17.717187812706634 -2.84522002516971 a38.94419184533946,38.94419184533946 0 0,0 0.10059489963709248,0.6627947015570171 l -17.763538605783026 2.539826211220611" fill="#ff9e0e" stroke="none" /><path d="M 120.78858239683441 97.02765380044208 l 17.804935297795478 -2.5457450996675797 a38.98600953716985,38.98600953716985 0 0,0 0.08926682472935629,0.6651415301552391 l -17.84611812158267 2.238885227447676" fill="#ff9f0e" stroke="none" /><path d="M 120.94382443527127 98.46500227214037 l 18.053526582763748 -1.3231643709601653 a39.10194978523407,39.10194978523407 0 0,0 0.04342068378888954,0.6716987597645793 l -18.073627857557053 1.0122065469425507" fill="#ffa00e" stroke="none" /><line stroke="#e1ed5e" stroke-width="0.3" x1="184.98032266829074" x2="189.97916517819016" y1="98.17113171792111" y2="98.06355123074" /><path d="M 185.9800911702706 98.14961562048488 a86.0,86.0 0 0,1 -9.607161424134198,41.387399972396054" fill="none" id="id16" stroke="none" /><text fill="#e1ed5e" style="font-size:6.75px; font-family:Arial;" text-anchor="middle"><textPath startOffset="21.466115282336823" xlink:href="#id16">April</textPath></text><path d="M 120.99513854157772 99.54816195383933 l 21.199167175767677 -0.45622896262214535 a42.20407587735153,42.20407587735153 0 0,0 0.009379339129666304,0.7264401519870306 l -21.203879522015058 0.09125255257465201" fill="#ffcd13" stroke="none" /><path d="M 120.99980553446 99.90962569577887 l 31.374001980015958 -0.13502046935260875 a52.37429251424149,52.37429251424149 0 0,0 -0.0038799442297508344,0.9015623966517146 l -31.371677738496704 -0.4050514055027905" fill="#a9ff21" stroke="none" /><path d="M 120.9904718944345 100.63252640178507 l 44.92476210300941 1.3537617575715954 a65.94515458765554,65.94515458765554 0 0,0 -0.04395673871547002,1.1343281088685655 l -44.89480323144273 -2.1268671134541672" fill="#34ff5a" stroke="none" /><path d="M 120.95626037817324 101.35467743843564 l 20.971369753019253 1.3556541551228456 a42.01514091092783,42.01514091092783 0 0,0 -0.0528659338604518,0.7213136653458592 l -20.944927260494467 -1.716440956965475" fill="#ffcb12" stroke="none" /><path d="M 120.92983693683757 101.71520430193887 l 20.831660168773595 1.7071586962591911 a41.90149411409342,41.90149411409342 0 0,0 -0.06509776962219281,0.7183484632712456 l -20.79918780287433 -2.0654885480790073" fill="#ffc912" stroke="none" /><path d="M 120.89721153311464 102.0752229133903 l 21.49954569857166 2.1350384375665015 a42.60529690550115,42.60529690550115 0 0,0 -0.07875426522551957,0.729166686429887 l -21.459609131845088 -2.5048014458811796" fill="#ffd313" stroke="none" /><path d="M 120.70491114924044 103.5080841355445 l 21.321879957911307 3.6126186816830113 a42.625761921347994,42.625761921347994 0 0,0 -0.1287979162815366,0.7223671144532255 l -21.25653559929058 -3.979104546869455" fill="#ffd313" stroke="none" /><path d="M 120.64145759157962 103.86396538481128 l 34.11995751395213 6.387065166314809 a55.71262165542456,55.71262165542456 0 0,0 -0.18456813441282635,0.9411089410151909 l -34.00495944656364 -6.973437834397944" fill="#80ff26" stroke="none" /><path d="M 120.5718875245553 104.21870165774334 l 21.058410293939538 4.318473465813027 a42.4966475800956,42.4966475800956 0 0,0 -0.15312141381602395,0.7153322686050045 l -20.980954841399072 -4.680319553834201" fill="#ffd113" stroke="none" /><path d="M 120.49622156327973 104.57218783832717 l 20.78357885956903 4.6362899720444535 a42.29442027660778,42.29442027660778 0 0,0 -0.1646248560812034,0.7091995713650466 l -20.700693437557273 -4.993358200758065" fill="#ffce13" stroke="none" /><path d="M 120.23288151984713 105.62410040840565 l 26.95421299638414 7.492417734592781 a48.97616703131585,48.97616703131585 0 0,0 -0.23277057556293276,0.8103049101652211 l -26.82124978393511 -7.955280120262584" fill="#d4ff1c" stroke="none" /><path d="M 120.02730092923936 106.31721596034902 l 20.022851987334835 6.315812629620369 a41.9953349789707,41.9953349789707 0 0,0 -0.2233906827771182,0.687525826741481 l -19.91116905354147 -6.659537356339646" fill="#ffca12" stroke="none" /><path d="M 119.9155931802556 106.66101706037122 l 20.1966262588016 6.7550120578478445 a42.296335368776106,42.296335368776106 0 0,0 -0.23687794556515218,0.688478189920817 l -20.07735748229322 -7.101662950857962" fill="#ffcf13" stroke="none" /><path d="M 119.79798401119884 107.00284435728193 l 20.69158166221851 7.318923270396703 a42.947851592404476,42.947851592404476 0 0,0 -0.25252465302904725,0.6948393901130077 l -20.562532748184235 -7.674010457515841" fill="#ffd814" stroke="none" /><path d="M 119.26925614724726 108.34839909993367 l 19.65979196886164 8.517598620493422 a42.42561332888158,42.42561332888158 0 0,0 -0.29608818424244454,0.667600690468901 l -19.510262699887924 -8.85474764745501" fill="#ffd013" stroke="none" /><path d="M 119.12269723197855 108.67885076344098 l 19.498113246380502 8.849233608688976 a42.41227114600012,42.41227114600012 0 0,0 -0.3074392488520397,0.6621967909477388 l -19.342899380688632 -9.183550466915547" fill="#ffd013" stroke="none" /><line stroke="#e1ed5e" stroke-width="0.3" x1="174.80103733775053" x2="179.2010983576182" y1="140.37084112569926" y2="142.7455964860345" /><path d="M 175.68104954172406 140.8457921977663 a86.0,86.0 0 0,1 -30.038265399797805,32.042727171017184" fill="none" id="id17" stroke="none" /><text fill="#e1ed5e" style="font-size:6.75px; font-family:Arial;" text-anchor="middle"><textPath startOffset="22.206326154141568" xlink:href="#id17">May</textPath></text><path d="M 118.12598468904814 110.60418214915192 l 24.23799423036629 14.179869957861854 a49.08111600939576,49.08111600939576 0 0,0 -0.43289339652447634,0.7255542325566682 l -23.990319958143587 -14.594986284304627" fill="#d3ff1c" stroke="none" /><path d="M 117.94076556474637 110.91462005526583 l 53.8222966942391 32.74386016579747 a84.0,84.0 0 0,0 -0.7621414413281484,1.228814674538906 l -53.25069061324299 -33.665471171701654" fill="#4dd2ff" stroke="none" /><path d="M 117.55443506779139 111.5257021239791 l 19.149043287921245 12.572672834155172 a43.90759614270745,43.90759614270745 0 0,0 -0.4202519273125904,0.6282196108020519 l -18.929788255197934 -12.90042935916303" fill="#ffe515" stroke="none" /><path d="M 117.35343817320211 111.8261652097733 l 7.986556868172252 5.442745122756639 a30.6648106592856,30.6648106592856 0 0,0 -0.3010102976833328,0.4336277842216895 l -7.891685663326783 -5.579414169165348" fill="#ff1e03" stroke="none" /><path d="M 117.14729908036423 112.12312394758627 l 11.150047705716611 7.8830729973499185 a34.655270181190254,34.655270181190254 0 0,0 -0.3485663506166946,0.4841281745320337 l -11.012701562724313 -8.073834777333083" fill="#ff5d08" stroke="none" /><line stroke="#e1ed5e" stroke-width="0.3" x1="143.8653032363475" x2="146.44561519142675" y1="172.8068346515853" y2="177.08958963109032" /><path d="M 144.38136562736335 173.6633856474863 a86.0,86.0 0 0,1 -40.68145358897372,12.25698825130547" fill="none" id="id18" stroke="none" /><text fill="#e1ed5e" style="font-size:6.75px; font-family:Arial;" text-anchor="middle"><textPath startOffset="21.466115282336833" xlink:href="#id18">June</textPath></text><path d="M 110.21172684928248 118.3499491758327 l 10.403910896144426 18.695294046917862 a42.39521865828053,42.39521865828053 0 0,0 -0.6407273946656606,0.34937566235733547 l -10.080560689610117 -18.871610361034968" fill="#ffd013" stroke="none" /><path d="M 109.57404056367764 118.69057910512821 l 9.67048120817991 18.87885191252134 a42.21153592582752,42.21153592582752 0 0,0 -0.6495472802447586,0.3256964906950664 l -9.34408002025239 -19.04251624412571" fill="#ffcd13" stroke="none" /><path d="M 108.92500713936063 119.00905698771935 l 9.067396617870788 19.312327301029725 a42.33503379907969,42.33503379907969 0 0,0 -0.6623054049174137,0.30403192736881857 l -8.733623217185954 -19.46554629873262" fill="#ffcf13" stroke="none" /><path d="M 107.2578585660854 119.70592522655815 l 17.134175628805288 46.52126804147189 a70.57628823001193,70.57628823001193 0 0,0 -1.143606208001473,0.41005649862934646 l -16.33084986017408 -46.8093120811412" fill="#3aff95" stroke="none" /><path d="M 106.91757812671514 119.82793768551818 l 3.821200800355771 10.952753979127769 a32.60018945034687,32.60018945034687 0 0,0 -0.53143007432544,0.1802899347294574 l -3.632100993093104 -11.01690690075535" fill="#ff3d05" stroke="none" /><line stroke="#e1ed5e" stroke-width="0.3" x1="102.19456741930631" x2="102.32365962044197" y1="184.97166512339345" y2="189.96999836594603" /><path d="M 102.22038585953345 185.97133177190398 a86.0,86.0 0 0,1 -42.740103519485714,-10.115201625700543" fill="none" id="id19" stroke="none" /><text fill="#e1ed5e" style="font-size:6.75px; font-family:Arial;" text-anchor="middle"><textPath startOffset="22.20632615414155" xlink:href="#id19">July</textPath></text><line stroke="#e1ed5e" stroke-width="0.3" x1="58.666819895761336" x2="56.23545636021788" y1="174.27360380694188" y2="178.64263932499728" /><path d="M 58.180547188652646 175.14741091055294 a86.0,86.0 0 0,1 -31.652253787137756,-30.449443065178592" fill="none" id="id20" stroke="none" /><text fill="#e1ed5e" style="font-size:6.75px; font-family:Arial;" text-anchor="middle"><textPath startOffset="22.20632615414155" xlink:href="#id20">August</textPath></text><path d="M 87.36589467227662 116.77436683061367 l -6.290704115918596 8.35220031225469 a31.456204298408792,31.456204298408792 0 0,0 -0.42970863446919894,-0.32948225719480057 l 6.433541478881282 -8.242678713232522" fill="#ff2b04" stroke="none" /><line stroke="#e1ed5e" stroke-width="0.3" x1="26.63291911575756" x2="22.317208475507996" y1="142.92168965132927" y2="145.44649492493687" /><path d="M 25.769776987707644 143.4266507060508 a86.0,86.0 0 0,1 -11.730757126820373,-40.83630448921669" fill="none" id="id21" stroke="none" /><text fill="#e1ed5e" style="font-size:6.75px; font-family:Arial;" text-anchor="middle"><textPath startOffset="21.46611528233685" xlink:href="#id21">September</textPath></text><line stroke="#e1ed5e" stroke-width="0.3" x1="15.007084014347285" x2="10.007500721073583" y1="101.09737516637583" y2="101.16192664675087" /><path d="M 14.007167355692545 101.11028546245083 a86.0,86.0 0 0,1 10.666146001902534,-42.60595125391555" fill="none" id="id22" stroke="none" /><text fill="#e1ed5e" style="font-size:6.75px; font-family:Arial;" text-anchor="middle"><textPath startOffset="22.20632615414155" xlink:href="#id22">October</textPath></text><line stroke="#e1ed5e" stroke-width="0.3" x1="26.266209847984243" x2="21.928928074336255" y1="57.711370442889674" y2="55.22380399835377" /><path d="M 25.398753493254645 57.213857153982495 a86.0,86.0 0 0,1 29.58750427330803,-30.492523968695096" fill="none" id="id23" stroke="none" /><text fill="#e1ed5e" style="font-size:6.75px; font-family:Arial;" text-anchor="middle"><textPath startOffset="21.46611528233685" xlink:href="#id23">November</textPath></text><line stroke="#e1ed5e" stroke-width="0.3" x1="56.762969772571076" x2="54.21961505331055" y1="26.818313649435495" y2="22.513508569990535" /><path d="M 56.25429882871897 25.957352633546506 a86.0,86.0 0 0,1 42.265352541879196,-11.944610805530505" fill="none" id="id24" stroke="none" /><text fill="#e1ed5e" style="font-size:6.75px; font-family:Arial;" text-anchor="middle"><textPath startOffset="22.20632615414155" xlink:href="#id24">December</textPath></text><path d="M 92.91201910852362 80.23233633223022 l -3.6704786270752137 -10.236594611451768 a31.87475436922689,31.87475436922689 0 0,0 0.5180679658228363,-0.18074374074442456 l 3.4937286571890924 10.298259205368401" fill="#ff3204" stroke="none" /><path d="M 93.59665428221793 80.00007090966166 l -3.3978108007571945 -10.612573187922063 a32.14324135549188,32.14324135549188 0 0,0 0.5283960516383438,-0.16417522534421408 l 3.214629376408122 10.669488548148802" fill="#ff3605" stroke="none" /></svg>