<?xml version="1.0" encoding="utf-8" ?>
<svg baseProfile="full" height="200mm" version="1.1" viewBox="0,0,200,200" width="200mm" xmlns="http://www.w3.org/2000/svg" xmlns:ev="http://www.w3.org/2001/xml-events" xmlns:xlink="http://www.w3.org/1999/xlink"><defs /><rect fill="#1a1a1a" height="200" width="200" x="0" y="0" /><text alignment-baseline="middle" fill="#e1ed5e" style="dominant-baseline: central; font-size:9.0px; font-family:Arial;" text-anchor="middle" x="100.0" y="100.0">2022</text><line stroke="#e1ed5e" stroke-width="0.3" x1="100.0" x2="100.0" y1="15.0" y2="10.0" /><path d="M 100.0 14.0 a86.0,86.0 0 0,1 42.46469731375804,11.215312516191453" fill="none" id="id25" stroke="none" /><text fill="#e1ed5e" style="font-size:6.75px; font-family:Arial;" text-anchor="middle"><textPath startOffset="22.20632615414155" xlink:href="#id25">January</textPath></text><path d="M 100.36148047927253 79.00311137660856 l 0.4530348017645928 -26.314896157918998 a47.31879557148598,47.31879557148598 0 0,0 0.8142739225806703,0.02103029307818432 l -0.9059353595401309 26.303199072698455" fill="#b1ff20" stroke="none" /><path d="M 102.52436894288641 79.15227682838746 l 0.4681907721403618 -3.8665947133406045 a24.89483725928965,24.89483725928965 0 0,0 0.4249729758880685,0.05517368907634607 l -0.5346784765362764 3.8579627011001216" fill="#ff3304" stroke="none" /><line stroke="#e1ed5e" stroke-width="0.3" x1="143.23703022742887" x2="145.7803849466894" y1="26.81831364943548" y2="22.513508569990506" /><path d="M 143.74570117128098 25.957352633546492 a86.0,86.0 0 0,1 28.547481713284135,27.462654790039103" fill="none" id="id26" stroke="none" /><text fill="#e1ed5e" style="font-size:6.75px; font-family:Arial;" text-anchor="middle"><textPath startOffset="19.985693538727396" xlink:href="#id26">February</textPath></text><path d="M 111.2981086023043 82.29822771554956 l 1.0904032302748459 -1.7084337175354969 a23.026752321278053,23.026752321278053 0 0,0 0.3322792972593152,0.21612369788742808 l -1.1196495533184414 1.6894110954885408" fill="#ff1902" stroke="none" /><path d="M 117.45458315368197 88.32363383020206 l 3.7325802942216715 -2.4969358414217258 a25.490750967153307,25.490750967153307 0 0,0 0.24083098853030693,0.36680211799606505 l -3.7750079181099037 2.432315659447987" fill="#ff3b05" stroke="none" /><line stroke="#e1ed5e" stroke-width="0.3" x1="172.23445277983987" x2="176.4835382374775" y1="55.19839476539836" y2="52.563006222186495" /><path d="M 173.08426987136738 54.67131705675599 a86.0,86.0 0 0,1 12.851231095245387,41.99856678651699" fill="none" id="id27" stroke="none" /><text fill="#e1ed5e" style="font-size:6.75px; font-family:Arial;" text-anchor="middle"><textPath startOffset="22.20632615414155" xlink:href="#id27">March</textPath></text><path d="M 118.56541770881063 90.18545643968196 l 3.0277122248005064 -1.600589546892329 a24.424752285031346,24.424752285031346 0 0,0 0.19329349653205252,0.3733815112156683 l -3.0548151544926756 1.5482353134163158" fill="#ff2c04" stroke="none" /><path d="M 119.7369772167798 92.82701384747503 l 0.5301625638445426 -0.19267634994334226 a21.564089106373903,21.564089106373903 0 0,0 0.12378497651981529,0.3499567976857243 l -0.5334006211741675 0.1835219258310034" fill="#ff0400" stroke="none" /><path d="M 120.45610955862082 95.25157060432595 l 3.0330550663366074 -0.704056056916322 a24.113698438627402,24.113698438627402 0 0,0 0.09037540082191328,0.40513520104936657 l -3.0447248541605583 0.6517426863169915" fill="#ff2803" stroke="none" /><path d="M 120.53481517161879 95.60439243477599 l 0.7977971086871668 -0.1707735364137057 a21.815869981902047,21.815869981902047 0 0,0 0.07544208753869573,0.36788241155073254 l -0.8006184921408595 0.15701546869956137" fill="#ff0701" stroke="none" /><path d="M 120.6074358757038 95.95851677861258 l 2.119956882797048 -0.4157610982543677 a23.160341286866558,23.160341286866558 0 0,0 0.07335682546173938,0.3918750948891718 l -2.1267994321686468 0.3792079259026331" fill="#ff1a02" stroke="none" /><path d="M 120.67395015179393 96.31383870115 l 1.9342119693768949 -0.3448696186718271 a22.964716518066588,22.964716518066588 0 0,0 0.06603792767818223,0.38975958734937904 l -1.9398617585753002 0.3115242430066102" fill="#ff1802" stroke="none" /><path d="M 120.73433829027371 96.67025291283417 l 1.9248056102388384 -0.3091063618393685 a22.94946746065085,22.94946746065085 0 0,0 0.05927968373556498,0.3905790495507449 l -1.9298411874137031 0.2759281998965415" fill="#ff1702" stroke="none" /><path d="M 120.78858239683441 97.02765380044208 l 0.9909930260625308 -0.1416919296649057 a22.00107131645889,22.00107131645889 0 0,0 0.05037616828139154,0.3753609670292595 l -0.9932851934017586 0.12461262057098188" fill="#ff0a01" stroke="none" /><path d="M 120.83666639777658 97.38593545837742 l 2.7323545834141765 -0.34278761752432185 a23.753772851967362,23.753772851967362 0 0,0 0.04740534452661358,0.40614004194800013 l -2.737850280944379 0.295703837251469" fill="#ff2303" stroke="none" /><path d="M 120.87857604477298 97.74499172005257 l 6.129920212435281 -0.6620672216733524 a27.16557011287982,27.16557011287982 0 0,0 0.04621105937681004,0.4653390615222455 l -6.14040839749432 0.556452629446672" fill="#ff5207" stroke="none" /><path d="M 120.91429891909075 98.10471618934814 l 0.4941450953407905 -0.04478013836062826 a21.49616996688731,21.49616996688731 0 0,0 0.030223119722677255,0.3687986129717065 l -0.49484269888296245 0.03626760818115299" fill="#ff0300" stroke="none" /><path d="M 120.94382443527127 98.46500227214037 l 2.3345403992770524 -0.17110123414001882 a23.340802107864075,23.340802107864075 0 0,0 0.02591874812563252,0.40095156159407686 l -2.3371397384071004 0.13089060829290675" fill="#ff1d02" stroke="none" /><path d="M 120.96714384426684 98.82574320788733 l 2.1555297647647866 -0.12071961186874658 a23.158907545838098,23.158907545838098 0 0,0 0.018865016445873392,0.39821068083556854 l -2.1572883894441564 0.0835978244101783" fill="#ff1a02" stroke="none" /><path d="M 120.98425023603335 99.18683210126433 l 0.3171421238888748 -0.012289683528480078 a21.3173801554382,21.3173801554382 0 0,0 0.011052864216075223,0.3667907537547493 l -0.3173066825605951 0.0068287823487316966" fill="#ff0000" stroke="none" /><line stroke="#e1ed5e" stroke-width="0.3" x1="184.98032266829074" x2="189.97916517819016" y1="98.17113171792111" y2="98.06355123074" /><path d="M 185.9800911702706 98.14961562048488 a86.0,86.0 0 0,1 -9.607161424134198,41.387399972396054" fill="none" id="id28" stroke="none" /><text fill="#e1ed5e" style="font-size:6.75px; font-family:Arial;" text-anchor="middle"><textPath startOffset="21.466115282336823" xlink:href="#id28">April</textPath></text><path d="M 120.99513854157772 99.54816195383933 l 1.768641903126446 -0.03806308304581853 a22.769051435031127,22.769051435031127 0 0,0 0.005060142903983752,0.3919136443866734 l -1.7690350531481451 0.007613180598682369" fill="#ff1502" stroke="none" /><path d="M 120.99980553446 99.90962569577887 l 2.607368865037724 -0.011221015672690193 a23.607393010184854,23.607393010184854 0 0,0 -0.0017488612044624856,0.40637375321440045 l -2.607175706543758 -0.03366221574539495" fill="#ff2103" stroke="none" /><path d="M 120.99824983174949 100.27111621757518 l 5.939224943993756 0.07668354339270288 a26.93971996824639,26.93971996824639 0 0,0 -0.009977878723641588,0.4636328169660309 l -5.937025002585107 -0.17890617614884866" fill="#ff4f07" stroke="none" /><path d="M 120.9764740272857 100.99374915477107 l 4.57881884604019 0.2169190757313869 a25.583954178465245,25.583954178465245 0 0,0 -0.024625955841572622,0.43971298433269695 l -4.574406539311088 -0.2957037763995072" fill="#ff3d05" stroke="none" /><path d="M 120.95626037817324 101.35467743843564 l 1.8560825041062214 0.11998290948926482 a22.859956494281178,22.859956494281178 0 0,0 -0.028763748541068175,0.392458495938261 l -1.8537421969008154 -0.15191454192429604" fill="#ff1602" stroke="none" /><path d="M 120.92983693683757 101.71520430193887 l 1.3411483219578837 0.10990737186831775 a22.345644251606437,22.345644251606437 0 0,0 -0.03471598405511956,0.38308799121195075 l -1.3390577416256888 -0.13297675162883907" fill="#ff0f01" stroke="none" /><path d="M 120.89721153311464 102.0752229133903 l 1.5906136693692594 0.15795781785508523 a22.5984375237731,22.5984375237731 0 0,0 -0.041772349254530466,0.38676007455718087 l -1.587659018613677 -0.18531421429705752" fill="#ff1202" stroke="none" /><path d="M 120.76222939487914 103.15116336523771 l 0.5389245894864424 0.08179465657162541 a21.54509639422473,21.54509639422473 0 0,0 -0.05880605368732819,0.3661853524457544 l -0.5374367814378258 -0.09105923871058477" fill="#ff0300" stroke="none" /><path d="M 120.70491114924044 103.5080841355445 l 0.9382693567282276 0.15897329003155797 a21.95164168294514,21.95164168294514 0 0,0 -0.06632903625134419,0.3720084602658702 l -0.9353938781376948 -0.1751005010306465" fill="#ff0901" stroke="none" /><path d="M 120.5718875245553 104.21870165774334 l 0.47420024287711576 0.09724481277374797 a21.484068614925732,21.484068614925732 0 0,0 -0.07741012875516086,0.36163435038528824 l -0.47245607539751183 -0.10539298257520523" fill="#ff0200" stroke="none" /><path d="M 120.49622156327973 104.57218783832717 l 0.8526928063905976 0.19021416543392888 a21.873651218051002,21.873651218051002 0 0,0 -0.08513999388552203,0.36678086533816656 l -0.8492922465745227 -0.20486368812066036" fill="#ff0801" stroke="none" /><path d="M 120.41448212921028 104.9243191809786 l 5.536075950064824 1.3353953735251147 a26.694858885742335,26.694858885742335 0 0,0 -0.11159555126943503,0.44576875440213753 l -5.5122690845003275 -1.4304919673246481" fill="#ff4c07" stroke="none" /><path d="M 120.02730092923936 106.31721596034902 l 5.531174089699257 1.7446994661124413 a26.799815776178882,26.799815776178882 0 0,0 -0.1425593854064864,0.4387526735353684 l -5.500322453276524 -1.839651039625605" fill="#ff4d07" stroke="none" /><path d="M 119.9155931802556 106.66101706037122 l 0.8635753633590187 0.28883348721711916 a21.910597162052827,21.910597162052827 0 0,0 -0.12270891075079232,0.35664953340970307 l -0.8584756216649957 -0.3036557237161226" fill="#ff0901" stroke="none" /><path d="M 119.79798401119884 107.00284435728193 l 0.9279860506629523 0.3282426066636612 a21.98432785140642,21.98432785140642 0 0,0 -0.1292633870359897,0.3556773247073714 l -0.9221984026217358 -0.3441677283771637" fill="#ff0a01" stroke="none" /><path d="M 119.67450827220406 107.3425965602758 l 6.144509870780678 2.293152968174315 a27.55847177988652,27.55847177988652 0 0,0 -0.16968895460953526,0.44300431461826445 l -6.104126636577637 -2.3985808496257235" fill="#ff5808" stroke="none" /><path d="M 119.54520255179757 107.68017299344265 l 0.5202734998421102 0.2044384279007521 a21.558998734739614,21.558998734739614 0 0,0 -0.13869354134721457,0.3442259954492465 l -0.5166773442375032 -0.21336379119281207" fill="#ff0300" stroke="none" /><path d="M 119.41010516605496 108.01547362559984 l 1.298989725391393 0.5364225384007071 a22.405390851819046,22.405390851819046 0 0,0 -0.15027511035626334,0.3552059703322313 l -1.2895636338428205 -0.558703034399102" fill="#ff1001" stroke="none" /><path d="M 119.26925614724726 108.34839909993367 l 1.3582550033995968 0.5884635484220019 a22.480252006275098,22.480252006275098 0 0,0 -0.15688958804796688,0.3537446034065334 l -1.3479243306203572 -0.6117564883212229" fill="#ff1101" stroke="none" /><path d="M 119.12269723197855 108.67885076344098 l 1.4403567810833091 0.6537070266545704 a22.581758683715766,22.581758683715766 0 0,0 -0.16369127943138562,0.35257645323535275 l -1.4288908848120923 -0.6784035471687537" fill="#ff1202" stroke="none" /><path d="M 118.97047184881838 109.00673069616215 l 0.5000819042720928 0.23742704312772436 a21.553582434501653,21.553582434501653 0 0,0 -0.1620077521701135,0.33378395458156107 l -0.4959208954872649 -0.2459999536745609" fill="#ff0300" stroke="none" /><path d="M 118.81262510543309 109.33194174019688 l 1.8197501544889858 0.9026811690677414 a23.03133550103182,23.03133550103182 0 0,0 -0.1792291182941593,0.3536360538652346 l -1.8039423664085574 -0.9338714346356703" fill="#ff1902" stroke="none" /><path d="M 118.64920377521936 109.65438752849418 l 55.94761132565807 28.96316258548255 a84.0,84.0 0 0,0 -0.6757899671004277,1.2783399396554627 l -55.44076885033275 -29.921917540224147" fill="#4dd2ff" stroke="none" /><line stroke="#e1ed5e" stroke-width="0.3" x1="174.80103733775053" x2="179.2010983576182" y1="140.37084112569926" y2="142.7455964860345" /><path d="M 175.68104954172406 140.8457921977663 a86.0,86.0 0 0,1 -30.038265399797805,32.042727171017184" fill="none" id="id29" stroke="none" /><text fill="#e1ed5e" style="font-size:6.75px; font-family:Arial;" text-anchor="middle"><textPath startOffset="22.206326154141568" xlink:href="#id29">May</textPath></text><path d="M 118.30583269289576 110.29060199501025 l 3.286490357697184 1.8474966312035417 a24.770180721602745,24.770180721602745 0 0,0 -0.21213655036786022,0.3698779566094086 l -3.2542018111769444 -1.9037944336712653" fill="#ff3104" stroke="none" /><path d="M 117.94076556474637 110.91462005526583 l 6.078061714139255 3.697709222210973 a28.11448435889134,28.11448435889134 0 0,0 -0.25508587656527537,0.41127965413452644 l -6.013511197906017 -3.8017852077107728" fill="#ff5f08" stroke="none" /><path d="M 117.55443506779139 111.5257021239791 l 0.37961453189824224 0.2492432254126299 a21.454124848739212,21.454124848739212 0 0,0 -0.20534345098701265,0.3069605978602886 l -0.37526797550050855 -0.25574073747872533" fill="#ff0200" stroke="none" /><path d="M 117.35343817320211 111.8261652097733 l 1.3456167092242217 0.9170220536983488 a22.628377651256784,22.628377651256784 0 0,0 -0.22212348768679355,0.3199854507653652 l -1.329632314375292 -0.9400487666507336" fill="#ff1302" stroke="none" /><path d="M 117.14729908036423 112.12312394758627 l 2.2027398179198094 1.557334931394818 a23.69765727882396,23.69765727882396 0 0,0 -0.2383535281259526,0.33105220357825443 l -2.175606497418254 -1.5950207404242034" fill="#ff2203" stroke="none" /><path d="M 116.498646956653 112.99209946851258 l 1.3480217132173349 1.0615193009371025 a22.715804699133148,22.715804699133148 0 0,0 -0.24455412170162774,0.3051188687379928 l -1.3295496794608532 -1.0845660032533455" fill="#ff1402" stroke="none" /><path d="M 116.27256486870786 113.27417163493432 l 1.4647512723378078 1.1948552639596524 a22.89028447373069,22.89028447373069 0 0,0 -0.2516884880266254,0.303174997515792 l -1.4439667844176391 -1.2198915185892147" fill="#ff1702" stroke="none" /><path d="M 115.56566222782051 114.09645910891815 l 1.792975167959816 1.623740819280911 a23.418944852847947,23.418944852847947 0 0,0 -0.27316926965024774,0.29647129061935074 l -1.7647594903138464 -1.6543633647015965" fill="#ff1e03" stroke="none" /><path d="M 115.32070863581623 114.36230785411682 l 0.8889077880373233 0.8333013576061581 a22.218420374181946,22.218420374181946 0 0,0 -0.2639690629555491,0.276770507174487 l -0.8744321737028097 -0.8484789813631521" fill="#ff0d01" stroke="none" /><path d="M 115.07121518719521 114.62390073753431 l 1.0790409713552649 1.0470149792724621 a22.503519133461303,22.503519133461303 0 0,0 -0.27214188824688706,0.27567829599861504 l -1.0608584580528422 -1.065433769251742" fill="#ff1101" stroke="none" /><path d="M 114.55890576462653 115.13401014063108 l 4.216957604105512 4.3835354232599695 a27.08260751995378,27.08260751995378 0 0,0 -0.33874430984523324,0.3203038883124266 l -4.140877459869472 -4.455473948318317" fill="#ff5107" stroke="none" /><path d="M 114.0293411484842 115.62618273729858 l 19.700356659135895 21.942682117960686 a50.48873261140654,50.48873261140654 0 0,0 -0.6516836698274424,0.5750350686616762 l -19.319730636401864 -22.27854032839465" fill="#8eff24" stroke="none" /><path d="M 113.48314897796784 116.09983520530334 l 3.90532433797862 4.66323396466636 a27.082541343388147,27.082541343388147 0 0,0 -0.3599783944696677,0.29623771144421557 l -3.824475814964261 -4.7297667949677535" fill="#ff5107" stroke="none" /><path d="M 113.20401910651253 116.32954008644616 l 3.6384463218540097 4.499702294113858 a26.786675416218408,26.786675416218408 0 0,0 -0.3610365605510929,0.2868292789361974 l -3.5604522685855655 -4.561665487055182" fill="#ff4d07" stroke="none" /><path d="M 112.63410532772338 116.77436683061366 l 1.5915721476021207 2.1131385522552386 a23.645459589948445,23.645459589948445 0 0,0 -0.32722504467616714,0.24207326520546363 l -1.5549621325073892 -2.1402217662004714" fill="#ff2103" stroke="none" /><path d="M 112.34349029814194 116.9893568818739 l 3.1073047816615564 4.276838122872592 a26.286462648633123,26.286462648633123 0 0,0 -0.36835179071494073,0.2628092223284822 l -3.033225663097731 -4.3296916070452935" fill="#ff4606" stroke="none" /><path d="M 112.04921762599082 117.19931262002967 l 6.4728206764074265 9.239443572401127 a32.28116682956652,32.28116682956652 0 0,0 -0.4578439665012636,0.31490925500374783 l -6.312819825283279 -9.34949361676997" fill="#ff970d" stroke="none" /><path d="M 111.1453310114006 117.79835938074945 l 5.451007568170871 8.704899978856545 a31.270772470956253,31.270772470956253 0 0,0 -0.45866896929708,0.2817519429852657 l -5.300359398941483 -8.79744038867019" fill="#ff8a0c" stroke="none" /><line stroke="#e1ed5e" stroke-width="0.3" x1="143.8653032363475" x2="146.44561519142675" y1="172.8068346515853" y2="177.08958963109032" /><path d="M 144.38136562736335 173.6633856474863 a86.0,86.0 0 0,1 -40.68145358897372,12.25698825130547" fill="none" id="id30" stroke="none" /><text fill="#e1ed5e" style="font-size:6.75px; font-family:Arial;" text-anchor="middle"><textPath startOffset="21.466115282336833" xlink:href="#id30">June</textPath></text><path d="M 110.8373102113329 117.98757091392108 l 0.6371449453862685 1.057521623363432 a22.234627743618496,22.234627743618496 0 0,0 -0.329530025216085,0.1946921473339798 l -0.6188470491418014 -1.0683323429911613" fill="#ff0d01" stroke="none" /><path d="M 110.5260780823613 118.17145234162733 l 4.414184343148685 7.620325423302394 a29.806496634435728,29.806496634435728 0 0,0 -0.4461766176568572,0.25335072799999236 l -4.282358958570629 -7.695179317097015" fill="#ff760a" stroke="none" /><path d="M 110.21172684928248 118.3499491758327 l 5.849916599738023 10.51199996556853 a33.03011502438789,33.03011502438789 0 0,0 -0.4991907157188252,0.27219857992478 l -5.66810307215055 -10.61113919725308" fill="#ffa10e" stroke="none" /><path d="M 109.57404056367764 118.69057910512821 l 11.858412201650216 23.150162132906516 a47.01061219433532,47.01061219433532 0 0,0 -0.7233950299066966,0.36272528542969734 l -11.458163264060758 -23.350855259245513" fill="#b5ff20" stroke="none" /><path d="M 109.2508944713604 118.85261126421891 l 3.2767121633141496 6.677687312394036 a28.43830292763875,28.43830292763875 0 0,0 -0.441318222270922,0.21185956555424398 l -3.1612812730429947 -6.73310115444784" fill="#ff6409" stroke="none" /><line stroke="#e1ed5e" stroke-width="0.3" x1="102.19456741930631" x2="102.32365962044197" y1="184.97166512339345" y2="189.96999836594603" /><path d="M 102.22038585953345 185.97133177190398 a86.0,86.0 0 0,1 -42.740103519485714,-10.115201625700543" fill="none" id="id31" stroke="none" /><text fill="#e1ed5e" style="font-size:6.75px; font-family:Arial;" text-anchor="middle"><textPath startOffset="22.20632615414155" xlink:href="#id31">July</textPath></text><line stroke="#e1ed5e" stroke-width="0.3" x1="58.666819895761336" x2="56.23545636021788" y1="174.27360380694188" y2="178.64263932499728" /><path d="M 58.180547188652646 175.14741091055294 a86.0,86.0 0 0,1 -31.652253787137756,-30.449443065178592" fill="none" id="id32" stroke="none" /><text fill="#e1ed5e" style="font-size:6.75px; font-family:Arial;" text-anchor="middle"><textPath startOffset="22.20632615414155" xlink:href="#id32">August</textPath></text><line stroke="#e1ed5e" stroke-width="0.3" x1="26.63291911575756" x2="22.317208475507996" y1="142.92168965132927" y2="145.44649492493687" /><path d="M 25.769776987707644 143.4266507060508 a86.0,86.0 0 0,1 -11.730757126820373,-40.83630448921669" fill="none" id="id33" stroke="none" /><text fill="#e1ed5e" style="font-size:6.75px; font-family:Arial;" text-anchor="middle"><textPath startOffset="21.46611528233685" xlink:href="#id33">September</textPath></text><line stroke="#e1ed5e" stroke-width="0.3" x1="15.007084014347285" x2="10.007500721073583" y1="101.09737516637583" y2="101.16192664675087" /><path d="M 14.007167355692545 101.11028546245083 a86.0,86.0 0 0,1 10.666146001902534,-42.60595125391555" fill="none" id="id34" stroke="none" /><text fill="#e1ed5e" style="font-size:6.75px; font-family:Arial;" text-anchor="middle"><textPath startOffset="22.20632615414155" xlink:href="#id34">October</textPath></text><line stroke="#e1ed5e" stroke-width="0.3" x1="26.266209847984243" x2="21.928928074336255" y1="57.711370442889674" y2="55.22380399835377" /><path d="M 25.398753493254645 57.213857153982495 a86.0,86.0 0 0,1 29.58750427330803,-30.492523968695096" fill="none" id="id35" stroke="none" /><text fill="#e1ed5e" style="font-size:6.75px; font-family:Arial;" text-anchor="middle"><textPath startOffset="21.46611528233685" xlink:href="#id35">November</textPath></text><line stroke="#e1ed5e" stroke-width="0.3" x1="56.762969772571076" x2="54.21961505331055" y1="26.818313649435495" y2="22.513508569990535" /><path d="M 56.25429882871897 25.957352633546506 a86.0,86.0 0 0,1 42.265352541879196,-11.944610805530505" fill="none" id="id36" stroke="none" /><text fill="#e1ed5e" style="font-size:6.75px; font-family:Arial;" text-anchor="middle"><textPath startOffset="22.20632615414155" xlink:href="#id36">December</textPath></text></svg>