<?xml version="1.0" encoding="utf-8" ?>
<svg baseProfile="full" height="200mm" version="1.1" viewBox="0,0,200,200" width="200mm" xmlns="http://www.w3.org/2000/svg" xmlns:ev="http://www.w3.org/2001/xml-events" xmlns:xlink="http://www.w3.org/1999/xlink"><defs /><rect fill="#1a1a1a" height="200" width="200" x="0" y="0" /><text alignment-baseline="middle" fill="#e1ed5e" style="dominant-baseline: central; font-size:9.0px; font-family:Arial;" text-anchor="middle" x="100.0" y="100.0">2021</text><line stroke="#e1ed5e" stroke-width="0.3" x1="100.0" x2="100.0" y1="15.0" y2="10.0" /><path d="M 100.0 14.0 a86.0,86.0 0 0,1 42.46469731375804,11.215312516191453" fill="none" id="id13" stroke="none" /><text fill="#e1ed5e" style="font-size:6.75px; font-family:Arial;" text-anchor="middle"><textPath startOffset="22.20632615414155" xlink:href="#id13">January</textPath></text><line stroke="#e1ed5e" stroke-width="0.3" x1="143.23703022742887" x2="145.7803849466894" y1="26.81831364943548" y2="22.513508569990506" /><path d="M 143.74570117128098 25.957352633546492 a86.0,86.0 0 0,1 28.547481713284135,27.462654790039103" fill="none" id="id14" stroke="none" /><text fill="#e1ed5e" style="font-size:6.75px; font-family:Arial;" text-anchor="middle"><textPath startOffset="19.985693538727396" xlink:href="#id14">February</textPath></text><path d="M 116.82858285166822 87.43820079747576 l 8.77575542484506 -6.5507166271245785 a31.95106257883608,31.95106257883608 0 0,0 0.32519698300066946,0.44356831934919305 l -8.887215020359356 6.398685864103892" fill="#ff0000" stroke="none" /><path d="M 117.65298651832404 88.62581576622439 l 21.068486385273257 -13.574861422125082 a46.06308004209268,46.06308004209268 0 0,0 0.42371980457361846,0.6702229743042962 l -21.29903378609283 13.210190800106579" fill="#ffe315" stroke="none" /><line stroke="#e1ed5e" stroke-width="0.3" x1="172.23445277983987" x2="176.4835382374775" y1="55.19839476539836" y2="52.563006222186495" /><path d="M 173.08426987136738 54.67131705675599 a86.0,86.0 0 0,1 12.851231095245387,41.99856678651699" fill="none" id="id15" stroke="none" /><text fill="#e1ed5e" style="font-size:6.75px; font-family:Arial;" text-anchor="middle"><textPath startOffset="22.20632615414155" xlink:href="#id15">March</textPath></text><path d="M 118.03404312379186 89.2402003453031 l 25.294329038736507 -15.091563826734472 a50.45434399636613,50.45434399636613 0 0,0 0.4385691608325124,0.749656860144994 l -25.550357874039346 14.653927554235583" fill="#dbff1b" stroke="none" /><path d="M 118.56541770881063 90.18545643968196 l 21.99814462867153 -11.62924271840176 a45.882878718256265,45.882878718256265 0 0,0 0.3631096010682211,0.7014121737990746 l -22.19506366289987 11.248857822342343" fill="#ffe115" stroke="none" /><path d="M 118.89224826269711 90.83032412892265 l 32.83398328218864 -15.936535454518708 a57.49717277362967,57.49717277362967 0 0,0 0.42449835789600693,0.8941018023073808 l -33.1034398339264 15.368991236570787" fill="#7dff26" stroke="none" /><path d="M 119.196687751892 91.48605970444005 l 23.33132122976659 -10.347695317760484 a46.52303564852268,46.52303564852268 0 0,0 0.3183710680482311,0.734844320049664 l -23.505983007657502 9.944551853124217" fill="#ffea16" stroke="none" /><path d="M 119.47837535516314 92.15188598940014 l 41.12682304248989 -16.570580977415535 a65.33959548188687,65.33959548188687 0 0,0 0.4113483795631404,1.046836758075607 l -41.405964971934736 15.860195214444142" fill="#31ff43" stroke="none" /><path d="M 119.61058180528143 92.48833698450437 l 23.508338321778755 -9.004664791735383 a46.173914249928046,46.173914249928046 0 0,0 0.27791289962430116,0.7446684013924856 l -23.65985580990468 8.598673253313564" fill="#ffe515" stroke="none" /><path d="M 120.08093135843002 93.85539295169968 l 24.417731016205458 -7.471633632306166 a46.53528729259122,46.53528729259122 0 0,0 0.22778824332814834,0.7679887169009406 l -24.542725156645307 7.050215528658696" fill="#ffea16" stroke="none" /><path d="M 120.18372546131832 94.20196356495316 l 24.53431809112956 -7.047800490252355 a46.526540226735165,46.526540226735165 0 0,0 0.2144945054154404,0.7716508596188235 l -24.65199936711136 6.6244383272145795" fill="#ffea16" stroke="none" /><path d="M 120.28053869075195 94.5502522615342 l 24.6974068284943 -6.6366401337718175 a46.573558538407354,46.573558538407354 0 0,0 0.201383331101932,0.7760121241665996 l -24.807986491466536 6.210531584056367" fill="#ffeb16" stroke="none" /><path d="M 120.37134235888165 94.90015583598534 l 43.06162547376272 -10.780221327418179 a65.3905030418752,65.3905030418752 0 0,0 0.2639509443998157,1.0942470703874037 l -43.24080921842336 10.037389025371368" fill="#31ff44" stroke="none" /><path d="M 120.53481517161879 95.60439243477599 l 14.737143560923435 -3.1545791469171944 a36.07099100687914,36.07099100687914 0 0,0 0.12473813161730371,0.6082674296117404 l -14.789260988455737 2.9004360611420426" fill="#ff4606" stroke="none" /><path d="M 120.67395015179393 96.31383870115 l 20.434522319345625 -3.6434713628020465 a41.75679613985244,41.75679613985244 0 0,0 0.120076913703106,0.7087007418400844 l -20.494211094568957 3.2911848326461244" fill="#ffa20f" stroke="none" /><path d="M 120.73433829027371 96.67025291283417 l 24.834330695729424 -3.9881687632446936 a46.15252415144391,46.15252415144391 0 0,0 0.11921440181505757,0.7854739570034248 l -24.89930099098378 3.5600956938491866" fill="#ffe515" stroke="none" /><path d="M 120.78858239683441 97.02765380044208 l 24.957327081242248 -3.5683922494085127 a46.211140360676794,46.211140360676794 0 0,0 0.10581031031624985,0.7884097135002756 l -25.015053390616334 3.1382641938435727" fill="#ffe615" stroke="none" /><path d="M 120.94382443527127 98.46500227214037 l 25.30577956954012 -1.854690592017355 a46.373654778416764,46.373654778416764 0 0,0 0.051495534399901975,0.7966131247034651 l -25.33395569494444 1.4188184030608548" fill="#ffe815" stroke="none" /><line stroke="#e1ed5e" stroke-width="0.3" x1="184.98032266829074" x2="189.97916517819016" y1="98.17113171792111" y2="98.06355123074" /><path d="M 185.9800911702706 98.14961562048488 a86.0,86.0 0 0,1 -9.607161424134198,41.387399972396054" fill="none" id="id16" stroke="none" /><text fill="#e1ed5e" style="font-size:6.75px; font-family:Arial;" text-anchor="middle"><textPath startOffset="21.466115282336823" xlink:href="#id16">April</textPath></text><path d="M 120.99513854157772 99.54816195383933 l 29.71505036140602 -0.6394999618732967 a50.721930929570036,50.721930929570036 0 0,0 0.011272328124953657,0.8730542358191018 l -29.72165569664869 0.12790946799373226" fill="#d8ff1c" stroke="none" /><path d="M 120.99980553446 99.90962569577887 l 43.977201611047086 -0.1892593238860648 a64.97760885530681,64.97760885530681 0 0,0 -0.00481361153418161,1.1185137966753207 l -43.9739437022234 -0.5677639509929406" fill="#31ff3e" stroke="none" /><path d="M 120.9904718944345 100.63252640178507 l 62.97141568330351 1.8975792053552112 a84.0,84.0 0 0,0 -0.05599146859518722,1.4448910119439753 l -62.92942208185712 -2.9812474643131925" fill="#4dd2ff" stroke="none" /><path d="M 120.95626037817324 101.35467743843564 l 29.39574480411483 1.9002317948684198 a50.45709920312713,50.45709920312713 0 0,0 -0.0634881047981678,0.8662447484368923 l -29.358680140652325 -2.4059496798020823" fill="#dbff1b" stroke="none" /><path d="M 120.89721153311464 102.0752229133903 l 30.136093455155866 2.9927012778287985 a51.28432580851366,51.28432580851366 0 0,0 -0.09479711890270032,0.8777035869161203 l -30.080114034752114 -3.51100118662971" fill="#d0ff1d" stroke="none" /><path d="M 120.70491114924044 103.5080841355445 l 29.887057896945173 5.063837893852522 a51.31301179280227,51.31301179280227 0 0,0 -0.15504729297830802,0.8695875590696939 l -29.795464161627677 -5.577544203655435" fill="#cfff1d" stroke="none" /><path d="M 120.5718875245553 104.21870165774334 l 29.51775026005966 6.053240462564672 a51.132031138190506,51.132031138190506 0 0,0 -0.184235918478233,0.8606888758348799 l -29.40918030285698 -6.560443157815721" fill="#d2ff1c" stroke="none" /><path d="M 120.49622156327973 104.57218783832717 l 29.132516734350585 6.498726523882596 a50.84856743144354,50.84856743144354 0 0,0 -0.19792062500420562,0.852636872454107 l -29.016335543415828 -6.999232053685269" fill="#d6ff1c" stroke="none" /><path d="M 120.23288151984713 105.62410040840565 l 37.78194633773934 10.502184754059984 a60.21442787643631,60.21442787643631 0 0,0 -0.28618301275044083,0.9962406110683955 l -37.595570688102804 -11.150982840632961" fill="#5cff2a" stroke="none" /><path d="M 120.02730092923936 106.31721596034902 l 28.066199499702165 8.852927513911984 a50.42933706225239,50.42933706225239 0 0,0 -0.2682546536174839,0.8256029312091863 l -27.909652595068437 -9.334729345098966" fill="#dcff1b" stroke="none" /><path d="M 119.9155931802556 106.66101706037122 l 28.309780352918615 9.468557034650814 a50.851251832191764,50.851251832191764 0 0,0 -0.28478921302288507,0.8277307599201607 l -28.1426003089525 -9.954460497660275" fill="#d6ff1c" stroke="none" /><path d="M 119.79798401119884 107.00284435728193 l 29.0035634915315 10.258996109040726 a51.76448758508114,51.76448758508114 0 0,0 -0.30436468372636477,0.8374808901847663 l -28.82267454679991 -10.756724796231625" fill="#c9ff1d" stroke="none" /><path d="M 119.26925614724726 108.34839909993367 l 27.55729522795908 11.939189396813608 a51.03246183272165,51.03246183272165 0 0,0 -0.35615534522363823,0.8030362812141092 l -27.34769879800417 -12.411774014520406" fill="#d3ff1c" stroke="none" /><path d="M 119.12269723197855 108.67885076344098 l 27.330668807163338 12.404044940153051 a51.01375998311754,51.01375998311754 0 0,0 -0.36978995999385456,0.7964946757675457 l -27.113104230329654 -12.872659683199428" fill="#d4ff1c" stroke="none" /><line stroke="#e1ed5e" stroke-width="0.3" x1="174.80103733775053" x2="179.2010983576182" y1="140.37084112569926" y2="142.7455964860345" /><path d="M 175.68104954172406 140.8457921977663 a86.0,86.0 0 0,1 -30.038265399797805,32.042727171017184" fill="none" id="id17" stroke="none" /><text fill="#e1ed5e" style="font-size:6.75px; font-family:Arial;" text-anchor="middle"><textPath startOffset="22.206326154141568" xlink:href="#id17">May</textPath></text><path d="M 118.12598468904814 110.60418214915192 l 33.97459972097803 19.87604260216864 a60.36153573888985,60.36153573888985 0 0,0 -0.5323862281460637,0.8923099411714314 l -33.627432617133735 -20.457914637226175" fill="#5aff2a" stroke="none" /><path d="M 117.55443506779139 111.5257021239791 l 26.841374519832687 17.62322091933187 a53.109769567617576,53.109769567617576 0 0,0 -0.5083285121639678,0.7598821547669004 l -26.534042902257998 -18.082639988304578" fill="#b7ff1f" stroke="none" /><path d="M 117.35343817320211 111.8261652097733 l 11.19482372039824 7.629141469853705 a34.547246129669034,34.547246129669034 0 0,0 -0.33912085605792264,0.48852888598004235 l -11.061841957178181 -7.820711618020767" fill="#ff2d04" stroke="none" /><path d="M 117.14729908036423 112.12312394758627 l 15.629115349690654 11.049769511070906 a40.14070669702998,40.14070669702998 0 0,0 -0.40373944774936676,0.5607587808738722 l -15.436596109565684 -11.31716189739591" fill="#ff880c" stroke="none" /><line stroke="#e1ed5e" stroke-width="0.3" x1="143.8653032363475" x2="146.44561519142675" y1="172.8068346515853" y2="177.08958963109032" /><path d="M 144.38136562736335 173.6633856474863 a86.0,86.0 0 0,1 -40.68145358897372,12.25698825130547" fill="none" id="id18" stroke="none" /><text fill="#e1ed5e" style="font-size:6.75px; font-family:Arial;" text-anchor="middle"><textPath startOffset="21.466115282336833" xlink:href="#id18">June</textPath></text><path d="M 110.21172684928248 118.3499491758327 l 14.583249128196819 26.205350404542077 a50.98985736811509,50.98985736811509 0 0,0 -0.7706198835576682,0.420203403951822 l -14.130006432770502 -26.45249446025367" fill="#d4ff1c" stroke="none" /><path d="M 109.57404056367764 118.69057910512821 l 13.555194585595347 26.46264500368437 a50.73238774206294,50.73238774206294 0 0,0 -0.7806653739414601,0.39144182484156737 l -13.097675303971126 -26.692054669435237" fill="#d8ff1c" stroke="none" /><path d="M 108.92500713936063 119.00905698771935 l 12.709845859174235 27.070251089959324 a50.90549574639104,50.90549574639104 0 0,0 -0.7963849782864263,0.3655812833147404 l -12.24199288512039 -27.28501944360814" fill="#d5ff1c" stroke="none" /><path d="M 107.2578585660854 119.70592522655815 l 13.363465317840227 36.283353543371305 a59.6660568154343,59.6660568154343 0 0,0 -0.9668186680308186,0.34666677659526596 l -12.736927089179673 -36.508007861006526" fill="#62ff29" stroke="none" /><path d="M 106.91757812671514 119.82793768551818 l 5.356209198322192 15.352567079045452 a37.26008280707025,37.26008280707025 0 0,0 -0.6073930522916855,0.2060607011972256 l -5.09114641309328 -15.4424907671408" fill="#ff5a08" stroke="none" /><line stroke="#e1ed5e" stroke-width="0.3" x1="102.19456741930631" x2="102.32365962044197" y1="184.97166512339345" y2="189.96999836594603" /><path d="M 102.22038585953345 185.97133177190398 a86.0,86.0 0 0,1 -42.740103519485714,-10.115201625700543" fill="none" id="id19" stroke="none" /><text fill="#e1ed5e" style="font-size:6.75px; font-family:Arial;" text-anchor="middle"><textPath startOffset="22.20632615414155" xlink:href="#id19">July</textPath></text><line stroke="#e1ed5e" stroke-width="0.3" x1="58.666819895761336" x2="56.23545636021788" y1="174.27360380694188" y2="178.64263932499728" /><path d="M 58.180547188652646 175.14741091055294 a86.0,86.0 0 0,1 -31.652253787137756,-30.449443065178592" fill="none" id="id20" stroke="none" /><text fill="#e1ed5e" style="font-size:6.75px; font-family:Arial;" text-anchor="middle"><textPath startOffset="22.20632615414155" xlink:href="#id20">August</textPath></text><path d="M 87.36589467227662 116.77436683061367 l -8.817732699749616 11.707349201476916 a35.65654922857205,35.65654922857205 0 0,0 -0.48708760070166895,-0.3734780017372193 l 9.017949028944772 -11.55383185791233" fill="#ff3f05" stroke="none" /><line stroke="#e1ed5e" stroke-width="0.3" x1="26.63291911575756" x2="22.317208475507996" y1="142.92168965132927" y2="145.44649492493687" /><path d="M 25.769776987707644 143.4266507060508 a86.0,86.0 0 0,1 -11.730757126820373,-40.83630448921669" fill="none" id="id21" stroke="none" /><text fill="#e1ed5e" style="font-size:6.75px; font-family:Arial;" text-anchor="middle"><textPath startOffset="21.46611528233685" xlink:href="#id21">September</textPath></text><line stroke="#e1ed5e" stroke-width="0.3" x1="15.007084014347285" x2="10.007500721073583" y1="101.09737516637583" y2="101.16192664675087" /><path d="M 14.007167355692545 101.11028546245083 a86.0,86.0 0 0,1 10.666146001902534,-42.60595125391555" fill="none" id="id22" stroke="none" /><text fill="#e1ed5e" style="font-size:6.75px; font-family:Arial;" text-anchor="middle"><textPath startOffset="22.20632615414155" xlink:href="#id22">October</textPath></text><line stroke="#e1ed5e" stroke-width="0.3" x1="26.266209847984243" x2="21.928928074336255" y1="57.711370442889674" y2="55.22380399835377" /><path d="M 25.398753493254645 57.213857153982495 a86.0,86.0 0 0,1 29.58750427330803,-30.492523968695096" fill="none" id="id23" stroke="none" /><text fill="#e1ed5e" style="font-size:6.75px; font-family:Arial;" text-anchor="middle"><textPath startOffset="21.46611528233685" xlink:href="#id23">November</textPath></text><line stroke="#e1ed5e" stroke-width="0.3" x1="56.762969772571076" x2="54.21961505331055" y1="26.818313649435495" y2="22.513508569990535" /><path d="M 56.25429882871897 25.957352633546506 a86.0,86.0 0 0,1 42.265352541879196,-11.944610805530505" fill="none" id="id24" stroke="none" /><text fill="#e1ed5e" style="font-size:6.75px; font-family:Arial;" text-anchor="middle"><textPath startOffset="22.20632615414155" xlink:href="#id24">December</textPath></text><path d="M 92.91201910852362 80.23233633223022 l -5.144940664399226 -14.348720489184576 a36.24323437190854,36.24323437190854 0 0,0 0.5890699105754513,-0.20551492510888142 l 4.89718874976049 14.435156267465667" fill="#ff4906" stroke="none" /><path d="M 93.59665428221793 80.00007090966166 l -4.762739886236741 -14.875732811979756 a36.61957483151707,36.61957483151707 0 0,0 0.6019815655692259,-0.1870386027184664 l 4.505972947956786 14.955511549580748" fill="#ff4f07" stroke="none" /></svg>