<?xml version="1.0" encoding="utf-8" ?>
<svg baseProfile="full" height="200mm" version="1.1" viewBox="0,0,200,200" width="200mm" xmlns="http://www.w3.org/2000/svg" xmlns:ev="http://www.w3.org/2001/xml-events" xmlns:xlink="http://www.w3.org/1999/xlink"><defs /><rect fill="#1a1a1a" height="200" width="200" x="0" y="0" /><text alignment-baseline="middle" fill="#e1ed5e" style="dominant-baseline: central; font-size:9.0px; font-family:Arial;" text-anchor="middle" x="100.0" y="100.0">2022</text><line stroke="#e1ed5e" stroke-width="0.3" x1="100.0" x2="100.0" y1="15.0" y2="10.0" /><path d="M 100.0 14.0 a86.0,86.0 0 0,1 42.46469731375804,11.215312516191453" fill="none" id="id25" stroke="none" /><text fill="#e1ed5e" style="font-size:6.75px; font-family:Arial;" text-anchor="middle"><textPath startOffset="22.20632615414155" xlink:href="#id25">January</textPath></text><path d="M 100.36148047927253 79.00311137660856 l 0.6504415166248362 -37.78142628361679 a58.787024839102095,58.787024839102095 0 0,0 1.0116221415709148,0.02612721534074317 l -1.3006902933906188 37.76463227613369" fill="#3aff2e" stroke="none" /><path d="M 102.52436894288641 79.15227682838746 l 0.6722015940377384 -5.551436048009585 a26.591985083864866,26.591985083864866 0 0,0 0.45394452344307634,0.05893502743796837 l -0.7676608459886608 5.53904269740748" fill="#ff4a06" stroke="none" /><line stroke="#e1ed5e" stroke-width="0.3" x1="143.23703022742887" x2="145.7803849466894" y1="26.81831364943548" y2="22.513508569990506" /><path d="M 143.74570117128098 25.957352633546492 a86.0,86.0 0 0,1 28.547481713284135,27.462654790039103" fill="none" id="id26" stroke="none" /><text fill="#e1ed5e" style="font-size:6.75px; font-family:Arial;" text-anchor="middle"><textPath startOffset="19.985693538727396" xlink:href="#id26">February</textPath></text><path d="M 111.2981086023043 82.29822771554956 l 1.565538735810258 -2.452871642439998 a23.909895329321774,23.909895329321774 0 0,0 0.3450231759443298,0.22441267107820942 l -1.607528937538868 2.4255600472022607" fill="#ff2503" stroke="none" /><path d="M 117.45458315368197 88.32363383020206 l 5.359025792369643 -3.584957997229501 a27.447563980697115,27.447563980697115 0 0,0 0.2593185259523303,0.3949599058468436 l -5.419940953679898 3.492180027404983" fill="#ff5607" stroke="none" /><line stroke="#e1ed5e" stroke-width="0.3" x1="172.23445277983987" x2="176.4835382374775" y1="55.19839476539836" y2="52.563006222186495" /><path d="M 173.08426987136738 54.67131705675599 a86.0,86.0 0 0,1 12.851231095245387,41.99856678651699" fill="none" id="id27" stroke="none" /><text fill="#e1ed5e" style="font-size:6.75px; font-family:Arial;" text-anchor="middle"><textPath startOffset="22.20632615414155" xlink:href="#id27">March</textPath></text><path d="M 118.56541770881063 90.18545643968196 l 4.347016440529704 -2.298035136195742 a25.917063902515984,25.917063902515984 0 0,0 0.20510340670402943,0.39619449864901857 l -4.38592928039385 2.222867915286378" fill="#ff4106" stroke="none" /><path d="M 119.7369772167798 92.82701384747503 l 0.7611771562396257 -0.27663370846288005 a21.80988695003622,21.80988695003622 0 0,0 0.12519593712920024,0.3539457733304546 l -0.7658261741786355 0.2634903087058108" fill="#ff0701" stroke="none" /><path d="M 120.45610955862082 95.25157060432595 l 4.3546873875260275 -1.010843510621761 a25.470470539668547,25.470470539668547 0 0,0 0.09546042843672169,0.42793038277283696 l -4.371442202964787 0.9357349582989601" fill="#ff3b05" stroke="none" /><path d="M 120.53481517161879 95.60439243477599 l 1.14543156356238 -0.24518689864810045 a22.17137956362301,22.17137956362301 0 0,0 0.07667148544981675,0.37387739237713996 l -1.1494823449271936 0.22543385010754868" fill="#ff0c01" stroke="none" /><path d="M 120.6074358757038 95.95851677861258 l 3.0437131201727947 -0.5969260600926177 a24.10169474306059,24.10169474306059 0 0,0 0.07633841801810597,0.4078028815483206 l -3.05353726210076 0.5444451010817344" fill="#ff2703" stroke="none" /><path d="M 120.67395015179393 96.31383870115 l 2.7770311727379213 -0.4951441190235373 a23.820827863050447,23.820827863050447 0 0,0 0.06849978341413429,0.4042895992606309 l -2.785142817672279 0.44726873144706847" fill="#ff2303" stroke="none" /><path d="M 120.73433829027371 96.67025291283417 l 2.7635260590472184 -0.44379727563989063 a23.79893413657743,23.79893413657743 0 0,0 0.06147390092074236,0.40503619926357853 l -2.7707558534072607 0.39616196398423" fill="#ff2303" stroke="none" /><path d="M 120.78858239683441 97.02765380044208 l 1.4228112372958226 -0.20343318717627012 a22.43728107154445,22.43728107154445 0 0,0 0.051374964008749406,0.38280315532733666 l -1.4261022003624082 0.17891168978426908" fill="#ff1001" stroke="none" /><path d="M 120.83666639777658 97.38593545837742 l 3.9229587931662495 -0.4921549005822091 a24.95370992095367,24.95370992095367 0 0,0 0.04980005590657188,0.4266564666258886 l -3.93084920207641 0.4245546956314678" fill="#ff3304" stroke="none" /><path d="M 120.87857604477298 97.74499172005257 l 8.80098964634832 -0.9505583370095605 a29.852173739098703,29.852173739098703 0 0,0 0.05078121193305222,0.5113598740769659 l -8.8160479839636 0.7989229322281597" fill="#ff760a" stroke="none" /><path d="M 120.91429891909075 98.10471618934814 l 0.7094653302445443 -0.06429276734702617 a21.712372525264794,21.712372525264794 0 0,0 0.03052709553866016,0.37250788786920563 l -0.7104669096026992 0.052070962270051785" fill="#ff0500" stroke="none" /><path d="M 120.94382443527127 98.46500227214037 l 3.3517998882495452 -0.24565738834396347 a24.36079009212382,24.36079009212382 0 0,0 0.02705139179113418,0.418473057779435 l -3.355531871045095 0.18792526631149323" fill="#ff2b04" stroke="none" /><path d="M 120.96714384426684 98.82574320788733 l 3.094786634189129 -0.17332233003827902 a24.099636259506198,24.099636259506198 0 0,0 0.01963132472787365,0.4143862375111106 l -3.097311567150499 0.12002498590416866" fill="#ff2703" stroke="none" /><path d="M 120.98425023603335 99.18683210126433 l 0.4553345642419078 -0.01764482631790728 a21.45567631635752,21.45567631635752 0 0,0 0.011124569494918118,0.369170302870781 l -0.45557082819247097 0.009804376022127201" fill="#ff0200" stroke="none" /><line stroke="#e1ed5e" stroke-width="0.3" x1="184.98032266829074" x2="189.97916517819016" y1="98.17113171792111" y2="98.06355123074" /><path d="M 185.9800911702706 98.14961562048488 a86.0,86.0 0 0,1 -9.607161424134198,41.387399972396054" fill="none" id="id28" stroke="none" /><text fill="#e1ed5e" style="font-size:6.75px; font-family:Arial;" text-anchor="middle"><textPath startOffset="21.466115282336823" xlink:href="#id28">April</textPath></text><path d="M 120.99513854157772 99.54816195383933 l 2.539315119622034 -0.05464880262466899 a23.539903102161453,23.539903102161453 0 0,0 0.005231455248926339,0.4051819742953048 l -2.539879581988676 0.010930570268901485" fill="#ff1f03" stroke="none" /><path d="M 120.99980553446 99.90962569577887 l 3.743511430843157 -0.016110493992486256 a24.7435460970676,24.7435460970676 0 0,0 -0.0018330286538340572,0.42593130427238796 l -3.74323410489982 -0.04833028848358643" fill="#ff3004" stroke="none" /><path d="M 120.99824983174949 100.27111621757518 l 8.527200261658313 0.11009785577231204 a29.52791098923243,29.52791098923243 0 0,0 -0.010936487653187112,0.5081756071405517 l -8.524041711320118 -0.2568632787029786" fill="#ff720a" stroke="none" /><path d="M 120.9764740272857 100.99374915477107 l 6.5740068157420115 0.3114400307747135 a27.581379832997893,27.581379832997893 0 0,0 -0.02654858733247596,0.47404286115355704 l -6.567671877522006 -0.4245546082636939" fill="#ff5808" stroke="none" /><path d="M 120.95626037817324 101.35467743843564 l 2.6648573448425745 0.17226461480063118 a23.67041939887236,23.67041939887236 0 0,0 -0.02978352087507749,0.4063724792229265 l -2.661497265303159 -0.218110230520328" fill="#ff2103" stroke="none" /><path d="M 120.92983693683757 101.71520430193887 l 1.9255442300576895 0.15779873282985768 a22.931999229293627,22.931999229293627 0 0,0 -0.03562693966807151,0.3931403104921687 l -1.9225426941125425 -0.1909204318705969" fill="#ff1702" stroke="none" /><path d="M 120.89721153311464 102.0752229133903 l 2.2837123405065425 0.22678682125131394 a23.294945384203107,23.294945384203107 0 0,0 -0.04305981745111711,0.3986804310750237 l -2.2794702215543734 -0.26606357421112903" fill="#ff1c02" stroke="none" /><path d="M 120.8583938346157 102.4346265915055 l 8.146830933420212 0.9509117233220526 a29.202139194337278,29.202139194337278 0 0,0 -0.06257391383374476,0.4987756602779514 l -8.12925551033962 -1.0910051378873988" fill="#ff6e0a" stroke="none" /><path d="M 120.76222939487914 103.15116336523771 l 0.7737571726644675 0.11743610041663193 a21.782618297722955,21.782618297722955 0 0,0 -0.059454355535389414,0.3702223286724841 l -0.7716210627677897 -0.13073765878232096" fill="#ff0601" stroke="none" /><path d="M 120.70491114924044 103.5080841355445 l 1.34711360146243 0.22824477825590342 a22.366312824373015,22.366312824373015 0 0,0 -0.06758200573624266,0.3790357785442623 l -1.3429851533869985 -0.2513993075333841" fill="#ff0f01" stroke="none" /><path d="M 120.5718875245553 104.21870165774334 l 0.6808296492001715 0.13961855305174128 a21.694998094663784,21.694998094663784 0 0,0 -0.07817013741448148,0.3651848578217234 l -0.678325473061247 -0.15131723028963373" fill="#ff0500" stroke="none" /><path d="M 120.49622156327973 104.57218783832717 l 1.2242476737846388 0.27309864444511595 a22.254338565286446,22.254338565286446 0 0,0 -0.08662176380554223,0.3731642913720918 l -1.2193653440485437 -0.29413159316577264" fill="#ff0d01" stroke="none" /><path d="M 120.41448212921028 104.9243191809786 l 7.948381941265412 1.9172844749812572 a29.17635341960206,29.17635341960206 0 0,0 -0.12196922477950817,0.48720642343604903 l -7.914201402190843 -2.0538187378147024" fill="#ff6d0a" stroke="none" /><path d="M 120.02730092923936 106.31721596034902 l 7.941344129869809 2.504939934796442 a29.327044533683946,29.327044533683946 0 0,0 -0.15600276805733868,0.4801271510038442 l -7.897049110796224 -2.641265985778081" fill="#ff6f0a" stroke="none" /><path d="M 119.9155931802556 106.66101706037122 l 3.269102328668789 1.0933918054196075 a24.447105405331616,24.447105405331616 0 0,0 -0.13691446440782393,0.39793752180930764 l -3.249797033317734 -1.1495020303182155" fill="#ff2c04" stroke="none" /><path d="M 119.79798401119884 107.00284435728193 l 1.3323494174152797 0.47127200397761465 a22.413241759862732,22.413241759862732 0 0,0 -0.13178531378893157,0.3626165840070258 l -1.3240398426211213 -0.4941363849907716" fill="#ff0f01" stroke="none" /><path d="M 119.67450827220406 107.3425965602758 l 8.821936645263754 3.2923781763836684 a30.41627953224494,30.41627953224494 0 0,0 -0.18728566366677177,0.4889437692714904 l -8.763956702003476 -3.4437455124883027" fill="#ff7e0b" stroke="none" /><path d="M 119.54520255179757 107.68017299344265 l 0.7469790024494805 0.29352102880886266 a21.8025784849181,21.8025784849181 0 0,0 -0.14026054075049793,0.3481151594595101 l -0.7418158474415901 -0.3063355561111863" fill="#ff0701" stroke="none" /><path d="M 119.41010516605496 108.01547362559984 l 1.8650153228243493 0.7701648704913465 a23.017779988529117,23.017779988529117 0 0,0 -0.15438246316741108,0.3649145390853784 l -1.8514818784646294 -0.8021539352428884" fill="#ff1802" stroke="none" /><path d="M 119.26925614724726 108.34839909993367 l 1.9501050271046825 0.8448823830380496 a23.125261362258065,23.125261362258065 0 0,0 -0.16139110574087373,0.3638943374380739 l -1.935272836632536 -0.8783250569688112" fill="#ff1a02" stroke="none" /><path d="M 119.12269723197855 108.67885076344098 l 2.067982074488644 0.9385552460635316 a23.27099885740168,23.27099885740168 0 0,0 -0.16868746274227703,0.36333778760567964 l -2.0515199949065357 -0.9740131009480418" fill="#ff1c02" stroke="none" /><path d="M 118.97047184881838 109.00673069616215 l 0.7179890617330468 0.34088420010609766 a21.794802070109455,21.794802070109455 0 0,0 -0.163820882356841,0.33751953979764154 l -0.7120149227614915 -0.35319269586901464" fill="#ff0601" stroke="none" /><path d="M 118.81262510543309 109.33194174019688 l 1.999435164865841 0.9918133363769821 a23.23191278340291,23.23191278340291 0 0,0 -0.18079000430824213,0.35671583005231455 l -1.98206649077133 -1.026083378131991" fill="#ff1b02" stroke="none" /><path d="M 118.64920377521936 109.65438752849418 l 0.3618718244292935 0.18733512008302963 a21.40748701148909,21.40748701148909 0 0,0 -0.17222577313329815,0.3257862577909769 l -0.35859354307110225 -0.19353639296014089" fill="#ff0100" stroke="none" /><line stroke="#e1ed5e" stroke-width="0.3" x1="174.80103733775053" x2="179.2010983576182" y1="140.37084112569926" y2="142.7455964860345" /><path d="M 175.68104954172406 140.8457921977663 a86.0,86.0 0 0,1 -30.038265399797805,32.042727171017184" fill="none" id="id29" stroke="none" /><text fill="#e1ed5e" style="font-size:6.75px; font-family:Arial;" text-anchor="middle"><textPath startOffset="22.206326154141568" xlink:href="#id29">May</textPath></text><path d="M 118.30583269289576 110.29060199501025 l 4.718555316958275 2.6525302384688145 a26.413010340391622,26.413010340391622 0 0,0 -0.22620605644409483,0.39440932637552006 l -4.672197264361801 -2.7333594107026498" fill="#ff4806" stroke="none" /><path d="M 117.94076556474637 110.91462005526583 l 8.726534173721998 5.308959897041897 a31.2145706651595,31.2145706651595 0 0,0 -0.2832133080617143,0.45663002967594823 l -8.63385622599232 -5.458386258083119" fill="#ff890c" stroke="none" /><path d="M 117.55443506779139 111.5257021239791 l 0.5450288827678713 0.3578492003581157 a21.652006543869106,21.652006543869106 0 0,0 -0.20723743223544935,0.30979184284795114 l -0.5387883451217009 -0.3671779574118737" fill="#ff0400" stroke="none" /><path d="M 117.35343817320211 111.8261652097733 l 1.9319596855129046 1.3166079362174805 a23.337931710755893,23.337931710755893 0 0,0 -0.22908857483653497,0.33001917828531435 l -1.9090102035142336 -1.3496683766898143" fill="#ff1d02" stroke="none" /><path d="M 117.14729908036423 112.12312394758627 l 3.1625681345385193 2.2359326275239115 a24.87314238318506,24.87314238318506 0 0,0 -0.25017668087845435,0.3474735286693171 l -3.123611661284462 -2.29003976164436" fill="#ff3204" stroke="none" /><path d="M 116.498646956653 112.99209946851258 l 1.9354126530082876 1.52406883828506 a23.463454477203943,23.463454477203943 0 0,0 -0.252603179933912,0.3151613064820485 l -1.9088915610195214 -1.5571579783453589" fill="#ff1e03" stroke="none" /><path d="M 116.27256486870786 113.27417163493432 l 2.103006292996946 1.715505005376889 a23.713962581145495,23.713962581145495 0 0,0 -0.2607451818267299,0.3140843686271855 l -2.0731651112766727 -1.7514506311178448" fill="#ff2203" stroke="none" /><path d="M 115.56566222782051 114.09645910891815 l 2.574251432728674 2.33127441199877 a24.472982986273593,24.472982986273593 0 0,0 -0.28546405188320473,0.3098148484842437 l -2.5337409728497473 -2.3752405152843483" fill="#ff2d04" stroke="none" /><path d="M 115.32070863581623 114.36230785411682 l 1.2762430778796159 1.1964065381637672 a22.74933844592653,22.74933844592653 0 0,0 -0.2702767096533961,0.2833840495195403 l -1.2554598168472553 -1.2181977042658145" fill="#ff1402" stroke="none" /><path d="M 115.07121518719521 114.62390073753431 l 1.549225452823717 1.5032443609062414 a23.15866697576844,23.15866697576844 0 0,0 -0.2800647899863411,0.28370415363107065 l -1.5231200377818404 -1.5296890085179766" fill="#ff1a02" stroke="none" /><path d="M 114.55890576462653 115.13401014063108 l 6.054467093639068 6.293630020868625 a29.733060782310925,29.733060782310925 0 0,0 -0.37189569530443334,0.35165059246925 l -5.945235563943827 -6.396915250083796" fill="#ff750a" stroke="none" /><path d="M 114.0293411484842 115.62618273729858 l 28.284647920000097 31.504050858855 a63.33823955333627,63.33823955333627 0 0,0 -0.8175387706841062,0.7213829115257675 l -27.738166796409402 -31.986256912153056" fill="#34ff58" stroke="none" /><path d="M 113.48314897796784 116.09983520530334 l 5.607041833017139 6.695205226043838 a29.73296576977426,29.73296576977426 0 0,0 -0.3952075673001042,0.3252289222937895 l -5.4909641371723446 -6.7907292671948065" fill="#ff750a" stroke="none" /><path d="M 113.20401910651253 116.32954008644616 l 5.223873606457539 6.460415785153083 a29.308178354687556,29.308178354687556 0 0,0 -0.3950219183522774,0.3138293025837275 l -5.11189419538791 -6.549379001741936" fill="#ff6f0a" stroke="none" /><path d="M 112.63410532772338 116.77436683061366 l 2.285088468859171 3.0339237502586305 a24.79819992008011,24.79819992008011 0 0,0 -0.34317760015906845,0.2538745843799751 l -2.2325258982815384 -3.0728082833783743" fill="#ff3104" stroke="none" /><path d="M 112.34349029814194 116.9893568818739 l 4.461290891841394 6.1404401254932095 a28.590001406876947,28.590001406876947 0 0,0 -0.4006312433717061,0.28583975472645995 l -4.354932320620803 -6.216324142063889" fill="#ff6509" stroke="none" /><path d="M 112.04921762599082 117.19931262002967 l 9.293306565420894 13.26546584631917 a37.19685559109408,37.19685559109408 0 0,0 -0.5275632072135324,0.36286278449962467 l -9.063586473584477 -13.423469420183888" fill="#ffd513" stroke="none" /><path d="M 111.1453310114006 117.79835938074945 l 7.82624561284119 12.497998657633099 a35.746189027634045,35.746189027634045 0 0,0 -0.5243128449363222,0.32207577290291645 l -7.60995356797256 -12.630862897364393" fill="#ffc312" stroke="none" /><line stroke="#e1ed5e" stroke-width="0.3" x1="143.8653032363475" x2="146.44561519142675" y1="172.8068346515853" y2="177.08958963109032" /><path d="M 144.38136562736335 173.6633856474863 a86.0,86.0 0 0,1 -40.68145358897372,12.25698825130547" fill="none" id="id30" stroke="none" /><text fill="#e1ed5e" style="font-size:6.75px; font-family:Arial;" text-anchor="middle"><textPath startOffset="21.466115282336833" xlink:href="#id30">June</textPath></text><path d="M 110.8373102113329 117.98757091392108 l 0.9147763548687332 1.5183292009462348 a22.772608062114397,22.772608062114397 0 0,0 -0.3375032042575283,0.1994028420503079 l -0.8885052795828228 -1.5338506152902922" fill="#ff1402" stroke="none" /><path d="M 110.5260780823613 118.17145234162733 l 6.337633991110385 10.940828400382268 a33.643865338253526,33.643865338253526 0 0,0 -0.5036185978389107,0.2859677834909565 l -6.148366626350275 -11.048299349667852" fill="#ffa80f" stroke="none" /><path d="M 110.21172684928248 118.3499491758327 l 8.398976437222112 15.09252969911462 a38.27215267161766,38.27215267161766 0 0,0 -0.5784146761262761,0.3153977998619386 l -8.137938949227188 -15.234868150736329" fill="#ffe315" stroke="none" /><path d="M 109.57404056367764 118.69057910512821 l 17.025631556693927 33.23768176128543 a58.34455273220953,58.34455273220953 0 0,0 -0.897800677305268,0.45017589763718985 l -16.4509769717059 -33.525825499831925" fill="#3eff2d" stroke="none" /><path d="M 109.2508944713604 118.85261126421891 l 4.704516343441052 9.587442390964386 a31.679490887948024,31.679490887948024 0 0,0 -0.4916164173611581,0.2360057558138392 l -4.538787258079661 -9.667002423277784" fill="#ff8f0d" stroke="none" /><path d="M 108.2653958097858 119.30500536409082 l 1.3921899467695675 3.2516572719239583 a24.537155334720573,24.537155334720573 0 0,0 -0.3897067431844495,0.16289745025725258 l -1.336011744087657 -3.275139765201184" fill="#ff2d04" stroke="none" /><path d="M 107.59598834532513 119.57807347666477 l 6.909658125327021 17.809110325918486 a40.10255967166793,40.10255967166793 0 0,0 -0.6457080785109041,0.2441515442488571 l -6.602079826055842 -17.925410120273973" fill="#fff917" stroke="none" /><path d="M 106.91757812671514 119.82793768551818 l 0.15763319281520477 0.4518259233298083 a21.478534103768947,21.478534103768947 0 0,0 -0.3501310626600049,0.11878346650564406 l -0.14983239721797292 -0.45447237673357543" fill="#ff0200" stroke="none" /><path d="M 106.57524785965236 119.94407469862006 l 3.78527122272512 11.481503607463715 a33.08938390976948,33.08938390976948 0 0,0 -0.5424746944869008,0.17368326638847612 l -3.587075183147279 -11.544959720511898" fill="#ffa10e" stroke="none" /><path d="M 105.88484417918355 120.15858648285463 l 0.5226923681494945 1.7904873920946394 a22.86522181334328,22.86522181334328 0 0,0 -0.3787665715827055,0.10704321652629493 l -0.49179462846218325 -1.7992194019594534" fill="#ff1602" stroke="none" /><path d="M 105.53697534728816 120.25689768951611 l 2.091188042464423 7.650563632451139 a28.93121625749356,28.93121625749356 0 0,0 -0.4815112658610181,0.1271715017016879 l -1.9591863337919073 -7.6854264834564106" fill="#ff6a09" stroke="none" /><path d="M 105.18746579009965 120.34920634021253 l 9.572264665358256 37.549739448934 a59.7506281691858,59.7506281691858 0 0,0 -0.9988219882534494,0.24548614349445844 l -8.924489392361595 -37.708946850742485" fill="#30ff2f" stroke="none" /><path d="M 104.48393922423573 120.51570834832081 l 0.07445849633210992 0.3406756243589477 a21.34871757728626,21.34871757728626 0 0,0 -0.3596837412560286,0.0753752251197115 l -0.0685832936467033 -0.3419068302052004" fill="#ff0000" stroke="none" /><path d="M 104.13013068566511 120.58985236759428 l 0.7467503142627224 3.722758405560732 a24.79691535038965,24.79691535038965 0 0,0 -0.41922419086249324,0.08034531394078043 l -0.6825585088285248 -3.7350609178499803" fill="#ff3104" stroke="none" /><path d="M 101.98527174616119 120.90594882070398 l 0.3593828698703276 3.7844894025589797 a24.80151497238107,24.80151497238107 0 0,0 -0.4253526926629178,0.03670122011374602 l -0.2941858594658681 -3.790114874951389" fill="#ff3104" stroke="none" /><path d="M 101.26447882468166 120.96189622390904 l 0.4545667301702665 7.535579432949097 a28.549277336438443,28.549277336438443 0 0,0 -0.4907918931727101,0.025368334852258638 l -0.3247867685840768 -7.542287574563558" fill="#ff6509" stroke="none" /><path d="M 100.90346689309514 120.98055641714683 l 0.7441985690576185 17.281983637699334 a38.297999594285315,38.297999594285315 0 0,0 -0.6588708488089384,0.022692844229955746 l -0.4466073685740277 -17.292233280355383" fill="#ffe315" stroke="none" /><line stroke="#e1ed5e" stroke-width="0.3" x1="102.19456741930631" x2="102.32365962044197" y1="184.97166512339345" y2="189.96999836594603" /><path d="M 102.22038585953345 185.97133177190398 a86.0,86.0 0 0,1 -42.740103519485714,-10.115201625700543" fill="none" id="id31" stroke="none" /><text fill="#e1ed5e" style="font-size:6.75px; font-family:Arial;" text-anchor="middle"><textPath startOffset="22.20632615414155" xlink:href="#id31">July</textPath></text><path d="M 97.65516085044442 120.86867818915974 l -5.083226295285566 45.239868047705755 a66.52455217289798,66.52455217289798 0 0,0 -1.1368494032685807,-0.13765663054553545 l 5.861203121605536 -45.14566588843487" fill="#38ff7c" stroke="none" /><path d="M 93.08242187328487 119.8279376855182 l -2.2987099495189858 6.588820075644966 a27.978296168925457,27.978296168925457 0 0,0 -0.45335556729493287,-0.16255717681347254 l 2.4117850774436453 -6.548275357791535" fill="#ff5d08" stroke="none" /><path d="M 92.7421414339146 119.70592522655815 l -5.270451643856975 14.309885630639057 a36.24960613564183,36.24960613564183 0 0,0 -0.5836700628652982,-0.220694075113673 l 5.515991927482557 -14.21704330541875" fill="#ffc912" stroke="none" /><path d="M 90.42595943632237 118.69057910512821 l -16.134834759982947 31.498655497005043 a56.39065117867938,56.39065117867938 0 0,0 -0.8601161230945713,-0.44997210400462356 l 16.674641785604013 -31.216253974055704" fill="#51ff2b" stroke="none" /><path d="M 90.10565033884886 118.52300852407294 l -0.8544048783536901 1.599513801992888 a22.813408971776727,22.813408971776727 0 0,0 -0.34478359957872506,-0.18800350894255197 l 0.8818112898010556 -1.5845696412905703" fill="#ff1502" stroke="none" /><line stroke="#e1ed5e" stroke-width="0.3" x1="58.666819895761336" x2="56.23545636021788" y1="174.27360380694188" y2="178.64263932499728" /><path d="M 58.180547188652646 175.14741091055294 a86.0,86.0 0 0,1 -31.652253787137756,-30.449443065178592" fill="none" id="id32" stroke="none" /><text fill="#e1ed5e" style="font-size:6.75px; font-family:Arial;" text-anchor="middle"><textPath startOffset="22.20632615414155" xlink:href="#id32">August</textPath></text><path d="M 88.54995079064634 117.60387380957326 l -4.1577570747554535 6.392342035968158 a28.625547888347732,28.625547888347732 0 0,0 -0.4107429448185729,-0.2722180266975368 l 4.267174718313988 -6.319825988179303" fill="#ff6609" stroke="none" /><path d="M 88.24862548938628 117.40417183066458 l -8.552962921771977 12.667219159543954 a36.284358539929755,36.284358539929755 0 0,0 -0.5146212565234626,-0.35396119280398386 l 8.76974106291833 -12.518117177374869" fill="#ffca12" stroke="none" /><path d="M 87.95078237400918 117.19931262002967 l -20.493058795805243 29.252233274417236 a56.71636334160091,56.71636334160091 0 0,0 -0.7947655140583968,-0.5670440919474896 l 20.993551637712525 -28.895144920625526" fill="#4eff2b" stroke="none" /><path d="M 86.24171649860922 115.8653595955263 l -40.207918138701054 46.3657461189466 a82.37148437356797,82.37148437356797 0 0,0 -1.0632105115186243,-0.9381596590487139 l 41.000071003126266 -45.6667633181256" fill="#4be1ff" stroke="none" /><path d="M 85.18274418774928 114.88116024355367 l -5.392296660253273 5.415552764882668 a28.6423213110551,28.6423213110551 0 0,0 -0.3463802865292444,-0.3508814015109103 l 5.484717571838051 -5.3219308693910925" fill="#ff6609" stroke="none" /><path d="M 84.9287848128048 114.62390073753433 l -1.4571270289662743 1.4138794230531293 a23.03033844505716,23.03033844505716 0 0,0 -0.2736151695984328,-0.28688441142492394 l 1.4812487499436646 -1.3885878950457053" fill="#ff1802" stroke="none" /><path d="M 83.06392112726016 112.41649034213515 l -1.3012767165361103 0.9540159741061773 a22.61352643977369,22.61352643977369 0 0,0 -0.2274492261775566,-0.31590708188913175 l 1.3175057350892743 -0.9314752867659074" fill="#ff1202" stroke="none" /><path d="M 82.6465618267979 111.8261652097733 l -12.63936594430607 8.613580105121285 a36.295336992084394,36.295336992084394 0 0,0 -0.3473928582609526,-0.519305188218157 l 12.785761907977752 -8.394738002697308" fill="#ffca12" stroke="none" /><line stroke="#e1ed5e" stroke-width="0.3" x1="26.63291911575756" x2="22.317208475507996" y1="142.92168965132927" y2="145.44649492493687" /><path d="M 25.769776987707644 143.4266507060508 a86.0,86.0 0 0,1 -11.730757126820373,-40.83630448921669" fill="none" id="id33" stroke="none" /><text fill="#e1ed5e" style="font-size:6.75px; font-family:Arial;" text-anchor="middle"><textPath startOffset="21.46611528233685" xlink:href="#id33">September</textPath></text><path d="M 81.69416730710424 110.29060199501025 l -6.6748956363928516 3.7522846135814745 a28.657275728224537,28.657275728224537 0 0,0 -0.2380240441835633,-0.43208277895039987 l 6.738496090027931 -3.636831316233252" fill="#ff6609" stroke="none" /><path d="M 81.35079622478065 109.6543875284942 l -1.0256372234455033 0.5309556020804012 a22.154922320114025,22.154922320114025 0 0,0 -0.17240889887309352,-0.3401791139130927 l 1.0346247921048637 -0.5132222764646236" fill="#ff0c01" stroke="none" /><path d="M 81.18737489456691 109.33194174019688 l -1.0358752543150704 0.513842564193134 a22.156318175624204,22.156318175624204 0 0,0 -0.16653822235382817,-0.3431180650409564 l 1.0445667332836177 -0.49593554318689287" fill="#ff0c01" stroke="none" /><path d="M 80.87730276802145 108.67885076344099 l -6.967974638637277 3.162420618731808 a28.65203075885561,28.65203075885561 0 0,0 -0.19996240706018484,-0.4508624393869658 l 7.021378130428742 -3.042009842852146" fill="#ff6609" stroke="none" /><path d="M 80.58989483394504 108.01547362559985 l -7.055294424213319 2.9135095299237603 a28.633198359357113,28.633198359357113 0 0,0 -0.18420334494279994,-0.45717759574165656 l 7.104400383413507 -2.7916325663392985" fill="#ff6609" stroke="none" /><path d="M 80.32549172779594 107.34259656027581 l -14.701209022422494 5.486543567263573 a36.691644497516435,36.691644497516435 0 0,0 -0.2157394247268778,-0.5936222404523614 l 14.793472708154596 -5.232673529805094" fill="#ffcf13" stroke="none" /><path d="M 80.20201598880116 107.00284435728193 l -8.689574251394967 3.0736329506652034 a30.21715358372211,30.21715358372211 0 0,0 -0.16922925353535256,-0.491859425231395 l 8.74119433587355 -2.9236008223445116" fill="#ff7b0b" stroke="none" /><path d="M 79.97269907076064 106.31721596034903 l -3.301971043845181 1.0415414564593233 a24.46234333651581,24.46234333651581 0 0,0 -0.12321242889363966,-0.402665346647841 l 3.319410245244951 -0.9845491372594346" fill="#ff2c04" stroke="none" /><path d="M 79.86692584326677 105.97154293290107 l -7.334802996371256 2.175529214079514 a28.650638035934662,28.650638035934662 0 0,0 -0.136168792090349,-0.47402142893377064 l 7.371164425347709 -2.048950309641148" fill="#ff6609" stroke="none" /><path d="M 79.67330655649465 105.27499134158121 l -7.549637462976558 1.9592105504008022 a28.79971357186794,28.79971357186794 0 0,0 -0.12039471443585961,-0.4809170372849137 l 7.582243491707477 -1.8289656737184965" fill="#ff6809" stroke="none" /><path d="M 79.58551787078972 104.9243191809786 l -2.7914503676267666 0.6733451527719948 a23.871513337890867,23.871513337890867 0 0,0 -0.0929163805057335,-0.4002813353710919 l 2.8026273140630553 -0.6251951600523287" fill="#ff2403" stroke="none" /><path d="M 79.35854240842038 103.8639653848113 l -3.0706084734622348 0.5748007280554822 a24.123944985794594,24.123944985794594 0 0,0 -0.07289286353154079,-0.408821889466086 l 3.0800477793329644 -0.5218600878561825" fill="#ff2803" stroke="none" /><path d="M 79.29508885075956 103.50808413554451 l -7.5454539079784615 1.2784448558733672 a28.652992612497187,28.652992612497187 0 0,0 -0.07820663184986833,-0.4869927711831978 l 7.566342294189621 -1.1483728549969556" fill="#ff6609" stroke="none" /><path d="M 79.23777060512086 103.15116336523772 l -3.3009148404817514 0.5009925340513349 a24.33871716431444,24.33871716431444 0 0,0 -0.059300645750035165,-0.41474857825896505 l 3.3090495372483857 -0.4440984838119693" fill="#ff2b04" stroke="none" /><path d="M 79.18660465613746 102.79330883721812 l -20.706586082488805 2.7789742585123003 a41.892233129107886,41.892233129107886 0 0,0 -0.08976606024233542,-0.7155238217458969 l 20.75135365197799 -2.422132682478995" fill="#f0ff19" stroke="none" /><path d="M 79.1416061653843 102.43462659150553 l -62.5751815038471 7.303879774516597 a84.0,84.0 0 0,0 -0.15527079399579247,-1.4376147124608716 l 62.69163459934394 -6.225668740170943" fill="#4dd2ff" stroke="none" /><line stroke="#e1ed5e" stroke-width="0.3" x1="15.007084014347285" x2="10.007500721073583" y1="101.09737516637583" y2="101.16192664675087" /><path d="M 14.007167355692545 101.11028546245083 a86.0,86.0 0 0,1 10.666146001902534,-42.60595125391555" fill="none" id="id34" stroke="none" /><text fill="#e1ed5e" style="font-size:6.75px; font-family:Arial;" text-anchor="middle"><textPath startOffset="22.20632615414155" xlink:href="#id34">October</textPath></text><line stroke="#e1ed5e" stroke-width="0.3" x1="26.266209847984243" x2="21.928928074336255" y1="57.711370442889674" y2="55.22380399835377" /><path d="M 25.398753493254645 57.213857153982495 a86.0,86.0 0 0,1 29.58750427330803,-30.492523968695096" fill="none" id="id35" stroke="none" /><text fill="#e1ed5e" style="font-size:6.75px; font-family:Arial;" text-anchor="middle"><textPath startOffset="21.46611528233685" xlink:href="#id35">November</textPath></text><line stroke="#e1ed5e" stroke-width="0.3" x1="56.762969772571076" x2="54.21961505331055" y1="26.818313649435495" y2="22.513508569990535" /><path d="M 56.25429882871897 25.957352633546506 a86.0,86.0 0 0,1 42.265352541879196,-11.944610805530505" fill="none" id="id36" stroke="none" /><text fill="#e1ed5e" style="font-size:6.75px; font-family:Arial;" text-anchor="middle"><textPath startOffset="22.20632615414155" xlink:href="#id36">December</textPath></text></svg>