<?xml version="1.0" encoding="utf-8" ?>
<svg baseProfile="full" height="200mm" version="1.1" viewBox="0,0,200,200" width="200mm" xmlns="http://www.w3.org/2000/svg" xmlns:ev="http://www.w3.org/2001/xml-events" xmlns:xlink="http://www.w3.org/1999/xlink"><defs /><rect fill="#1a1a1a" height="200" width="200" x="0" y="0" /><text alignment-baseline="middle" fill="#e1ed5e" style="dominant-baseline: central; font-size:9.0px; font-family:Arial;" text-anchor="middle" x="100.0" y="100.0">2022</text><line stroke="#e1ed5e" stroke-width="0.3" x1="100.0" x2="100.0" y1="15.0" y2="10.0" /><path d="M 100.0 14.0 a86.0,86.0 0 0,1 42.46469731375804,11.215312516191453" fill="none" id="id25" stroke="none" /><text fill="#e1ed5e" style="font-size:6.75px; font-family:Arial;" text-anchor="middle"><textPath startOffset="22.20632615414155" xlink:href="#id25">January</textPath></text><path d="M 100.36148047927253 79.00311137660856 l 0.46761923823531804 -27.162045051898065 a48.16606999831422,48.16606999831422 0 0,0 0.8288540373681114,0.02140685442761532 l -0.9350999107982971 27.149971405328092" fill="#a7ff21" stroke="none" /><path d="M 102.52436894288641 79.15227682838746 l 0.4832631209883186 -3.9910710333387764 a25.02022278453113,25.02022278453113 0 0,0 0.42711339798603887,0.05545157729518817 l -0.5518912474822035 3.9821611328794515" fill="#ff3605" stroke="none" /><line stroke="#e1ed5e" stroke-width="0.3" x1="143.23703022742887" x2="145.7803849466894" y1="26.81831364943548" y2="22.513508569990506" /><path d="M 143.74570117128098 25.957352633546492 a86.0,86.0 0 0,1 28.547481713284135,27.462654790039103" fill="none" id="id26" stroke="none" /><text fill="#e1ed5e" style="font-size:6.75px; font-family:Arial;" text-anchor="middle"><textPath startOffset="19.985693538727396" xlink:href="#id26">February</textPath></text><path d="M 111.2981086023043 82.29822771554956 l 1.1255063097236526 -1.7634328984390168 a23.091999053662498,23.091999053662498 0 0,0 0.3332208168484731,0.2167360884182876 l -1.155694152356406 1.7437978858612013" fill="#ff1a02" stroke="none" /><path d="M 117.45458315368197 88.32363383020206 l 3.852742321423378 -2.577319074693978 a25.635320593882177,25.635320593882177 0 0,0 0.24219685045259537,0.3688824194101105 l -3.896535807233898 2.5106185913061934" fill="#ff3e05" stroke="none" /><line stroke="#e1ed5e" stroke-width="0.3" x1="172.23445277983987" x2="176.4835382374775" y1="55.19839476539836" y2="52.563006222186495" /><path d="M 173.08426987136738 54.67131705675599 a86.0,86.0 0 0,1 12.851231095245387,41.99856678651699" fill="none" id="id27" stroke="none" /><text fill="#e1ed5e" style="font-size:6.75px; font-family:Arial;" text-anchor="middle"><textPath startOffset="22.20632615414155" xlink:href="#id27">March</textPath></text><path d="M 118.56541770881063 90.18545643968196 l 3.125182609906122 -1.6521169272865797 a24.535004481848148,24.535004481848148 0 0,0 0.19416601439321093,0.37506693800656904 l -3.1531580574594495 1.5980772670196657" fill="#ff2f04" stroke="none" /><path d="M 119.7369772167798 92.82701384747503 l 0.5472299551386121 -0.1988791316594808 a21.58224868639666,21.58224868639666 0 0,0 0.12388921849245962,0.35025150377976483 l -0.5505722544408812 0.1894300014531014" fill="#ff0500" stroke="none" /><path d="M 120.45610955862082 95.25157060432595 l 3.1306974522082878 -0.7267215580962099 a24.213936956485806,24.213936956485806 0 0,0 0.09075108339305865,0.40681931235186186 l -3.142742922603384 0.6727240761943841" fill="#ff2a04" stroke="none" /><path d="M 120.53481517161879 95.60439243477599 l 0.8234803921851568 -0.17627120631236584 a21.842135080903436,21.842135080903436 0 0,0 0.07553291563309303,0.36832532159595494 l -0.8263926037332467 0.1620702285529991" fill="#ff0901" stroke="none" /><path d="M 120.6074358757038 95.95851677861258 l 2.1882041264026215 -0.42914559167710625 a23.229888615527994,23.229888615527994 0 0,0 0.07357710594840217,0.39305184205713967 l -2.1952669562608826 0.39141567215740386" fill="#ff1c02" stroke="none" /><path d="M 120.67395015179393 96.31383870115 l 1.9964795732749128 -0.35597192035949354 a23.02796614729842,23.02796614729842 0 0,0 0.06621980993384159,0.3908330667180447 l -2.0023112447289773 0.32155306532561095" fill="#ff1902" stroke="none" /><path d="M 120.73433829027371 96.67025291283417 l 1.9867703975613153 -0.31905734591252094 a23.01222618077757,23.01222618077757 0 0,0 0.05944179281662055,0.3916471458497176 l -1.9919680838172358 0.2848110876707212" fill="#ff1902" stroke="none" /><path d="M 120.78858239683441 97.02765380044208 l 1.0228958175815182 -0.14625338264503726 a22.03329855586896,22.03329855586896 0 0,0 0.050449959453303786,0.37591079697052227 l -1.0252617760926583 0.12862424360985064" fill="#ff0b01" stroke="none" /><path d="M 120.83666639777658 97.38593545837742 l 2.820316593577814 -0.3538228938679093 a23.842424375112806,23.842424375112806 0 0,0 0.047582266147600236,0.4076557983524006 l -2.825989212729003 0.30522335719065596" fill="#ff2503" stroke="none" /><path d="M 120.87857604477298 97.74499172005257 l 6.327259206174073 -0.6833809867444564 a27.36405677497918,27.36405677497918 0 0,0 0.0465487029046162,0.46873908576919504 l -6.338085034760918 0.5743663702708264" fill="#ff5608" stroke="none" /><path d="M 120.91429891909075 98.10471618934814 l 0.5100529852473665 -0.04622173419504777 a21.51214304297896,21.51214304297896 0 0,0 0.030245577499658036,0.36907265473433515 l -0.5107730465665192 0.03743516225294384" fill="#ff0400" stroke="none" /><path d="M 120.94382443527127 98.46500227214037 l 2.4096956765515123 -0.17660945352991567 a23.416158966762573,23.416158966762573 0 0,0 0.026002428002455218,0.4022460522509338 l -2.412378695558383 0.13510433702594662" fill="#ff1f03" stroke="none" /><path d="M 120.96714384426684 98.82574320788733 l 2.224922197294293 -0.12460590824865499 a23.228408718431908,23.228408718431908 0 0,0 0.018921631411902968,0.3994057332879639 l -2.2267374369396924 0.08628906833769133" fill="#ff1c02" stroke="none" /><path d="M 120.98425023603335 99.18683210126433 l 0.32735180124706226 -0.012685322247554741 a21.327597495686735,21.327597495686735 0 0,0 0.011058161812383636,0.3669665551854975 l -0.32752165751509094 0.0070486196370581925" fill="#ff0100" stroke="none" /><line stroke="#e1ed5e" stroke-width="0.3" x1="184.98032266829074" x2="189.97916517819016" y1="98.17113171792111" y2="98.06355123074" /><path d="M 185.9800911702706 98.14961562048488 a86.0,86.0 0 0,1 -9.607161424134198,41.387399972396054" fill="none" id="id28" stroke="none" /><text fill="#e1ed5e" style="font-size:6.75px; font-family:Arial;" text-anchor="middle"><textPath startOffset="21.466115282336823" xlink:href="#id28">April</textPath></text><path d="M 120.99513854157772 99.54816195383933 l 1.8255793511439893 -0.03928843839247051 a22.826002067007217,22.826002067007217 0 0,0 0.005072799484653942,0.392893910507621 l -1.8259851577463586 0.007858269824386786" fill="#ff1702" stroke="none" /><path d="M 120.99980553446 99.90962569577887 l 2.691307241117823 -0.0115822510338102 a23.691332163563658,23.691332163563658 0 0,0 -0.0017550795077209726,0.40781866789792637 l -2.6911078643205992 -0.03474589506780089" fill="#ff2303" stroke="none" /><path d="M 120.99824983174949 100.27111621757518 l 6.1304249324794835 0.07915219759455407 a27.130935892924516,27.130935892924516 0 0,0 -0.010048700889154674,0.4669236447070683 l -6.128154168905321 -0.1846656580917372" fill="#ff5307" stroke="none" /><path d="M 120.9764740272857 100.99374915477107 l 4.726223620046344 0.22390229747720047 a25.731524272948363,25.731524272948363 0 0,0 -0.024768000132495284,0.4422492805670784 l -4.721669269026319 -0.3052232943797022" fill="#ff3f05" stroke="none" /><path d="M 120.95626037817324 101.35467743843564 l 1.915834905599715 0.12384548939306729 a22.919833610174923,22.919833610174923 0 0,0 -0.028839089467695176,0.3934864630234415 l -1.913419257467682 -0.15680508891327904" fill="#ff1802" stroke="none" /><path d="M 120.92983693683757 101.71520430193887 l 1.384323575654129 0.11344559250045094 a22.38896424164541,22.38896424164541 0 0,0 -0.03478328558675264,0.3838306580053756 l -1.382165693790301 -0.13725763905439706" fill="#ff1001" stroke="none" /><path d="M 120.89721153311464 102.0752229133903 l 1.641819898824535 0.16304291452004063 a22.649895624623387,22.649895624623387 0 0,0 -0.041867467589965464,0.38764075221024835 l -1.6387701297335175 -0.1912799886150804" fill="#ff1402" stroke="none" /><path d="M 120.8583938346157 102.4346265915055 l 5.856967579323826 0.683635045309334 a26.896730119347968,26.896730119347968 0 0,0 -0.057633917217404816,0.45939902673969496 l -5.8443321528595735 -0.7843518263364239" fill="#ff5007" stroke="none" /><path d="M 120.76222939487914 103.15116336523771 l 0.5562740544883854 0.0844278515662863 a21.562644546598513,21.562644546598513 0 0,0 -0.05885395032105515,0.3664836048296931 l -0.5547383498060419 -0.09399068608918432" fill="#ff0500" stroke="none" /><path d="M 120.70491114924044 103.5080841355445 l 0.9684748282997956 0.1640910775392211 a21.982277646482043,21.982277646482043 0 0,0 -0.06642160581700055,0.3725276395504418 l -0.9655067801436064 -0.18073746782288125" fill="#ff0b01" stroke="none" /><path d="M 120.5718875245553 104.21870165774334 l 0.48946605311885943 0.10037539079663317 a21.499652115209503,21.499652115209503 0 0,0 -0.07746627830416132,0.36189666238507096 l -0.487665736090255 -0.10878587259787316" fill="#ff0400" stroke="none" /><path d="M 120.49622156327973 104.57218783832717 l 0.8801433334039929 0.1963376826577656 a21.901776453987857,21.901776453987857 0 0,0 -0.0852494672602148,0.3672524737711586 l -0.8766333002132252 -0.21145881377748915" fill="#ff0901" stroke="none" /><path d="M 120.41448212921028 104.9243191809786 l 5.71429746345925 1.3783854239861772 a26.878192058614143,26.878192058614143 0 0,0 -0.11236195975955562,0.44883017534695124 l -5.689724189404633 -1.4765434387305243" fill="#ff4f07" stroke="none" /><path d="M 120.02730092923936 106.31721596034902 l 5.709237798724546 1.8008661412219775 a26.98652780006782,26.98652780006782 0 0,0 -0.14355258444919278,0.44180942587824407 l -5.6773929632591065 -1.8988744670780167" fill="#ff5107" stroke="none" /><path d="M 119.9155931802556 106.66101706037122 l 2.35024226094585 0.7860676633868066 a23.478213279069873,23.478213279069873 0 0,0 -0.13148824546138155,0.38216638959415944 l -2.3363631845412374 -0.8264067560702664" fill="#ff2003" stroke="none" /><path d="M 119.79798401119884 107.00284435728193 l 0.9578604743251014 0.3388096390974278 a22.016016072618754,22.016016072618754 0 0,0 -0.12944970734701935,0.3561899981819356 l -0.9518865059728553 -0.3552474342854945" fill="#ff0b01" stroke="none" /><path d="M 119.67450827220406 107.3425965602758 l 6.34231854575464 2.3669758701936 a27.769607027435345,27.769607027435345 0 0,0 -0.17098900200417833,0.4463983281317565 l -6.300635264156956 -2.4757977651585" fill="#ff5b08" stroke="none" /><path d="M 119.54520255179757 107.68017299344265 l 0.5370225349632397 0.21101986326130254 a21.57699444169694,21.57699444169694 0 0,0 -0.1388093114883824,0.3445133274453849 l -0.5333106092174649 -0.22023255854950094" fill="#ff0500" stroke="none" /><path d="M 119.41010516605496 108.01547362559984 l 1.3408077778948742 0.5536914554955922 a22.450634249268994,22.450634249268994 0 0,0 -0.15057856217237534,0.35592324078730264 l -1.33107823453019 -0.5766892219490584" fill="#ff1101" stroke="none" /><path d="M 119.26925614724726 108.34839909993367 l 1.4019809682282767 0.6074078087831695 a22.527905390214023,22.527905390214023 0 0,0 -0.1572221608222037,0.35449446721578914 l -1.3913177226748 -0.6314506124916462" fill="#ff1202" stroke="none" /><path d="M 119.12269723197855 108.67885076344098 l 1.4867258279800721 0.6747516540509099 a22.632679846824683,22.632679846824683 0 0,0 -0.1640603981725864,0.35337150216555446 l -1.4748908129676543 -0.7002432234952949" fill="#ff1402" stroke="none" /><path d="M 118.97047184881838 109.00673069616215 l 0.5161809163890594 0.2450704727570618 a21.571403775855234,21.571403775855234 0 0,0 -0.16214170648894305,0.33405994015430857 l -0.5118859532854021 -0.25391936887664585" fill="#ff0500" stroke="none" /><path d="M 118.81262510543309 109.33194174019688 l 1.4374456808155265 0.713040273374401 a22.60457985676907,22.60457985676907 0 0,0 -0.17590811948170046,0.3470834081450143 l -1.4249588915475568 -0.7376778932221096" fill="#ff1302" stroke="none" /><path d="M 118.64920377521936 109.65438752849418 l 0.26015901899456195 0.13468006563067528 a21.292952957388206,21.292952957388206 0 0,0 -0.1713043330779087,0.3240432404599315 l -0.2578021776917602 -0.1391383211767411" fill="#ff0100" stroke="none" /><line stroke="#e1ed5e" stroke-width="0.3" x1="174.80103733775053" x2="179.2010983576182" y1="140.37084112569926" y2="142.7455964860345" /><path d="M 175.68104954172406 140.8457921977663 a86.0,86.0 0 0,1 -30.038265399797805,32.042727171017184" fill="none" id="id29" stroke="none" /><text fill="#e1ed5e" style="font-size:6.75px; font-family:Arial;" text-anchor="middle"><textPath startOffset="22.206326154141568" xlink:href="#id29">May</textPath></text><path d="M 118.30583269289576 110.29060199501025 l 3.392291522744086 1.9069726298303937 a24.89155320999259,24.89155320999259 0 0,0 -0.21317600749923793,0.371690337734068 l -3.3589635190924683 -1.965082813422777" fill="#ff3404" stroke="none" /><path d="M 117.94076556474637 110.91462005526583 l 6.273731240166249 3.816748653681788 a28.343519180830107,28.343519180830107 0 0,0 -0.25716393524749853,0.41463014639855933 l -6.207102665250788 -3.9241751314456206" fill="#ff6309" stroke="none" /><path d="M 117.55443506779139 111.5257021239791 l 0.3918353679184989 0.25726705045351134 a21.46874437682054,21.46874437682054 0 0,0 -0.20548337859390348,0.3071697706469634 l -0.38734888391387434 -0.26397373530628154" fill="#ff0300" stroke="none" /><path d="M 117.35343817320211 111.8261652097733 l 1.388935812598147 0.9465435161385931 a22.68079960716966,22.68079960716966 0 0,0 -0.22263806932663482,0.3207267439968688 l -1.372436836109376 -0.9703115223224815" fill="#ff1502" stroke="none" /><path d="M 117.14729908036423 112.12312394758627 l 2.2736520719251456 1.6074698267319996 a23.78450228730797,23.78450228730797 0 0,0 -0.23922702435086377,0.3322654134365173 l -2.2456452551986787 -1.646368845619648" fill="#ff2403" stroke="none" /><path d="M 116.498646956653 112.99209946851258 l 1.3914182402854556 1.095692527247013 a22.771041172210296,22.771041172210296 0 0,0 -0.2451487872808662,0.3058608054821056 l -1.3723515409497353 -1.119481166307369" fill="#ff1602" stroke="none" /><path d="M 116.27256486870786 113.27417163493432 l 1.5119056450120856 1.2333209416979967 a22.951137930708704,22.951137930708704 0 0,0 -0.25235759786646017,0.3039809834217037 l -1.4904520472520821 -1.2591631822334708" fill="#ff1802" stroke="none" /><path d="M 115.56566222782051 114.09645910891815 l 1.8506959707079598 1.676013502817554 a23.49681734166147,23.49681734166147 0 0,0 -0.27407760992897084,0.29745711459252083 l -1.821571952783267 -1.7076218722114096" fill="#ff2003" stroke="none" /><path d="M 115.32070863581623 114.36230785411682 l 0.9175241749296053 0.8601276205414541 a22.25764467764093,22.25764467764093 0 0,0 -0.26443507280029865,0.277259116633624 l -0.9025825507503421 -0.8757938537575852" fill="#ff0e01" stroke="none" /><path d="M 115.07121518719521 114.62390073753431 l 1.1137782684343038 1.0807212715696957 a22.551921550227245,22.551921550227245 0 0,0 -0.2727272333663004,0.27627124751420307 l -1.0950104100124678 -1.0997330130645635" fill="#ff1302" stroke="none" /><path d="M 114.55890576462653 115.13401014063108 l 4.352713069330846 4.524653486703866 a27.278423387974485,27.278423387974485 0 0,0 -0.34119353896840937,0.32261978732156354 l -4.274183695971629 -4.598907910771351" fill="#ff5507" stroke="none" /><path d="M 114.0293411484842 115.62618273729858 l 20.334565331464546 22.649077414967046 a51.438056031369186,51.438056031369186 0 0,0 -0.6639370685200969,0.5858472683297072 l -19.94168591003786 -22.995747825069042" fill="#84ff25" stroke="none" /><path d="M 113.48314897796784 116.09983520530334 l 4.031047471130813 4.813356293549044 a27.27835508100317,27.27835508100317 0 0,0 -0.36258113082250887,0.2983795862692151 l -3.9475962117636128 -4.882030998675438" fill="#ff5507" stroke="none" /><path d="M 113.20401910651253 116.32954008644616 l 3.755577917542764 4.644560088680781 a26.9729644157739,26.9729644157739 0 0,0 -0.36354740367077687,0.2888240445644805 l -3.675073021154636 -4.708518047250387" fill="#ff5107" stroke="none" /><path d="M 112.63410532772338 116.77436683061366 l 1.64280923310828 2.181166295044898 a23.730624211242862,23.730624211242862 0 0,0 -0.3284036217683942,0.24294514836249434 l -1.6050206409213215 -2.2091213921471615" fill="#ff2303" stroke="none" /><path d="M 112.34349029814194 116.9893568818739 l 3.2073374701146435 4.414521306715547 a26.456648423221615,26.456648423221615 0 0,0 -0.3707366013173342,0.26451072137264126 l -3.130873540948425 -4.469076289932407" fill="#ff4906" stroke="none" /><path d="M 112.04921762599082 117.19931262002967 l 6.681198579327376 9.536886676731452 a32.644338621889354,32.644338621889354 0 0,0 -0.462994834027098,0.31845206865613446 l -6.5160468606773945 -9.650479534752682" fill="#ff9c0e" stroke="none" /><path d="M 111.1453310114006 117.79835938074945 l 5.626490496347195 8.985134654495486 a31.60141688949647,31.60141688949647 0 0,0 -0.46351874826549305,0.28473107333605774 l -5.470992548149393 -9.080654194659921" fill="#ff8f0d" stroke="none" /><line stroke="#e1ed5e" stroke-width="0.3" x1="143.8653032363475" x2="146.44561519142675" y1="172.8068346515853" y2="177.08958963109032" /><path d="M 144.38136562736335 173.6633856474863 a86.0,86.0 0 0,1 -40.68145358897372,12.25698825130547" fill="none" id="id30" stroke="none" /><text fill="#e1ed5e" style="font-size:6.75px; font-family:Arial;" text-anchor="middle"><textPath startOffset="21.466115282336833" xlink:href="#id30">June</textPath></text><path d="M 110.8373102113329 117.98757091392108 l 0.6576563938278351 1.0915661534354872 a22.27437380688265,22.27437380688265 0 0,0 -0.33011908482979657,0.1950401741367758 l -0.6387694379696565 -1.1027248998660126" fill="#ff0f01" stroke="none" /><path d="M 110.5260780823613 118.17145234162733 l 4.556289079632429 7.8656446605652235 a30.09000198588845,30.09000198588845 0 0,0 -0.45042043940988585,0.25576048074830626 l -4.4202198733013445 -7.9429083071081585" fill="#ff7b0b" stroke="none" /><path d="M 110.21172684928248 118.3499491758327 l 6.038241506953988 10.850410160725596 a33.41739751929845,33.41739751929845 0 0,0 -0.5050437933020255,0.2753901445035453 l -5.850574901783314 -10.952740956988912" fill="#ffa60f" stroke="none" /><path d="M 109.57404056367764 118.69057910512821 l 12.240167110379078 23.895429533113454 a47.84796535050648,47.84796535050648 0 0,0 -0.7362801442069925,0.3691861492304508 l -11.827033058489326 -24.10258352325321" fill="#abff21" stroke="none" /><path d="M 109.2508944713604 118.85261126421891 l 3.382198541386139 6.892660435870731 a28.67776236006118,28.67776236006118 0 0,0 -0.4450342601544613,0.21364348956159313 l -3.2630516132314447 -6.949858201931884" fill="#ff6809" stroke="none" /><path d="M 108.2653958097858 119.30500536409082 l 1.0008813794134668 2.3377005582139603 a23.54295250359311,23.54295250359311 0 0,0 -0.373916504173524,0.15629712907005944 l -0.9604934157424817 -2.354582730303993" fill="#ff2103" stroke="none" /><path d="M 107.59598834532513 119.57807347666477 l 4.9675320323926 12.803430272207121 a34.733324478367074,34.733324478367074 0 0,0 -0.5592557780062858,0.21146268162730583 l -4.746406033626039 -12.887041203941058" fill="#ffb711" stroke="none" /><path d="M 106.91757812671514 119.82793768551818 l 0.11332658150012045 0.324829348499777 a21.34403055056389,21.34403055056389 0 0,0 -0.34793846088431063,0.11803961693798574 l -0.10771838767858287 -0.3267319523358858" fill="#ff0100" stroke="none" /><path d="M 106.57524785965236 119.94407469862006 l 2.721329436149347 8.254350058369615 a29.691370938244404,29.691370938244404 0 0,0 -0.4867669166202251,0.15584739510920942 l -2.5788411744381814 -8.299970300138533" fill="#ff750a" stroke="none" /><path d="M 105.88484417918355 120.15858648285463 l 0.37577706954160944 1.2872277198814748 a22.340956229272432,22.340956229272432 0 0,0 -0.3700820165191968,0.10458887451767156 l -0.3535638849178069 -1.2935053877376654" fill="#ff1001" stroke="none" /><path d="M 105.53697534728816 120.25689768951611 l 1.5034091988750524 5.500188174398313 a26.701956609187164,26.701956609187164 0 0,0 -0.4444090014544579,0.11737245645468168 l -1.408509754609097 -5.525251980156579" fill="#ff4d07" stroke="none" /><path d="M 105.18746579009965 120.34920634021253 l 6.881748776167775 26.99547939092103 a48.85882936815416,48.85882936815416 0 0,0 -0.8167491219515451,0.20073706276827905 l -6.41604636947302 -27.10993771200334" fill="#a0ff22" stroke="none" /><path d="M 104.48393922423573 120.51570834832081 l 0.05353013982816049 0.24492052225497293 a21.250702090321703,21.250702090321703 0 0,0 -0.358032373817923,0.07502916501711161 l -0.04930630458085946 -0.24580566799862572" fill="#ff0000" stroke="none" /><path d="M 104.13013068566511 120.58985236759428 l 0.5368581251078539 2.6763873542016228 a23.729700700850678,23.729700700850678 0 0,0 -0.40118153549154834,0.07688739609705712 l -0.4907089750446012 -2.6852319486471483" fill="#ff2303" stroke="none" /><path d="M 101.98527174616119 120.90594882070398 l 0.2583696451536873 2.7207673654001985 a23.733007488127974,23.733007488127974 0 0,0 -0.40702750018723005,0.0351200453985551 l -0.21149782722491559 -2.7248116630774173" fill="#ff2303" stroke="none" /><path d="M 101.26447882468166 120.96189622390904 l 0.32679978546317606 5.417523057849095 a26.427370835137893,26.427370835137893 0 0,0 -0.45431410437840025,0.023482849835743953 l -0.2334976126712962 -5.422345714447041" fill="#ff4906" stroke="none" /><path d="M 100.90346689309514 120.98055641714683 l 0.5350236094465951 12.42446525521741 a33.43597954086327,33.43597954086327 0 0,0 -0.5752256633303144,0.019811934916569802 l -0.3210775944416283 -12.431833988560074" fill="#ffa70f" stroke="none" /><line stroke="#e1ed5e" stroke-width="0.3" x1="102.19456741930631" x2="102.32365962044197" y1="184.97166512339345" y2="189.96999836594603" /><path d="M 102.22038585953345 185.97133177190398 a86.0,86.0 0 0,1 -42.740103519485714,-10.115201625700543" fill="none" id="id31" stroke="none" /><text fill="#e1ed5e" style="font-size:6.75px; font-family:Arial;" text-anchor="middle"><textPath startOffset="22.20632615414155" xlink:href="#id31">July</textPath></text><path d="M 97.65516085044442 120.86867818915974 l -3.654462925911594 32.52411184345777 a53.728778628030284,53.728778628030284 0 0,0 -0.9181802496448889,-0.11117884131018316 l 4.213770598607872 -32.45638747342223" fill="#6cff28" stroke="none" /><path d="M 93.08242187328487 119.8279376855182 l -1.6526020680472817 4.736873255923751 a26.016877698130564,26.016877698130564 0 0,0 -0.4215730749601207,-0.15116110582912345 l 1.733894703637129 -4.70772460905467" fill="#ff4306" stroke="none" /><path d="M 92.7421414339146 119.70592522655815 l -3.7890640739619297 10.287747086866148 a31.963336475722702,31.963336475722702 0 0,0 -0.5146550431571864,-0.19459850004055365 l 3.9655893378793987 -10.22100033671896" fill="#ff930d" stroke="none" /><path d="M 90.42595943632237 118.69057910512821 l -11.599750241446786 22.645198549713538 a46.443254961185545,46.443254961185545 0 0,0 -0.7083903371594856,-0.3705963438068822 l 11.987831481132767 -22.442172786961937" fill="#baff1f" stroke="none" /><path d="M 90.10565033884886 118.52300852407294 l -0.6142537770859082 1.1499318639990883 a22.303706636672807,22.303706636672807 0 0,0 -0.3370803665359027,-0.1838030920897134 l 0.6339569554904514 -1.139188120149609" fill="#ff0f01" stroke="none" /><line stroke="#e1ed5e" stroke-width="0.3" x1="58.666819895761336" x2="56.23545636021788" y1="174.27360380694188" y2="178.64263932499728" /><path d="M 58.180547188652646 175.14741091055294 a86.0,86.0 0 0,1 -31.652253787137756,-30.449443065178592" fill="none" id="id32" stroke="none" /><text fill="#e1ed5e" style="font-size:6.75px; font-family:Arial;" text-anchor="middle"><textPath startOffset="22.20632615414155" xlink:href="#id32">August</textPath></text><path d="M 88.54995079064634 117.60387380957326 l -2.9891191542529696 4.595620108799332 a26.482203708612328,26.482203708612328 0 0,0 -0.3799884766917767,-0.2518356422129861 l 3.0677823296847078 -4.543486445495027" fill="#ff4a06" stroke="none" /><path d="M 88.24862548938628 117.40417183066458 l -6.1489463755137175 9.106791652357437 a31.988320878477765,31.988320878477765 0 0,0 -0.45369053076802196,-0.3120524840333719 l 6.30479379090463 -8.999598378958964" fill="#ff940d" stroke="none" /><path d="M 87.95078237400918 117.19931262002967 l -14.732990281635596 21.030187481643445 a46.67741786379311,46.67741786379311 0 0,0 -0.6540899278044047,-0.46667579632373846 l 15.092807537288888 -20.773467423475488" fill="#b8ff1f" stroke="none" /><path d="M 86.24171649860922 115.8653595955263 l -28.906512838558697 33.33353472401348 a65.12154826932948,65.12154826932948 0 0,0 -0.8405568404268821,-0.7416936818086889 l 29.476012031892168 -32.8310179004325" fill="#36ff6d" stroke="none" /><path d="M 85.18274418774928 114.88116024355367 l -3.876661609318627 3.8933810247513145 a26.49426255625434,26.49426255625434 0 0,0 -0.3204031599238544,-0.3245667094080269 l 3.9431053942980148 -3.8260738213626233" fill="#ff4a06" stroke="none" /><path d="M 84.9287848128048 114.62390073753433 l -1.0475663282273397 1.0164745051875896 a22.45966284865104,22.45966284865104 0 0,0 -0.2668351780464693,-0.27977561738873924 l 1.0649080576527665 -0.9982917712163503" fill="#ff1101" stroke="none" /><path d="M 83.06392112726016 112.41649034213515 l -0.9355215055728756 0.6858667715289269 a22.160005911914613,22.160005911914613 0 0,0 -0.22288766903201765,-0.3095714779790406 l 0.9471889669805007 -0.6696616880987482" fill="#ff0d01" stroke="none" /><path d="M 82.6465618267979 111.8261652097733 l -9.086767255145633 6.192525637257128 a31.996213571828882,31.996213571828882 0 0,0 -0.3062447412644118,-0.45779433635815714 l 9.192015101820775 -6.035194386693149" fill="#ff940d" stroke="none" /><line stroke="#e1ed5e" stroke-width="0.3" x1="26.63291911575756" x2="22.317208475507996" y1="142.92168965132927" y2="145.44649492493687" /><path d="M 25.769776987707644 143.4266507060508 a86.0,86.0 0 0,1 -11.730757126820373,-40.83630448921669" fill="none" id="id33" stroke="none" /><text fill="#e1ed5e" style="font-size:6.75px; font-family:Arial;" text-anchor="middle"><textPath startOffset="21.46611528233685" xlink:href="#id33">September</textPath></text><path d="M 81.69416730710424 110.29060199501025 l -4.798755203983378 2.6976145092182375 a26.505013673743445,26.505013673743445 0 0,0 -0.22014760250052293,-0.39963184473219104 l 4.844479215935417 -2.614612146088224" fill="#ff4a06" stroke="none" /><path d="M 81.35079622478065 109.6543875284942 l -0.7373571410725352 0.38171772224806894 a21.830303542669135,21.830303542669135 0 0,0 -0.1698827259005983,-0.33519473498026753 l 0.7438185367594002 -0.3689687755651164" fill="#ff0801" stroke="none" /><path d="M 81.18737489456691 109.33194174019688 l -0.7447175264014084 0.3694147164647646 a21.831307059316938,21.831307059316938 0 0,0 -0.16409527253129882,-0.33808486482871003 l 0.7509660555474261 -0.35654089567076985" fill="#ff0801" stroke="none" /><path d="M 80.87730276802145 108.67885076344099 l -5.0094572829088735 2.2735460189943306 a26.501242929536353,26.501242929536353 0 0,0 -0.18495206747741363,-0.4170180862417367 l 5.047850435117566 -2.186979596259898" fill="#ff4a06" stroke="none" /><path d="M 80.58989483394504 108.01547362559985 l -5.072233736395148 2.094597396002485 a26.487703830197606,26.487703830197606 0 0,0 -0.17040093056115585,-0.4229211351741811 l 5.107537281213692 -2.0069768929854983" fill="#ff4a06" stroke="none" /><path d="M 80.32549172779594 107.34259656027581 l -10.569079599770575 3.9444181496619914 a32.28112929301271,32.28112929301271 0 0,0 -0.1898064902400306,-0.5222659424967349 l 10.63541035101583 -3.7619044101591395" fill="#ff980e" stroke="none" /><path d="M 80.20201598880116 107.00284435728193 l -6.247159795567379 2.209714266800161 a27.626450230119715,27.626450230119715 0 0,0 -0.1547201835977445,-0.44968927644761403 l 6.284270810108351 -2.10185228726325" fill="#ff5a08" stroke="none" /><path d="M 79.97269907076064 106.31721596034903 l -2.373872430853076 0.7487911057512212 a23.48916822212088,23.48916822212088 0 0,0 -0.11831072066667454,-0.38664628055117894 l 2.3864099240258807 -0.7078178526479945" fill="#ff2003" stroke="none" /><path d="M 79.86692584326677 105.97154293290107 l -5.273179681959878 1.5640442497051048 a26.50024166498801,26.50024166498801 0 0,0 -0.12594853535540249,-0.4384433744677011 l 5.299320854201384 -1.4730433997328078" fill="#ff4a06" stroke="none" /><path d="M 79.67330655649465 105.27499134158121 l -5.427629739425395 1.4085271645559028 a26.607415925503197,26.607415925503197 0 0,0 -0.11123000352879307,-0.44430857288802145 l 5.451071057249247 -1.3148907522704893" fill="#ff4c07" stroke="none" /><path d="M 79.58551787078972 104.9243191809786 l -2.006845905616172 0.48408525495505084 a23.064405246784965,23.064405246784965 0 0,0 -0.08977483009621606,-0.38674761842890376 l 2.0148813016429434 -0.4494689791775729" fill="#ff1a02" stroke="none" /><path d="M 79.35854240842038 103.8639653848113 l -2.2075398918724183 0.41323911792279255 a23.245884890814686,23.245884890814686 0 0,0 -0.07023971891885199,-0.3939416454883354 l 2.214326053130459 -0.3751787217012435" fill="#ff1d02" stroke="none" /><path d="M 79.29508885075956 103.50808413554451 l -5.424622073476462 0.9191070901062744 a26.50193443100985,26.50193443100985 0 0,0 -0.07233544702940899,-0.45043289770171324 l 5.439639274867161 -0.8255949627113475" fill="#ff4a06" stroke="none" /><path d="M 79.23777060512086 103.15116336523772 l -2.3731130989229876 0.36017649726653606 a23.400290167763693,23.400290167763693 0 0,0 -0.05701419299621795,-0.3987571330241309 l 2.3789613429358045 -0.31927389226200453" fill="#ff1f03" stroke="none" /><path d="M 79.18660465613746 102.79330883721812 l -14.886500573628556 1.9978765079207121 a36.01996703956253,36.01996703956253 0 0,0 -0.07718305494088523,-0.615224888963991 l 14.91868513781629 -1.7413338646693126" fill="#ffc712" stroke="none" /><path d="M 79.1416061653843 102.43462659150553 l -44.98691728520644 5.250948177546548 a66.29233029541851,66.29233029541851 0 0,0 -0.12253884239048761,-1.134557492333443 l 45.070638429097976 -4.4757943633283235" fill="#37ff7a" stroke="none" /><path d="M 79.04373962182676 101.35467743843564 l -5.219622084325265 0.3374125033376888 a26.230516408595296,26.230516408595296 0 0,0 -0.025248307367723297,-0.4508254889042591 l 5.22465674258052 -0.24751529809799208" fill="#ff4606" stroke="none" /><path d="M 79.0235259727143 100.99374915477108 l -1.232585054646694 0.05839305283839984 a22.23396744914855,22.23396744914855 0 0,0 -0.01482038678780504,-0.3824483300848868 l 1.2334075742856998 -0.037167475739516245" fill="#ff0e01" stroke="none" /><path d="M 79.0095281055655 100.63252640178507 l -8.003412783675142 0.2411746584602021 a29.007045734962308,29.007045734962308 0 0,0 -0.010743570639031365,-0.499211511545566 l 8.00637841699918 -0.10337333112450729" fill="#ff6c0a" stroke="none" /><line stroke="#e1ed5e" stroke-width="0.3" x1="15.007084014347285" x2="10.007500721073583" y1="101.09737516637583" y2="101.16192664675087" /><path d="M 14.007167355692545 101.11028546245083 a86.0,86.0 0 0,1 10.666146001902534,-42.60595125391555" fill="none" id="id34" stroke="none" /><text fill="#e1ed5e" style="font-size:6.75px; font-family:Arial;" text-anchor="middle"><textPath startOffset="22.20632615414155" xlink:href="#id34">October</textPath></text><path d="M 79.00019446554 99.90962569577889 l -62.99941660337998 -0.27112291266336075 a84.0,84.0 0 0,0 0.018667971529137795,-1.445854967758112 l 62.98541562473312 1.3555141384819447" fill="#4dd2ff" stroke="none" /><line stroke="#e1ed5e" stroke-width="0.3" x1="26.266209847984243" x2="21.928928074336255" y1="57.711370442889674" y2="55.22380399835377" /><path d="M 25.398753493254645 57.213857153982495 a86.0,86.0 0 0,1 29.58750427330803,-30.492523968695096" fill="none" id="id35" stroke="none" /><text fill="#e1ed5e" style="font-size:6.75px; font-family:Arial;" text-anchor="middle"><textPath startOffset="21.46611528233685" xlink:href="#id35">November</textPath></text><line stroke="#e1ed5e" stroke-width="0.3" x1="56.762969772571076" x2="54.21961505331055" y1="26.818313649435495" y2="22.513508569990535" /><path d="M 56.25429882871897 25.957352633546506 a86.0,86.0 0 0,1 42.265352541879196,-11.944610805530505" fill="none" id="id36" stroke="none" /><text fill="#e1ed5e" style="font-size:6.75px; font-family:Arial;" text-anchor="middle"><textPath startOffset="22.20632615414155" xlink:href="#id36">December</textPath></text></svg>