<?xml version="1.0" encoding="utf-8" ?>
<svg baseProfile="full" height="200mm" version="1.1" viewBox="0,0,200,200" width="200mm" xmlns="http://www.w3.org/2000/svg" xmlns:ev="http://www.w3.org/2001/xml-events" xmlns:xlink="http://www.w3.org/1999/xlink"><defs /><rect fill="#1a1a1a" height="200" width="200" x="0" y="0" /><text alignment-baseline="middle" fill="#e1ed5e" style="dominant-baseline: central; font-size:9.0px; font-family:Arial;" text-anchor="middle" x="100.0" y="100.0">2022</text><line stroke="#e1ed5e" stroke-width="0.3" x1="100.0" x2="100.0" y1="15.0" y2="10.0" /><path d="M 100.0 14.0 a86.0,86.0 0 0,1 42.46469731375804,11.215312516191453" fill="none" id="id25" stroke="none" /><text fill="#e1ed5e" style="font-size:6.75px; font-family:Arial;" text-anchor="middle"><textPath startOffset="22.20632615414155" xlink:href="#id25">January</textPath></text><path d="M 100.36148047927253 79.00311137660856 l 1.084441437817585 -62.990665870174325 a84.0,84.0 0 0,0 1.4454934592205289,0.03733283143056143 l -2.1685615322329816 62.9626662466014" fill="#4dd2ff" stroke="none" /><path d="M 102.52436894288641 79.15227682838746 l 2.7235986745184895 -22.493079451376925 a43.657374361249225,43.657374361249225 0 0,0 0.7452631285965251,0.09675654328683644 l -3.1103765316228604 22.44286458492595" fill="#e5ff1a" stroke="none" /><line stroke="#e1ed5e" stroke-width="0.3" x1="143.23703022742887" x2="145.7803849466894" y1="26.81831364943548" y2="22.513508569990506" /><path d="M 143.74570117128098 25.957352633546492 a86.0,86.0 0 0,1 28.547481713284135,27.462654790039103" fill="none" id="id26" stroke="none" /><text fill="#e1ed5e" style="font-size:6.75px; font-family:Arial;" text-anchor="middle"><textPath startOffset="19.985693538727396" xlink:href="#id26">February</textPath></text><path d="M 117.45458315368197 88.32363383020206 l 21.713479519045773 -14.525384848924592 a47.12397362258254,47.12397362258254 0 0,0 0.44521690104879863,0.6780958848731912 l -21.960293055452496 14.149470900073727" fill="#bcff1f" stroke="none" /><line stroke="#e1ed5e" stroke-width="0.3" x1="172.23445277983987" x2="176.4835382374775" y1="55.19839476539836" y2="52.563006222186495" /><path d="M 173.08426987136738 54.67131705675599 a86.0,86.0 0 0,1 12.851231095245387,41.99856678651699" fill="none" id="id27" stroke="none" /><text fill="#e1ed5e" style="font-size:6.75px; font-family:Arial;" text-anchor="middle"><textPath startOffset="22.20632615414155" xlink:href="#id27">March</textPath></text><path d="M 118.56541770881063 90.18545643968196 l 17.613061796565876 -9.31108391657317 a40.92275657511068,40.92275657511068 0 0,0 0.3238560053270581,0.6255867209957313 l -17.770727235053048 9.006524473317095" fill="#fff817" stroke="none" /><path d="M 119.7369772167798 92.82701384747503 l 3.0841061851031695 -1.1208530422710294 a24.28146651717793,24.28146651717793 0 0,0 0.13938361819359824,0.3940562582331868 l -3.102942884106577 1.067599157611228" fill="#ff1802" stroke="none" /><path d="M 120.45610955862082 95.25157060432595 l 17.64414262299773 -4.095694015150581 a39.11326802005716,39.11326802005716 0 0,0 0.14659208266058088,0.6571435627485442 l -17.712029092660348 3.791372282852073" fill="#ffe115" stroke="none" /><path d="M 120.53481517161879 95.60439243477599 l 4.641012333117124 -0.9934381561876717 a25.746147368794485,25.746147368794485 0 0,0 0.0890334928284812,0.434158930633069 l -4.657425121860602 0.9134035693911909" fill="#ff2d04" stroke="none" /><path d="M 120.6074358757038 95.95851677861258 l 12.332391195210045 -2.4186003729746055 a33.567318741714445,33.567318741714445 0 0,0 0.10631932887581663,0.5679621061777583 l -12.37219624799572 2.2059601893342844" fill="#ff990e" stroke="none" /><path d="M 120.67395015179393 96.31383870115 l 11.251860287526936 -2.006204505061648 a32.42931390968659,32.42931390968659 0 0,0 0.09325456662772913,0.5503937310751991 l -11.28472671567489 1.8122249856706112" fill="#ff8a0c" stroke="none" /><path d="M 120.73433829027371 96.67025291283417 l 11.197140825280075 -1.7981594843106878 a32.340605812396895,32.340605812396895 0 0,0 0.08353748894882164,0.5504076772918304 l -11.226434207668197 1.6051526946267753" fill="#ff890c" stroke="none" /><path d="M 120.78858239683441 97.02765380044208 l 5.764887846682731 -0.8242621913735824 a26.823516123868657,26.823516123868657 0 0,0 0.06141818926534508,0.4576368489768986 l -5.778222035005912 0.7249070003320194" fill="#ff3c05" stroke="none" /><path d="M 120.83666639777658 97.38593545837742 l 15.894882523379442 -1.9940929131569864 a37.01947867373767,37.01947867373767 0 0,0 0.07387968015273878,0.6329559819883375 l -15.926852556535769 1.7201931928437961" fill="#ffc712" stroke="none" /><path d="M 120.87857604477298 97.74499172005257 l 35.65948660023482 -3.8514330368969496 a56.86687219468723,56.86687219468723 0 0,0 0.09673562515502747,0.974114543844409 l -35.72049935107208 3.237042962348106" fill="#52ff2b" stroke="none" /><path d="M 120.91429891909075 98.10471618934814 l 2.8745823428713573 -0.2604987811404317 a23.886361595663896,23.886361595663896 0 0,0 0.03358367408505589,0.40980588816478736 l -2.8786405007759077 0.2109789757678755" fill="#ff1202" stroke="none" /><path d="M 120.94382443527127 98.46500227214037 l 13.580684446242433 -0.9953444669185508 a34.617110583241825,34.617110583241825 0 0,0 0.03844050285409488,0.5946575649835625 l -13.595805540100942 0.761427837681953" fill="#ffa70f" stroke="none" /><path d="M 120.96714384426684 98.82574320788733 l 12.539328751311816 -0.7022602632064132 a33.55897826300985,33.55897826300985 0 0,0 0.027336810926220118,0.57703687256443 l -12.549559170471532 0.4863122840189834" fill="#ff990e" stroke="none" /><path d="M 120.98425023603335 99.18683210126433 l 1.844905794082502 -0.07149257900876584 a22.84629049119918,22.84629049119918 0 0,0 0.011845590067774643,0.39309746547955454 l -1.8458630786059218 0.039724966104212216" fill="#ff0300" stroke="none" /><line stroke="#e1ed5e" stroke-width="0.3" x1="184.98032266829074" x2="189.97916517819016" y1="98.17113171792111" y2="98.06355123074" /><path d="M 185.9800911702706 98.14961562048488 a86.0,86.0 0 0,1 -9.607161424134198,41.387399972396054" fill="none" id="id28" stroke="none" /><text fill="#e1ed5e" style="font-size:6.75px; font-family:Arial;" text-anchor="middle"><textPath startOffset="21.466115282336823" xlink:href="#id28">April</textPath></text><path d="M 120.99513854157772 99.54816195383933 l 10.288692194917726 -0.22142376291987023 a31.291074558302768,31.291074558302768 0 0,0 0.006954058202030048,0.5385994713882463 l -10.29097926023747 0.04428803347116124" fill="#ff7b0b" stroke="none" /><path d="M 120.99980553446 99.90962569577887 l 15.167805107163762 -0.06527583462009795 a36.16794556634116,36.16794556634116 0 0,0 -0.0026793605214602105,0.622589024527495 l -15.166681449352799 -0.1958226681110817" fill="#ffbc11" stroke="none" /><path d="M 120.99824983174949 100.27111621757518 l 34.55015807163114 0.446089947879478 a55.55303776828164,55.55303776828164 0 0,0 -0.02057562121043371,0.9560682672977798 l -34.537360387735696 -1.0407480309673727" fill="#60ff29" stroke="none" /><path d="M 120.9764740272857 100.99374915477107 l 26.63628948286196 1.2618798624306533 a47.66616316986811,47.66616316986811 0 0,0 -0.04588129032635658,0.8192412600845789 l -26.610621841648076 -1.7201928388506555" fill="#b6ff1f" stroke="none" /><path d="M 120.95626037817324 101.35467743843564 l 10.79735900148226 0.6979746562622654 a31.81989510243396,31.81989510243396 0 0,0 -0.040037672930766315,0.5462822370610617 l -10.783744769887155 -0.8837300298200974" fill="#ff820c" stroke="none" /><path d="M 120.92983693683757 101.71520430193887 l 7.801840637136928 0.6393623927526259 a28.827994736619814,28.827994736619814 0 0,0 -0.044786903181169936,0.49421974457176104 l -7.789679137678683 -0.7735635258729574" fill="#ff5908" stroke="none" /><path d="M 120.89721153311464 102.0752229133903 l 9.253051404153533 0.9188854820294629 a30.29856498697472,30.29856498697472 0 0,0 -0.05600574098167479,0.5185436046633995 l -9.235863361670807 -1.0780254085776537" fill="#ff6d0a" stroke="none" /><path d="M 120.8583938346157 102.4346265915055 l 33.00899332670105 3.852864872972369 a54.23308905551181,54.23308905551181 0 0,0 -0.11620986458949098,0.9263069606839373 l -32.93778195286471 -4.420489587943701" fill="#6eff28" stroke="none" /><path d="M 120.76222939487914 103.15116336523771 l 3.1350773764303317 0.4758227446532989 a24.170980517211465,24.170980517211465 0 0,0 -0.06597324755304945,0.41081547548922154 l -3.126422374515994 -0.5297174498357253" fill="#ff1602" stroke="none" /><path d="M 120.70491114924044 103.5080841355445 l 5.458179290129613 0.9247927720454705 a26.53596990909699,26.53596990909699 0 0,0 -0.08018103317678282,0.44969781532167447 l -5.441451814613641 -1.0186093381003634" fill="#ff3805" stroke="none" /><path d="M 120.5718875245553 104.21870165774334 l 2.7585574723144335 0.5657006906897689 a23.815964594860645,23.815964594860645 0 0,0 -0.0858122787987981,0.4008863981693826 l -2.7484111547911922 -0.6131009082753205" fill="#ff1101" stroke="none" /><path d="M 120.49622156327973 104.57218783832717 l 4.960356195488269 1.1065298157887964 a26.0822772277148,26.0822772277148 0 0,0 -0.10152145618265893,0.4373517761715316 l -4.940574173375057 -1.191750249308893" fill="#ff3204" stroke="none" /><path d="M 120.41448212921028 104.9243191809786 l 32.2049258909996 7.768374102428358 a54.128611317712306,54.128611317712306 0 0,0 -0.22627998317216463,0.9038760514857496 l -32.06643459353237 -8.321577993311504" fill="#6fff28" stroke="none" /><path d="M 120.02730092923936 106.31721596034902 l 32.176410377262975 10.149412239830239 a54.73917535417919,54.73917535417919 0 0,0 -0.2911804790496328,0.8961613667178651 l -31.996937647197097 -10.7017725065259" fill="#68ff28" stroke="none" /><path d="M 119.9155931802556 106.66101706037122 l 13.245613887562053 4.430159788944256 a34.96683940675038,34.96683940675038 0 0,0 -0.19582956796044787,0.5691723902819055 l -13.167393488658375 -4.657504882315463" fill="#ffac0f" stroke="none" /><path d="M 119.79798401119884 107.00284435728193 l 5.3983583785789335 1.9094804546075559 a26.72611463298646,26.72611463298646 0 0,0 -0.15714413117938222,0.4323931582868488 l -5.364689986394324 -2.002121409900536" fill="#ff3b05" stroke="none" /><path d="M 119.67450827220406 107.3425965602758 l 7.100090863377389 2.649779198026184 a28.578431240468397,28.578431240468397 0 0,0 -0.1759692685541047,0.45940023255531304 l -7.0534273152297775 -2.771602997414641" fill="#ff5507" stroke="none" /><path d="M 119.54520255179757 107.68017299344265 l 3.026578691585675 1.1892763898477727 a24.251854379859253,24.251854379859253 0 0,0 -0.1560172441013996,0.38722200497861137 l -3.005658833226883 -1.2411977626691977" fill="#ff1702" stroke="none" /><path d="M 119.41010516605496 108.01547362559984 l 7.556592109056939 3.120522234752647 a29.175557676406378,29.175557676406378 0 0,0 -0.19568327008995418,0.46253744658913326 l -7.501757857774676 -3.2501342070079438" fill="#ff5e08" stroke="none" /><path d="M 119.26925614724726 108.34839909993367 l 7.9013550608985454 3.4232595682259945 a29.611046270334278,29.611046270334278 0 0,0 -0.20665537244534662,0.4659533094392361 l -7.841258603721926 -3.558761214157918" fill="#ff6409" stroke="none" /><path d="M 119.12269723197855 108.67885076344098 l 8.37896441627459 3.802799408413034 a30.201539438040914,30.201539438040914 0 0,0 -0.21892575776108203,0.47154660566764756 l -8.312264041673677 -3.946466081359512" fill="#ff6c09" stroke="none" /><path d="M 118.97047184881838 109.00673069616215 l 2.90911844631108 1.381180532459639 a24.220346223298495,24.220346223298495 0 0,0 -0.18205251309579865,0.3750820991505429 l -2.884912676600567 -1.4310515875754573" fill="#ff1702" stroke="none" /><path d="M 118.81262510543309 109.33194174019688 l 10.586003406395937 5.2511526964667254 a32.816855451508076,32.816855451508076 0 0,0 -0.25537972244367513,0.5038884202619169 l -10.494045014165993 -5.432595328431336" fill="#ff8f0d" stroke="none" /><path d="M 118.64920377521936 109.65438752849418 l 1.466217322456814 0.7590367075509474 a22.651039054681085,22.651039054681085 0 0,0 -0.1822302968756361,0.34471104640826844 l -1.4529345173562849 -0.7841627690453502" fill="#ff0000" stroke="none" /><line stroke="#e1ed5e" stroke-width="0.3" x1="174.80103733775053" x2="179.2010983576182" y1="140.37084112569926" y2="142.7455964860345" /><path d="M 175.68104954172406 140.8457921977663 a86.0,86.0 0 0,1 -30.038265399797805,32.042727171017184" fill="none" id="id29" stroke="none" /><text fill="#e1ed5e" style="font-size:6.75px; font-family:Arial;" text-anchor="middle"><textPath startOffset="22.206326154141568" xlink:href="#id29">May</textPath></text><path d="M 118.30583269289576 110.29060199501025 l 19.11844768131898 10.74741254066155 a42.93221188258266,42.93221188258266 0 0,0 -0.36767964799264685,0.6410804580849403 l -18.930616037173955 -11.074912844604805" fill="#eeff19" stroke="none" /><path d="M 117.94076556474637 110.91462005526583 l 35.35781098929554 21.51062459075833 a62.38697582862615,62.38697582862615 0 0,0 -0.5660440437873034,0.912643230932379 l -34.98230230584027 -22.11606415305598" fill="#32ff48" stroke="none" /><path d="M 117.55443506779139 111.5257021239791 l 2.2083255318753836 1.4499186202735317 a23.64177320376837,23.64177320376837 0 0,0 -0.22628204745435573,0.338260958592891 l -2.183040379010307 -1.4877164930722298" fill="#ff0f01" stroke="none" /><path d="M 117.35343817320211 111.8261652097733 l 7.827834514761195 5.334577694769842 a30.472735210699312,30.472735210699312 0 0,0 -0.2991248567915232,0.43091166599421116 l -7.734848750807536 -5.468530622951072" fill="#ff6f0a" stroke="none" /><path d="M 117.14729908036423 112.12312394758627 l 12.813963036838533 9.059459535132966 a36.693038449522,36.693038449522 0 0,0 -0.369062438079906,0.512595447379966 l -12.656120806383024 -9.278688587964064" fill="#ffc212" stroke="none" /><path d="M 116.498646956653 112.99209946851258 l 7.841825105942469 6.175159215101597 a30.98132317501261,30.98132317501261 0 0,0 -0.3335391538433425,0.41614137840896037 l -7.734368040044272 -6.309228427088808" fill="#ff760a" stroke="none" /><path d="M 116.27256486870786 113.27417163493432 l 8.520874099249692 6.950812375657672 a31.996321571182797,31.996321571182797 0 0,0 -0.3518132685466006,0.4237817456567777 l -8.399964830809548 -7.09645537842822" fill="#ff840c" stroke="none" /><path d="M 115.56566222782051 114.09645910891815 l 10.430245706414548 9.445761442366127 a35.071689121149234,35.071689121149234 0 0,0 -0.4090922013277555,0.44398878785024765 l -10.26610709709107 -9.62390148501771" fill="#ffad10" stroke="none" /><path d="M 115.32070863581623 114.36230785411682 l 5.171029027760935 4.847550631284504 a28.08789731364761,28.08789731364761 0 0,0 -0.3337022078712124,0.3498854308291205 l -5.086820268510758 -4.935843178696132" fill="#ff4e07" stroke="none" /><path d="M 115.07121518719521 114.62390073753431 l 6.277087747584389 6.090783457159992 a29.746397756384503,29.746397756384503 0 0,0 -0.3597322181457537,0.3644068377458163 l -6.1713149043831 -6.197930788886473" fill="#ff6509" stroke="none" /><line stroke="#e1ed5e" stroke-width="0.3" x1="143.8653032363475" x2="146.44561519142675" y1="172.8068346515853" y2="177.08958963109032" /><path d="M 144.38136562736335 173.6633856474863 a86.0,86.0 0 0,1 -40.68145358897372,12.25698825130547" fill="none" id="id30" stroke="none" /><text fill="#e1ed5e" style="font-size:6.75px; font-family:Arial;" text-anchor="middle"><textPath startOffset="21.466115282336833" xlink:href="#id30">June</textPath></text><line stroke="#e1ed5e" stroke-width="0.3" x1="102.19456741930631" x2="102.32365962044197" y1="184.97166512339345" y2="189.96999836594603" /><path d="M 102.22038585953345 185.97133177190398 a86.0,86.0 0 0,1 -42.740103519485714,-10.115201625700543" fill="none" id="id31" stroke="none" /><text fill="#e1ed5e" style="font-size:6.75px; font-family:Arial;" text-anchor="middle"><textPath startOffset="22.20632615414155" xlink:href="#id31">July</textPath></text><line stroke="#e1ed5e" stroke-width="0.3" x1="58.666819895761336" x2="56.23545636021788" y1="174.27360380694188" y2="178.64263932499728" /><path d="M 58.180547188652646 175.14741091055294 a86.0,86.0 0 0,1 -31.652253787137756,-30.449443065178592" fill="none" id="id32" stroke="none" /><text fill="#e1ed5e" style="font-size:6.75px; font-family:Arial;" text-anchor="middle"><textPath startOffset="22.20632615414155" xlink:href="#id32">August</textPath></text><line stroke="#e1ed5e" stroke-width="0.3" x1="26.63291911575756" x2="22.317208475507996" y1="142.92168965132927" y2="145.44649492493687" /><path d="M 25.769776987707644 143.4266507060508 a86.0,86.0 0 0,1 -11.730757126820373,-40.83630448921669" fill="none" id="id33" stroke="none" /><text fill="#e1ed5e" style="font-size:6.75px; font-family:Arial;" text-anchor="middle"><textPath startOffset="21.46611528233685" xlink:href="#id33">September</textPath></text><line stroke="#e1ed5e" stroke-width="0.3" x1="15.007084014347285" x2="10.007500721073583" y1="101.09737516637583" y2="101.16192664675087" /><path d="M 14.007167355692545 101.11028546245083 a86.0,86.0 0 0,1 10.666146001902534,-42.60595125391555" fill="none" id="id34" stroke="none" /><text fill="#e1ed5e" style="font-size:6.75px; font-family:Arial;" text-anchor="middle"><textPath startOffset="22.20632615414155" xlink:href="#id34">October</textPath></text><line stroke="#e1ed5e" stroke-width="0.3" x1="26.266209847984243" x2="21.928928074336255" y1="57.711370442889674" y2="55.22380399835377" /><path d="M 25.398753493254645 57.213857153982495 a86.0,86.0 0 0,1 29.58750427330803,-30.492523968695096" fill="none" id="id35" stroke="none" /><text fill="#e1ed5e" style="font-size:6.75px; font-family:Arial;" text-anchor="middle"><textPath startOffset="21.46611528233685" xlink:href="#id35">November</textPath></text><line stroke="#e1ed5e" stroke-width="0.3" x1="56.762969772571076" x2="54.21961505331055" y1="26.818313649435495" y2="22.513508569990535" /><path d="M 56.25429882871897 25.957352633546506 a86.0,86.0 0 0,1 42.265352541879196,-11.944610805530505" fill="none" id="id36" stroke="none" /><text fill="#e1ed5e" style="font-size:6.75px; font-family:Arial;" text-anchor="middle"><textPath startOffset="22.20632615414155" xlink:href="#id36">December</textPath></text></svg>