<?xml version="1.0" encoding="utf-8" ?>
<svg baseProfile="full" height="200mm" version="1.1" viewBox="0,0,200,200" width="200mm" xmlns="http://www.w3.org/2000/svg" xmlns:ev="http://www.w3.org/2001/xml-events" xmlns:xlink="http://www.w3.org/1999/xlink"><defs /><rect fill="#1a1a1a" height="200" width="200" x="0" y="0" /><text alignment-baseline="middle" fill="#e1ed5e" style="dominant-baseline: central; font-size:9.0px; font-family:Arial;" text-anchor="middle" x="100.0" y="100.0">2021</text><line stroke="#e1ed5e" stroke-width="0.3" x1="100.0" x2="100.0" y1="15.0" y2="10.0" /><path d="M 100.0 14.0 a86.0,86.0 0 0,1 42.46469731375804,11.215312516191453" fill="none" id="id13" stroke="none" /><text fill="#e1ed5e" style="font-size:6.75px; font-family:Arial;" text-anchor="middle"><textPath startOffset="22.20632615414155" xlink:href="#id13">January</textPath></text><line stroke="#e1ed5e" stroke-width="0.3" x1="143.23703022742887" x2="145.7803849466894" y1="26.81831364943548" y2="22.513508569990506" /><path d="M 143.74570117128098 25.957352633546492 a86.0,86.0 0 0,1 28.547481713284135,27.462654790039103" fill="none" id="id14" stroke="none" /><text fill="#e1ed5e" style="font-size:6.75px; font-family:Arial;" text-anchor="middle"><textPath startOffset="19.985693538727396" xlink:href="#id14">February</textPath></text><path d="M 116.82858285166822 87.43820079747576 l 8.687993186860773 -6.485205964649903 a31.841546108321907,31.841546108321907 0 0,0 0.32408232755807764,0.4420479305781728 l -8.798338126932478 6.334695590400236" fill="#ff0000" stroke="none" /><path d="M 117.65298651832404 88.62581576622439 l 20.857790276892857 -13.439105562822146 a45.81243586517703,45.81243586517703 0 0,0 0.4214142075192494,0.6665760734546146 l -21.08603208065806 13.078081841653326" fill="#ffe115" stroke="none" /><line stroke="#e1ed5e" stroke-width="0.3" x1="172.23445277983987" x2="176.4835382374775" y1="55.19839476539836" y2="52.563006222186495" /><path d="M 173.08426987136738 54.67131705675599 a86.0,86.0 0 0,1 12.851231095245387,41.99856678651699" fill="none" id="id15" stroke="none" /><text fill="#e1ed5e" style="font-size:6.75px; font-family:Arial;" text-anchor="middle"><textPath startOffset="22.20632615414155" xlink:href="#id15">March</textPath></text><path d="M 118.03404312379186 89.2402003453031 l 25.041372248433785 -14.94064013390146 a50.15978483623253,50.15978483623253 0 0,0 0.4360087358335346,0.7452802638477831 l -25.294840658737645 14.507380457699782" fill="#dfff1b" stroke="none" /><path d="M 118.21658344932153 89.55222093294921 l 37.04574878063761 -21.246892959392085 a63.70618179076629,63.70618179076629 0 0,0 0.5373839669842569,0.9559461143505819 l -37.4059903889143 20.60606333510671" fill="#32ff2f" stroke="none" /><path d="M 118.56541770881063 90.18545643968196 l 21.778151441686347 -11.512944084538296 a45.634036650754794,45.634036650754794 0 0,0 0.36114030562766497,0.6976081218220697 l -21.973101180474128 11.13636324045588" fill="#ffde14" stroke="none" /><path d="M 118.89224826269711 90.83032412892265 l 32.505625925438984 -15.777161594435409 a57.1321815668733,57.1321815668733 0 0,0 0.42180364856613145,0.8884260572221044 l -32.77238776784687 15.215293121572763" fill="#81ff25" stroke="none" /><path d="M 119.196687751892 91.48605970444005 l 23.097995565236598 -10.244212841882092 a46.26779167005838,46.26779167005838 0 0,0 0.316624357050039,0.7308126702403438 l -23.27091063212932 9.845101027055145" fill="#ffe815" stroke="none" /><path d="M 119.34039704204932 91.81776055985345 l 58.02119112614798 -24.54671832043964 a84.0,84.0 0 0,0 0.5519132524552104,1.3365017181867875 l -58.435126065489385 23.54434203179955" fill="#4dd2ff" stroke="none" /><path d="M 119.47837535516314 92.15188598940014 l 40.715532862139824 -16.40486632370485 a64.89617586244403,64.89617586244403 0 0,0 0.40855681128698107,1.039732521303689 l -40.991883223308506 15.70158479750538" fill="#31ff3d" stroke="none" /><path d="M 119.61058180528143 92.48833698450437 l 23.27324239185229 -8.914613337910255 a45.92216167178036,45.92216167178036 0 0,0 0.27639764387617005,0.7406082693252553 l -23.423244624230087 8.512681931555667" fill="#ffe215" stroke="none" /><path d="M 119.7369772167798 92.82701384747503 l 23.45728711274887 -8.525053952664104 a45.95838263160832,45.95838263160832 0 0,0 0.2638162589144924,0.7458440898307604 l -23.60055645247317 8.120012236406728" fill="#ffe315" stroke="none" /><path d="M 120.08093135843002 93.85539295169968 l 24.17354067397992 -7.396913308274184 a46.279920791147376,46.279920791147376 0 0,0 0.22653823521273675,0.7637743109480937 l -24.297284806304358 6.97970961057956" fill="#ffe815" stroke="none" /><path d="M 120.18372546131832 94.20196356495316 l 24.288961815930737 -6.977318723846222 a46.27126120061831,46.27126120061831 0 0,0 0.21331762984758104,0.7674170120345035 l -24.40546621634468 6.5581904083927665" fill="#ffe815" stroke="none" /><path d="M 120.28053869075195 94.5502522615342 l 24.450419578879217 -6.570270190372164 a46.317809304079475,46.317809304079475 0 0,0 0.20027747545439234,0.7717508112497201 l -24.55989338620391 6.1484229535735935" fill="#ffe815" stroke="none" /><path d="M 120.37134235888165 94.90015583598534 l 42.63098623647047 -10.672413360598402 a64.94657431966243,64.94657431966243 0 0,0 0.26215901132049335,1.0868183509075875 l -42.80837804805178 9.937009778031408" fill="#31ff3e" stroke="none" /><path d="M 120.53481517161879 95.60439243477599 l 14.589764259907286 -3.123031671807734 a35.92027305322467,35.92027305322467 0 0,0 0.12421692952622568,0.6057258631144888 l -14.641360485348507 2.871430152529833" fill="#ff4506" stroke="none" /><path d="M 120.67395015179393 96.31383870115 l 20.230166189979435 -3.6070347046055447 a41.549217100279414,41.549217100279414 0 0,0 0.11947999409419004,0.7051776885185808 l -20.289258045593847 3.258271227771126" fill="#ffa00e" stroke="none" /><path d="M 120.73433829027371 96.67025291283417 l 24.585974134363926 -3.9482849470742396 a45.90098548569725,45.90098548569725 0 0,0 0.11856466418701479,0.7811929978412548 l -24.65029469199024 3.5244928368409028" fill="#ffe215" stroke="none" /><path d="M 120.78858239683441 97.02765380044208 l 24.707740490376843 -3.5327064224166556 a45.959015501553566,45.959015501553566 0 0,0 0.10523301641322012,0.7841082033796383 l -24.7648895058479 3.1068798769723527" fill="#ffe315" stroke="none" /><path d="M 120.94382443527127 98.46500227214037 l 25.052708267818073 -1.8361426962244733 a46.11990468838006,46.11990468838006 0 0,0 0.05121375810789092,0.7922541701831929 l -25.080602616930378 1.4046294617882453" fill="#ffe515" stroke="none" /><line stroke="#e1ed5e" stroke-width="0.3" x1="184.98032266829074" x2="189.97916517819016" y1="98.17113171792111" y2="98.06355123074" /><path d="M 185.9800911702706 98.14961562048488 a86.0,86.0 0 0,1 -9.607161424134198,41.387399972396054" fill="none" id="id16" stroke="none" /><text fill="#e1ed5e" style="font-size:6.75px; font-family:Arial;" text-anchor="middle"><textPath startOffset="21.466115282336823" xlink:href="#id16">April</textPath></text><path d="M 120.99513854157772 99.54816195383933 l 29.417883998479628 -0.6331046209450419 a50.424695757289754,50.424695757289754 0 0,0 0.011206271247172862,0.8679380578377459 l -29.424423276844518 0.12663030504683329" fill="#dbff1b" stroke="none" /><path d="M 120.99980553446 99.90962569577887 l 43.537406123726974 -0.18736662963701925 a64.53780929532675,64.53780929532675 0 0,0 -0.004781030707156069,1.110943159893274 l -43.534180795730315 -0.5620860084599395" fill="#30ff38" stroke="none" /><path d="M 120.9904718944345 100.63252640178507 l 62.34166791779953 1.8786024005387347 a83.36996637607324,83.36996637607324 0 0,0 -0.055571510168187135,1.4340537509864244 l -62.30009427478014 -2.9514333985391654" fill="#4cd9ff" stroke="none" /><path d="M 120.95626037817324 101.35467743843564 l 29.10177166717891 1.8812284627410893 a50.16251248945544,50.16251248945544 0 0,0 -0.06311743838164545,0.8611872996792836 l -29.065077670132926 -2.3818888989171434" fill="#dfff1b" stroke="none" /><path d="M 120.92983693683757 101.71520430193887 l 28.907897997107916 2.3690079934345336 a50.00480590323184,50.00480590323184 0 0,0 -0.07768699907997263,0.8572695612942748 l -28.86283640175087 -2.8662589432773786" fill="#e1ff1b" stroke="none" /><path d="M 120.89721153311464 102.0752229133903 l 29.834716436575743 2.962772667806564 a50.9814663872864,50.9814663872864 0 0,0 -0.09423729482171149,0.872520311204648 l -29.77929684025298 -3.4758893008960032" fill="#d3ff1c" stroke="none" /><path d="M 120.70491114924044 103.5080841355445 l 29.58817136686071 5.013196812277259 a51.00986549642205,51.00986549642205 0 0,0 -0.15413130674035452,0.8644502217998657 l -29.497493617781164 -5.521765784810344" fill="#d3ff1c" stroke="none" /><path d="M 120.64145759157962 103.86396538481128 l 47.347942674174845 8.863269985820795 a69.17037710376056,69.17037710376056 0 0,0 -0.22915179862891477,1.1684400843377514 l -47.18836094257027 -9.676973797226491" fill="#37ff79" stroke="none" /><path d="M 120.5718875245553 104.21870165774334 l 29.222557003448383 5.992704827245152 a50.830694744948154,50.830694744948154 0 0,0 -0.18315016096099532,0.8556165781816348 l -29.115072803762942 -6.494835224842957" fill="#d5ff1c" stroke="none" /><path d="M 120.23288151984713 105.62410040840565 l 37.40410670964137 10.39715730136556 a59.822262668417174,59.822262668417174 0 0,0 -0.2843191567829454,0.9897522839306127 l -37.21959491597232 -11.039467060800755" fill="#60ff29" stroke="none" /><path d="M 119.9155931802556 106.66101706037122 l 28.026667440088147 9.37386641081116 a50.55272338186501,50.55272338186501 0 0,0 -0.28311732335704054,0.8228714659570113 l -27.861159285787874 -9.854910579857473" fill="#d9ff1c" stroke="none" /><path d="M 119.79798401119884 107.00284435728193 l 28.713512377033727 10.156400672589465 a51.456826289819574,51.456826289819574 0 0,0 -0.3025556977362452,0.8325033376685251 l -28.534432418292255 -10.64915180726412" fill="#cdff1d" stroke="none" /><path d="M 119.26925614724726 108.34839909993367 l 27.281707567989386 11.819791130743411 a50.73212118567543,50.73212118567543 0 0,0 -0.35405926905972385,0.7983101828124289 l -27.07420721419839 -12.287649650048527" fill="#d7ff1c" stroke="none" /><path d="M 119.12269723197855 108.67885076344098 l 27.057347532355095 12.279997870549956 a50.71360636454878,50.71360636454878 0 0,0 -0.36761419810844786,0.7918082782312439 l -26.841958717406815 -12.74392621606003" fill="#d7ff1c" stroke="none" /><line stroke="#e1ed5e" stroke-width="0.3" x1="174.80103733775053" x2="179.2010983576182" y1="140.37084112569926" y2="142.7455964860345" /><path d="M 175.68104954172406 140.8457921977663 a86.0,86.0 0 0,1 -30.038265399797805,32.042727171017184" fill="none" id="id17" stroke="none" /><text fill="#e1ed5e" style="font-size:6.75px; font-family:Arial;" text-anchor="middle"><textPath startOffset="22.206326154141568" xlink:href="#id17">May</textPath></text><path d="M 118.12598468904814 110.60418214915192 l 33.63483559107851 19.677271568042176 a59.96789937373277,59.96789937373277 0 0,0 -0.5289143718199816,0.8864909102681148 l -33.29114034356031 -20.253324572196394" fill="#5eff2a" stroke="none" /><path d="M 117.55443506779139 111.5257021239791 l 26.572946449040533 17.446979304394272 a52.788654734535996,52.788654734535996 0 0,0 -0.5052550319613034,0.755287718879187 l -26.26868831166851 -17.90180393747927" fill="#baff1f" stroke="none" /><path d="M 117.35343817320211 111.8261652097733 l 11.082869508369928 7.552845983382248 a34.411766438029304,34.411766438029304 0 0,0 -0.3377909674516099,0.4866130822548697 l -10.951217633756182 -7.742500327824137" fill="#ff2c04" stroke="none" /><path d="M 117.14729908036423 112.12312394758627 l 15.472815854729783 10.939265918553204 a39.94928941441333,39.94928941441333 0 0,0 -0.4018141525980722,0.5580847142997967 l -15.282221909756109 -11.20398423830413" fill="#ff870c" stroke="none" /><line stroke="#e1ed5e" stroke-width="0.3" x1="143.8653032363475" x2="146.44561519142675" y1="172.8068346515853" y2="177.08958963109032" /><path d="M 144.38136562736335 173.6633856474863 a86.0,86.0 0 0,1 -40.68145358897372,12.25698825130547" fill="none" id="id18" stroke="none" /><text fill="#e1ed5e" style="font-size:6.75px; font-family:Arial;" text-anchor="middle"><textPath startOffset="21.466115282336833" xlink:href="#id18">June</textPath></text><path d="M 110.21172684928248 118.3499491758327 l 14.43740885364341 25.943282914357244 a50.68994278845349,50.68994278845349 0 0,0 -0.7660872147018304,0.41773183149068016 l -13.98869882707293 -26.187955397607695" fill="#d7ff1c" stroke="none" /><path d="M 109.57404056367764 118.69057910512821 l 13.419635405154155 26.19800443018661 a50.43504799607679,50.43504799607679 0 0,0 -0.7760899369411731,0.3891476057451095 l -12.966691560530222 -26.425119876841023" fill="#dbff1b" stroke="none" /><path d="M 108.92500713936063 119.00905698771935 l 12.582740617170963 26.79953413131148 a50.606424827971594,50.606424827971594 0 0,0 -0.7917061988466159,0.36343348515356344 l -12.119566422556929 -27.012154686799114" fill="#d8ff1c" stroke="none" /><path d="M 107.2578585660854 119.70592522655815 l 10.547110102702177 28.63662348165954 a51.51717116557262,51.51717116557262 0 0,0 -0.8347755066349622,0.2993207967893704 l -10.05261503543748 -28.81393181948887" fill="#ccff1d" stroke="none" /><path d="M 106.91757812671514 119.82793768551818 l 16.540372488736693 47.409869320502395 a71.21234540482322,71.21234540482322 0 0,0 -1.1608638676475986,0.3938280519664449 l -15.721838888151867 -47.68756035936696" fill="#3aff94" stroke="none" /><line stroke="#e1ed5e" stroke-width="0.3" x1="102.19456741930631" x2="102.32365962044197" y1="184.97166512339345" y2="189.96999836594603" /><path d="M 102.22038585953345 185.97133177190398 a86.0,86.0 0 0,1 -42.740103519485714,-10.115201625700543" fill="none" id="id19" stroke="none" /><text fill="#e1ed5e" style="font-size:6.75px; font-family:Arial;" text-anchor="middle"><textPath startOffset="22.20632615414155" xlink:href="#id19">July</textPath></text><line stroke="#e1ed5e" stroke-width="0.3" x1="58.666819895761336" x2="56.23545636021788" y1="174.27360380694188" y2="178.64263932499728" /><path d="M 58.180547188652646 175.14741091055294 a86.0,86.0 0 0,1 -31.652253787137756,-30.449443065178592" fill="none" id="id20" stroke="none" /><text fill="#e1ed5e" style="font-size:6.75px; font-family:Arial;" text-anchor="middle"><textPath startOffset="22.20632615414155" xlink:href="#id20">August</textPath></text><path d="M 87.36589467227662 116.77436683061367 l -8.729550666612457 11.590269461096234 a35.509975913893655,35.509975913893655 0 0,0 -0.4850853305516349,-0.3719427463673524 l 8.927764725657578 -11.438287372901515" fill="#ff3f05" stroke="none" /><line stroke="#e1ed5e" stroke-width="0.3" x1="26.63291911575756" x2="22.317208475507996" y1="142.92168965132927" y2="145.44649492493687" /><path d="M 25.769776987707644 143.4266507060508 a86.0,86.0 0 0,1 -11.730757126820373,-40.83630448921669" fill="none" id="id21" stroke="none" /><text fill="#e1ed5e" style="font-size:6.75px; font-family:Arial;" text-anchor="middle"><textPath startOffset="21.46611528233685" xlink:href="#id21">September</textPath></text><line stroke="#e1ed5e" stroke-width="0.3" x1="15.007084014347285" x2="10.007500721073583" y1="101.09737516637583" y2="101.16192664675087" /><path d="M 14.007167355692545 101.11028546245083 a86.0,86.0 0 0,1 10.666146001902534,-42.60595125391555" fill="none" id="id22" stroke="none" /><text fill="#e1ed5e" style="font-size:6.75px; font-family:Arial;" text-anchor="middle"><textPath startOffset="22.20632615414155" xlink:href="#id22">October</textPath></text><path d="M 79.00175016825051 100.2711162175752 l -41.77621829220838 0.5393883003932209 a62.77970026863341,62.77970026863341 0 0,0 -0.004650788089147686,-1.0806793623011977 l 41.77931337758703 0.17980054011165214" fill="#3cff2e" stroke="none" /><line stroke="#e1ed5e" stroke-width="0.3" x1="26.266209847984243" x2="21.928928074336255" y1="57.711370442889674" y2="55.22380399835377" /><path d="M 25.398753493254645 57.213857153982495 a86.0,86.0 0 0,1 29.58750427330803,-30.492523968695096" fill="none" id="id23" stroke="none" /><text fill="#e1ed5e" style="font-size:6.75px; font-family:Arial;" text-anchor="middle"><textPath startOffset="21.46611528233685" xlink:href="#id23">November</textPath></text><line stroke="#e1ed5e" stroke-width="0.3" x1="56.762969772571076" x2="54.21961505331055" y1="26.818313649435495" y2="22.513508569990535" /><path d="M 56.25429882871897 25.957352633546506 a86.0,86.0 0 0,1 42.265352541879196,-11.944610805530505" fill="none" id="id24" stroke="none" /><text fill="#e1ed5e" style="font-size:6.75px; font-family:Arial;" text-anchor="middle"><textPath startOffset="22.20632615414155" xlink:href="#id24">December</textPath></text><path d="M 92.91201910852362 80.23233633223022 l -5.093488511832884 -14.205225626192307 a36.09079389267524,36.09079389267524 0 0,0 0.5865922592006159,-0.20465052119416133 l 4.848214248568984 14.290797000558678" fill="#ff4806" stroke="none" /><path d="M 93.59665428221793 80.00007090966166 l -4.715109945437592 -14.726967544486138 a36.46337074682983,36.46337074682983 0 0,0 0.5994137591465417,-0.18624077276349726 l 4.460910813580322 14.80594845213216" fill="#ff4e07" stroke="none" /></svg>